<svg width="32" height="33" viewBox="0 0 32 33" fill="none" xmlns="http://www.w3.org/2000/svg">
<g clip-path="url(#clip0_2_3217)">
<path fill-rule="evenodd" clip-rule="evenodd" d="M15.9494 0.679688C18.834 0.712604 21.4399 1.42155 23.7672 2.80652C26.0667 4.16384 27.9796 6.08841 29.3229 8.39618C30.6994 10.7375 31.4041 13.3592 31.4369 16.2614C31.3552 20.2322 30.1027 23.6237 27.6796 26.4358C25.2565 29.2479 22.1531 30.9877 18.9404 31.6546V20.5216H21.9777L22.6646 16.1466H18.0654V13.2811C18.0399 12.6871 18.2277 12.1035 18.595 11.6359C18.9628 11.1671 19.6105 10.9206 20.5381 10.8966H23.3154V7.06423C23.2756 7.05141 22.8974 7.00071 22.181 6.91213C21.3686 6.81707 20.5515 6.76629 19.7335 6.76003C17.8822 6.76857 16.418 7.29081 15.341 8.32674C14.2639 9.36238 13.7137 10.8607 13.6904 12.8218V16.1466H10.1904V20.5216H13.6904V31.6546C9.74574 30.9877 6.6423 29.2479 4.21918 26.4358C1.79605 23.6237 0.543677 20.2322 0.461914 16.2614C0.494627 13.3591 1.19928 10.7374 2.57589 8.39618C3.91919 6.08841 5.83207 4.16384 8.13162 2.80652C10.4588 1.42181 13.0648 0.712871 15.9494 0.679688Z" fill="white"/>
</g>
<defs>
<clipPath id="clip0_2_3217">
<rect width="32" height="32" fill="white" transform="translate(0 0.195312)"/>
</clipPath>
</defs>
</svg>
