<svg width="450" height="182" viewBox="0 0 450 182" fill="none" xmlns="http://www.w3.org/2000/svg">
<path d="M50.9489 171.917C50.7615 171.959 50.4665 171.959 50.0639 171.917C49.0434 171.751 48.0334 171.779 47.0338 172.001L46.5964 171.803C46.2286 172.213 45.7635 172.48 45.2012 172.605C44.2016 172.827 43.0285 172.859 41.6818 172.699C40.4114 172.588 39.4465 172.671 38.7871 172.949L38.4538 172.335C38.2178 172.453 37.8811 172.561 37.4438 172.658C36.819 172.797 36.2116 172.866 35.6216 172.866C35.0315 172.866 34.4172 172.905 33.7786 172.981L33.4141 172.669C32.5533 172.926 31.4912 172.867 30.2278 172.492C28.9644 172.117 27.7808 171.954 26.677 172.003L26.3646 171.482C25.5593 171.399 24.6534 171.305 23.6469 171.201C22.7167 171.146 21.8454 170.914 21.0332 170.504L20.9707 170.223C20.8457 169.661 20.3945 169.4 19.617 169.442C19.7211 169.026 19.492 168.88 18.9297 169.005C18.4298 167.936 17.9646 167.318 17.5342 167.152C17.0899 166.923 16.7012 166.648 16.3679 166.329C16.0347 166.01 15.7083 165.132 15.3889 163.695L15.9511 163.57L15.3887 161.925C15.8676 161.425 16.1869 160.796 16.3465 160.04C16.4921 159.221 16.6448 158.433 16.8044 157.676C17.0264 156.906 17.4984 156.374 18.2203 156.083C18.3869 156.242 18.5015 156.315 18.564 156.301C18.8139 156.246 18.9561 155.854 18.9908 155.125C19.0115 154.333 19.0253 153.806 19.0323 153.542L19.9485 153.24L20.2607 151.105L20.9167 150.96C21.2637 150.161 21.6801 149.38 22.166 148.617C22.7004 147.777 23.0335 146.916 23.1653 146.034L23.509 146.253C23.4881 145.864 23.5679 145.486 23.7483 145.118C23.9149 144.687 24.2238 144.455 24.675 144.42L24.4666 143.483L25.6119 142.441C25.7854 141.747 25.9138 141.293 25.9971 141.077C26.1428 140.848 26.2782 140.72 26.4031 140.692C26.5281 140.664 26.66 140.668 26.7988 140.702C26.9376 140.737 27.1042 140.602 27.2986 140.296L27.3713 139.297L29.2037 136.922L30.0888 136.922C30.408 135.999 30.8245 135.218 31.3381 134.579C31.9142 133.927 32.5285 133.298 33.1809 132.694C32.4937 132.257 31.855 132.039 31.2649 132.039C30.7235 131.962 30.1994 131.817 29.6926 131.601C29.1858 131.386 28.6478 130.883 28.0785 130.092L26.9539 130.342L25.9542 129.384L25.4336 129.696L22.8094 127.625C22.6637 127.854 22.4762 127.895 22.2471 127.75C22.018 127.604 21.9833 127.448 22.143 127.281L21.0808 126.927L21.1953 126.115L20.3414 125.813L20.2269 125.74C20.0811 125.969 19.5674 125.723 18.6857 125.001C17.8526 124.203 17.023 123.273 16.1968 122.211C15.3567 121.086 14.836 120.218 14.6346 119.608L14.6034 119.91L14.6243 120.003C14.5479 119.955 14.4819 119.805 14.4264 119.556C14.3708 119.306 14.3465 119.049 14.3534 118.785C14.3464 118.459 14.3291 118.233 14.3013 118.108C14.0028 118.24 13.8813 118.136 13.9368 117.796C13.9784 117.393 13.8708 117.352 13.614 117.671L12.9056 114.485C13.0445 114.519 13.2076 114.516 13.395 114.474C13.8323 114.377 13.7698 114.096 13.2075 113.631L13.7488 112.527C13.7627 112.59 13.7419 112.496 13.6863 112.246C13.6308 111.996 13.4052 112.013 13.0095 112.298L13.7277 109.778C13.7902 109.764 13.8284 109.789 13.8423 109.851C13.8423 109.851 13.8735 109.844 13.936 109.83C14.1234 109.789 14.2449 109.598 14.3004 109.257C14.4184 108.903 14.394 108.647 14.2274 108.487L14.8208 107.175L14.9145 107.154C15.1644 107.098 15.4317 106.974 15.7163 106.779C16.0494 106.508 16.039 106.314 15.685 106.196L17.2155 104.676L17.4757 103.634L17.5694 103.613L17.6736 104.082L18.3087 103.842C18.2948 103.78 18.2497 103.724 18.1733 103.676L18.267 103.655L18.1941 102.885L19.3498 102.333C19.9606 100.951 21.0642 99.7223 22.6607 98.6461L23.452 98.6669C23.4451 98.3406 23.5526 98.0872 23.7747 97.9067C24.0593 97.7123 24.3266 97.5873 24.5765 97.5318C25.0138 97.4345 25.3331 97.3963 25.5344 97.4171L26.8879 95.5427L28.9496 95.0843L28.8037 94.4284L30.074 93.9492L31.4173 94.2407L30.9486 93.4598C31.7538 92.9529 32.559 92.4461 33.3642 91.9393C34.1555 91.37 34.9815 90.9568 35.8423 90.6999L36.4671 90.856L38.3204 89.4605C38.5356 89.5438 38.8931 89.5299 39.3929 89.4188C39.7677 89.3355 40.1287 89.1896 40.4757 88.9813C40.8228 88.7731 41.1074 88.5787 41.3295 88.3981L42.1626 88.6063L42.0376 88.044L45.9109 86.8878C45.8485 86.9017 45.8311 86.9712 45.8589 87.0961C45.8867 87.2211 46.0776 87.3425 46.4316 87.4605C46.7718 87.516 46.9662 87.5056 47.0147 87.4292L46.7856 86.3984C48.2225 86.0789 49.5761 85.9746 50.8465 86.0856L50.534 85.565L51.6586 85.315L53.408 86.1061C53.4427 85.9673 53.401 85.7799 53.283 85.5439C53.1511 85.2454 53.0053 85.1794 52.8456 85.3461L55.0322 84.5649L55.053 84.6586C55.1086 84.9085 55.3065 85.0612 55.6466 85.1167C55.9868 85.1722 56.2124 85.1548 56.3234 85.0646C56.4275 84.6481 56.6982 84.3912 57.1355 84.2939C57.4479 84.2245 57.7881 84.28 58.156 84.4604C58.5725 84.5645 58.9265 84.6825 59.2181 84.8144L60.2593 84.1895L61.8318 85.5118L62.1235 86.8237C62.2553 86.5321 62.3837 86.3725 62.5087 86.3447C62.6961 86.303 62.8106 86.3759 62.8523 86.5633C62.9079 86.8132 62.7066 87.0874 62.2485 87.386L62.7588 88.3543L63.1336 88.271C63.5085 88.1876 63.748 88.2327 63.8521 88.4063C63.984 88.7048 64.1299 89.0657 64.2896 89.4891C64.4979 89.8362 64.6437 90.1972 64.727 90.572C64.8242 91.0093 64.7896 91.4432 64.623 91.8736C64.505 92.2276 64.1163 92.5435 63.4569 92.8213L63.5819 93.3835L62.3533 94.0501L62.2283 93.4878L61.9055 93.3629L59.4067 96.2787L58.8652 95.6123L58.605 96.6536C58.4939 96.7439 58.3447 96.8098 58.1573 96.8515C57.9074 96.9071 57.6887 96.9557 57.5013 96.9974C57.3 96.9766 57.234 97.1223 57.3035 97.4347L55.6167 97.8097L55.3877 98.5491L53.4197 98.9866C53.4058 98.9241 53.149 98.9484 52.6492 99.0596C52.198 99.0943 52.2153 99.3199 52.7013 99.7364L49.2653 101.09C49.3624 100.938 49.3971 100.799 49.3694 100.674C49.3277 100.486 49.1507 100.427 48.8383 100.497C48.3385 100.608 48.3073 100.91 48.7447 101.403C47.5715 101.729 46.1763 102.236 44.5589 102.923C42.9277 103.548 41.4561 104.007 40.1441 104.298C39.7693 104.382 39.4257 104.458 39.1133 104.528C38.8495 104.521 38.5857 104.514 38.3219 104.507C38.2039 104.861 37.8812 105.031 37.3536 105.017C36.8885 104.989 36.8156 105.104 37.135 105.361C36.8226 105.43 36.0868 105.659 34.9275 106.048C33.7683 106.437 32.3904 106.875 30.7938 107.361C29.2459 107.77 27.7222 108.142 26.2228 108.475C24.8484 108.781 23.585 108.996 22.4327 109.121C21.3428 109.232 20.6243 109.097 20.2772 108.715C20.8742 108.452 21.3531 108.247 21.7141 108.101C22.1236 107.879 22.5471 107.719 22.9844 107.622C23.4842 107.511 24.036 107.486 24.64 107.549L24.515 106.986C27.007 106.105 29.5927 105.202 32.2721 104.278C34.9516 103.355 37.5963 102.57 40.2063 101.924C40.2827 101.973 40.2029 102.056 39.9669 102.174C39.7795 102.216 39.7309 102.292 39.8211 102.403C40.0502 102.549 40.2376 102.507 40.3834 102.278C40.5153 101.987 40.4736 101.799 40.2584 101.716C41.5079 101.438 42.7296 101.036 43.9235 100.508C45.1175 99.9801 46.2801 99.4594 47.4116 98.9456L46.9014 98.8623L49.7648 98.029L49.5148 97.7895L49.8689 97.6125C50.5352 97.071 51.2155 96.5919 51.9096 96.1753C52.6523 95.6824 53.4228 95.3144 54.2211 95.0714L53.992 94.9256C55.2762 94.509 56.3035 93.8216 57.0739 92.8636C57.893 91.8292 58.8161 90.9683 59.8434 90.281L59.8018 90.0935C58.7397 90.3297 57.6394 90.5415 56.501 90.729C55.3626 90.9166 54.2207 90.941 53.0753 90.8023L51.1178 91.7292C51.0136 91.5557 50.7117 91.5245 50.2119 91.6356C49.7745 91.7328 49.2956 91.9376 48.775 92.2501C48.2405 92.5 47.8552 92.684 47.6192 92.8021L46.7862 92.5939C44.7038 93.8436 42.2257 95.083 39.3519 96.312C36.5267 97.4646 34.0348 98.6415 31.876 99.8426L31.6886 99.8843C31.5012 99.926 31.3068 99.9364 31.1055 99.9156C30.9042 99.8948 30.7341 99.867 30.5952 99.8323L28.617 101.551L27.6382 101.572C26.5692 102.071 25.8682 102.752 25.5351 103.613L24.0774 104.133C24.0635 104.661 23.7616 105.22 23.1716 105.81C22.5816 106.4 21.9153 106.942 21.1726 107.435C20.4784 107.851 19.9023 108.209 19.4442 108.507C19.3054 109.063 19.0798 109.67 18.7675 110.33C18.4552 110.989 18.0006 111.451 17.4036 111.715L17.3619 111.527C17.2995 111.541 17.3064 111.867 17.3829 112.506C17.4454 113.082 17.3135 113.374 16.9873 113.381C16.9943 114.297 17.0152 115.276 17.05 116.317C17.071 117.296 17.2238 118.278 17.5085 119.264L16.8213 119.712L18.2688 120.472L18.7791 121.44L18.4979 121.502L17.5399 120.732C17.2622 120.663 17.1512 120.753 17.2067 121.003C17.2623 121.253 17.4081 121.318 17.6441 121.2L18.9145 122.491L18.748 122.627L20.4557 123.231L20.5182 123.512L20.0496 123.616L20.3516 123.647L21.2471 124.136C21.261 124.199 21.1049 124.234 20.7786 124.241C20.5148 124.234 20.428 124.286 20.5183 124.397C20.5947 124.445 20.8723 124.515 21.3513 124.605C21.8789 124.619 22.1566 124.688 22.1844 124.813L21.7263 125.407C21.7402 125.469 21.8929 125.566 22.1844 125.698C22.4621 125.768 22.5385 125.816 22.4135 125.844C22.476 125.83 22.8474 125.879 23.5277 125.99C24.208 126.101 24.4128 126.285 24.1421 126.541C25.2806 126.944 26.3948 127.385 27.4847 127.864C28.5746 128.342 29.5361 128.981 30.3692 129.779C31.2369 129.849 32.1116 129.949 32.9932 130.081C33.9373 130.199 34.8398 130.424 35.7006 130.757C35.8116 130.077 36.3357 129.633 37.2728 129.424C37.6476 129.341 38.0364 129.32 38.439 129.362C38.4667 128.897 38.8623 128.317 39.6259 127.623C40.3894 126.929 41.2917 126.269 42.3329 125.644C43.4227 124.943 44.4084 124.363 45.29 123.905C46.1576 123.384 46.6921 123.134 46.8934 123.155L46.9559 122.551C47.8791 122.28 48.6253 121.95 49.1945 121.562C49.8261 121.159 50.3919 120.902 50.8917 120.791C51.2665 120.708 51.6518 120.819 52.0475 121.124C52.4918 121.353 53.0055 121.894 53.5887 122.748C53.3735 122.665 53.325 122.741 53.443 122.977C53.6235 123.199 53.6929 123.217 53.6512 123.029L54.7656 124.945L54.5991 125.966C52.5584 127.993 50.4136 129.552 48.1645 130.642C45.9016 131.669 43.3714 132.527 40.574 133.214L40.449 132.652C40.1574 132.52 39.9075 132.576 39.6993 132.819C39.5535 133.048 39.7062 133.145 40.1575 133.11C39.5744 134.027 38.7068 134.547 37.5545 134.672L37.6795 135.235L36.5549 135.485L35.3889 137.317C35.2709 137.081 35.1181 136.984 34.9307 137.026C34.7433 137.068 34.5524 137.241 34.3581 137.547C34.2262 137.838 34.1117 138.06 34.0145 138.213C33.2094 139.31 32.0606 140.483 30.5683 141.733C29.1245 142.906 27.8751 144.069 26.8201 145.222L27.0075 145.18L26.8826 145.503L24.6753 147.96L24.9565 147.898L24.7587 148.335L23.6342 149.47L23.3843 149.231L23.5093 149.793L22.9368 151.199C22.6244 151.268 22.378 151.487 22.1975 151.855C22.0796 152.209 22.0032 152.455 21.9685 152.594L22.6662 152.636C21.8193 152.955 21.4931 153.552 21.6876 154.427L21.396 154L21.0837 155.25L21.7918 155.78L21.2504 155.999L21.615 157.197L21.0527 157.322L21.3027 158.446L21.8546 158.717L21.6153 160.737C21.6917 160.786 21.8305 160.82 22.0318 160.841C22.2193 160.799 22.3442 160.772 22.4067 160.758L23.4794 162.486C23.403 162.437 23.3024 162.427 23.1774 162.455C23.0525 162.483 22.9483 162.604 22.8651 162.819C22.8304 162.958 22.8581 163.083 22.9484 163.194C23.6981 163.028 24.4305 163.225 25.1455 163.787C25.8467 164.287 26.4472 164.777 26.9471 165.255C26.9193 165.131 26.9679 165.054 27.0928 165.026C27.2178 164.999 27.3636 165.065 27.5302 165.224C27.7593 165.37 27.8252 165.519 27.7281 165.672C28.7208 166.304 29.7135 166.345 30.7061 165.797L30.8728 166.546L32.1431 166.067L32.3618 166.609L38.3595 167.045C38.2624 167.198 38.3075 167.254 38.4949 167.212C38.7934 167.08 39.0849 166.917 39.3695 166.722C39.6541 166.528 39.9873 166.552 40.3692 166.795L41.452 166.358L42.1393 166.795L44.3467 166.108L45.0757 166.732C45.5963 166.42 46.2002 166.187 46.8874 166.034C48.3243 165.715 49.6606 165.68 50.8963 165.93L50.7504 165.274C52.0138 165.059 53.0585 164.892 53.8846 164.774C54.787 164.704 55.4569 164.621 55.8942 164.524C56.394 164.413 56.5849 164.239 56.4668 164.003C57.7163 163.725 58.9485 163.222 60.1632 162.493C61.4543 161.812 62.6933 161.34 63.8804 161.076C64.8175 160.868 65.6331 160.85 66.3273 161.024C66.1885 160.989 66.0393 161.055 65.8796 161.222C65.7339 161.451 65.7998 161.6 66.0775 161.67C66.14 161.656 66.1712 161.649 66.1712 161.649C66.2476 161.697 66.317 161.715 66.3795 161.701C66.6918 161.631 66.9382 161.413 67.1187 161.045C67.3755 160.725 67.6601 160.531 67.9725 160.461C67.9377 160.01 68.1806 159.628 68.7012 159.316C69.2843 158.99 69.7841 158.879 70.2006 158.983L70.409 159.92L69.0139 161.607L68.7848 161.461C67.695 162.752 66.6886 163.828 65.7654 164.689C64.9047 165.536 63.6726 166.335 62.0692 167.085L62.215 167.741C60.9308 168.157 59.4349 168.654 57.7273 169.23C56.0961 169.855 54.6974 170.494 53.5312 171.146C53.073 170.855 52.7502 170.73 52.5628 170.772C52.3129 170.827 52.0908 171.008 51.8964 171.313C51.7021 171.619 51.3863 171.82 50.9489 171.917ZM17.5277 103.426C17.5138 103.364 17.5902 103.412 17.7568 103.572C17.9581 103.593 18.097 103.627 18.1733 103.676C18.1109 103.69 17.972 103.655 17.7568 103.572C17.6041 103.475 17.5277 103.426 17.5277 103.426ZM38.4532 167.024L38.3595 167.045C38.4081 166.969 38.4394 166.962 38.4532 167.024ZM115.651 159.794C115.345 159.6 115.13 159.516 115.005 159.544C114.957 159.62 114.832 159.353 114.63 158.742C115.047 158.256 115.237 157.493 115.203 156.452C115.244 155.459 115.234 154.674 115.171 154.098C115.282 154.008 115.393 153.918 115.504 153.827C115.678 153.723 115.789 153.633 115.838 153.557L115.515 153.432C115.584 153.154 115.539 152.804 115.379 152.38C115.282 151.943 115.23 151.561 115.223 151.235L115.692 151.131C115.636 150.881 115.535 150.28 115.389 149.329C115.32 148.427 115.219 147.531 115.087 146.643C114.969 145.817 114.872 145.379 114.795 145.331C114.497 146.053 113.713 146.653 112.442 147.132C111.172 147.612 110.124 147.91 109.298 148.028L109.1 147.581C109.017 147.796 108.975 147.903 108.975 147.903C109.024 147.827 108.937 147.879 108.715 148.06C108.541 147.574 108.079 147.119 107.33 146.696C106.629 146.196 106.021 145.97 105.507 146.019C105.396 145.519 105.237 145.096 105.028 144.749C104.869 144.325 104.74 143.895 104.643 143.458L105.393 143.291L105.538 143.062C105.448 142.951 105.351 142.808 105.247 142.635C105.205 142.448 105.17 142.291 105.143 142.166L104.393 142.333C104.323 142.021 104.24 141.646 104.143 141.209C104.108 140.757 104.025 140.382 103.893 140.084C104.053 139.917 104.212 139.751 104.372 139.584C104.518 139.355 104.632 139.133 104.715 138.918C104.021 138.744 103.58 138.383 103.393 137.835C103.587 137.529 103.719 137.238 103.788 136.96C103.858 136.683 103.927 136.405 103.997 136.127C103.379 135.412 102.979 134.649 102.799 133.836C102.632 133.087 102.566 132.347 102.601 131.619C102.684 130.813 102.573 130.019 102.267 129.234L102.736 129.13C102.653 128.755 102.535 128.519 102.382 128.422C102.292 128.311 102.156 128.144 101.976 127.922C101.976 127.922 101.938 127.898 101.861 127.849C101.847 127.787 101.833 127.724 101.819 127.662C101.75 127.349 101.691 126.936 101.642 126.423C101.656 125.895 101.635 125.506 101.58 125.257L101.903 125.381L101.757 124.726C101.715 124.538 101.642 124.358 101.538 124.184C101.482 123.934 101.371 123.729 101.205 123.57C101.364 124.583 101.285 125.552 100.966 126.475C100.709 127.384 100.553 128.304 100.497 129.234C100.435 131.018 100.286 132.854 100.05 134.743C99.8003 136.568 99.4048 138.328 98.8635 140.022C98.7872 139.973 98.6935 139.994 98.5824 140.085C98.7976 140.168 98.8567 140.581 98.7595 141.324C98.6624 142.066 98.5341 142.816 98.3745 143.573C98.2149 144.329 98.1317 144.84 98.1248 145.103L97.6666 144.812C97.736 145.124 97.7742 145.444 97.7812 145.77C97.8507 146.082 97.7952 146.422 97.6147 146.79L97.4377 146.436C97.528 147.137 97.1983 147.571 96.4486 147.738C96.0113 147.835 95.4212 147.835 94.6784 147.738C93.9981 147.627 93.4948 147.575 93.1686 147.582C92.7659 146.951 92.2521 146.409 91.6273 145.958C91.065 145.493 90.5513 144.952 90.0861 144.334L90.6484 144.209C90.5789 143.896 90.4331 143.535 90.2109 143.126C89.9888 142.716 89.7805 142.369 89.5861 142.085C89.6901 141.668 89.7422 141.165 89.7421 140.575C89.7906 139.908 89.7038 139.37 89.4816 138.961L89.1068 139.044L88.6275 136.004C88.5997 135.879 88.683 135.664 88.8773 135.358C89.1341 135.039 89.266 134.747 89.2729 134.483L89.2312 134.296C89.1618 133.984 88.9674 133.699 88.648 133.442C88.3773 133.109 88.2072 132.786 88.1377 132.474C88.0683 132.162 88.1134 131.922 88.273 131.755C88.4327 131.589 88.5923 131.422 88.7519 131.256L87.7937 128.715C87.8214 128.25 87.8318 127.854 87.8248 127.528C87.804 127.139 87.7449 126.726 87.6477 126.289L87.2729 126.372L87.3562 126.747C87.4256 127.059 87.4396 127.417 87.398 127.82C87.4049 128.146 87.4119 128.472 87.4189 128.798L87.0024 128.694L87.044 128.882C87.3773 129.201 87.4571 129.708 87.2837 130.402C87.1727 131.082 86.9992 131.776 86.7633 132.484C86.5273 133.193 86.3573 133.755 86.2532 134.171L86.7114 134.463L86.5656 134.692C86.5865 135.081 86.5761 135.476 86.5345 135.879C86.5415 136.205 86.4548 136.552 86.2743 136.92L85.8578 136.816L86.1078 137.941L85.6913 137.837L85.733 138.024C85.9482 138.107 86.1148 138.267 86.2328 138.503C85.9204 138.572 85.6844 138.691 85.5248 138.857C85.9622 139.35 86.0421 140.152 85.7645 141.262C85.4731 142.311 85.3031 143.168 85.2546 143.834C84.8797 143.918 84.7062 144.022 84.734 144.147C84.7618 144.272 84.8173 144.522 84.9007 144.897C84.6022 145.619 84.401 146.483 84.297 147.489C84.193 148.496 84.0681 149.409 83.9224 150.228C83.6933 150.082 83.5163 150.023 83.3913 150.051C83.2664 150.079 83.0408 150.096 82.7145 150.103L82.6521 150.707L82.5688 150.332C82.3397 150.186 82.1245 150.103 81.9232 150.082C81.9787 150.332 81.9093 150.61 81.715 150.915C81.0555 150.603 80.337 150.468 79.5595 150.51C78.8306 150.475 78.3065 150.034 77.9871 149.187C78.0218 149.048 77.9801 148.861 77.8621 148.625C77.6677 148.93 77.4769 149.104 77.2894 149.146C76.9771 149.215 76.7653 149 76.6542 148.5C76.5709 148.125 76.6125 147.723 76.779 147.292C76.5013 147.223 76.3486 147.126 76.3208 147.001C76.2931 146.876 76.2514 146.688 76.1958 146.439L76.3416 146.209L76.7998 146.501L76.6748 145.939C76.6053 145.626 76.3345 145.293 75.8625 144.939C76.2789 144.453 76.4246 143.929 76.2996 143.367C76.2024 142.929 76.0011 142.614 75.6956 142.419L75.5915 142.836C75.4318 141.822 75.4005 141.239 75.4976 141.086C75.6573 140.92 75.7162 140.448 75.6745 139.67L75.6849 139.275C75.6432 139.087 75.546 138.945 75.3933 138.848C75.2891 138.674 75.1468 138.476 74.9663 138.254C74.8066 137.831 74.6816 137.269 74.5913 136.567C74.5495 135.79 74.4731 135.151 74.362 134.652L74.8826 134.339C74.9173 134.2 74.893 133.943 74.8096 133.569C74.6846 133.006 74.4798 132.527 74.1951 132.132C74.3131 131.778 74.438 131.455 74.5699 131.163C74.7018 130.872 74.7503 130.5 74.7156 130.049L74.2574 129.758C74.4448 129.716 74.601 129.681 74.7259 129.653C74.8509 129.626 74.9168 129.48 74.9237 129.216C74.9306 128.952 74.7501 128.73 74.3822 128.55C74.0767 128.355 73.8962 128.133 73.8407 127.883C73.7712 127.571 73.8406 127.293 74.0488 127.05C74.2571 126.807 74.2293 126.387 73.9654 125.79C73.9237 125.603 73.8231 125.298 73.6633 124.874C73.5522 124.374 73.4342 123.843 73.3092 123.281C73.1564 122.594 73.0418 121.931 72.9653 121.292C72.8889 120.654 72.8542 120.202 72.8611 119.939C72.9027 119.536 72.9478 119.297 72.9964 119.22C73.1074 119.13 73.1317 118.797 73.0691 118.221L72.8817 118.262C72.8123 118.54 72.7776 118.679 72.7776 118.679C72.8262 118.602 72.7082 118.661 72.4236 118.856C72.0695 117.558 71.6043 116.645 71.028 116.117C70.5004 115.513 69.5008 115.441 68.0292 115.899C67.7237 115.705 67.4148 115.642 67.1024 115.712C66.7901 115.781 66.4465 115.858 66.0716 115.941L65.8529 115.399C65.485 115.219 65.2836 115.198 65.2489 115.337C65.2142 115.476 65.0789 115.309 64.8428 114.837L65.1239 114.775C65.6237 114.664 66.0576 114.403 66.4254 113.994C66.7933 113.584 67.1334 113.345 67.4458 113.275C67.9456 113.164 68.4836 113.077 69.0597 113.015C69.622 112.89 70.153 112.772 70.6528 112.66C70.7917 112.695 70.927 112.567 71.0589 112.275C71.2532 111.97 71.3747 111.779 71.4233 111.702C71.8189 111.418 72.2563 111.32 72.7352 111.411C73.2628 111.425 73.721 111.421 74.1097 111.4C74.5609 111.365 74.783 111.185 74.7761 110.859C74.8732 110.706 74.9739 110.716 75.078 110.89C75.1822 111.063 75.2481 111.213 75.2759 111.338C75.9979 111.636 76.4769 111.726 76.7129 111.608C76.935 111.428 77.1641 111.868 77.4003 112.93C77.2476 113.423 77.3101 113.999 77.5879 114.659C77.8517 115.256 77.9767 115.818 77.9629 116.346C77.9839 117.915 78.0361 119.476 78.1196 121.031C78.2655 122.572 78.5121 124.124 78.8593 125.686C78.5331 125.693 78.3457 125.734 78.2971 125.811C78.2971 125.811 78.2693 125.981 78.2138 126.321C78.4151 126.342 78.5818 126.501 78.7137 126.8C78.8317 127.036 78.9255 127.31 78.9949 127.623C79.1755 128.435 79.2137 129.049 79.1096 129.466C78.9986 130.146 79.0161 130.962 79.162 131.913C79.2939 132.801 79.4363 133.589 79.5891 134.276L79.0685 134.589L79.4434 134.505C79.4781 134.956 79.4781 135.252 79.4434 135.39C79.4573 135.453 79.4435 135.685 79.4019 136.088L80.0477 138.108C80.0407 138.372 80.1033 138.948 80.2353 139.836C80.3672 140.725 80.5374 141.638 80.7458 142.575C80.9263 143.387 81.1312 144.161 81.3603 144.897C81.5756 145.57 81.7353 145.994 81.8395 146.167C81.9505 146.077 82.1379 146.035 82.4017 146.042C82.3531 145.529 82.478 144.911 82.7764 144.189C83.0748 143.467 83.3524 142.946 83.6093 142.627C83.4079 142.606 83.2552 142.509 83.1511 142.335C83.6925 141.821 83.9319 141.277 83.8694 140.7C83.8693 140.11 83.8935 139.482 83.9421 138.816L84.5043 138.691C84.3376 137.351 84.3687 136.164 84.5977 135.13C84.8752 134.019 85.309 132.873 85.8989 131.693C85.4199 131.603 85.0867 131.284 84.8992 130.735C84.9686 130.458 85.0241 130.118 85.0657 129.715L85.5239 130.006L85.3989 129.444C85.5099 129.354 85.4891 129.26 85.3364 129.163C85.2461 129.052 85.1628 128.972 85.0865 128.924C85.1975 128.833 85.3329 128.705 85.4925 128.538C85.7146 128.358 85.8361 128.167 85.8569 127.965L85.8361 127.872C85.7944 127.684 85.6764 127.448 85.482 127.164C85.35 126.865 85.2875 126.584 85.2944 126.32C85.2666 125.605 85.3394 124.901 85.5129 124.207C85.6725 123.45 85.7314 122.683 85.6897 121.905L86.2103 121.593C85.9951 121.51 85.8944 121.499 85.9083 121.562C85.9847 121.61 85.9395 121.555 85.7729 121.395C86.2657 120.958 86.4358 120.395 86.283 119.708C86.1927 119.007 86.0711 118.313 85.9183 117.626C85.8141 116.862 86.0015 116.23 86.4804 115.731L86.7512 116.064L86.5428 115.127C86.2374 114.932 86.0499 114.679 85.9805 114.367C85.9388 114.179 85.9388 113.884 85.9804 113.481L87.4798 113.148C88.9376 113.807 89.972 114.331 90.5829 114.72C91.2563 115.095 91.6763 115.657 91.843 116.407C91.9402 116.844 91.9646 117.396 91.916 118.062C91.8675 118.729 91.7913 119.565 91.6872 120.572C91.7636 120.62 91.8573 120.895 91.9685 121.394C92.1212 122.082 92.2498 123.102 92.354 124.456C92.5069 125.733 92.5834 126.962 92.5835 128.142C92.6322 129.246 92.5906 129.943 92.4588 130.235C92.7712 130.755 92.976 131.234 93.0732 131.672C93.1844 132.171 93.2018 132.692 93.1255 133.234C93.1116 133.761 93.0353 134.303 92.8966 134.858L93.4588 134.733C93.5283 135.045 93.629 135.646 93.761 136.534C93.8791 137.36 94.0423 138.242 94.2506 139.179C94.4451 140.054 94.6881 140.852 94.9798 141.574C95.2714 142.296 95.563 142.723 95.8546 142.855L95.8129 142.667C96.1044 142.209 96.2883 141.709 96.3646 141.168C96.5659 141.188 96.7048 141.223 96.7811 141.272C96.8436 141.258 96.9512 141.299 97.1039 141.397C96.9511 140.709 96.9303 140.321 97.0413 140.23C97.1385 140.078 97.2808 139.981 97.4682 139.939C97.6557 139.897 97.725 139.619 97.6764 139.106C97.5237 139.009 97.4785 138.953 97.541 138.939C97.6521 138.849 97.5757 138.8 97.3119 138.793L97.0412 138.46C97.3327 138.002 97.4714 137.447 97.4575 136.794L98.1135 136.648C98.1065 136.322 98.103 136.159 98.103 136.159C98.1655 136.145 98.2696 136.024 98.4154 135.795C98.089 135.211 97.9016 134.663 97.8529 134.149C98.4846 133.747 98.842 133.143 98.9252 132.337C98.5573 132.157 98.3178 131.817 98.2067 131.317C98.6786 130.491 98.8312 129.703 98.6646 128.953C98.5604 128.19 98.6366 127.353 98.8934 126.444C99.3028 125.042 99.497 123.556 99.476 121.987C99.4551 120.418 99.6111 118.909 99.9441 117.458C100.083 116.902 100.066 116.382 99.8919 115.896C99.7183 115.41 99.6836 114.959 99.7877 114.542L100.475 114.094C100.315 113.671 100.155 113.247 99.9957 112.824C99.836 112.401 99.7076 111.97 99.6103 111.533L100.266 111.387L100.058 110.45C100.183 110.422 100.308 110.394 100.433 110.367C100.544 110.276 100.662 110.217 100.787 110.19C101.162 110.106 101.589 110.11 102.068 110.2L102.515 110.887L103.265 110.72C103.668 111.352 104.077 111.72 104.494 111.824C104.91 111.928 105.261 112.473 105.546 113.459C105.296 114.104 105.265 114.996 105.452 116.135C105.626 117.211 105.814 118.349 106.015 119.55C106.202 120.688 106.175 121.744 105.932 122.715L106.765 126.464L106.286 126.964L106.391 128.317L106.984 128.776C107.061 128.824 107.127 128.973 107.182 129.223C107.279 129.661 107.328 130.174 107.328 130.764C107.314 131.292 107.28 131.726 107.224 132.066L106.568 132.212L107.131 133.857C107.63 133.746 107.87 133.791 107.849 133.992C107.891 134.18 107.953 134.461 108.037 134.836C107.884 135.328 107.891 135.95 108.058 136.699C108.238 137.512 108.519 138.334 108.901 139.167C109.346 139.986 109.717 140.625 110.016 141.083C110.967 140.937 111.921 140.954 112.879 141.135C113.837 141.315 114.809 141.263 115.795 140.978L115.67 140.416C116.142 140.18 116.589 139.982 117.013 139.822C117.499 139.649 117.974 139.576 118.439 139.603C118.696 139.874 118.904 140.221 119.064 140.645C119.21 141.006 119.325 141.374 119.408 141.748C119.477 142.061 119.516 142.38 119.523 142.706C119.592 143.019 119.661 143.331 119.731 143.643L119.169 143.768C119.224 144.018 119.217 144.282 119.148 144.56C119.287 144.595 119.384 144.737 119.439 144.987C119.481 145.174 119.467 145.407 119.398 145.684C119.328 145.962 119.245 146.177 119.148 146.33C119.572 147.94 119.499 149.53 118.93 151.099C118.361 152.668 117.892 154.247 117.525 155.837L117.337 155.879C117.087 155.934 117.004 156.149 117.087 156.524C117.233 156.885 117.185 157.257 116.942 157.638L115.89 158.659L116.088 159.107L115.651 159.794ZM139.831 139.371L139.727 139.788L139.384 139.569C138.197 139.833 137.107 139.649 136.114 139.018L135.989 139.34C135.163 138.868 134.326 138.202 133.479 137.341L133.792 136.977L133.5 136.55L133.24 136.706L132.198 135.561L132.261 134.957C131.685 134.43 131.296 133.86 131.094 133.25L131.188 133.229L131.553 133.541L131.615 132.937L131.136 132.552C131.004 132.253 130.733 131.625 130.324 130.667C129.9 129.647 129.612 128.793 129.459 128.106C129.334 127.544 129.32 127.186 129.417 127.033L128.928 126.159L129.584 126.013C129.57 125.95 129.469 125.645 129.282 125.097C129.094 124.548 128.907 124 128.719 123.451C128.58 122.827 128.483 122.389 128.428 122.139L129.032 122.202L128.969 121.921L128.376 121.463L128.355 120.484L128.657 120.515L128.552 120.047L128.146 119.547L128.615 119.443C128.483 119.144 128.351 118.846 128.219 118.547C128.15 118.235 128.087 117.954 128.032 117.704L128.344 117.339L127.907 117.141L127.875 114.788L127.667 114.736C127.847 114.368 127.903 114.028 127.833 113.716C127.812 113.327 127.798 112.969 127.792 112.643L128.146 112.466L127.843 111.55L128.125 111.487L128.218 110.581C128.059 110.748 127.951 110.706 127.895 110.457C127.826 110.144 127.736 110.033 127.625 110.123C127.777 109.63 127.829 109.127 127.781 108.613C127.795 108.086 127.909 107.569 128.124 107.062L127.718 106.562L127.843 105.354L128.332 105.344L128.551 105L127.801 105.167L127.812 104.771L128.707 104.375L128.603 103.907L127.832 103.98C127.867 103.841 127.902 103.702 127.936 103.563C127.957 103.362 127.929 103.237 127.853 103.188L128.124 102.637L127.947 102.283L128.373 101.106L129.862 101.168L129.529 100.554L129.623 100.533C130.282 100.845 130.921 101.064 131.539 101.189C132.157 101.314 132.587 101.775 132.83 102.574L133.486 102.428C133.764 103.087 134.26 103.403 134.975 103.375C135.676 103.285 136.27 103.448 136.756 103.864L137.141 103.385L138.318 103.812L138.235 104.322C139.033 104.079 139.835 103.999 140.64 104.083C141.508 104.152 142.091 104.711 142.389 105.759L142.847 105.165C143.646 105.512 144.156 106.186 144.378 107.185L144.024 107.362L144.441 108.351C143.934 108.726 143.782 109.219 143.983 109.83C144.247 110.427 144.226 110.923 143.921 111.319L143.639 111.382C143.633 112.235 143.272 112.971 142.557 113.589C141.89 114.131 141.384 114.801 141.037 115.599L140.745 115.172L140.651 115.193L140.724 115.964L139.933 116.828L139.996 117.109L139.402 117.536L139.517 117.609L138.954 117.734C138.76 118.039 138.503 118.359 138.184 118.692C137.851 118.963 137.542 119.195 137.257 119.39L137.289 119.088C137.08 119.331 136.886 119.636 136.706 120.004C136.574 120.296 136.365 120.539 136.081 120.733L135.925 120.473L135.352 120.993L135.675 121.118L134.123 121.66L134.05 121.774L134.353 122.691L133.624 122.951C134.075 122.916 134.419 123.43 134.655 124.492C134.794 125.117 134.846 125.794 134.811 126.523C134.825 127.175 134.79 127.609 134.707 127.824L135.269 127.699L135.374 128.168L135.165 128.116C135.332 128.865 135.592 129.594 135.946 130.302C136.349 130.934 136.696 131.611 136.988 132.333L136.78 132.281C136.835 132.53 137.043 132.878 137.405 133.322C137.752 133.704 138.064 133.929 138.342 133.998L138.342 134.884L138.436 134.863L138.633 134.425L139.716 134.873L139.841 135.435C140.529 135.282 141.184 135.137 141.809 134.998C142.483 134.782 143.118 134.543 143.715 134.279L143.381 133.665L144.214 132.988L144.433 133.529L144.485 132.436L144.672 132.394L144.797 132.957L144.891 132.936L144.724 132.186L144.818 132.165L145.037 132.707L145.62 131.79L145.297 131.665L146.619 129.208L146.994 129.124L147.379 127.76L147.775 127.771L147.338 127.573C147.393 127.233 147.518 126.91 147.712 126.605C147.893 126.237 148.049 125.907 148.181 125.615L148.483 125.646L148.576 124.741L148.899 124.865C148.83 124.553 148.823 124.227 148.878 123.887C148.982 123.47 149.038 123.13 149.045 122.866L149.44 122.877C149.19 121.752 149.527 120.759 150.45 119.898L149.898 119.628L150.263 119.055L151.158 118.659L151.491 120.159L151.117 120.242L151.429 120.763L150.929 121.169L151.388 121.46L151.294 122.366L151.2 122.387C150.95 122.443 150.846 122.564 150.888 122.752C150.929 122.939 150.947 123.165 150.94 123.428L150.44 122.949L150.523 123.324C150.621 123.762 150.631 124.251 150.555 124.792L149.649 124.699C149.802 124.796 149.906 124.97 149.961 125.219C150.045 125.594 149.965 125.973 149.722 126.354L150.159 126.552C150.027 126.844 149.948 126.927 149.92 126.802C149.878 126.615 149.85 126.49 149.837 126.427L149.691 126.656L149.889 127.104L149.42 127.208L148.983 127.896L149.483 128.375L149.087 128.364C149.045 128.767 148.841 129.468 148.473 130.468C148.168 131.453 147.803 132.026 147.38 132.186C147.505 132.748 147.46 133.283 147.245 133.789C147.015 134.234 146.686 134.668 146.255 135.091L146.089 134.341L145.485 135.164C145.54 135.414 145.648 135.456 145.808 135.289C145.967 135.122 146.058 134.938 146.078 134.737L146.318 135.372C145.957 135.518 145.679 135.744 145.485 136.049C145.291 136.355 145.006 136.549 144.631 136.632C144.624 137.486 144.204 138.104 143.371 138.486C142.601 138.854 141.865 139.083 141.164 139.173L141.112 139.382L140.571 139.6L140.508 139.319L139.831 139.371ZM133.79 118.39C133.887 118.828 133.981 119.102 134.071 119.213L135.581 118.484C135.511 118.172 135.525 117.939 135.622 117.786C135.747 117.758 135.82 117.644 135.841 117.443L136.393 117.713C136.407 117.186 136.594 116.849 136.955 116.703L136.632 116.578C136.889 116.259 137.146 115.94 137.403 115.62C137.722 115.287 137.979 114.968 138.173 114.662L138.381 114.714L138.538 114.975C138.635 114.822 138.683 114.745 138.683 114.745C138.732 114.669 138.781 114.593 138.829 114.516C138.649 114.294 138.551 114.152 138.538 114.089C138.871 113.819 139.051 113.451 139.079 112.986L139.568 112.975L139.277 112.548C139.402 112.521 139.52 112.462 139.631 112.371C139.742 112.281 139.822 112.198 139.87 112.121L139.547 111.996C139.735 111.955 139.901 111.819 140.047 111.59C139.957 111.479 139.877 111.267 139.808 110.955L139.88 110.841C140.005 110.813 140.106 110.823 140.182 110.872C140.307 110.844 140.432 110.816 140.557 110.788C140.252 110.594 140.064 110.341 139.995 110.028C140.37 109.945 140.581 109.865 140.63 109.789C140.47 109.365 140.363 109.029 140.307 108.779C140.3 108.453 140.248 108.071 140.151 107.633C139.873 107.564 139.713 107.436 139.672 107.248C139.616 106.998 139.474 106.8 139.245 106.655L139.099 106.884L138.568 106.707L138.578 106.311C138.315 106.304 138.044 106.266 137.766 106.197C137.475 106.065 137.204 106.027 136.954 106.082L136.871 105.707C136.558 105.777 136.263 105.777 135.986 105.708C135.77 105.624 135.538 105.61 135.288 105.666C135.163 105.104 134.833 104.948 134.299 105.197C134.368 105.51 134.299 105.788 134.09 106.031C133.945 106.26 133.959 106.617 134.132 107.103C134.007 107.131 133.921 107.183 133.872 107.259C133.823 107.336 133.744 107.419 133.632 107.509C133.799 107.669 133.879 108.176 133.872 109.029C133.865 109.883 133.796 110.751 133.664 111.633C133.518 112.452 133.373 112.976 133.227 113.205L133.696 113.101C133.758 113.677 133.751 114.531 133.675 115.662C133.585 116.731 133.623 117.641 133.79 118.39ZM199.073 126.889C198.385 127.041 197.486 126.979 196.376 126.701C195.883 126.549 195.362 126.566 194.814 126.754C194.252 126.879 193.78 126.82 193.398 126.577C193.12 126.507 193.078 126.32 193.273 126.014C193.058 125.931 192.818 125.886 192.554 125.879C192.277 125.81 192.023 125.702 191.794 125.556C191.384 125.189 191.041 124.675 190.763 124.016C190.471 123.294 190.249 122.589 190.096 121.902C190.013 121.527 189.937 121.183 189.867 120.871C189.784 120.496 189.746 120.177 189.753 119.913C189.662 119.802 189.548 119.729 189.409 119.694C189.27 119.66 189.142 119.524 189.024 119.288L189.149 118.966L189.336 118.924C189.392 119.174 189.503 119.379 189.669 119.538C189.6 119.226 189.485 118.858 189.326 118.434C189.228 117.997 189.183 117.647 189.19 117.383C189.315 117.355 189.471 117.32 189.659 117.279C189.846 117.237 189.995 117.171 190.106 117.081C189.565 117.004 189.204 116.855 189.023 116.633C189.537 116.584 189.749 116.505 189.659 116.394C189.568 116.283 189.433 116.116 189.252 115.894C189.565 115.824 189.728 115.821 189.742 115.883C189.742 115.883 189.808 115.738 189.94 115.446C189.592 115.064 189.537 114.519 189.773 113.811C190.057 113.027 190.328 112.475 190.585 112.156C190.71 112.128 190.793 111.913 190.835 111.51C190.925 111.031 190.994 110.753 191.043 110.677L191.459 110.781L191.314 110.125C191.445 109.833 191.674 109.684 192.001 109.677C192.389 109.656 192.674 109.462 192.855 109.094L192.75 107.74L195.228 104.731C195.423 105.015 195.565 105.213 195.655 105.324C195.558 104.887 195.52 104.568 195.54 104.366C196.04 104.255 196.429 103.939 196.707 103.419C197.047 102.884 197.654 102.52 198.529 102.325C198.48 101.811 198.591 101.426 198.862 101.169C199.216 101.287 199.528 101.218 199.799 100.961C199.882 100.746 199.959 100.499 200.028 100.222C200.16 99.9301 200.312 99.7322 200.486 99.6281L201.09 99.6905C201.298 99.4475 201.552 99.26 201.85 99.1281C202.135 98.9337 202.374 98.6838 202.568 98.3783C202.666 98.2256 202.728 98.2117 202.756 98.3367C202.846 98.4477 202.874 98.5727 202.839 98.7115L203.027 98.6698C203.214 98.6282 203.388 98.524 203.547 98.3574C203.755 98.1144 203.946 97.9409 204.12 97.8367C204.425 98.0311 204.703 98.1005 204.953 98.0449C205.328 97.9616 205.574 97.7429 205.692 97.3888C205.859 96.9584 205.984 96.6356 206.067 96.4204C206.199 96.1288 206.383 96.2191 206.619 96.6911C206.799 96.3231 206.983 96.1183 207.171 96.0767C207.296 96.0489 207.434 96.0836 207.587 96.1808C207.74 96.2779 207.872 96.2814 207.983 96.1911L207.899 95.8163L208.368 95.7121L208.535 96.4618L209.003 96.3576L208.868 96.191L208.774 96.2119C208.684 96.1008 208.701 96.0314 208.826 96.0036C209.014 95.9619 209.139 95.9342 209.201 95.9203C209.354 96.0174 209.461 96.0591 209.524 96.0452C209.711 96.0035 209.885 95.8994 210.044 95.7328C210.253 95.4898 210.381 95.3301 210.43 95.2537C210.61 95.4759 210.825 95.5591 211.075 95.5036C211.325 95.448 211.575 95.3925 211.825 95.3369L211.742 94.962C211.651 94.851 211.554 94.7087 211.45 94.5352C211.408 94.3477 211.374 94.1915 211.346 94.0666L211.575 94.2124C211.665 94.3234 211.696 94.3165 211.669 94.1915C211.689 93.9902 211.693 93.8583 211.679 93.7958C211.728 93.7195 211.731 93.5876 211.689 93.4002C211.648 93.2127 211.575 93.0323 211.471 92.8587C211.367 92.6852 211.262 92.5117 211.158 92.3381C211.589 91.9146 211.755 91.4842 211.658 91.0469C211.561 90.6096 211.457 90.141 211.345 89.6412L211.137 89.5892L210.783 89.7662L210.762 89.6725C210.596 89.5129 210.485 89.3081 210.429 89.0582C210.373 88.8083 210.318 88.5584 210.262 88.3085C210.623 88.1627 210.873 87.8121 211.012 87.2568L210.45 87.3818C210.325 86.8195 210.172 86.4273 209.991 86.2052C209.811 85.9831 209.547 85.6811 209.2 85.2994L209.242 84.6017L208.783 84.3102L208.325 82.2485L207.908 82.1445L207.617 80.8325C207.478 80.2077 207.457 79.819 207.554 79.6663L207.492 79.3851C207.401 79.2741 207.263 79.2394 207.075 79.2811C206.936 79.2464 206.791 79.1804 206.638 79.0833C206.43 78.7362 206.318 78.5314 206.305 78.4689C206.235 78.1566 206.235 77.8615 206.304 77.5839C206.374 77.3062 206.381 77.0424 206.325 76.7925C206.186 76.1678 205.926 75.7339 205.544 75.491C205.225 75.2342 205.01 74.8559 204.898 74.3561C204.815 73.9812 204.784 73.6932 204.805 73.4918C204.603 73.471 204.416 73.2177 204.242 72.7318C204.055 72.1834 203.86 71.6038 203.659 70.9929C203.52 70.3682 203.43 69.9621 203.388 69.7747L203.461 69.6601L203.95 69.6497L203.93 69.556C203.999 69.2783 204.02 69.077 203.992 68.952C203.7 68.8201 203.464 68.6432 203.284 68.421C203.152 68.1226 203.02 67.8241 202.888 67.5256C203.263 67.4422 203.478 67.2305 203.534 66.8904C203.304 66.7446 203.131 66.5537 203.013 66.3177C202.957 66.0678 202.909 65.8491 202.867 65.6617L202.992 65.3389L203.554 65.2139C203.513 64.4364 203.533 63.6451 203.616 62.8398C203.693 62.8884 203.856 62.8849 204.106 62.8294C204.231 62.8016 204.38 62.7356 204.554 62.6315C204.727 62.5273 204.901 62.4232 205.074 62.319C204.984 62.208 204.901 62.1282 204.824 62.0796C204.748 62.031 204.665 61.9512 204.574 61.8401L204.72 61.611C205.095 61.5277 205.359 61.5346 205.511 61.6318C205.768 61.3124 206.008 61.0625 206.23 60.882C206.501 60.6251 206.844 60.5487 207.261 60.6528L207.344 61.0276C207.761 61.1317 208.156 61.1421 208.531 61.0587C209.093 60.9337 209.597 60.6907 210.041 60.3297C210.485 59.9687 210.922 59.8715 211.353 60.038L211.551 60.4857C211.766 60.569 211.832 60.4232 211.748 60.0484L214.133 59.7149L214.216 60.0898C214.813 60.416 215.4 60.5478 215.976 60.4853C216.17 60.1798 216.517 59.9715 217.017 59.8604C217.031 59.9229 217.09 60.0409 217.194 60.2144C217.361 60.3741 217.475 60.447 217.538 60.4331C217.663 60.4053 217.795 60.4087 217.934 60.4434C218.059 60.4157 218.184 60.3879 218.308 60.3601L218.288 60.2664C217.982 60.072 217.861 59.9679 217.923 59.954C217.986 59.9402 217.982 59.777 217.913 59.4647L218.475 59.3396L218.683 60.2768L218.871 60.2351C218.919 60.1587 219.037 60.0997 219.225 60.058C219.537 59.9886 219.877 60.0441 220.245 60.2245C220.599 60.3425 220.801 60.3633 220.849 60.287C220.946 60.1342 220.988 60.0266 220.974 59.9641C221.009 59.8253 221.05 59.7177 221.099 59.6413C221.286 59.5997 221.45 59.5962 221.588 59.6309C221.727 59.6656 221.908 59.5927 222.13 59.4122L222.047 59.0373C222.546 58.9262 223.091 58.8706 223.681 58.8705C224.271 58.8705 224.816 58.8149 225.316 58.7038L225.462 59.3598C225.038 59.5195 224.636 59.7729 224.254 60.12C223.872 60.4671 223.432 60.6963 222.932 60.8074C222.807 60.8352 222.682 60.8629 222.557 60.8907C222.418 60.856 222.279 60.8213 222.14 60.7866L221.891 61.4322C221.779 61.5225 221.505 61.6162 221.068 61.7135C220.631 61.8107 220.093 61.8975 219.454 61.9739C218.815 62.0504 218.246 62.1441 217.746 62.2553C216.559 62.5192 215.463 62.8941 214.456 63.3802C213.436 63.8037 212.422 64.2585 211.416 64.7445C211.027 65.3555 210.486 66.1642 209.792 67.1709C209.084 68.115 208.851 68.9862 209.094 69.7845L208.678 69.6804L208.719 69.8678C208.872 69.965 208.976 70.1385 209.032 70.3884C209.087 70.6383 209.032 70.9785 208.865 71.4089C208.747 71.7629 208.754 72.0892 208.886 72.3877C209.164 73.0471 209.452 73.6059 209.751 74.064C210.035 74.4597 210.233 74.9074 210.344 75.4072C210.442 75.8445 210.428 76.3721 210.303 76.9899L211.011 77.5209C211.025 77.5834 211.039 77.6459 211.053 77.7083C211.115 77.6944 211.153 77.7187 211.167 77.7812C211.237 78.0936 211.167 78.3713 210.959 78.6142C210.813 78.8433 210.845 79.1314 211.053 79.4785L211.698 79.7283C211.969 80.0615 212.174 80.5405 212.313 81.1652C212.452 81.79 212.577 82.3522 212.688 82.852C212.424 82.8451 212.206 82.8937 212.032 82.9979C212.275 83.2061 212.525 83.4456 212.782 83.7163C213.039 83.987 213.202 84.2785 213.271 84.5909C213.341 84.9033 213.268 85.3128 213.053 85.8196C213.282 85.9654 213.483 86.2812 213.657 86.7671C213.83 87.253 213.973 87.7458 214.084 88.2456C214.278 89.1203 214.369 89.8214 214.355 90.349C214.32 90.4878 214.23 90.6718 214.084 90.9009C213.938 91.13 213.81 91.2896 213.699 91.3799L213.72 91.4736C213.747 91.5986 213.827 91.8103 213.959 92.1088C214.14 92.3309 214.286 92.6918 214.397 93.1916C214.48 93.5665 214.484 94.0246 214.407 94.5661C214.921 94.5175 215.355 94.5521 215.709 94.6701C216.111 94.7117 216.545 94.7464 217.01 94.7741C217.128 95.0101 217.163 95.1663 217.115 95.2426C217.128 95.3051 217.274 95.3711 217.552 95.4404L217.791 95.1905C218.284 95.3432 218.704 95.6104 219.051 95.9922C219.385 96.3114 219.805 96.5787 220.311 96.7938L220.52 97.7309C219.93 97.731 219.482 97.6338 219.177 97.4395C218.934 97.2313 218.611 97.1064 218.208 97.0647L217.885 96.9398C217.462 97.0995 216.848 97.1378 216.042 97.0546C215.299 96.9574 214.671 96.9332 214.158 96.9819C214.394 98.0439 214.429 99.0852 214.262 100.106C214.082 101.064 214.047 102.088 214.158 103.177L213.596 103.302C214.013 104.587 213.929 105.982 213.346 107.488C212.826 108.981 212.34 110.335 211.889 111.549C211.723 111.98 211.653 112.553 211.681 113.268C211.695 113.92 211.518 114.451 211.15 114.861C211.102 114.937 211.046 114.982 210.984 114.996L210.89 115.017C210.64 115.072 210.4 115.322 210.171 115.767C210.484 115.697 210.609 115.669 210.546 115.683C210.47 115.635 210.491 115.728 210.609 115.965C210.269 116.499 210.036 117.075 209.911 117.693C209.849 118.297 209.488 118.738 208.829 119.016L208.714 119.828L207.735 119.849C208.048 120.369 208.017 120.966 207.642 121.64C207.316 122.237 206.844 122.768 206.226 123.233C205.608 123.698 205.049 123.986 204.549 124.097L204.674 124.66L204.3 124.743C204.043 125.062 203.567 125.43 202.873 125.847C202.228 126.187 201.711 126.368 201.322 126.389L200.791 126.212C200.208 126.538 199.635 126.764 199.073 126.889ZM197.105 125.556C197.479 125.473 197.66 125.105 197.646 124.452C197.861 124.535 198.007 124.601 198.083 124.65C198.146 124.636 198.309 124.633 198.573 124.639L198.448 124.077C198.711 124.084 198.843 124.088 198.843 124.088C198.829 124.025 198.881 124.112 199 124.348L199.229 124.494C199.145 124.119 199.183 123.848 199.343 123.681C199.524 123.904 199.583 124.022 199.52 124.035C199.506 123.973 199.631 123.945 199.895 123.952C199.957 123.348 200.28 122.883 200.863 122.557C201.072 122.904 201.207 123.07 201.269 123.056C201.38 122.966 201.599 122.918 201.925 122.911C201.877 121.807 202.203 120.915 202.904 120.234C203.591 119.492 204.125 118.652 204.507 117.714C204.951 117.943 205.375 118.079 205.778 118.12L205.319 117.829C205.479 117.662 205.68 117.388 205.923 117.006C205.694 116.86 205.527 116.701 205.423 116.527C205.673 116.472 205.854 116.399 205.965 116.309C205.798 116.149 205.687 115.944 205.632 115.694C206.006 115.611 206.187 115.538 206.173 115.476C206.208 115.337 206.291 115.122 206.423 114.83L206.954 115.007C206.989 114.868 207.068 114.49 207.193 113.872C207.381 113.24 207.499 112.886 207.547 112.81L208.234 112.362C208.318 112.147 208.293 111.89 208.161 111.591C208.092 111.279 208.068 111.022 208.088 110.821C208.505 110.925 208.741 110.807 208.796 110.467C208.783 110.404 208.744 110.38 208.682 110.394C208.668 110.331 208.654 110.269 208.64 110.207C208.571 109.894 208.64 109.616 208.848 109.373C209.119 109.117 209.289 108.849 209.359 108.572L209.15 107.635L209.994 107.447L209.931 107.166C209.862 106.854 209.865 106.427 209.941 105.885C210.066 105.267 210.195 104.813 210.326 104.521C210.479 104.618 210.556 104.667 210.556 104.667C210.542 104.604 210.59 104.528 210.701 104.438C210.549 104.341 210.438 104.136 210.368 103.823C210.653 103.629 210.771 103.57 210.722 103.646C210.722 103.646 210.764 103.539 210.847 103.324C210.757 103.212 210.614 103.015 210.42 102.73C210.732 102.661 210.896 102.657 210.909 102.72C210.923 102.782 210.965 102.674 211.034 102.397C211.104 102.119 211.118 101.887 211.076 101.699C211.083 101.435 211.09 101.172 211.097 100.908C211.458 100.762 211.68 100.581 211.763 100.366C211.506 100.096 211.378 99.9602 211.378 99.9602C211.364 99.8977 211.36 99.7346 211.367 99.4708C211.589 99.2903 211.707 99.2312 211.721 99.2937C211.721 99.2937 211.763 99.1861 211.846 98.9709C211.756 98.8599 211.697 98.7419 211.669 98.6169C211.704 98.4781 211.714 98.3774 211.7 98.3149C211.617 97.9401 211.263 97.8221 210.638 97.961C210.013 98.0999 209.236 98.4367 208.306 98.9713C207.376 99.5059 206.775 99.9016 206.505 100.159C205.096 101.193 203.673 102.46 202.236 103.96C200.848 105.383 199.668 106.858 198.696 108.385C198.536 108.552 198.207 108.986 197.707 109.687C197.207 110.388 196.77 111.075 196.395 111.749C196.006 112.36 195.864 112.752 195.968 112.926C195.774 113.231 195.368 113.911 194.75 114.967C194.181 115.945 193.931 116.591 194.001 116.903C194.119 117.139 193.952 117.865 193.501 119.08C193.099 120.218 193.015 121.318 193.252 122.38C193.363 122.88 193.599 123.352 193.96 123.797C194.369 124.164 194.959 124.459 195.73 124.681L195.938 125.619C196.188 125.563 196.414 125.546 196.615 125.566C196.816 125.587 196.98 125.584 197.105 125.556ZM242.436 115.379L241.499 115.587L240.957 114.921L240.103 115.504L238.812 115.005L238.375 113.922C237.764 114.123 237.202 113.953 236.688 113.412C236.237 112.856 235.928 112.204 235.761 111.454C235.65 110.954 235.664 110.427 235.802 109.872L235.011 109.851C235.004 109.524 234.942 109.243 234.824 109.007C234.754 108.695 234.692 108.414 234.636 108.164L235.261 107.435L234.698 107.56L234.678 107.466L234.844 107.331L234.761 106.956C234.678 106.581 234.664 106.224 234.719 105.884C234.761 105.481 234.809 105.11 234.865 104.769L234.365 104.29C234.566 103.721 234.604 103.155 234.479 102.593C234.403 101.955 234.503 101.375 234.781 100.854L235.104 100.979L235.125 100.188L234.573 99.9171C234.885 99.2576 235.055 98.4003 235.083 97.3451C235.173 96.2761 235.232 95.214 235.259 94.1589C235.349 93.0898 235.526 92.2637 235.79 91.6806L236.061 92.0138L235.853 91.0766L235.665 91.1183C235.408 91.4377 235.089 91.7709 234.707 92.118C234.326 92.4652 233.944 92.8123 233.562 93.1594C233.472 93.0483 233.475 92.9165 233.572 92.7637C233.67 92.611 233.749 92.5277 233.812 92.5138L232.968 92.7013C232.663 93.6871 232.136 94.2633 231.386 94.43C231.074 94.4994 230.692 94.5515 230.24 94.5863C229.838 94.5447 229.38 94.5482 228.866 94.5968C228.519 94.2151 228.283 93.7431 228.158 93.1808L228.595 92.4935C228.276 92.2367 228.13 91.8757 228.158 91.4106L228.72 91.2856L228.512 90.3485L228.99 89.8486L229.303 90.3693L230.011 90.0151L229.969 89.8277C229.858 89.3279 230.115 89.0086 230.74 88.8697L230.573 89.8901L230.844 90.2233L233.437 89.0568C233.319 88.8208 233.562 88.439 234.165 87.9114C234.832 87.3698 235.214 87.0227 235.311 86.87L236.519 86.9948C236.498 86.6061 236.609 86.2208 236.852 85.839C237.143 85.3808 237.393 85.0302 237.601 84.7872C237.629 84.3221 237.657 83.857 237.684 83.3919C237.775 82.9129 237.802 82.4478 237.768 81.9966L238.85 81.5592L239.017 80.5387C239.385 80.1291 239.833 79.9312 240.36 79.945C240.888 79.9589 241.363 79.8859 241.787 79.7262L242.37 80.58C242.529 80.4134 242.797 80.2884 243.172 80.2051C243.484 80.1356 243.904 80.1078 244.431 80.1216C244.702 79.8648 244.862 79.6982 244.91 79.6218C244.945 79.483 244.994 79.4066 245.056 79.3927C245.181 79.3649 245.282 79.3753 245.358 79.4239C245.483 79.3961 245.646 79.3926 245.848 79.4134L245.535 78.8928L247.513 78.0596L247.826 78.5802L248.034 77.7472L250.096 77.2888L249.596 76.8099L249.742 76.5808C250.103 76.435 250.47 76.3204 250.845 76.2371C251.269 76.0774 251.699 75.9489 252.136 75.8517L252.011 75.2894L253.084 75.2476L252.626 74.9561L253.271 75.206C253.598 75.199 254.177 75.0046 255.01 74.6227C255.892 74.1644 256.291 73.7479 256.208 73.373C256.471 73.38 256.728 73.3556 256.978 73.3001C257.29 73.2306 257.603 73.1612 257.915 73.0917C258.977 72.8556 260.025 72.557 261.06 72.1959C262.156 71.8209 263.198 71.4911 264.183 71.2064L264.725 71.8727L264.642 71.4979L265.516 71.8935C265.537 71.6922 265.634 71.5394 265.808 71.4353C265.981 71.3312 266.155 71.227 266.328 71.1229C266.738 71.4907 267.082 71.7094 267.359 71.7788C267.686 71.7718 268.081 71.7822 268.546 71.8099C268.637 71.9209 268.71 72.1014 268.765 72.3513C268.89 72.9136 268.578 73.2781 267.828 73.4447C267.016 73.6253 266.075 73.6705 265.006 73.5804C263.937 73.4903 263.24 73.4487 262.913 73.4557L262.955 73.6431L263.559 73.7055C262.997 73.8305 262.518 73.7403 262.122 73.4349L261.934 73.4766C261.435 73.5877 261.025 73.8099 260.706 74.1431L259.498 74.0183C259.331 74.4487 258.936 74.7333 258.311 74.8722L258.29 74.7785C258.249 74.5911 258.096 74.4939 257.832 74.487C257.617 74.4037 257.409 74.3517 257.207 74.3309L256.999 75.1639L253.563 76.5179C253.549 76.4555 253.435 76.3826 253.219 76.2993C253.004 76.216 252.917 76.2681 252.959 76.4555L254.271 77.934L254.833 77.809C255.555 78.1074 256.08 78.5481 256.406 79.1312C256.795 79.7004 257.066 80.3286 257.218 81.0158C257.343 81.5781 257.382 82.1924 257.333 82.8589C257.333 83.4489 257.264 84.0216 257.125 84.577C257.222 84.4242 257.347 84.3965 257.5 84.4936C257.715 84.5769 257.868 84.6741 257.958 84.7851C257.653 85.1808 257.573 85.5592 257.719 85.9201C257.913 86.2047 257.785 86.6594 257.333 87.2842C257.563 87.43 257.705 87.6278 257.76 87.8777C257.816 88.1276 257.84 88.3845 257.833 88.6482C257.813 88.8496 257.799 89.0821 257.792 89.3459L257.042 89.5126L257.251 90.4497C257.292 90.6371 257.341 90.8558 257.396 91.1057C257.438 91.2931 257.424 91.5257 257.355 91.8033L256.647 92.1574L257.188 92.8238L256.22 96.8744L255.325 97.2702L255.658 98.7696C255.478 99.1375 255.329 99.4985 255.211 99.8525C255.079 100.144 254.992 100.491 254.95 100.894C254.589 101.04 254.305 101.234 254.097 101.477C253.951 101.706 253.729 101.887 253.43 102.019L253.555 102.581L254.159 102.643C253.819 103.178 253.541 103.698 253.326 104.205C253.097 104.65 252.667 105.073 252.035 105.476L252.077 105.663L252.452 105.58C252.202 106.225 252.028 106.625 251.931 106.777C251.834 106.93 251.584 107.281 251.182 107.829C251.383 107.85 251.435 107.937 251.338 108.089C251.303 108.228 251.203 108.218 251.036 108.058C251.098 108.634 250.942 108.964 250.567 109.047C250.193 109.131 249.96 109.412 249.87 109.891L250.057 109.849L249.932 110.172C249.565 110.582 249.197 110.991 248.829 111.401C248.523 111.797 248.051 112.033 247.413 112.109L247.579 112.859L247.486 112.88C247.173 112.949 246.927 113.168 246.747 113.536C246.552 113.841 246.275 114.067 245.914 114.213C245.379 114.463 244.838 114.681 244.289 114.869C243.741 115.056 243.186 115.212 242.623 115.337L242.311 114.817L242.436 115.379ZM243.685 113.036C244.122 112.939 244.699 112.581 245.414 111.963L245.726 112.484L246.247 112.172C246.226 111.193 246.607 110.846 247.392 111.13C247.295 110.693 247.392 110.245 247.683 109.787L247.996 110.308C247.954 109.53 248.141 108.898 248.558 108.412C248.974 107.926 249.405 107.503 249.849 107.142C250.293 106.781 250.536 106.399 250.578 105.996C250.23 105.615 250.286 104.98 250.744 104.091C251.188 103.14 251.507 102.512 251.702 102.206C252.007 102.401 252.285 102.47 252.535 102.414L252.681 102.185C252.389 102.053 252.118 101.72 251.868 101.186C252.285 100.7 252.562 100.179 252.701 99.6237C252.826 99.0059 252.951 98.3881 253.076 97.7702L253.721 98.0201C253.652 97.7077 253.721 97.43 253.93 97.187C253.687 96.9788 253.534 96.8816 253.471 96.8955C253.457 96.833 253.416 96.6456 253.346 96.3333C253.603 96.0139 253.822 95.3752 254.002 94.4173C254.183 93.4593 254.294 92.4839 254.335 91.4913C254.425 90.4222 254.429 89.7003 254.345 89.3254L254.866 89.013C254.588 88.9436 254.449 88.9089 254.449 88.9089C254.512 88.895 254.484 88.7701 254.366 88.5341L254.928 88.4091L255.074 88.18C254.921 88.0828 254.685 87.3158 254.366 85.8788C254.213 85.1916 254.06 84.5044 253.907 83.8172C253.803 83.0536 253.761 82.5711 253.782 82.3698L253.22 82.4948C252.776 81.6758 252.307 81.1899 251.814 81.0372C251.307 80.8221 250.742 80.7839 250.117 80.9228C249.367 81.0895 248.558 81.4332 247.691 81.9539C246.886 82.4608 246.077 82.8045 245.265 82.985C244.952 83.0545 244.696 83.0788 244.494 83.058L244.578 83.4329C244.716 83.4676 244.824 83.5092 244.9 83.5578C245.025 83.53 245.133 83.5716 245.223 83.6827C244.675 83.8702 244.179 84.1444 243.734 84.5054C243.339 84.7901 242.919 85.1129 242.474 85.474L242.516 85.6614C242.78 85.6683 242.995 85.7516 243.162 85.9112C242.905 86.8206 242.631 87.7994 242.339 88.8477C242.11 89.882 241.975 90.8955 241.934 91.8882C241.746 91.9299 241.614 91.9264 241.538 91.8778C241.462 91.8293 241.392 91.8119 241.33 91.8258C241.267 91.8397 241.212 92.1798 241.163 92.8463L241.351 92.8046L241.642 92.3464L241.725 92.7212L241.476 93.3669L241.059 93.2628L241.351 94.5747L240.83 94.8872C241.108 94.9566 241.198 95.3626 241.101 96.1054C240.99 96.7857 240.824 97.5112 240.601 98.2817C240.366 98.9898 240.206 99.4515 240.123 99.6667C240.282 100.09 240.331 100.899 240.269 102.093C240.269 103.273 240.199 104.436 240.061 105.581C239.908 106.664 239.686 107.435 239.395 107.893C239.638 108.101 239.863 108.379 240.071 108.726C240.328 108.996 240.492 109.288 240.561 109.6C240.589 109.725 240.585 109.857 240.551 109.996C240.578 110.121 240.575 110.253 240.54 110.392C240.263 110.322 240.165 110.475 240.249 110.85C240.45 110.871 240.634 110.961 240.801 111.121C240.967 111.28 240.978 111.475 240.832 111.704C241.505 112.078 242.04 112.418 242.436 112.724C242.831 113.029 243.248 113.133 243.685 113.036ZM273.63 110.312C273.373 110.042 273.088 109.941 272.776 110.01C272.464 110.08 272.144 110.118 271.818 110.125C271.52 109.667 271.19 109.216 270.829 108.772C270.391 108.279 270.041 107.734 269.777 107.137C270.048 106.88 270.134 106.533 270.037 106.096C269.982 105.846 269.933 105.627 269.891 105.44C269.773 105.204 269.7 105.023 269.673 104.898C269.957 104.704 270.242 104.509 270.526 104.315C270.811 104.121 271.096 103.926 271.38 103.732C271.644 104.329 272.185 104.7 273.005 104.846C273.761 105.005 274.192 105.172 274.296 105.345C274.338 105.533 274.358 105.627 274.358 105.627C274.358 105.627 274.497 105.661 274.775 105.731C274.678 105.293 274.775 104.846 275.066 104.387C275.344 103.867 275.656 103.502 276.003 103.294L275.878 102.732L276.441 102.607L276.232 101.67C276.434 101.69 276.621 101.649 276.795 101.545C276.836 101.142 276.846 100.746 276.826 100.357C276.867 99.9548 276.947 99.5765 277.065 99.2225L277.44 99.1391C277.94 99.028 278.134 98.7225 278.023 98.2227C277.967 97.9729 277.835 97.6744 277.627 97.3273L277.856 95.7029L277.95 95.6821C278.45 95.5709 278.751 95.3071 278.856 94.8906C278.96 94.4741 278.994 94.0402 278.96 93.589C278.411 93.1865 278.31 92.586 278.657 91.7877C278.99 90.9268 279.101 90.2465 278.99 89.7467L279.407 89.8508L279.365 89.6634L279.094 89.3302C279.573 88.8304 279.865 88.3722 279.969 87.9557L280.156 87.914L279.927 87.7682C279.795 87.4698 279.712 87.3899 279.677 87.5288C279.705 87.6537 279.622 87.5739 279.427 87.2893C279.656 86.845 279.816 86.3834 279.906 85.9044C279.983 85.3629 280.128 84.8388 280.343 84.332C280.524 84.5541 280.607 84.634 280.593 84.5715C280.58 84.509 280.711 84.5125 280.989 84.5819C280.836 83.8946 280.833 83.1415 280.978 82.3223C281.187 81.4893 281.384 80.7569 281.572 80.1252C281.357 80.0419 281.249 80.0003 281.249 80.0003C281.311 79.9864 281.284 79.8614 281.166 79.6254L281.488 79.7503L281.291 79.3026C281.54 79.247 281.69 79.1811 281.738 79.1047C281.773 78.9659 281.87 78.8132 282.03 78.6465L281.884 77.9906C282.196 77.9211 282.352 77.8864 282.352 77.8864C282.415 77.8725 282.481 77.7267 282.55 77.449C282.474 77.4004 282.422 77.3137 282.394 77.1887C282.338 76.9388 282.453 76.7167 282.738 76.5223C283.085 76.314 283.328 76.2272 283.466 76.2619C283.376 76.1508 283.286 76.0398 283.196 75.9287C283.105 75.8177 283.015 75.7066 282.925 75.5955C283.126 75.6163 283.314 75.5747 283.487 75.4705C283.557 75.1928 283.57 74.9603 283.529 74.7729C283.473 74.523 283.48 74.2592 283.55 73.9815C283.647 74.4188 283.772 74.6861 283.924 74.7832C283.959 74.6444 284.015 74.3043 284.091 73.7628C284.23 73.2074 284.459 73.0582 284.778 73.315C284.861 73.0998 284.875 72.8672 284.82 72.6173C284.764 72.3674 284.785 72.1661 284.882 72.0134C284.965 72.3882 285.09 72.6555 285.257 72.8151C285.215 72.6277 285.215 72.3327 285.257 71.93C285.507 71.8745 285.732 71.8571 285.934 71.8779C286.135 71.8987 286.239 71.7772 286.246 71.5134C286.413 71.083 286.427 70.8505 286.288 70.8158C286.211 70.7672 286.538 70.4652 287.266 69.9098L287.433 70.6595L288.276 70.472C288.256 70.0832 288.387 69.7916 288.672 69.5973C288.79 69.8333 288.856 69.9825 288.87 70.045C288.946 70.0936 289.075 70.2289 289.255 70.451C289.665 70.2289 289.793 70.0692 289.641 69.972C289.474 69.8124 289.526 69.6041 289.797 69.3472C290.206 69.7151 290.651 69.9441 291.13 70.0343C291.324 70.3189 291.428 70.4925 291.442 70.5549C291.504 70.541 291.616 70.7458 291.775 71.1692C292.247 71.5232 292.664 72.5124 293.025 74.1367C293.261 75.1988 293.442 76.306 293.567 77.4583C293.754 78.5967 293.872 79.4228 293.921 79.9365L293.963 80.1239C294.171 81.061 294.379 81.9982 294.588 82.9353C294.782 83.8099 294.914 84.6984 294.984 85.6009C295.005 85.9896 295.039 86.4408 295.088 86.9545C295.199 87.4543 295.31 87.9541 295.421 88.4539C295.769 90.0158 296.348 91.5915 297.161 93.1811C298.022 94.6943 299.139 95.5931 300.514 95.8776C300.771 95.5583 300.913 95.4611 300.941 95.586C301.017 95.6346 301.16 95.5374 301.368 95.2944C301.396 95.4194 301.5 95.5929 301.68 95.815C301.652 95.6901 301.625 95.5651 301.597 95.4402C301.618 95.2388 301.638 95.0375 301.659 94.8362L301.94 94.7737C302.19 94.7182 302.433 94.6314 302.669 94.5133C302.891 94.3328 303.12 94.1835 303.356 94.0655C303.377 93.8642 303.374 93.7011 303.346 93.5761C303.367 93.3748 303.349 93.1492 303.294 92.8993C303.329 92.7605 303.308 92.6667 303.231 92.6182C303.217 92.5557 303.197 92.462 303.169 92.337L303.263 92.3162C303.401 92.3509 303.509 92.3925 303.585 92.4411C303.71 92.4133 303.811 92.4237 303.887 92.4723L303.762 91.91C303.873 91.8198 303.991 91.7608 304.116 91.733C304.241 91.7052 304.328 91.6531 304.377 91.5768C304.023 91.4588 303.748 91.2575 303.554 90.9729C303.859 90.5772 304.019 90.1156 304.033 89.588C304.047 89.0604 304.137 88.5814 304.303 88.151L304.866 88.026C304.921 87.6859 304.883 87.3665 304.751 87.0681C304.668 86.6932 304.692 86.36 304.824 86.0684C305.636 85.8879 306.077 85.3637 306.146 84.496C306.201 83.5658 306.253 82.7675 306.302 82.1011C306.642 82.1566 306.75 82.1982 306.625 82.226C306.548 82.1774 306.691 82.0802 307.052 81.9344L307.427 83.6212C306.795 84.6139 306.531 85.7871 306.636 87.1408C306.726 88.4319 306.462 89.6051 305.845 90.6603L305.574 90.3271C305.796 91.3267 305.769 92.0869 305.491 92.6075C305.199 93.0657 304.95 93.7113 304.741 94.5444C304.429 94.6138 304.113 95.1102 303.794 96.0335C303.461 96.8943 303.173 97.5156 302.93 97.8974C302.257 98.7027 301.51 99.3276 300.691 99.7719C299.858 100.154 298.942 100.456 297.943 100.678L297.151 99.7723C297.102 99.8486 296.974 100.008 296.766 100.251C296.544 100.432 296.394 100.498 296.318 100.449C295.561 100.29 294.94 100.002 294.454 99.5851C294.739 99.3907 294.836 99.238 294.746 99.1269C294.655 99.0159 294.583 98.8354 294.527 98.5855C294.326 98.5647 294.131 98.5751 293.944 98.6168C293.805 98.5821 293.642 98.5856 293.454 98.6273C293.225 97.8915 292.909 97.2077 292.507 96.5761C292.104 95.9444 291.733 95.3058 291.392 94.6603L291.153 94.0251C291.014 93.4004 290.983 92.8173 291.059 92.2758C291.135 91.7343 291.159 91.4011 291.132 91.2762C290.472 90.3738 290.052 89.5165 289.871 88.7044C289.74 87.8158 289.562 86.8718 289.34 85.8722L289.434 85.8513C289.476 86.0388 289.573 86.1811 289.725 86.2782L289.798 86.1637L289.715 85.7888L289.548 84.1541C289.354 83.8695 289.187 83.7098 289.048 83.6751C288.958 83.5641 288.833 83.2968 288.673 82.8734C289.034 82.1375 289.083 81.1761 288.819 79.9891C288.583 78.927 288.166 78.2329 287.569 77.9067C287.479 77.7956 287.295 77.7054 287.017 77.636C286.802 77.5527 286.639 77.5562 286.528 77.6465C285.39 79.0141 284.404 80.7739 283.571 82.926C282.725 85.0155 282.107 86.9558 281.718 88.7468C281.628 89.2258 281.489 90.0762 281.302 91.298C281.115 92.5198 280.889 93.7172 280.626 94.8904C280.348 96.0011 280.05 96.7231 279.73 97.0564C279.828 97.4937 279.855 97.9137 279.814 98.3163C279.772 98.7189 279.515 99.0383 279.043 99.2743C279.481 99.7671 279.55 100.375 279.252 101.097C278.953 101.818 278.697 102.433 278.481 102.94C278.148 103.8 277.805 104.762 277.451 105.824C277.097 106.886 276.622 107.844 276.025 108.698C275.476 109.476 274.678 110.014 273.63 110.312ZM330.73 99.2891C330.293 99.3863 329.811 99.428 329.283 99.4142C328.818 99.3864 328.401 99.2824 328.033 99.1019C327.589 98.8729 327.239 98.623 326.982 98.3523C326.773 98.0052 326.374 97.8317 325.784 97.8318L325.659 97.2695C325.395 97.2626 325.27 97.2904 325.284 97.3529C325.284 97.3529 325.194 97.2418 325.014 97.0197L324.993 96.926C324.923 96.6136 324.781 96.4158 324.566 96.3325C324.351 96.2492 324.222 95.8188 324.18 95.0414L323.618 95.1664C323.493 95.1941 323.264 95.0484 322.931 94.7291C322.417 94.1877 322.087 93.7365 321.941 93.3756C321.858 93.0007 321.771 92.4627 321.681 91.7616L321.119 91.8866L321.035 91.5118C321.257 91.3313 321.396 91.0709 321.452 90.7308C321.07 90.4879 320.591 89.8076 320.015 88.6901C319.438 87.5725 319.06 86.6076 318.879 85.7955C318.782 85.3581 318.751 85.0701 318.786 84.9312C318.855 84.6535 318.952 84.5008 319.077 84.473C319.202 84.4452 319.237 84.3064 319.181 84.0565C319.084 83.6192 318.938 83.2582 318.744 82.9736C318.549 82.689 318.417 82.3906 318.348 82.0782C318.251 81.6409 318.292 81.2382 318.473 80.8703C318.063 80.5024 317.806 80.2317 317.702 80.0582C317.66 79.8708 317.577 79.4959 317.452 78.9337L317.64 78.892C317.653 78.9545 317.667 79.0169 317.681 79.0794C317.744 79.0655 317.82 79.1141 317.91 79.2252C317.903 78.8989 317.903 78.6039 317.91 78.3401C317.966 77.9999 317.952 77.6424 317.868 77.2676C317.591 77.1982 317.452 77.1635 317.452 77.1635C317.514 77.1496 317.487 77.0247 317.369 76.7887L317.556 76.747C317.709 76.8442 317.91 76.865 318.16 76.8094C318.118 76.622 318.077 76.4346 318.035 76.2471C318.056 76.0458 318.077 75.8445 318.097 75.6432C317.931 75.4835 317.747 75.3933 317.545 75.3725C317.33 75.2892 317.243 75.0463 317.285 74.6437C317.32 74.5048 317.393 74.3903 317.504 74.3C317.615 74.2098 317.674 74.0327 317.681 73.7689L317.118 73.894C317.077 73.7065 317.056 73.3178 317.056 72.7277C317.042 72.0752 317.153 71.6899 317.389 71.5719C317.486 71.4192 317.559 71.3046 317.608 71.2283C317.719 71.138 317.785 70.9922 317.805 70.7909C317.548 70.5202 317.385 70.2287 317.316 69.9163C317.163 69.2291 317.177 68.4065 317.357 67.4485C317.6 66.4766 317.569 65.5985 317.263 64.8141C317.638 64.7308 317.898 64.5745 318.044 64.3455L318.002 64.158C317.947 63.9081 317.961 63.6756 318.044 63.4604C318.113 63.1827 318.159 62.9432 318.179 62.7419C317.902 62.6725 317.794 62.6309 317.857 62.617C317.919 62.6031 317.922 62.4712 317.867 62.2213L318.596 61.0758C318.38 60.9925 318.266 60.9197 318.252 60.8572C318.238 60.7947 318.172 60.6455 318.054 60.4095C318.235 60.0415 318.321 59.6944 318.314 59.3682C318.294 58.9794 318.38 58.6323 318.575 58.3269C318.7 58.2991 318.856 58.2644 319.043 58.2227C319.293 58.1671 319.435 58.0699 319.47 57.9311L319.345 57.3688C319.366 57.1675 319.463 57.0148 319.637 56.9107C319.81 56.8065 319.984 56.7024 320.157 56.5982C320.129 56.4733 320.084 56.4177 320.022 56.4316C320.022 56.4316 320.039 56.3622 320.074 56.2234C319.921 56.1262 319.689 56.1123 319.376 56.1818C319.432 55.8416 319.477 55.6021 319.511 55.4633C319.595 55.2481 319.671 55.0017 319.74 54.724L320.157 54.8281C320.33 54.7239 320.365 54.5851 320.261 54.4115C320.219 54.2241 320.223 54.0922 320.271 54.0159C320.584 53.9464 321.014 53.8179 321.563 53.6305C322.173 53.4291 322.468 53.134 322.448 52.7453L322.531 53.1201C322.947 53.2242 323.399 53.1895 323.884 53.0159C323.94 53.2658 324.044 53.4393 324.197 53.5365C324.155 53.3491 324.159 53.2172 324.207 53.1408C324.402 53.4254 324.568 53.585 324.707 53.6197C324.832 53.5919 325.065 53.6058 325.405 53.6613L325.249 54.2861C325.575 54.2791 325.707 54.2826 325.644 54.2965C325.63 54.234 325.683 54.3208 325.801 54.5568C325.891 54.6678 325.964 54.8483 326.019 55.0982C325.284 56.5074 324.784 58.0937 324.52 59.8569C324.243 61.5577 323.983 63.189 323.74 64.751C323.643 65.4937 323.598 66.3233 323.605 67.2396C323.674 68.142 323.553 68.923 323.241 69.5825L322.97 69.2493C323.067 69.6866 323.157 70.3877 323.241 71.3526C323.31 72.2551 323.217 72.866 322.96 73.1853C322.911 73.2617 322.831 73.345 322.72 73.4352C322.672 73.5116 322.623 73.588 322.575 73.6643C322.804 73.8101 322.974 74.1329 323.085 74.6326C323.196 75.1324 323.259 75.7086 323.273 76.3611C323.273 76.9512 323.269 77.3781 323.262 77.6419C323.137 79.4398 323.214 81.2586 323.492 83.0981C323.756 84.8752 324.02 86.6522 324.284 88.4293L324.43 88.2002L324.409 88.1065C324.443 87.9677 324.482 87.992 324.523 88.1794C324.627 88.3529 324.679 88.4397 324.679 88.4397C324.596 88.6549 324.596 88.9499 324.68 89.3248C324.749 89.6371 324.888 89.9668 325.096 90.3139C325.304 90.661 325.468 90.9525 325.586 91.1885C326.106 92.0562 326.533 92.9447 326.867 93.854C327.2 94.7634 327.818 95.4783 328.72 95.9989C328.713 96.2626 328.627 96.6097 328.46 97.0402C329.12 96.7624 329.73 96.8561 330.293 97.3211C330.841 97.7237 331.622 97.8451 332.636 97.6853C332.691 97.3452 332.674 97.1196 332.584 97.0085C332.479 96.835 332.632 96.6371 333.042 96.4149C332.875 96.2553 332.764 96.0505 332.708 95.8006C332.667 95.6132 332.625 95.4258 332.583 95.2383C332.604 95.037 332.618 94.8045 332.625 94.5407L333.375 94.374L333.333 94.1866C333.243 94.0755 333.177 93.9263 333.135 93.7389C333.052 93.364 333.048 92.9059 333.125 92.3644C333.263 91.809 333.236 91.3891 333.041 91.1045C333.062 90.9032 333.079 90.5387 333.093 90.0111C333.107 89.4836 333.225 89.1295 333.447 88.949C333.128 88.6922 332.895 88.3833 332.749 88.0223C332.666 87.6475 332.583 87.2727 332.499 86.8978L333.03 87.0748L332.968 86.7936C332.878 86.6826 332.812 86.5333 332.77 86.3459C332.791 86.1446 332.78 85.9502 332.739 85.7628C332.961 85.5823 333.079 85.5233 333.093 85.5857C333.093 85.5857 333.096 85.4539 333.103 85.1901C332.742 84.7458 332.454 84.187 332.239 83.5137C332.023 82.8404 331.839 82.1601 331.686 81.4729C331.575 80.9731 331.464 80.4733 331.353 79.9735C331.291 79.3973 331.211 78.8906 331.113 78.4533L331.207 78.4324L331.478 78.7656L331.27 77.8285C331.117 77.7313 331.009 77.6897 330.947 77.7036C330.947 77.7036 330.87 77.655 330.718 77.5578C330.954 77.4398 331.079 77.412 331.093 77.4745C331.155 77.4606 331.221 77.3148 331.29 77.0371L330.822 77.1413L330.676 77.3704L330.384 76.0584C330.419 75.9196 330.436 75.8502 330.436 75.8502C330.499 75.8363 330.516 75.7669 330.488 75.6419L330.301 75.6836C330.086 75.6003 329.791 75.6003 329.416 75.6837C329.027 76.2946 328.198 76.8396 326.927 77.3187C325.72 77.7839 324.758 78.0305 324.043 78.0583L323.866 77.7043C324.151 77.5099 324.3 77.4439 324.314 77.5064C324.314 77.5064 324.297 77.2808 324.262 76.8296C324.248 76.7671 324.21 76.7428 324.147 76.7567C324.133 76.6943 324.119 76.6318 324.106 76.5693C324.036 76.2569 324.071 75.8231 324.21 75.2677C324.397 74.636 324.487 74.157 324.48 73.8307C324.619 73.8654 324.813 73.855 325.063 73.7994C325.501 73.7022 325.764 73.4141 325.855 72.9351C326.125 72.6782 326.333 72.4352 326.479 72.2062C326.611 71.9146 326.743 71.623 326.875 71.3315L326.958 71.7063L327.375 71.8104L327.062 71.2898L328.093 71.0606C328.274 71.2827 328.333 71.4007 328.27 71.4146C328.256 71.3521 328.367 71.2619 328.603 71.1438C328.735 71.4423 328.77 71.5985 328.707 71.6124C328.694 71.5499 328.825 71.5534 329.103 71.6228C329.235 71.3312 329.277 71.2236 329.228 71.3C329.242 71.3624 329.374 71.3659 329.624 71.3103C329.742 71.5464 329.86 71.7824 329.978 72.0184C330.082 72.1919 330.186 72.3654 330.29 72.539C330.603 72.4695 330.821 72.4209 330.946 72.3931C331.12 72.289 331.304 72.3792 331.498 72.6638C331.373 72.6916 331.2 72.7957 330.978 72.9762L332.248 72.4971C332.22 72.3722 332.185 72.216 332.144 72.0286C332.164 71.8272 332.192 71.6572 332.227 71.5183L332.352 72.0806L333.476 71.8306C333.553 71.2891 333.605 71.0809 333.633 71.2058C333.709 71.2544 333.976 71.1294 334.434 70.8309C334.33 70.6573 334.257 70.4769 334.216 70.2894C334.174 70.102 334.164 69.9076 334.184 69.7063C334.337 69.8035 334.476 69.8382 334.601 69.8104C334.913 69.741 335.205 69.5778 335.475 69.3209C335.746 69.0641 335.906 68.8974 335.954 68.8211L335.663 68.3942C336.197 68.1442 336.406 67.9012 336.287 67.6652C336.232 67.4153 336.655 67.2556 337.558 67.1861C337.468 67.0751 337.426 66.8876 337.433 66.6238C337.585 66.721 337.745 66.8494 337.912 67.0091C338.127 67.0923 338.287 67.2208 338.391 67.3943C338.231 67.5609 338.179 67.7692 338.235 68.0191C338.353 68.2551 338.377 68.5119 338.308 68.7896C338.204 69.2061 337.745 69.7997 336.933 70.5703C336.121 71.3409 335.271 72.0872 334.382 72.8093C333.48 73.4688 332.817 73.8785 332.394 74.0382C332.873 75.3085 333.279 76.3983 333.612 77.3076C334.008 78.2031 334.324 79.1818 334.56 80.2439C334.644 80.6188 334.734 81.0248 334.831 81.4622C334.928 81.8995 334.97 82.3819 334.956 82.9095C334.977 83.2982 335.182 83.7772 335.571 84.3464C336.008 84.8392 336.157 85.3633 336.019 85.9187C336.012 86.1824 335.928 86.3976 335.769 86.5643C335.609 86.7309 335.519 86.9149 335.498 87.1162L335.519 87.2099C335.894 88.8967 335.998 90.8404 335.832 93.0409C335.714 95.1651 334.847 96.866 333.229 98.1434C332.688 98.6572 331.855 99.039 330.73 99.2891ZM326.188 74.4345C326.257 74.7469 326.24 75.1113 326.136 75.5278C326.094 75.9305 326.108 76.288 326.178 76.6003L326.365 76.5587L326.605 76.3087L326.334 75.9756L326.896 75.8505C326.931 75.7117 326.941 75.611 326.927 75.5486C326.962 75.4097 327.004 75.3021 327.052 75.2258C327.233 75.4479 327.285 75.5347 327.208 75.4861C327.132 75.4375 327.233 75.4479 327.51 75.5173C327.455 75.2674 327.476 75.0661 327.573 74.9133L327.698 75.4756C328.087 75.4547 328.489 75.4963 328.906 75.6004C328.878 75.4755 328.819 75.3575 328.729 75.2464C328.701 75.1215 328.68 75.0278 328.666 74.9653C328.611 74.7154 328.659 74.344 328.812 73.8511C328.722 73.7401 328.624 73.5978 328.52 73.4242C328.416 73.2507 328.288 73.1153 328.135 73.0182C327.878 73.3375 327.583 73.6326 327.25 73.9033C326.965 74.0977 326.597 74.2123 326.146 74.2471L326.188 74.4345ZM384.791 86.5814C384.604 86.6231 384.392 86.7029 384.156 86.8209C383.982 86.9251 383.802 86.998 383.614 87.0397L383.469 86.3837L383.281 86.4254C383.073 86.6683 382.851 86.8488 382.615 86.9669C382.219 86.6615 381.813 86.4567 381.396 86.3527C381.028 86.1722 380.72 85.8147 380.47 85.2803C380.539 85.0026 380.56 84.8013 380.532 84.6763C380.268 84.6694 380.122 84.6035 380.095 84.4785C380.067 84.3536 380.039 84.2286 380.011 84.1037C380.032 83.9024 379.872 83.7739 379.532 83.7184C379.546 83.7809 379.567 83.8746 379.595 83.9996C379.623 84.1245 379.567 84.1697 379.428 84.135C379.31 83.3089 379.129 82.4967 378.886 81.6985C378.643 80.9002 378.4 80.1019 378.157 79.3036L378.532 79.2203C378.629 79.0675 378.657 78.8975 378.615 78.71C378.56 78.4602 378.511 78.2415 378.47 78.0541L377.907 78.1791C377.602 76.8046 377.421 75.4024 377.365 73.9724C377.31 72.5424 377.067 71.1541 376.636 69.8074C376.761 69.7796 376.935 69.6755 377.157 69.495L376.594 69.62L376.469 69.0577C376.4 68.7454 376.331 68.433 376.261 68.1206C376.254 67.7943 376.261 67.5306 376.282 67.3292C376.393 67.239 376.473 67.1557 376.521 67.0793C376.632 66.9891 376.712 66.9058 376.761 66.8294L376.698 66.5483C376.657 66.3608 376.552 66.1873 376.386 66.0277C376.268 65.7916 376.157 65.5869 376.053 65.4133L375.99 65.1322C375.921 64.8198 375.862 64.4068 375.813 63.8931C375.75 63.317 375.684 62.8727 375.615 62.5603L375.802 62.5186C375.983 62.7408 376.035 62.8275 375.959 62.7789C375.945 62.7165 376.045 62.7269 376.261 62.8102L376.115 62.1542L375.74 62.2375L375.49 61.998C375.525 62.4493 375.497 63.2094 375.407 64.2784C375.379 65.3336 375.275 66.0451 375.095 66.4131C374.977 66.177 374.918 66.059 374.918 66.059C374.98 66.0452 374.879 66.0347 374.616 66.0278C374.595 66.2291 374.536 66.4062 374.439 66.5589C374.342 66.7116 374.289 66.9199 374.283 67.1837C374.519 67.0656 374.741 66.8851 374.949 66.6421L375.157 67.5793C374.776 68.5164 374.647 69.5612 374.772 70.7135C374.897 71.8658 374.755 72.8481 374.346 73.6603C374.297 73.7367 374.186 73.827 374.013 73.9311C373.901 74.0214 373.804 74.1741 373.721 74.3893C373.943 74.7988 374.013 75.4062 373.929 76.2115C373.832 76.9543 373.548 77.4437 373.076 77.6798C373.208 78.5683 373.145 79.4673 372.889 80.3767C372.694 81.2722 372.569 82.185 372.514 83.1152L372.056 82.8237C372.556 83.8927 372.532 84.816 371.983 85.5935C371.421 86.3086 370.602 86.7529 369.526 86.9266C369.005 86.6489 368.433 86.5796 367.808 86.7185L367.683 86.1562C367.53 86.059 367.346 85.9688 367.131 85.8855C366.978 85.7884 366.794 85.6982 366.579 85.6149L366.288 86.0731L366.246 85.8856C365.954 85.7538 365.673 85.5213 365.402 85.1881C365.118 84.7924 364.885 84.4835 364.705 84.2614C364.538 84.1018 364.413 83.8345 364.33 83.4597C364.232 83.0224 364.191 82.5399 364.205 82.0123C364.316 81.9221 364.434 81.8631 364.559 81.8353C364.684 81.8075 364.77 81.7554 364.819 81.6791L364.069 81.8457L363.861 80.9086L364.329 80.8045C364.364 80.6656 364.406 80.558 364.454 80.4816C364.552 80.3289 364.562 80.2283 364.486 80.1797L364.423 79.8985C364.34 79.5237 364.208 79.2252 364.027 79.0031C363.847 78.781 363.628 78.5346 363.371 78.2639C363.767 77.9792 363.961 77.6737 363.954 77.3475C363.635 77.0907 363.434 76.7748 363.35 76.4C363.253 75.9627 363.218 75.5115 363.246 75.0464C363.322 74.5049 363.249 74.0294 363.027 73.6198C363.228 73.6407 363.447 73.592 363.683 73.474L363.641 73.2866L363.079 73.4116L362.85 72.3808C362.794 72.1309 362.746 71.9122 362.704 71.7248C362.711 71.461 362.78 71.1833 362.912 70.8917C362.655 70.621 362.499 70.3607 362.444 70.1108C362.416 69.9859 362.388 69.8609 362.36 69.736C362.381 69.5347 362.378 69.3715 362.35 69.2466C362.648 69.1147 362.805 69.0799 362.818 69.1424C362.881 69.1285 362.947 68.9828 363.016 68.7051C362.662 68.5871 362.443 68.3407 362.36 67.9658C362.318 67.7784 362.308 67.584 362.329 67.3827C362.336 67.1189 362.35 66.8864 362.37 66.6851L362.62 66.9245C362.759 66.9592 362.815 66.9141 362.787 66.7892C362.745 66.6017 362.718 66.4768 362.704 66.4143C362.412 66.2825 362.284 66.1471 362.318 66.0083C362.339 65.807 362.322 65.5813 362.266 65.3314C362.016 65.387 361.93 65.4391 362.006 65.4877C362.068 65.4738 361.961 65.4321 361.683 65.3627C361.759 66.0014 361.742 66.6609 361.631 67.3412C361.569 67.9451 361.545 68.5733 361.559 69.2259L361.236 69.1009C361.291 69.3508 361.274 70.0103 361.184 71.0793C361.142 72.072 361.038 73.0786 360.872 74.0991C360.768 75.1056 360.643 75.7234 360.497 75.9525C360.393 75.779 360.348 75.7235 360.362 75.786C360.424 75.7721 360.317 75.7304 360.039 75.661C360.351 76.1816 360.421 77.0841 360.247 78.3683C360.06 79.5901 359.817 80.857 359.519 82.169C359.207 83.4186 359.033 84.4078 358.999 85.1367C358.86 85.102 358.79 85.0846 358.79 85.0846C358.776 85.0221 358.752 85.0603 358.717 85.1992C358.544 85.3033 358.409 85.4317 358.311 85.5845C358.263 85.6608 358.159 85.7823 357.999 85.949C358.242 86.1572 358.405 86.4487 358.489 86.8236C358.711 87.8232 358.503 88.6562 357.864 89.3227L357.583 89.3852C357.396 89.4268 357.191 89.5379 356.969 89.7184C356.795 89.8226 356.483 89.892 356.031 89.9268C354.574 89.8575 353.376 89.337 352.439 88.3653L352.241 88.8026C352.186 88.5527 352.054 88.2542 351.845 87.9072C351.596 87.9627 351.477 88.0217 351.491 88.0842C351.505 88.1467 351.422 88.0669 351.241 87.8447C350.985 87.574 350.821 87.2825 350.752 86.9701C350.683 86.6578 350.669 86.3003 350.71 85.8976C350.814 85.4811 350.825 85.0854 350.741 84.7106C350.63 84.2108 350.425 83.7318 350.127 83.2737C349.891 82.8017 349.755 82.3401 349.721 81.8889C350.033 81.8194 350.189 81.7847 350.189 81.7847C350.189 81.7847 350.147 81.5973 350.064 81.2224C349.835 81.0767 349.644 80.6602 349.491 79.973C349.339 79.2857 349.234 78.5221 349.179 77.6822C349.172 76.7659 349.234 76.1619 349.366 75.8704C349.422 76.1203 349.526 76.2938 349.678 76.391C349.546 75.5024 349.383 74.6209 349.189 73.7462C349.057 72.8577 349.018 71.9483 349.074 71.0181C348.824 71.0737 348.706 71.1327 348.72 71.1952C348.734 71.2576 348.65 71.1778 348.47 70.9557C348.782 70.8862 349.018 70.7682 349.178 70.6016L348.949 70.4558L348.387 70.5808L348.105 68.8732C348.605 68.7621 348.883 68.5364 348.938 68.1963C348.862 68.1477 348.792 68.1304 348.73 68.1442C348.654 68.0957 348.546 68.054 348.407 68.0193L348.595 67.9777C348.678 67.7625 348.733 67.7173 348.761 67.8423C348.775 67.9048 348.785 67.8041 348.792 67.5403C348.841 67.4639 348.844 67.332 348.803 67.1446C348.733 66.8323 348.553 66.6101 348.261 66.4783C347.956 66.2839 347.859 65.8466 347.97 65.1663L348.251 65.1038C348.119 64.8053 348.008 64.6005 347.917 64.4895C347.876 64.3021 347.848 64.1771 347.834 64.1146C347.806 63.9897 347.817 63.889 347.865 63.8127C347.962 63.6599 348.046 63.4447 348.115 63.1671C347.942 62.6811 347.768 62.1952 347.594 61.7093C347.407 61.161 347.251 60.6056 347.126 60.0434C347.195 59.7657 347.334 59.5054 347.542 59.2624C347.75 59.0194 347.927 58.7833 348.073 58.5543C347.781 58.4224 347.545 58.2454 347.365 58.0233C347.233 57.7248 347.046 57.4714 346.803 57.2632L346.823 57.3569C346.532 57.2251 346.313 56.9786 346.167 56.6177C346.084 56.2428 346.046 55.9235 346.053 55.6597C345.782 55.3266 345.463 55.0697 345.095 54.8893C344.727 54.7088 344.39 54.5215 344.085 54.3271C343.973 54.4174 343.793 54.4903 343.543 54.5458C343.356 54.5875 343.137 54.6361 342.887 54.6917C342.2 54.8445 341.461 54.9105 340.669 54.8898C339.864 54.8065 339.361 54.4595 339.159 53.8486L339.347 53.807C339.513 53.9666 339.659 54.0325 339.784 54.0048C339.909 53.977 340.103 53.9666 340.367 53.9735C340.284 53.5986 340.18 53.4251 340.055 53.4529C339.978 53.4043 340.152 53.3001 340.575 53.1404L340.763 53.0988C341.075 53.0293 341.422 52.821 341.804 52.4739C342.248 52.1129 342.689 51.8838 343.126 51.7865C343.376 51.731 343.643 51.606 343.928 51.4116C344.213 51.2172 344.504 51.054 344.803 50.9221C345.129 50.9151 345.4 50.9533 345.615 51.0366C345.879 51.0435 346.135 51.0192 346.385 50.9636C346.76 50.8803 347.038 50.6546 347.218 50.2867C347.329 50.1964 347.867 50.1096 348.832 50.0262C349.797 49.9428 350.412 49.9046 350.675 49.9115L350.904 50.0572C351.036 50.3557 351.137 50.6611 351.206 50.9735C351.276 51.2859 351.345 51.5983 351.415 51.9106C351.706 53.2226 351.936 54.5485 352.102 55.8882C352.269 57.2279 352.429 58.5365 352.582 59.8137L351.926 59.9596C352.127 60.5704 352.259 60.8689 352.322 60.855C352.433 60.7648 352.547 60.8376 352.665 61.0736C352.679 61.1361 352.693 61.1986 352.707 61.2611C352.769 61.2472 352.808 61.2715 352.821 61.3339C352.891 61.6463 352.894 62.1045 352.832 62.7084C352.756 63.2499 352.745 63.6456 352.801 63.8955C352.995 64.7701 353.096 65.6656 353.103 66.5819C353.173 67.4843 353.273 68.3798 353.405 69.2683C353.294 69.3586 353.176 69.4176 353.051 69.4454C352.989 69.4593 352.902 69.5114 352.791 69.6016C353.117 69.5946 353.249 69.5981 353.187 69.612C353.173 69.5495 353.287 69.6224 353.53 69.8306C353.343 69.8723 353.138 69.9834 352.916 70.1639C353.347 70.3304 353.603 70.6011 353.687 70.976C353.784 71.4133 353.739 71.9478 353.552 72.5795C353.413 73.1349 353.378 73.5688 353.448 73.8811C353.531 74.256 353.645 74.6239 353.791 74.9848C353.986 75.2694 354.118 75.5679 354.187 75.8803C354.229 76.0677 354.229 76.3627 354.187 76.7654L353.708 77.2652C353.701 77.529 353.854 78.2162 354.167 79.3269C354.542 80.4237 354.923 81.5517 355.312 82.7109C355.701 83.8701 355.937 84.6372 356.021 85.012L356.718 85.0536L356.677 84.8662C356.538 84.8315 356.447 84.7204 356.406 84.533C356.614 84.29 356.86 84.0713 357.145 83.8769C357.43 83.6825 357.645 83.4708 357.791 83.2417C357.714 83.1931 357.607 83.1515 357.468 83.1168C357.329 83.0821 357.19 83.0474 357.051 83.0127C357.148 82.86 357.277 82.7003 357.436 82.5337C357.645 82.2907 357.822 82.0546 357.967 81.8255C357.863 81.652 357.766 81.5097 357.676 81.3987C357.634 81.2112 357.606 81.0863 357.592 81.0238C357.509 80.649 357.592 80.4338 357.842 80.3782C358.092 80.3226 358.259 80.1873 358.342 79.9721C358.46 79.618 358.436 79.0661 358.269 78.3164C358.165 77.5529 358.189 76.9246 358.342 76.4317C358.397 76.0916 358.616 75.748 358.998 75.4008C359.365 74.9912 359.57 74.5851 359.612 74.1825C359.556 73.9326 359.407 73.7035 359.164 73.4953C359.428 72.9122 359.528 72.0375 359.466 70.8713C359.452 69.6287 359.438 68.3861 359.424 67.1435C359.472 65.8871 359.666 64.9916 360.007 64.457C360.09 64.2418 360.138 64.1654 360.152 64.2279C360.215 64.214 360.204 64.0197 360.121 63.6448C360.079 63.4574 360.149 62.8847 360.329 61.9267C360.572 60.9548 360.711 60.3995 360.745 60.2606C360.377 60.0802 360.152 59.8025 360.068 59.4277C359.957 58.9279 360.041 58.4177 360.318 57.897C360.596 57.3763 360.724 56.9216 360.703 56.5329L360.662 56.3455C360.606 56.0956 360.471 55.929 360.256 55.8457C360.103 55.7485 360.037 55.5993 360.058 55.398C360.072 54.8704 360.165 54.5546 360.339 54.4504C360.561 54.2699 360.505 53.725 360.172 52.8156C360.408 52.6976 360.543 52.5692 360.578 52.4303C361.106 52.4442 361.841 52.51 362.786 52.6279C363.73 52.7459 364.375 52.9957 364.722 53.3775C364.903 53.5996 364.99 53.8425 364.983 54.1063C365.038 54.3562 365.118 54.5679 365.222 54.7415C365.319 54.5887 365.368 54.5124 365.368 54.5124C365.431 54.4985 365.507 54.5471 365.597 54.6581C365.75 54.7553 365.854 54.9288 365.91 55.1787C365.965 55.4286 366.014 55.6473 366.055 55.8347C365.847 56.0777 365.799 56.7441 365.91 57.834C366.007 58.8613 366.09 59.5312 366.16 59.8436C365.91 59.8991 365.737 60.0033 365.639 60.156C366.07 60.3226 366.32 60.562 366.389 60.8744C366.486 61.3117 366.32 61.7421 365.889 62.1656C365.883 62.4294 365.949 62.5787 366.087 62.6134C366.275 62.5717 366.375 62.5821 366.389 62.6446L366.973 67.0386C367.028 67.2885 366.966 67.5975 366.786 67.9654C366.605 68.3333 366.543 68.6422 366.598 68.8921C366.654 69.142 366.744 69.2531 366.869 69.2253C366.994 69.1975 367.07 69.2461 367.098 69.3711L367.786 73.3486C367.827 73.5361 367.706 73.727 367.421 73.9214C367.185 74.0394 367.14 74.2789 367.286 74.6399L367.932 74.8897C368.14 75.2368 368.255 75.8997 368.275 76.8785C368.345 77.7809 368.484 78.7007 368.692 79.6378C368.928 80.6999 369.341 81.5259 369.932 82.1159C370.022 81.6369 370.216 81.3314 370.515 81.1995C370.799 81.0051 370.931 80.7135 370.91 80.3248C370.91 80.3248 370.82 80.2137 370.639 79.9916L371.347 79.6375C371.257 79.5265 371.174 79.4466 371.098 79.3981C371.021 79.3495 370.938 79.2696 370.848 79.1586C371.021 79.0544 371.195 78.9503 371.368 78.8462C371.542 78.742 371.715 78.6379 371.889 78.5337C371.66 78.388 371.493 78.2283 371.389 78.0548C371.569 77.6869 371.642 77.2773 371.608 76.8261C371.635 76.361 371.646 75.9653 371.639 75.639C371.736 75.4863 371.871 75.3579 372.045 75.2537C372.218 75.1496 372.354 75.0211 372.451 74.8684C372.236 74.7851 372.135 74.7747 372.149 74.8372C372.225 74.8858 372.173 74.799 371.993 74.5769C372.43 74.4797 372.603 74.3755 372.513 74.2645C372.485 74.1395 372.43 73.8896 372.346 73.5148L372.159 73.5564C372.43 73.2996 372.575 73.0705 372.596 72.8692C372.319 72.7998 372.218 72.7894 372.294 72.838C372.357 72.8241 372.305 72.7373 372.138 72.5777C372.381 72.1958 372.603 71.4253 372.804 70.266C373.005 69.1067 373.262 68.1973 373.575 67.5378C373.373 67.517 373.158 67.4337 372.929 67.2879C373.012 67.0727 373.05 66.802 373.043 66.4757C373.099 66.1356 373.213 65.9134 373.387 65.8093C373.505 65.4553 373.609 65.3338 373.699 65.4448C373.79 65.5559 373.817 65.3858 373.783 64.9346C373.63 64.8374 373.435 64.5528 373.199 64.0808L373.428 64.2266L373.449 64.3203C373.588 64.355 373.644 64.3098 373.616 64.1849C373.574 63.9975 373.546 63.8725 373.533 63.81C373.609 63.2686 373.623 62.741 373.574 62.2273C373.588 61.6997 373.602 61.1722 373.615 60.6446L373.99 60.5612C374.171 60.7834 374.261 60.8944 374.261 60.8944L374.074 60.051L373.886 60.0927L373.761 60.4155L373.657 59.9469L373.782 59.6241L373.761 59.5304C373.692 59.218 373.73 58.9473 373.876 58.7182C374.07 58.4128 374.164 58.0969 374.157 57.7706L374.136 57.6769C374.108 57.552 374.049 57.434 373.959 57.3229C373.869 57.2119 373.81 57.0939 373.782 56.9689C373.712 56.6565 373.771 56.4795 373.959 56.4378C374.195 56.3198 374.323 56.1601 374.344 55.9588L373.844 54.5948C373.899 54.2547 373.993 53.9388 374.125 53.6472C374.243 53.2932 374.337 52.9773 374.406 52.6996L374.052 51.9916C374.149 51.8389 374.267 51.7799 374.406 51.8146C374.545 51.8493 374.628 51.6341 374.656 51.169C374.378 51.0996 374.17 51.0475 374.031 51.0128L374.093 49.5238C374.232 49.5585 374.347 49.6314 374.437 49.7424C374.513 49.791 374.621 49.8327 374.76 49.8674C374.753 49.5411 374.718 49.3849 374.656 49.3988C374.656 49.3988 374.774 49.3398 375.01 49.2218C375.391 49.4647 375.85 49.4612 376.384 49.2112C376.572 49.7596 376.676 49.9331 376.697 49.7318C376.78 49.5166 376.981 49.5374 377.3 49.7942L377.655 50.5022L377.842 50.4606C378.154 50.3911 378.318 50.3876 378.331 50.4501C378.331 50.4501 378.453 50.5542 378.696 50.7625C379.196 51.2414 379.529 51.8557 379.696 52.6054C379.904 53.5425 379.946 54.615 379.821 55.8229C379.682 56.9683 379.71 57.9783 379.905 58.853C380.002 59.2903 380.116 59.6582 380.248 59.9567C380.366 60.1927 380.46 60.4669 380.53 60.7792C380.668 61.404 380.55 62.0531 380.176 62.7265C380.19 62.7889 380.172 62.8583 380.124 62.9347C380.124 62.9347 380.131 62.9659 380.144 63.0284C380.2 63.2783 380.419 63.5247 380.801 63.7677L381.426 68.3492L380.947 68.849C380.898 68.9254 380.888 69.026 380.916 69.151C380.971 69.4009 381.11 69.7306 381.332 70.1401C381.603 70.4733 381.794 70.8898 381.905 71.3896C381.947 71.577 381.957 71.7714 381.936 71.9727C381.978 72.1601 381.988 72.3545 381.968 72.5558L381.593 72.6392C381.572 72.8405 381.725 73.5277 382.051 74.7008C382.426 75.7976 382.607 76.6098 382.593 77.1373L383.53 78.6991L383.468 79.3031C383.662 79.5877 383.874 79.8028 384.103 79.9486C384.395 80.0805 384.62 80.3581 384.78 80.7815C385.078 80.6496 385.429 80.3094 385.832 79.761C386.22 79.1501 386.307 78.803 386.092 78.7197C386.189 78.567 386.338 78.501 386.539 78.5218C386.789 78.4663 386.987 78.3239 387.133 78.0948L387.008 77.5326C387.105 77.3798 387.206 77.3902 387.31 77.5638C387.463 77.6609 387.598 77.5325 387.716 77.1785L387.695 77.0847C387.667 76.9598 387.57 76.8175 387.403 76.6579C387.299 76.4843 387.209 76.3733 387.133 76.3247C387.272 76.3594 387.435 76.3559 387.622 76.3142C387.934 76.2448 388.118 76.04 388.174 75.6998L388.361 75.6581C388.209 75.561 387.917 75.4291 387.487 75.2626L387.736 74.6169L388.34 74.6794L388.257 74.3045C388.188 73.9921 388.174 73.6346 388.215 73.232C388.257 72.8294 388.458 72.5552 388.819 72.4093C388.771 71.8957 388.774 71.4687 388.829 71.1286C388.885 70.7884 389.239 70.6114 389.892 70.5974C389.76 70.299 389.624 70.1324 389.485 70.0977C389.409 70.0491 389.256 69.9519 389.027 69.8062C389.367 69.2716 389.711 68.6052 390.058 67.8068C390.391 66.946 390.519 66.1963 390.443 65.5576L391.526 65.1202L391.817 66.4322C391.623 66.7376 391.505 67.0917 391.463 67.4943C391.47 67.8206 391.477 68.1468 391.484 68.4731L390.922 68.5981C391.075 69.2853 391.082 69.9066 390.943 70.462C390.79 70.9548 390.721 71.5275 390.735 72.1801C390.298 72.2773 390.121 72.5133 390.204 72.8882C390.218 72.9507 390.246 73.0756 390.287 73.263C390.378 73.3741 390.437 73.4921 390.465 73.617C390.242 73.7976 390.138 73.919 390.152 73.9815C390.152 73.9815 390.187 74.1377 390.256 74.4501C390.055 74.4293 389.868 74.4709 389.694 74.5751C389.812 74.8111 389.788 75.4393 389.621 76.4598C389.503 77.4039 389.323 78.3619 389.08 79.3337C388.837 80.3056 388.612 80.913 388.404 81.156C388.293 81.2463 388.119 81.3504 387.883 81.4685C387.633 81.524 387.46 81.6282 387.362 81.7809L387.8 82.8638C387.744 83.2039 387.564 83.5718 387.258 83.9676C387.002 84.2869 386.821 84.6548 386.717 85.0714L386.259 84.7799C386.363 85.5434 386.037 86.1405 385.28 86.5709C385.204 86.5223 385.041 86.5258 384.791 86.5814ZM408.744 79.5841L408.64 80.0006L408.296 79.782C407.109 80.0459 406.019 79.862 405.027 79.2304L404.902 79.5532C404.076 79.0813 403.239 78.415 402.392 77.5543L402.704 77.1898L402.413 76.7629L402.152 76.9191L401.111 75.7738L401.174 75.1699C400.597 74.6424 400.208 74.0732 400.007 73.4623L400.101 73.4415L400.465 73.7538L400.528 73.1499L400.049 72.7647C399.917 72.4662 399.646 71.838 399.236 70.8801C398.813 69.8597 398.525 69.0059 398.372 68.3186C398.247 67.7564 398.233 67.3989 398.33 67.2461L397.841 66.3715L398.497 66.2257C398.483 66.1632 398.382 65.8578 398.194 65.3094C398.007 64.761 397.82 64.2126 397.632 63.6643C397.493 63.0395 397.396 62.6022 397.34 62.3523L397.944 62.4147L397.882 62.1336L397.288 61.6755L397.267 60.6967L397.569 60.7279L397.465 60.2593L397.059 59.7596L397.527 59.6554C397.396 59.3569 397.264 59.0584 397.132 58.7599C397.062 58.4476 397 58.1664 396.944 57.9165L397.257 57.5521L396.819 57.3543L396.788 55.001L396.579 54.949C396.76 54.581 396.815 54.2409 396.746 53.9285C396.725 53.5398 396.711 53.1823 396.704 52.856L397.058 52.679L396.756 51.7627L397.037 51.7002L397.131 50.7943C396.971 50.9609 396.864 50.9192 396.808 50.6693C396.739 50.357 396.648 50.2459 396.537 50.3362C396.69 49.8433 396.742 49.34 396.693 48.8263C396.707 48.2987 396.822 47.7816 397.037 47.2748L396.631 46.775L396.756 45.5671L397.245 45.5567L397.464 45.213L396.714 45.3797L396.724 44.984L397.62 44.5883L397.515 44.1197L396.745 44.1927C396.78 44.0538 396.814 43.915 396.849 43.7761C396.87 43.5748 396.842 43.4499 396.766 43.4013L397.036 42.8494L396.859 42.4954L397.286 41.3187L398.775 41.381L398.442 40.7667L398.536 40.7459C399.195 41.0582 399.834 41.2768 400.452 41.4017C401.069 41.5266 401.5 41.9882 401.743 42.7864L402.399 42.6406C402.677 43.3 403.173 43.6158 403.888 43.588C404.589 43.4977 405.183 43.6608 405.669 44.0772L406.054 43.5982L407.231 44.025L407.147 44.5352C407.946 44.2922 408.747 44.2123 409.553 44.2955C410.42 44.3648 411.003 44.9236 411.302 45.9717L411.76 45.3782C412.558 45.7252 413.069 46.3985 413.291 47.3981L412.937 47.5751L413.354 48.5643C412.847 48.9392 412.694 49.4321 412.896 50.0429C413.159 50.6399 413.139 51.1362 412.833 51.532L412.552 51.5945C412.545 52.4483 412.184 53.1842 411.469 53.802C410.803 54.3436 410.296 55.0135 409.949 55.8118L409.658 55.385L409.564 55.4058L409.637 56.1763L408.846 57.0407L408.908 57.3218L408.315 57.7488L408.429 57.8216L407.867 57.9467C407.673 58.2521 407.416 58.5715 407.097 58.9047C406.763 59.1755 406.455 59.408 406.17 59.6024L406.201 59.3005C405.993 59.5435 405.799 59.8489 405.618 60.2168C405.486 60.5084 405.278 60.7514 404.994 60.9458L404.837 60.6855L404.265 61.2062L404.587 61.3311L403.036 61.8727L402.963 61.9873L403.265 62.9036L402.536 63.1639C402.988 63.1292 403.331 63.6428 403.567 64.7049C403.706 65.3297 403.758 66.0065 403.724 66.7354C403.738 67.3879 403.703 67.8218 403.62 68.037L404.182 67.912L404.286 68.3805L404.078 68.3285C404.245 69.0782 404.505 69.807 404.859 70.515C405.262 71.1467 405.609 71.8235 405.901 72.5454L405.692 72.4934C405.748 72.7433 405.956 73.0903 406.317 73.5346C406.664 73.9163 406.977 74.1419 407.254 74.2113L407.254 75.0964L407.348 75.0755L407.546 74.6382L408.629 75.0858L408.754 75.6481C409.441 75.4953 410.097 75.3495 410.722 75.2106C411.395 74.9953 412.03 74.7557 412.627 74.4919L412.294 73.8776L413.127 73.2007L413.346 73.7421L413.398 72.6488L413.585 72.6071L413.71 73.1694L413.804 73.1485L413.637 72.3988L413.731 72.378L413.95 72.9194L414.533 72.0031L414.21 71.8782L415.532 69.4206L415.907 69.3373L416.292 67.9732L416.688 67.9836L416.25 67.7858C416.306 67.4456 416.431 67.1228 416.625 66.8174C416.805 66.4494 416.962 66.1197 417.094 65.8281L417.395 65.8593L417.489 64.9534L417.812 65.0783C417.742 64.7659 417.735 64.4397 417.791 64.0995C417.895 63.683 417.951 63.3429 417.957 63.0791L418.353 63.0894C418.103 61.9649 418.44 60.9722 419.363 60.1113L418.811 59.8406L419.175 59.2679L420.071 58.8721L420.404 60.3715L420.029 60.4549L420.342 60.9755L419.842 61.3816L420.3 61.6731L420.207 62.579L420.113 62.5999C419.863 62.6554 419.759 62.7769 419.801 62.9643C419.842 63.1518 419.86 63.3774 419.853 63.6412L419.353 63.1622L419.436 63.5371C419.533 63.9744 419.544 64.4638 419.468 65.0053L418.562 64.9116C418.714 65.0088 418.818 65.1823 418.874 65.4322C418.957 65.8071 418.878 66.1854 418.635 66.5672L419.072 66.765C418.94 67.0566 418.86 67.1399 418.833 67.015C418.791 66.8275 418.763 66.7026 418.749 66.6401L418.603 66.8692L418.801 67.3169L418.333 67.4211L417.896 68.1084L418.395 68.5873L418 68.577C417.958 68.9796 417.753 69.6807 417.386 70.6804C417.08 71.6661 416.716 72.2389 416.292 72.3986C416.417 72.9608 416.372 73.4954 416.157 74.0021C415.928 74.4464 415.598 74.8803 415.168 75.3038L415.001 74.5541L414.398 75.3768C414.453 75.6267 414.561 75.6683 414.72 75.5017C414.88 75.3351 414.97 75.1511 414.991 74.9498L415.231 75.585C414.87 75.7308 414.592 75.9564 414.398 76.2619C414.203 76.5673 413.919 76.7617 413.544 76.8451C413.537 77.6989 413.117 78.3168 412.284 78.6986C411.514 79.0666 410.778 79.2958 410.077 79.3861L410.025 79.5944L409.483 79.8131L409.421 79.5319L408.744 79.5841ZM402.702 58.6032C402.8 59.0405 402.893 59.3147 402.984 59.4258L404.493 58.6967C404.424 58.3843 404.438 58.1518 404.535 57.9991C404.66 57.9713 404.733 57.8567 404.754 57.6554L405.306 57.9261C405.319 57.3985 405.507 57.0618 405.868 56.916L405.545 56.7911C405.802 56.4717 406.059 56.1524 406.315 55.833C406.635 55.4998 406.891 55.1805 407.086 54.875L407.294 54.927L407.45 55.1873C407.547 55.0346 407.596 54.9582 407.596 54.9582C407.645 54.8819 407.693 54.8055 407.742 54.7292C407.561 54.507 407.464 54.3647 407.45 54.3023C407.783 54.0315 407.964 53.6636 407.992 53.1985L408.481 53.188L408.189 52.7611C408.314 52.7333 408.432 52.6743 408.543 52.5841C408.654 52.4938 408.734 52.4105 408.783 52.3341L408.46 52.2092C408.647 52.1675 408.814 52.0322 408.96 51.8031C408.87 51.692 408.79 51.4803 408.72 51.1679L408.793 51.0534C408.918 51.0256 409.019 51.036 409.095 51.0846C409.22 51.0568 409.345 51.029 409.47 51.0012C409.164 50.8069 408.977 50.5536 408.908 50.2412C409.282 50.1578 409.494 50.078 409.543 50.0016C409.383 49.5782 409.275 49.2415 409.22 48.9916C409.213 48.6654 409.161 48.2836 409.064 47.8463C408.786 47.7769 408.626 47.6485 408.584 47.461C408.529 47.2111 408.387 47.0133 408.158 46.8676L408.012 47.0966L407.481 46.9197L407.491 46.524C407.227 46.5171 406.957 46.4789 406.679 46.4095C406.387 46.2777 406.117 46.2395 405.867 46.2951L405.783 45.9202C405.471 45.9897 405.176 45.9897 404.898 45.9203C404.683 45.8371 404.451 45.8232 404.201 45.8788C404.076 45.3165 403.746 45.1603 403.211 45.4103C403.281 45.7227 403.211 46.0003 403.003 46.2433C402.857 46.4724 402.871 46.8299 403.045 47.3158C402.92 47.3436 402.833 47.3957 402.785 47.472C402.736 47.5484 402.656 47.6317 402.545 47.722C402.712 47.8816 402.792 48.3884 402.785 49.2422C402.778 50.096 402.709 50.9638 402.577 51.8454C402.431 52.6645 402.285 53.1886 402.14 53.4177L402.608 53.3136C402.671 53.8897 402.664 54.7436 402.588 55.8751C402.498 56.9441 402.536 57.8535 402.702 58.6032ZM437.496 58.2433C437.316 58.0212 437.201 57.9483 437.153 58.0247C437.153 58.0247 437.021 58.0212 436.757 58.0143C436.687 57.7019 436.642 57.3514 436.621 56.9627C436.601 56.5739 436.555 56.2234 436.486 55.911L435.882 55.8486C435.792 55.7375 435.719 55.557 435.663 55.3071C435.594 54.9948 435.594 54.6997 435.663 54.4221C435.719 54.0819 435.625 53.8077 435.382 53.5995C435.528 53.3704 435.573 53.1309 435.517 52.881C435.51 52.5547 435.479 52.2667 435.423 52.0168C435.333 51.9057 435.246 51.9578 435.163 52.173C435.128 52.3118 435.111 52.3812 435.111 52.3812C435 51.8814 434.858 51.3886 434.684 50.9027C434.559 50.3404 434.434 49.7781 434.309 49.2159C434.156 48.5286 434.035 47.8345 433.944 47.1334C433.916 46.4184 433.965 45.752 434.09 45.1341C434 45.0231 433.833 44.5684 433.59 43.7701C433.333 42.9094 433.107 42.0417 432.913 41.167C432.76 40.4798 432.628 39.8863 432.517 39.3865C432.406 38.8867 432.368 38.5674 432.402 38.4285L432.871 38.3244L432.829 38.1369C432.788 37.9495 432.652 37.7829 432.423 37.6372C432.194 37.4914 432.076 37.2554 432.069 36.9292L432.538 36.825C432.579 36.4224 432.381 36.2697 431.944 36.3669L432.329 35.8879C432.024 35.6935 431.767 35.1278 431.559 34.1907C431.267 32.8787 431.225 31.8062 431.433 30.9732C431.343 30.8621 431.173 30.5393 430.923 30.0049C430.735 29.4565 430.593 28.9636 430.496 28.5263C430.371 27.964 430.433 27.6551 430.683 27.5996C430.572 27.0998 430.388 26.7145 430.131 26.4438C429.923 26.0967 429.784 25.767 429.715 25.4546C429.631 25.0798 429.753 24.5939 430.079 23.9968C429.864 23.9136 429.673 23.7921 429.506 23.6324C429.34 23.4728 429.173 23.3132 429.006 23.1535L429.662 23.0077L429.662 22.1226L428.819 22.3101C428.708 21.8103 428.603 21.3418 428.506 20.9044C428.458 20.3907 428.416 19.9083 428.381 19.4571C428.291 19.346 428.197 19.3669 428.1 19.5196C428.065 19.6584 428.062 19.7903 428.09 19.9153L427.944 19.2593L428.787 19.0718L428.746 18.8844C428.114 18.697 427.756 18.4159 427.673 18.041C427.631 17.8536 427.652 17.6523 427.735 17.4371C427.819 17.2219 427.777 17.0345 427.61 16.8748C427.319 16.743 427.055 16.441 426.819 15.969C428.048 15.8925 428.978 15.948 429.61 16.1353C430.29 16.2463 431.189 16.3087 432.306 16.3225L432.536 17.3533L432.744 17.4053L433.775 17.1762C434.073 17.6343 434.406 18.2486 434.774 19.0191C435.191 19.7132 435.483 20.4352 435.649 21.1848C435.872 22.1844 435.82 22.9827 435.493 23.5798C436.014 23.8574 436.295 24.0899 436.337 24.2773C436.365 24.4023 436.306 24.5793 436.16 24.8084C436.014 25.0375 435.945 25.3152 435.952 25.6414L436.045 25.6206C436.17 25.5928 436.261 25.7039 436.316 25.9538C436.42 26.1273 436.479 26.2453 436.493 26.3078C436.299 26.6132 436.243 26.9534 436.327 27.3282C436.41 27.7031 436.57 28.1265 436.806 28.5985L436.192 28.9318C436.393 28.9526 436.57 29.3066 436.723 29.9938C436.834 30.4936 436.928 31.0629 437.004 31.7015C437.067 32.2777 437.087 32.6664 437.067 32.8677C436.733 32.5484 436.595 32.8087 436.65 33.6487C436.706 34.4886 436.821 35.4466 436.994 36.5226C437.154 37.536 437.237 38.2059 437.244 38.5322C437.216 38.4072 437.164 38.3205 437.088 38.2719C437.074 38.2094 437.067 38.1782 437.067 38.1782C437.005 38.1921 436.97 38.3309 436.963 38.5947C436.942 38.796 436.831 38.8862 436.63 38.8654C436.838 39.2125 436.984 39.5735 437.067 39.9483C437.165 40.3856 437.238 40.8611 437.286 41.3748C437.335 41.8885 437.394 42.3015 437.463 42.6139C437.213 42.6695 437.12 42.6903 437.182 42.6764C437.231 42.6001 437.134 42.4578 436.891 42.2495L437.203 41.8851L436.641 42.0101L436.849 42.9472L437.411 42.8222L437.536 43.3844L436.974 43.5095C437.078 43.683 437.151 43.8635 437.193 44.0509C437.234 44.2383 437.276 44.4257 437.318 44.6132C437.54 45.6128 437.561 46.5915 437.381 47.5495L436.725 47.6954L437.339 48.2472L437.422 47.737L437.526 48.2055C437.61 48.5804 437.644 49.0316 437.631 49.5591C437.395 49.6772 437.325 50.2499 437.423 51.2773C437.506 52.2422 437.43 53.0786 437.194 53.7867C437.423 53.9325 437.565 54.1303 437.621 54.3802C437.725 54.5537 437.829 54.7273 437.933 54.9008L437.652 54.9633C437.777 55.5256 437.833 56.0705 437.819 56.5981C437.805 57.1257 437.791 57.6532 437.777 58.1808L437.496 58.2433ZM440.674 75.6321C439.959 75.66 439.226 75.7572 438.477 75.9239C437.727 76.0906 437.061 76.0421 436.478 75.7784C435.971 75.5632 435.599 74.9246 435.363 73.8625C435.703 73.328 435.967 72.7448 436.154 72.1131C436.328 71.4189 436.758 70.9954 437.445 70.8427L437.081 70.5303L437.362 70.4678C438.112 69.7111 438.886 69.2112 439.684 68.9681C440.531 68.6487 441.454 68.3779 442.454 68.1557C442.558 68.3292 442.686 68.4646 442.839 68.5617C442.992 68.6589 443.12 68.7942 443.224 68.9678C442.683 69.4815 442.218 70.3389 441.829 71.5399C441.489 72.6645 441.333 73.5843 441.361 74.2993L440.892 74.4034C440.962 74.7158 440.941 74.9171 440.83 75.0074C440.795 75.1462 440.743 75.3545 440.674 75.6321Z" fill="#C0242A"/>
</svg>
