<svg width="549" height="209" viewBox="0 0 549 209" fill="none" xmlns="http://www.w3.org/2000/svg">
<path d="M2.53595 138.88L1.99416 136.664C1.96465 136.543 1.97921 136.414 2.0371 136.282C2.09499 136.15 2.19499 136.02 2.33112 135.898C2.46724 135.776 2.63674 135.665 2.82955 135.572C3.02235 135.478 3.23455 135.405 3.45349 135.355C3.67161 135.302 3.89339 135.273 4.10575 135.271C4.3181 135.269 4.51663 135.293 4.6896 135.342C4.86256 135.392 5.00643 135.465 5.1126 135.558C5.21878 135.651 5.28512 135.761 5.30769 135.883C5.75346 137.707 6.19237 139.502 6.62443 141.269C6.69736 141.507 6.5978 141.78 6.34684 142.03C6.09589 142.28 5.71336 142.488 5.28059 142.609C4.83905 142.717 4.39116 142.728 4.02875 142.64C3.66634 142.552 3.4169 142.371 3.33149 142.134L2.53595 138.88ZM1.20667 131.237C0.760897 129.414 0.874725 127.454 0.835933 125.531C0.83213 125.406 0.871726 125.275 0.952368 125.146C1.03301 125.016 1.15307 124.89 1.30563 124.775C1.4582 124.661 1.64023 124.559 1.84104 124.477C2.04185 124.395 2.25744 124.334 2.47531 124.297C2.69315 124.259 2.90959 124.245 3.112 124.258C3.3144 124.27 3.49869 124.308 3.65423 124.37C3.80977 124.432 3.93346 124.515 4.01799 124.616C4.10252 124.718 4.14624 124.834 4.14664 124.959C4.17857 126.854 4.31231 128.724 4.54088 130.541C4.56079 130.791 4.40722 131.065 4.11297 131.303C3.81873 131.542 3.40712 131.727 2.96605 131.818C2.75038 131.863 2.53365 131.884 2.32838 131.879C2.12312 131.874 1.93332 131.844 1.76985 131.79C1.60639 131.736 1.47256 131.66 1.37591 131.565C1.27927 131.47 1.22172 131.358 1.20667 131.237ZM5.19122 147.536C5.13262 147.309 5.22749 147.053 5.45782 146.816C5.68814 146.579 6.03783 146.377 6.44021 146.249C6.87365 146.127 7.32404 146.101 7.69517 146.177C8.06629 146.253 8.32874 146.425 8.42649 146.656C9.03062 148.024 9.67188 149.324 10.4355 150.684L10.9505 151.687C11.0155 151.797 11.038 151.919 11.0166 152.048C10.9953 152.177 10.9306 152.309 10.8262 152.437C10.7219 152.565 10.58 152.686 10.409 152.793C10.2381 152.9 10.0414 152.992 9.83066 153.061C9.4139 153.197 8.96839 153.241 8.59086 153.183C8.21332 153.125 7.93418 152.97 7.81404 152.751L7.24822 151.76C6.49147 150.429 5.85021 149.129 5.21179 147.62L5.19122 147.536ZM0.702956 119.915L0.668654 119.774C0.796196 117.87 0.960941 115.897 1.23424 113.928C1.27526 113.673 1.48103 113.409 1.80893 113.19C2.13683 112.972 2.56177 112.815 2.99593 112.754C3.2179 112.724 3.43498 112.721 3.634 112.745C3.83302 112.768 4.00983 112.818 4.15375 112.891C4.29766 112.965 4.40569 113.06 4.47126 113.171C4.53683 113.282 4.55854 113.406 4.53518 113.537C4.30589 115.466 4.07662 117.395 3.99995 119.287C3.98273 119.539 3.79368 119.806 3.47419 120.029C3.15471 120.252 2.7309 120.413 2.29598 120.476C1.94177 120.498 1.61887 120.449 1.37699 120.336C1.13511 120.223 0.987684 120.053 0.957355 119.852L0.702956 119.915ZM10.8125 157.518C10.7671 157.31 10.8526 157.078 11.0549 156.861C11.2572 156.643 11.5637 156.454 11.9226 156.325C12.1265 156.245 12.3449 156.187 12.564 156.155C12.783 156.123 12.9981 156.118 13.1957 156.139C13.3933 156.16 13.5692 156.208 13.7123 156.28C13.8554 156.351 13.9626 156.445 14.0272 156.554C15.1069 158.104 16.302 159.684 17.5989 161.24C17.6804 161.341 17.7217 161.457 17.7204 161.581C17.7191 161.706 17.6753 161.835 17.5915 161.964C17.5076 162.092 17.3855 162.216 17.2318 162.328C17.0782 162.441 16.8963 162.54 16.6963 162.62C16.2863 162.785 15.8272 162.861 15.4174 162.834C15.0076 162.806 14.6796 162.676 14.5037 162.473C13.2068 160.917 12.0048 159.308 10.9114 157.702L10.8125 157.518ZM2.22448 108.275L2.16963 108.051C2.60927 106.1 3.04202 104.121 3.62742 102.105C3.70081 101.847 3.94108 101.588 4.2955 101.384C4.64993 101.18 5.08957 101.049 5.51826 101.018C5.7335 101 5.94043 101.007 6.12621 101.041C6.31199 101.074 6.47273 101.133 6.59852 101.214C6.72431 101.295 6.81248 101.395 6.85761 101.51C6.90275 101.624 6.9039 101.75 6.86096 101.88C6.37045 103.843 5.87989 105.806 5.48427 107.716C5.46572 107.844 5.40281 107.975 5.29938 108.103C5.19595 108.23 5.05429 108.35 4.88307 108.456C4.71184 108.562 4.51473 108.652 4.30401 108.719C4.09329 108.786 3.87339 108.829 3.658 108.846C3.33414 108.851 3.04579 108.792 2.83405 108.678C2.6223 108.565 2.49799 108.402 2.47883 108.213L2.22448 108.275ZM18.4069 166.751C18.3642 166.555 18.4337 166.338 18.6056 166.131C18.7774 165.924 19.0429 165.736 19.3644 165.595C19.7587 165.424 20.2095 165.338 20.6179 165.355C21.0263 165.372 21.3591 165.492 21.5433 165.687C22.9282 167.162 24.415 168.612 25.9965 170.009C26.1888 170.203 26.2258 170.456 26.1001 170.718C25.9743 170.98 25.6951 171.232 25.3179 171.423C24.9194 171.607 24.4566 171.705 24.0306 171.698C23.6046 171.691 23.25 171.578 23.0442 171.385C21.4626 169.988 19.9622 168.481 18.5773 167.007L18.4069 166.751ZM5.47282 96.4216L5.39739 96.113C6.09825 94.1282 6.8499 92.1309 7.65936 90.1493C7.71059 90.0188 7.80364 89.8885 7.93308 89.7659C8.06252 89.6433 8.22576 89.5309 8.41322 89.4352C8.60068 89.3396 8.80861 89.2625 9.02485 89.2088C9.24108 89.155 9.46136 89.1255 9.67265 89.122C9.88497 89.1159 10.0849 89.1359 10.2608 89.1808C10.4367 89.2257 10.585 89.2945 10.6971 89.3834C10.8092 89.4723 10.8828 89.5793 10.9136 89.6983C10.9443 89.8173 10.9317 89.9458 10.8763 90.0763C10.06 92.0299 9.30142 93.9991 8.65144 95.9715C8.55701 96.2309 8.29812 96.4864 7.93156 96.6819C7.565 96.8773 7.12066 96.9969 6.69594 97.0144C6.43234 96.9932 6.20442 96.9264 6.03627 96.8209C5.86813 96.7155 5.76602 96.5754 5.74082 96.4155L5.47282 96.4216ZM27.7642 175.255C27.7261 175.078 27.7769 174.884 27.9112 174.694C28.0454 174.503 28.2579 174.325 28.5251 174.177C28.7303 174.035 28.9785 173.917 29.2477 173.833C29.5169 173.748 29.7988 173.7 30.0687 173.693C30.3386 173.686 30.5882 173.72 30.7953 173.791C31.0025 173.863 31.161 173.97 31.2567 174.104C32.9263 175.42 34.6536 176.752 36.4758 178.031C36.5968 178.114 36.6807 178.217 36.7227 178.332C36.7647 178.448 36.7639 178.574 36.7203 178.703C36.6768 178.833 36.5914 178.963 36.469 179.087C36.3467 179.211 36.1898 179.325 36.0076 179.424C35.6388 179.618 35.1951 179.738 34.7687 179.759C34.3422 179.781 33.9658 179.701 33.7173 179.538C31.8882 178.231 30.1031 176.883 28.3758 175.551L27.7642 175.255ZM10.3804 84.5192C10.3027 84.4109 10.2723 84.2864 10.2912 84.1545C11.2602 82.1636 12.28 80.1603 13.3575 78.1726C13.4237 78.0426 13.5305 77.9146 13.6715 77.796C13.8124 77.6774 13.9849 77.5706 14.1788 77.4817C14.3727 77.3928 14.5843 77.3236 14.8011 77.2782C15.018 77.2328 15.2359 77.2119 15.4422 77.2169C15.8656 77.2285 16.215 77.3452 16.4145 77.5415C16.6139 77.7377 16.6472 77.9977 16.507 78.2647C15.4226 80.2244 14.396 82.1997 13.4711 84.1501C13.4144 84.2793 13.317 84.4076 13.1848 84.5278C13.0525 84.6479 12.8879 84.7575 12.7002 84.8504C12.5126 84.9432 12.3056 85.0173 12.0913 85.0686C11.8769 85.12 11.6593 85.1474 11.451 85.1494C11.2192 85.1062 11.0253 85.0258 10.8856 84.915C10.7459 84.8043 10.6646 84.6664 10.6485 84.5132L10.3804 84.5192ZM38.7552 182.944C38.7138 182.785 38.7495 182.611 38.8588 182.438C38.968 182.265 39.1468 182.1 39.377 181.959C39.5523 181.854 39.7525 181.766 39.9654 181.699C40.1783 181.633 40.3998 181.59 40.6168 181.573C40.8338 181.556 41.0419 181.565 41.2287 181.6C41.4156 181.635 41.5773 181.695 41.7046 181.777C43.6657 182.962 45.6777 184.135 47.9303 185.19C48.1951 185.348 48.3164 185.58 48.2698 185.84C48.2233 186.1 48.0123 186.367 47.6793 186.589C47.5107 186.695 47.3169 186.785 47.1092 186.855C46.9015 186.924 46.6839 186.971 46.4689 186.993C46.2539 187.015 46.0458 187.012 45.8564 186.984C45.6671 186.955 45.5002 186.902 45.3655 186.828C43.2586 185.708 41.2398 184.507 39.1124 183.302C38.9765 183.215 38.8773 183.108 38.8197 182.987L38.7552 182.944ZM16.8085 72.6614C16.6963 72.5334 16.6583 72.3778 16.6988 72.2125C17.9358 70.2155 19.1796 68.2466 20.627 66.2279C20.818 65.9677 21.1524 65.7335 21.5632 65.5724C21.9739 65.4113 22.4304 65.3354 22.8408 65.3597C23.2385 65.4028 23.5493 65.5429 23.7104 65.7517C23.8714 65.9606 23.8709 66.2226 23.709 66.4852C22.3565 68.451 21.1058 70.3919 19.7602 72.3857C19.6849 72.5166 19.569 72.6445 19.4193 72.7617C19.2697 72.8789 19.0894 72.9832 18.8891 73.0682C18.6887 73.1532 18.4723 73.2173 18.2528 73.2567C18.0333 73.2961 17.815 73.31 17.611 73.2976C17.4592 73.2217 17.3467 73.1218 17.2809 73.0046C17.215 72.8874 17.1974 72.7556 17.2292 72.6179L16.8085 72.6614ZM51.1997 189.742C51.1683 189.59 51.2046 189.424 51.3053 189.259C51.406 189.095 51.5681 188.936 51.7776 188.798C52.1173 188.584 52.547 188.434 52.9821 188.377C53.4172 188.321 53.8262 188.361 54.1286 188.491C56.2726 189.542 58.5693 190.556 60.8522 191.515C61.1461 191.65 61.3051 191.865 61.2963 192.117C61.2874 192.368 61.1114 192.635 60.8047 192.864C60.6523 192.978 60.4709 193.078 60.271 193.16C60.0712 193.241 59.8568 193.301 59.6402 193.338C59.4236 193.374 59.2091 193.386 59.009 193.371C58.8089 193.357 58.6271 193.318 58.4742 193.255C56.1336 192.282 53.8301 191.239 51.6284 190.172C51.4302 190.081 51.3032 189.946 51.2643 189.786L51.1997 189.742ZM25.0623 60.7734C25.0247 60.5902 25.0882 60.3882 25.2441 60.1938C26.7052 58.2312 28.2748 56.2719 29.8514 54.3405C29.953 54.2092 30.0942 54.0843 30.2664 53.9737C30.4386 53.863 30.6381 53.7688 30.8527 53.6969C31.0673 53.6249 31.2924 53.5768 31.5144 53.5553C31.7363 53.5339 31.9505 53.5395 32.1435 53.572C32.332 53.6018 32.4973 53.6563 32.6303 53.7322C32.7632 53.8081 32.861 53.9041 32.9181 54.0145C32.9751 54.1249 32.9903 54.2475 32.9627 54.3755C32.9352 54.5034 32.8654 54.634 32.7574 54.7598C31.1808 56.6912 29.6277 58.4978 28.2449 60.5602C28.0368 60.8157 27.6881 61.04 27.2716 61.1862C26.8552 61.3323 26.4033 61.389 26.0105 61.3443C25.7795 61.3195 25.5785 61.2586 25.4247 61.1668C25.2708 61.075 25.1687 60.9551 25.1269 60.8171L25.0623 60.7734ZM65.3894 195.519C65.3599 195.384 65.384 195.238 65.4598 195.091C65.5356 194.944 65.6614 194.8 65.8284 194.668C65.9773 194.554 66.1556 194.452 66.353 194.369C66.5504 194.286 66.7632 194.223 66.9789 194.184C67.1947 194.145 67.4095 194.131 67.6107 194.142C67.812 194.153 67.9958 194.189 68.1519 194.249C70.516 195.098 73.0602 196.022 75.5563 196.75C75.9031 196.848 76.1301 197.038 76.189 197.279C76.2479 197.52 76.1341 197.793 75.8718 198.04C75.7412 198.164 75.5762 198.277 75.3866 198.373C75.1971 198.469 74.987 198.546 74.7686 198.599C74.5503 198.653 74.3283 198.681 74.1158 198.684C73.9033 198.686 73.7046 198.661 73.5317 198.612C70.9641 197.813 68.4199 196.889 66.0118 196.08C65.8288 196.026 65.6783 195.946 65.57 195.845C65.4616 195.743 65.3978 195.623 65.3825 195.491L65.3894 195.519ZM34.6742 49.148C34.6197 48.9448 34.6972 48.7153 34.893 48.4999C36.6291 46.5592 38.4806 44.6499 40.2812 42.753C40.4119 42.6293 40.5768 42.5161 40.7664 42.42C40.9559 42.3238 41.1661 42.2468 41.3844 42.1934C41.6027 42.14 41.8247 42.1114 42.0372 42.1093C42.2497 42.1071 42.4484 42.1314 42.6213 42.1809C42.9637 42.2753 43.1882 42.4607 43.246 42.6971C43.3038 42.9334 43.1902 43.2016 42.9299 43.4433C41.1225 45.3122 39.3424 47.2932 37.5858 49.1497C37.3217 49.3903 36.9332 49.5841 36.5046 49.6889C36.0761 49.7936 35.642 49.801 35.2966 49.7093C35.1284 49.6654 34.9877 49.5979 34.883 49.511C34.7783 49.4241 34.712 49.3197 34.6879 49.2041L34.6742 49.148ZM80.8017 200.343C80.771 200.095 80.8951 199.823 81.1528 199.573C81.4324 199.334 81.828 199.142 82.2614 199.036C82.6947 198.93 83.1342 198.918 83.4929 199.001C86.0907 199.704 88.7904 200.382 91.4763 201.003C91.8187 201.098 92.0432 201.283 92.101 201.52C92.1588 201.756 92.0452 202.024 91.7849 202.266C91.5132 202.502 91.1259 202.69 90.7011 202.794C90.2763 202.898 89.8455 202.909 89.4956 202.826C86.7011 202.201 83.798 201.572 81.3459 200.804C81.065 200.706 80.874 200.544 80.8017 200.343ZM45.9768 37.8227C45.9238 37.5828 46.0305 37.3137 46.2769 37.0657C48.2947 35.1751 50.3702 33.3001 52.4595 31.4812C52.7318 31.2367 53.1286 31.0401 53.5656 30.9333C54.0026 30.8264 54.4453 30.8178 54.7997 30.9091C55.1421 31.0035 55.3665 31.189 55.4243 31.4253C55.4821 31.6617 55.3686 31.9298 55.1083 32.1715C53.0699 33.9779 51.0384 35.8124 49.0646 37.6625C48.7923 37.907 48.3954 38.1036 47.9585 38.2104C47.5215 38.3173 47.0788 38.3259 46.7244 38.2346C46.5087 38.2295 46.3116 38.1944 46.1471 38.1318C45.9827 38.0692 45.855 37.9806 45.7733 37.8725L45.9768 37.8227ZM97.3888 204.017C97.3289 203.806 97.4037 203.567 97.6008 203.341C97.8731 203.097 98.27 202.9 98.707 202.793C99.1439 202.687 99.5866 202.678 99.941 202.769C102.708 203.282 105.577 203.77 108.476 204.161C108.854 204.222 109.133 204.378 109.257 204.597C109.381 204.816 109.339 205.081 109.141 205.336C109.044 205.466 108.907 205.589 108.739 205.698C108.571 205.807 108.376 205.9 108.166 205.971C107.955 206.042 107.734 206.09 107.516 206.111C107.298 206.131 107.088 206.125 106.9 206.092C103.943 205.685 101.277 205.148 98.1982 204.682C97.8982 204.678 97.6304 204.622 97.4245 204.52C97.2187 204.418 97.083 204.274 97.0326 204.105L97.3888 204.017ZM58.7598 26.8194C58.7133 26.6899 58.7243 26.5463 58.7918 26.4006C58.8592 26.2549 58.9813 26.1112 59.148 25.9813C61.4036 24.1812 63.6661 22.4092 66.0371 20.6403C66.1896 20.5266 66.3709 20.4262 66.5708 20.3448C66.7706 20.2635 66.985 20.203 67.2016 20.1666C67.4182 20.1302 67.6327 20.1188 67.8328 20.1329C68.0329 20.1471 68.2146 20.1865 68.3675 20.249C68.6822 20.3776 68.8598 20.5931 68.8617 20.8487C68.8636 21.1042 68.6898 21.3792 68.3778 21.6141C66.0948 23.302 63.8323 25.0739 61.6207 26.8335C61.3484 27.078 60.9516 27.2746 60.5147 27.3814C60.0777 27.4882 59.635 27.4969 59.2806 27.4056C59.0654 27.374 58.8765 27.3134 58.7257 27.2276C58.5749 27.1417 58.4654 27.0324 58.4038 26.9064L58.7598 26.8194ZM114.876 206.521C114.815 206.355 114.864 206.164 115.013 205.982C115.204 205.721 115.542 205.487 115.957 205.33C116.372 205.173 116.83 205.105 117.234 205.142C120.17 205.464 123.201 205.734 126.212 205.92C126.415 205.932 126.599 205.97 126.755 206.031C126.911 206.093 127.035 206.176 127.12 206.277C127.205 206.378 127.249 206.494 127.25 206.619C127.25 206.744 127.208 206.875 127.124 207.005C126.951 207.263 126.631 207.5 126.229 207.664C125.828 207.829 125.376 207.909 124.968 207.889C121.893 207.659 118.811 207.402 115.787 207.16C115.492 207.154 115.231 207.095 115.034 206.99C114.837 206.886 114.711 206.74 114.672 206.571L114.876 206.521ZM72.7593 16.3808C72.7183 16.233 72.7451 16.0705 72.8371 15.9078C72.9291 15.7452 73.0835 15.5876 73.2863 15.4493C75.7288 13.7522 78.2799 12.0582 80.8447 10.4204C81.1786 10.2055 81.6087 10.0568 82.0409 10.0068C82.4732 9.95687 82.8725 10.0097 83.1517 10.1537C83.4327 10.3027 83.569 10.5312 83.5316 10.7903C83.4942 11.0494 83.2861 11.3186 82.9516 11.5405C80.4308 13.1378 77.9306 14.8193 75.4812 16.4883C75.3219 16.6008 75.1343 16.6988 74.9295 16.7767C74.7247 16.8546 74.5068 16.9108 74.2885 16.9421C74.0702 16.9733 73.8559 16.9789 73.6582 16.9585C73.4605 16.9382 73.2833 16.8923 73.1371 16.8236C72.8222 16.7574 72.5687 16.6345 72.4031 16.4678L72.7593 16.3808ZM133.248 207.797C133.145 207.676 133.11 207.531 133.145 207.376C133.29 207.116 133.591 206.873 133.983 206.699C134.375 206.525 134.826 206.435 135.237 206.448C138.387 206.541 141.529 206.605 144.651 206.585C144.86 206.582 145.055 206.605 145.224 206.654C145.394 206.702 145.534 206.774 145.637 206.866C145.74 206.958 145.804 207.067 145.824 207.187C145.844 207.307 145.82 207.435 145.753 207.564C145.697 207.693 145.599 207.821 145.467 207.942C145.335 208.062 145.17 208.171 144.982 208.264C144.795 208.357 144.588 208.431 144.373 208.483C144.159 208.534 143.942 208.561 143.733 208.563C140.553 208.568 137.36 208.516 134.159 208.436C133.843 208.445 133.554 208.398 133.33 208.3C133.105 208.202 132.953 208.057 132.892 207.884L133.248 207.797ZM88.0905 6.53827C88.0542 6.37928 88.0924 6.20524 88.2013 6.03287C88.3102 5.86051 88.4862 5.69567 88.7124 5.55389C91.4188 3.98056 94.1636 2.41759 96.947 0.865078C97.1277 0.76543 97.3306 0.683247 97.544 0.6235C97.7574 0.563753 97.977 0.527692 98.1901 0.517089C98.4031 0.506485 98.6054 0.52159 98.7852 0.561769C98.965 0.601949 99.1187 0.666401 99.2374 0.751149C99.3585 0.834638 99.4424 0.93697 99.4843 1.05243C99.5263 1.16789 99.5255 1.29415 99.482 1.42371C99.4384 1.55328 99.353 1.6836 99.2307 1.80724C99.1083 1.93088 98.9515 2.04537 98.7693 2.14395C96.0616 3.63833 93.3166 5.20113 90.7312 6.75479C90.5559 6.85995 90.3559 6.94841 90.143 7.01473C89.93 7.08104 89.7085 7.12394 89.4915 7.14096C89.2745 7.15797 89.0665 7.14877 88.8797 7.1138C88.6928 7.07884 88.5309 7.01874 88.4036 6.93731C88.1023 6.89471 87.866 6.78457 87.7344 6.62533L88.0905 6.53827ZM152.399 207.842L152.323 207.534C152.428 207.269 152.696 207.011 153.071 206.814C153.446 206.617 153.898 206.496 154.33 206.478C156.735 206.395 159.185 206.272 161.621 206.093L164.007 205.926C164.435 205.896 164.817 205.97 165.069 206.132C165.32 206.293 165.421 206.529 165.349 206.787C165.319 206.916 165.246 207.047 165.134 207.174C165.023 207.3 164.875 207.418 164.7 207.522C164.524 207.626 164.325 207.713 164.113 207.778C163.901 207.843 163.681 207.885 163.465 207.901L161.08 208.068C158.535 208.245 156.085 208.368 153.578 208.475C153.161 208.521 152.774 208.477 152.486 208.351C152.198 208.225 152.028 208.025 152.008 207.789L152.399 207.842ZM172.047 206.398L171.992 206.174C172.044 205.915 172.263 205.65 172.602 205.434C172.941 205.218 173.375 205.068 173.812 205.015C177.018 204.677 180.319 204.287 183.657 203.827C183.871 203.796 184.081 203.791 184.274 203.811C184.468 203.831 184.641 203.876 184.784 203.944C184.926 204.012 185.035 204.101 185.103 204.206C185.172 204.311 185.199 204.429 185.183 204.554C185.165 204.807 184.976 205.074 184.657 205.297C184.337 205.52 183.914 205.681 183.479 205.744C180.09 206.216 176.738 206.619 173.481 206.969C173.254 207.017 173.026 207.039 172.81 207.034C172.594 207.028 172.395 206.995 172.225 206.937C172.055 206.879 171.917 206.796 171.819 206.694C171.721 206.593 171.666 206.474 171.657 206.345L172.047 206.398ZM191.924 203.679L191.889 203.539C191.895 203.29 192.071 203.024 192.379 202.798C192.688 202.572 193.103 202.406 193.536 202.334C196.987 201.748 200.297 201.176 203.468 200.619C203.683 200.578 203.897 200.561 204.099 200.571C204.3 200.581 204.484 200.616 204.64 200.675C204.795 200.734 204.919 200.816 205.004 200.916C205.088 201.015 205.132 201.13 205.132 201.253C205.142 201.376 205.109 201.506 205.034 201.635C204.96 201.764 204.846 201.891 204.699 202.007C204.552 202.123 204.375 202.227 204.177 202.311C203.98 202.396 203.767 202.461 203.55 202.502C200.196 203.114 196.885 203.685 193.517 204.241C193.273 204.318 193.017 204.363 192.772 204.372C192.526 204.382 192.297 204.355 192.104 204.295C191.91 204.235 191.757 204.143 191.658 204.027C191.559 203.911 191.516 203.773 191.533 203.626L191.924 203.679ZM211.791 200.041C211.781 199.919 211.814 199.789 211.889 199.659C211.963 199.53 212.077 199.404 212.224 199.288C212.371 199.171 212.548 199.068 212.745 198.983C212.943 198.898 213.156 198.833 213.372 198.793C216.628 197.997 219.939 197.425 223.215 196.713C223.435 196.664 223.656 196.639 223.867 196.64C224.078 196.642 224.273 196.67 224.442 196.723C224.611 196.776 224.75 196.853 224.85 196.949C224.95 197.045 225.01 197.158 225.026 197.282C225.049 197.404 225.027 197.534 224.963 197.666C224.899 197.798 224.793 197.928 224.651 198.048C224.509 198.169 224.335 198.278 224.139 198.368C223.943 198.458 223.728 198.528 223.509 198.574C220.202 199.382 216.847 199.995 213.557 200.65C213.292 200.746 213.007 200.806 212.732 200.823C212.456 200.84 212.197 200.814 211.981 200.748C211.765 200.682 211.598 200.577 211.497 200.444C211.395 200.311 211.362 200.154 211.4 199.988L211.791 200.041ZM231.609 195.761C231.579 195.642 231.594 195.514 231.653 195.384C231.712 195.253 231.813 195.124 231.951 195.004C232.088 194.884 232.259 194.776 232.452 194.686C232.646 194.596 232.858 194.526 233.075 194.481C236.382 193.673 239.638 192.877 242.893 192.081C243.325 191.976 243.762 191.969 244.109 192.063C244.455 192.156 244.683 192.343 244.741 192.581C244.763 192.7 244.743 192.828 244.681 192.957C244.619 193.086 244.518 193.214 244.381 193.333C244.245 193.452 244.077 193.559 243.887 193.65C243.698 193.741 243.489 193.812 243.275 193.861C240.019 194.657 236.712 195.465 233.405 196.273C233.152 196.367 232.88 196.427 232.614 196.449C232.349 196.47 232.097 196.452 231.881 196.396C231.665 196.34 231.492 196.249 231.376 196.129C231.261 196.009 231.207 195.864 231.218 195.708L231.609 195.761ZM251.389 191.104C251.33 190.868 251.437 190.601 251.688 190.357C251.939 190.114 252.315 189.912 252.739 189.793C255.842 189.034 259.098 188.238 262.438 187.125C262.872 187.002 263.322 186.976 263.693 187.052C264.064 187.128 264.327 187.3 264.425 187.531C264.499 187.766 264.408 188.037 264.169 188.288C263.931 188.539 263.563 188.752 263.138 188.886C259.72 189.9 256.383 190.805 253.032 191.654C252.601 191.759 252.163 191.766 251.817 191.672C251.471 191.578 251.243 191.392 251.185 191.154L251.389 191.104ZM270.806 185.406C270.749 185.187 270.84 184.939 271.062 184.709C271.284 184.48 271.622 184.284 272.011 184.16C275.103 183.136 278.24 182.072 281.464 180.927C281.885 180.781 282.341 180.726 282.736 180.773C283.13 180.821 283.431 180.969 283.576 181.184C283.709 181.404 283.672 181.672 283.474 181.931C283.275 182.191 282.931 182.421 282.513 182.574C279.238 183.731 276.051 184.808 272.908 185.844C272.477 185.983 272.018 186.026 271.63 185.966C271.242 185.905 270.955 185.744 270.833 185.518L270.806 185.406ZM289.766 178.719C289.71 178.512 289.792 178.278 289.995 178.059C290.199 177.84 290.512 177.651 290.876 177.526C293.883 176.375 296.985 175.171 300.081 173.938C300.498 173.773 300.964 173.699 301.376 173.732C301.789 173.765 302.114 173.903 302.28 174.114C302.43 174.326 302.415 174.589 302.237 174.848C302.059 175.108 301.733 175.344 301.327 175.507C298.181 176.752 295.079 177.956 291.97 179.132C291.556 179.278 291.107 179.335 290.715 179.293C290.323 179.25 290.019 179.111 289.865 178.903L289.766 178.719ZM308.243 171.378C308.202 171.178 308.279 170.957 308.46 170.747C308.642 170.537 308.919 170.348 309.251 170.21C312.238 168.975 315.261 167.67 318.285 166.366C318.479 166.278 318.691 166.21 318.908 166.166C319.125 166.123 319.342 166.104 319.546 166.113C319.751 166.122 319.937 166.157 320.095 166.216C320.253 166.275 320.379 166.358 320.464 166.458C320.562 166.553 320.619 166.665 320.632 166.788C320.645 166.91 320.613 167.04 320.538 167.169C320.464 167.299 320.349 167.426 320.199 167.541C320.05 167.657 319.87 167.759 319.67 167.841C316.653 169.173 313.629 170.478 310.592 171.726C310.393 171.81 310.179 171.875 309.961 171.915C309.742 171.955 309.525 171.969 309.322 171.958C309.118 171.947 308.933 171.91 308.775 171.85C308.618 171.789 308.493 171.706 308.406 171.606L308.243 171.378ZM326.263 163.494C326.21 163.304 326.269 163.09 326.432 162.885C326.595 162.679 326.854 162.492 327.17 162.351C330.129 161.003 333.03 159.64 335.925 158.249C336.114 158.154 336.323 158.079 336.54 158.027C336.757 157.975 336.976 157.947 337.187 157.945C337.397 157.944 337.594 157.968 337.765 158.017C337.937 158.066 338.08 158.139 338.185 158.231C338.39 158.422 338.434 158.676 338.307 158.941C338.181 159.205 337.893 159.458 337.507 159.646C334.612 161.037 331.667 162.441 328.656 163.801C328.272 163.982 327.822 164.081 327.407 164.076C326.991 164.072 326.644 163.965 326.44 163.778L326.263 163.494ZM343.719 155.065C343.678 154.885 343.733 154.685 343.878 154.492C344.022 154.298 344.249 154.118 344.531 153.975C347.412 152.527 350.235 151.064 352.949 149.598C353.131 149.494 353.337 149.409 353.555 149.348C353.772 149.288 353.996 149.252 354.213 149.244C354.429 149.236 354.633 149.255 354.811 149.301C354.989 149.348 355.137 149.419 355.247 149.512C355.366 149.593 355.449 149.694 355.49 149.807C355.53 149.921 355.529 150.045 355.484 150.173C355.44 150.3 355.354 150.428 355.232 150.549C355.109 150.67 354.953 150.781 354.772 150.876C351.962 152.396 349.139 153.859 346.214 155.347C346.028 155.441 345.823 155.517 345.609 155.571C345.395 155.624 345.177 155.654 344.968 155.658C344.758 155.662 344.562 155.641 344.389 155.595C344.216 155.55 344.071 155.481 343.961 155.392L343.719 155.065ZM350.827 127.463C350.381 125.639 350.386 123.676 350.354 121.781C350.343 121.657 350.378 121.525 350.456 121.394C350.534 121.263 350.653 121.135 350.807 121.019C350.962 120.903 351.147 120.802 351.351 120.72C351.555 120.639 351.774 120.58 351.994 120.548C352.211 120.509 352.428 120.496 352.63 120.508C352.833 120.521 353.017 120.559 353.173 120.62C353.328 120.682 353.452 120.766 353.536 120.867C353.621 120.968 353.665 121.084 353.665 121.209C353.683 123.048 353.875 124.934 354.154 126.738C354.177 126.86 354.156 126.991 354.091 127.123C354.027 127.254 353.921 127.385 353.779 127.505C353.638 127.626 353.464 127.734 353.267 127.825C353.071 127.915 352.857 127.985 352.637 128.031C352.374 128.122 352.096 128.179 351.825 128.196C351.554 128.213 351.299 128.19 351.082 128.129C350.866 128.068 350.694 127.97 350.581 127.845C350.468 127.719 350.419 127.57 350.436 127.409L350.827 127.463ZM352.157 132.905C352.086 132.675 352.182 132.411 352.425 132.168C352.667 131.925 353.038 131.724 353.457 131.606C353.892 131.492 354.338 131.474 354.701 131.558C355.064 131.641 355.314 131.819 355.399 132.053C355.845 133.876 356.742 135.56 357.618 137.159C357.722 137.388 357.659 137.659 357.442 137.916C357.224 138.174 356.869 138.398 356.447 138.545C356.237 138.613 356.018 138.658 355.802 138.678C355.586 138.698 355.377 138.692 355.189 138.661C355.001 138.629 354.836 138.573 354.705 138.495C354.573 138.417 354.478 138.32 354.424 138.207C353.534 136.552 352.776 134.775 352.137 132.821L352.157 132.905ZM350.686 116.081L350.638 115.885C350.9 113.908 351.366 111.908 352.031 109.895C352.115 109.632 352.365 109.37 352.728 109.165C353.09 108.96 353.537 108.827 353.973 108.796C354.187 108.784 354.391 108.798 354.572 108.837C354.754 108.876 354.91 108.939 355.03 109.023C355.151 109.107 355.235 109.209 355.276 109.325C355.318 109.441 355.316 109.568 355.272 109.698C354.633 111.645 354.188 113.581 353.939 115.494C353.92 115.622 353.857 115.754 353.755 115.883C353.652 116.011 353.512 116.133 353.343 116.241C353.173 116.348 352.978 116.44 352.768 116.511C352.558 116.582 352.337 116.63 352.12 116.652C351.895 116.7 351.668 116.721 351.455 116.715C351.241 116.708 351.045 116.674 350.879 116.614C350.713 116.555 350.579 116.471 350.488 116.368C350.396 116.265 350.348 116.145 350.347 116.015L350.686 116.081ZM357.626 142.925C357.577 142.726 357.65 142.503 357.832 142.291C358.015 142.08 358.297 141.892 358.634 141.757C359.039 141.602 359.486 141.533 359.884 141.563C360.282 141.592 360.601 141.719 360.776 141.917C361.396 142.687 362.117 143.432 362.824 144.121C364.949 142.888 367.067 141.627 369.083 140.391C369.438 140.175 369.887 140.03 370.331 139.988C370.776 139.946 371.18 140.011 371.455 140.168C371.7 140.332 371.804 140.564 371.747 140.819C371.69 141.075 371.476 141.336 371.146 141.552C368.984 142.853 366.727 144.208 364.362 145.559L365.151 146.139C365.377 146.321 365.443 146.571 365.337 146.836C365.23 147.101 364.959 147.36 364.581 147.557C364.395 147.651 364.189 147.727 363.976 147.781C363.762 147.834 363.544 147.864 363.335 147.868C363.125 147.872 362.929 147.851 362.756 147.805C362.583 147.76 362.437 147.691 362.328 147.602L361.066 146.632L360.757 146.47C360.648 146.331 360.607 146.167 360.64 145.993C359.667 145.101 358.783 144.128 357.942 143.115L357.626 142.925ZM354.695 104.25C354.608 104.124 354.573 103.98 354.592 103.829C355.742 101.757 357.327 99.7098 359.304 97.7419C359.576 97.4974 359.973 97.3008 360.41 97.194C360.847 97.0872 361.289 97.0785 361.644 97.1698C361.821 97.2152 361.97 97.2849 362.083 97.3749C362.195 97.4649 362.268 97.5733 362.297 97.6937C362.327 97.8141 362.312 97.944 362.254 98.0757C362.196 98.2074 362.096 98.3382 361.959 98.4602C360.182 100.266 358.738 102.137 357.66 104.03C357.589 104.159 357.478 104.285 357.333 104.401C357.188 104.517 357.012 104.62 356.816 104.704C356.62 104.788 356.407 104.851 356.192 104.89C355.976 104.929 355.762 104.942 355.562 104.93C355.204 104.933 354.889 104.861 354.67 104.726C354.451 104.59 354.34 104.399 354.355 104.184L354.695 104.25ZM368.122 150.794C368.085 150.652 368.11 150.498 368.194 150.343C368.278 150.188 368.419 150.037 368.605 149.903C368.926 149.68 369.348 149.519 369.783 149.451C370.218 149.383 370.633 149.415 370.942 149.539C372.563 150.241 374.382 150.795 376.359 151.188C377.038 151.319 377.724 151.479 378.454 151.598C378.785 151.698 379.002 151.884 379.059 152.119C379.116 152.353 379.01 152.618 378.763 152.86C378.632 152.984 378.467 153.097 378.277 153.193C378.088 153.289 377.878 153.366 377.659 153.42C377.441 153.473 377.219 153.502 377.007 153.504C376.794 153.506 376.595 153.481 376.422 153.432C375.692 153.313 375.007 153.154 374.27 153.007C372.155 152.529 370.195 151.902 368.421 151.137C368.122 151.056 367.899 150.914 367.782 150.728L368.122 150.794ZM376.213 136.478C376.172 136.33 376.199 136.168 376.291 136.005C376.383 135.842 376.537 135.685 376.74 135.546C379.335 133.812 381.778 132.115 383.966 130.48C384.295 130.254 384.725 130.089 385.168 130.02C385.612 129.95 386.036 129.98 386.354 130.104C386.506 130.168 386.625 130.254 386.705 130.357C386.785 130.46 386.823 130.577 386.819 130.703C386.815 130.829 386.767 130.96 386.679 131.088C386.591 131.217 386.465 131.341 386.307 131.454C384.075 133.129 381.741 134.829 378.942 136.614C378.601 136.832 378.163 136.983 377.722 137.035C377.282 137.088 376.873 137.036 376.584 136.893C376.389 136.867 376.222 136.81 376.098 136.726C375.974 136.642 375.897 136.534 375.874 136.412L376.213 136.478ZM366.684 93.5295C366.635 93.3305 366.708 93.1076 366.89 92.8962C367.073 92.6847 367.355 92.4966 367.693 92.3614C368.831 91.9046 370.024 91.5229 371.243 91.2258C373.699 90.6448 376.191 90.3706 378.54 90.4229C378.748 90.4263 378.939 90.4554 379.105 90.5087C379.271 90.5619 379.407 90.6382 379.505 90.7331C379.603 90.8279 379.662 90.9395 379.678 91.0613C379.694 91.1831 379.667 91.3127 379.598 91.4426C379.537 91.5703 379.435 91.6965 379.299 91.8137C379.162 91.9309 378.994 92.0367 378.805 92.1247C378.615 92.2127 378.407 92.2812 378.194 92.326C377.981 92.3709 377.767 92.3912 377.565 92.3857C375.667 92.3612 373.664 92.5873 371.689 93.0493C370.742 93.2738 369.817 93.57 368.939 93.9297C368.739 94.0098 368.525 94.0693 368.309 94.1047C368.093 94.14 367.879 94.1506 367.681 94.1357C367.482 94.1208 367.301 94.0808 367.15 94.018C366.998 93.9552 366.878 93.8707 366.797 93.7695L366.684 93.5295ZM384.536 154.422C384.489 154.231 384.55 154.019 384.711 153.814C384.809 153.685 384.945 153.563 385.111 153.454C385.277 153.345 385.469 153.251 385.677 153.178C385.886 153.105 386.105 153.054 386.322 153.029C386.54 153.003 386.752 153.004 386.945 153.03C389.844 153.421 392.831 153.731 395.821 153.833C396.02 153.848 396.2 153.889 396.351 153.953C396.502 154.017 396.621 154.102 396.701 154.204C396.781 154.306 396.821 154.422 396.818 154.547C396.814 154.672 396.769 154.802 396.683 154.93C396.597 155.059 396.474 155.183 396.319 155.295C396.164 155.408 395.981 155.507 395.78 155.586C395.579 155.666 395.364 155.724 395.148 155.759C394.932 155.793 394.718 155.802 394.52 155.786C391.451 155.585 388.406 155.259 385.399 154.865C385.101 154.875 384.829 154.832 384.615 154.742C384.402 154.652 384.257 154.518 384.196 154.356L384.536 154.422ZM390.27 126.055C390.24 125.927 390.26 125.788 390.328 125.649C390.396 125.509 390.511 125.371 390.665 125.245C392.754 123.47 394.685 121.647 396.448 119.788C396.72 119.544 397.117 119.347 397.554 119.24C397.991 119.133 398.434 119.125 398.788 119.216C399.131 119.31 399.355 119.496 399.413 119.732C399.47 119.968 399.357 120.237 399.097 120.478C397.246 122.418 395.227 124.322 393.05 126.178C392.919 126.302 392.754 126.415 392.565 126.511C392.375 126.607 392.165 126.684 391.947 126.738C391.729 126.791 391.507 126.82 391.294 126.822C391.082 126.824 390.883 126.8 390.71 126.75C390.448 126.702 390.236 126.605 390.098 126.471C389.961 126.336 389.903 126.169 389.931 125.989L390.27 126.055ZM385.161 93.0259C385.109 92.7997 385.2 92.5467 385.417 92.3092C385.697 92.0696 386.092 91.8778 386.526 91.7718C386.959 91.6659 387.399 91.6535 387.757 91.7371C390.595 92.3568 393.273 93.1338 395.765 94.0605C395.922 94.1199 396.047 94.2013 396.134 94.3C396.221 94.3987 396.269 94.5129 396.274 94.6359C396.279 94.7589 396.242 94.8884 396.164 95.0169C396.086 95.1455 395.969 95.2706 395.82 95.3851C395.511 95.6201 395.089 95.797 394.645 95.8778C394.201 95.9585 393.77 95.9367 393.445 95.817C391.109 94.9415 388.586 94.2154 385.906 93.6466C385.604 93.6229 385.344 93.5464 385.153 93.4255C384.962 93.3045 384.847 93.1436 384.822 92.9603L385.161 93.0259ZM402.864 155.738C402.785 155.62 402.752 155.487 402.768 155.345C402.835 155.215 402.941 155.087 403.082 154.969C403.223 154.85 403.396 154.743 403.59 154.654C403.784 154.565 403.995 154.496 404.212 154.451C404.429 154.405 404.647 154.385 404.853 154.39C407.989 154.426 411.155 154.365 414.358 154.236C414.783 154.22 415.152 154.306 415.386 154.478C415.62 154.649 415.699 154.891 415.606 155.15C415.565 155.28 415.482 155.411 415.361 155.535C415.24 155.659 415.085 155.775 414.904 155.874C414.722 155.974 414.519 156.056 414.305 156.116C414.091 156.175 413.871 156.211 413.657 156.221C410.345 156.347 407.071 156.404 403.877 156.353C403.5 156.383 403.156 156.331 402.908 156.206C402.659 156.081 402.524 155.892 402.525 155.672L402.864 155.738ZM400.843 114.611C400.818 114.448 400.867 114.272 400.988 114.1C402.218 112.226 403.06 110.33 403.492 108.463C403.517 108.336 403.584 108.206 403.69 108.08C403.796 107.955 403.937 107.836 404.107 107.731C404.276 107.626 404.471 107.537 404.678 107.469C404.886 107.4 405.104 107.354 405.318 107.333C405.535 107.308 405.746 107.308 405.938 107.336C406.13 107.363 406.298 107.416 406.433 107.492C406.568 107.568 406.666 107.664 406.721 107.776C406.777 107.888 406.788 108.012 406.755 108.141C406.296 110.19 405.391 112.27 404.063 114.329C403.882 114.593 403.548 114.831 403.134 114.994C402.72 115.156 402.258 115.229 401.849 115.197C401.507 115.214 401.196 115.165 400.957 115.058C400.719 114.951 400.565 114.792 400.517 114.601L400.843 114.611ZM399.282 98.5223C399.244 98.3454 399.295 98.1511 399.429 97.9609C399.563 97.7707 399.776 97.5919 400.043 97.4445C400.411 97.2537 400.854 97.1389 401.274 97.1252C401.694 97.1114 402.059 97.1998 402.289 97.371C404.203 98.7789 405.58 100.454 406.357 102.322C406.407 102.435 406.415 102.56 406.379 102.688C406.344 102.817 406.267 102.948 406.152 103.072C406.037 103.197 405.887 103.314 405.71 103.416C405.534 103.517 405.334 103.602 405.122 103.665C404.911 103.733 404.69 103.778 404.473 103.795C404.256 103.813 404.049 103.804 403.863 103.769C403.677 103.733 403.517 103.672 403.393 103.589C403.269 103.506 403.184 103.403 403.143 103.287C402.415 101.656 401.2 100.187 399.545 98.9339C399.249 98.8547 399.041 98.7058 398.956 98.5128L399.282 98.5223ZM422.267 154.83L422.212 154.605C422.274 154.343 422.505 154.077 422.856 153.864C423.207 153.65 423.649 153.506 424.089 153.463C427.302 153.153 430.596 152.734 433.819 152.244C434.038 152.208 434.254 152.198 434.456 152.214C434.657 152.231 434.838 152.273 434.99 152.338C435.142 152.404 435.26 152.491 435.338 152.595C435.417 152.7 435.453 152.819 435.446 152.946C435.429 153.2 435.242 153.469 434.926 153.696C434.609 153.923 434.188 154.091 433.749 154.163C430.425 154.679 427.022 155.094 423.707 155.429C423.265 155.514 422.834 155.498 422.504 155.385C422.174 155.271 421.972 155.068 421.941 154.82L422.267 154.83ZM442.169 151.778C442.146 151.656 442.168 151.525 442.232 151.393C442.296 151.262 442.402 151.132 442.544 151.011C442.686 150.89 442.86 150.782 443.056 150.691C443.252 150.601 443.467 150.531 443.686 150.485C445.772 149.975 447.807 149.478 449.893 148.968C451.063 148.682 452.233 148.396 453.403 148.11C453.616 148.054 453.834 148.021 454.044 148.014C454.254 148.007 454.453 148.025 454.629 148.068C454.804 148.11 454.954 148.177 455.068 148.263C455.182 148.349 455.259 148.453 455.294 148.569C455.338 148.686 455.337 148.814 455.292 148.945C455.247 149.076 455.16 149.209 455.034 149.334C454.909 149.458 454.748 149.574 454.562 149.673C454.376 149.771 454.168 149.852 453.951 149.908C452.73 150.207 451.56 150.493 450.339 150.791C448.202 151.314 446.065 151.836 443.929 152.358C443.68 152.44 443.419 152.489 443.166 152.503C442.912 152.516 442.675 152.493 442.472 152.436C442.268 152.378 442.106 152.288 441.997 152.172C441.888 152.056 441.835 151.918 441.843 151.768L442.169 151.778ZM461.768 146.6C461.711 146.381 461.802 146.133 462.024 145.903C462.247 145.674 462.584 145.478 462.973 145.354C466.072 144.359 469.202 143.267 472.311 142.09C472.515 142.014 472.732 141.96 472.949 141.93C473.166 141.9 473.378 141.896 473.574 141.917C473.77 141.939 473.945 141.985 474.089 142.054C474.234 142.123 474.344 142.213 474.415 142.319C474.563 142.527 474.545 142.787 474.365 143.042C474.186 143.298 473.858 143.528 473.455 143.684C470.244 144.885 467.02 146.03 463.819 147.05C463.609 147.118 463.389 147.163 463.173 147.183C462.957 147.203 462.749 147.197 462.56 147.166C462.372 147.134 462.207 147.078 462.076 147C461.945 146.922 461.849 146.824 461.795 146.712L461.768 146.6ZM480.429 139.571C480.319 139.421 480.297 139.242 480.367 139.056C480.437 138.87 480.594 138.685 480.82 138.524C483.742 137.244 486.694 135.869 489.531 134.462C489.717 134.367 489.922 134.291 490.136 134.238C490.35 134.184 490.568 134.155 490.777 134.151C490.986 134.146 491.183 134.168 491.356 134.213C491.529 134.259 491.674 134.328 491.784 134.416C491.995 134.606 492.047 134.859 491.932 135.125C491.817 135.391 491.542 135.649 491.163 135.846C488.282 137.294 485.228 138.694 482.262 140.014C481.854 140.188 481.39 140.274 480.971 140.254C480.552 140.234 480.212 140.109 480.026 139.907L480.429 139.571ZM497.626 130.966C497.583 130.805 497.623 130.626 497.742 130.45C497.861 130.273 498.054 130.107 498.299 129.969C501 128.447 503.578 126.865 506.092 125.24C506.44 125.023 506.883 124.875 507.326 124.828C507.768 124.781 508.175 124.839 508.457 124.989C508.599 125.06 508.706 125.153 508.77 125.262C508.835 125.371 508.855 125.494 508.831 125.623C508.807 125.751 508.738 125.883 508.63 126.01C508.521 126.137 508.374 126.256 508.199 126.36C505.641 128.026 502.961 129.632 500.236 131.28C499.871 131.484 499.422 131.615 498.985 131.644C498.549 131.673 498.16 131.598 497.902 131.434L497.626 130.966ZM512.906 121.136C512.882 120.997 512.914 120.848 512.999 120.699C513.083 120.55 513.219 120.404 513.396 120.273C515.73 118.573 517.942 116.813 520.096 115.038C520.368 114.794 520.765 114.597 521.201 114.49C521.638 114.383 522.081 114.375 522.436 114.466C522.613 114.511 522.762 114.581 522.875 114.671C522.987 114.761 523.06 114.87 523.089 114.99C523.119 115.11 523.104 115.24 523.046 115.372C522.988 115.504 522.888 115.635 522.751 115.757C520.553 117.572 518.24 119.357 515.862 121.097C515.546 121.331 515.119 121.504 514.673 121.58C514.228 121.655 513.799 121.627 513.481 121.501C513.081 121.46 512.762 121.328 512.58 121.127L512.906 121.136ZM525.904 110.348C525.875 110.234 525.887 110.111 525.94 109.986C525.992 109.86 526.084 109.736 526.211 109.619C528.134 107.781 529.992 105.9 531.691 104.028C531.802 103.903 531.948 103.786 532.122 103.683C532.295 103.581 532.492 103.494 532.702 103.429C532.911 103.364 533.129 103.322 533.342 103.304C533.556 103.287 533.761 103.295 533.946 103.328C534.131 103.361 534.292 103.418 534.421 103.496C534.549 103.574 534.642 103.672 534.695 103.783C534.747 103.894 534.757 104.018 534.726 104.146C534.694 104.273 534.62 104.403 534.509 104.528C532.773 106.469 530.87 108.391 528.91 110.297C528.638 110.541 528.241 110.738 527.804 110.845C527.367 110.952 526.925 110.96 526.57 110.869C526.328 110.841 526.114 110.779 525.943 110.687C525.772 110.596 525.647 110.477 525.578 110.339L525.904 110.348ZM536.259 98.8977C536.229 98.7176 536.274 98.5234 536.39 98.3304C537.858 96.3959 539.217 94.4582 540.366 92.5422C540.442 92.4113 540.558 92.2834 540.707 92.1662C540.857 92.049 541.037 91.9447 541.238 91.8597C541.438 91.7747 541.654 91.7107 541.874 91.6713C542.093 91.6318 542.312 91.6179 542.516 91.6303C542.924 91.6559 543.252 91.7821 543.432 91.9823C543.611 92.1824 543.628 92.4408 543.479 92.7029C542.242 94.6999 540.896 96.6938 539.537 98.6315C539.443 98.7612 539.311 98.8855 539.147 98.997C538.984 99.1085 538.793 99.2049 538.585 99.2806C538.377 99.3563 538.157 99.4097 537.938 99.4377C537.719 99.4657 537.505 99.4678 537.309 99.4436C536.939 99.487 536.591 99.4554 536.322 99.354C536.052 99.2525 535.877 99.0872 535.825 98.8849L536.259 98.8977ZM543.448 87.062L543.365 86.7254C544.281 84.7653 545.026 82.8067 545.597 80.8582C545.692 80.5979 545.948 80.3413 546.311 80.1418C546.674 79.9423 547.116 79.8154 547.546 79.7873C547.979 79.7629 548.363 79.8422 548.615 80.0083C548.867 80.1744 548.968 80.4141 548.895 80.6763C548.245 82.6487 547.5 84.674 546.589 86.6805C546.465 86.9459 546.178 87.2005 545.791 87.3897C545.403 87.5789 544.946 87.6876 544.518 87.6922C544.137 87.7238 543.788 87.6742 543.531 87.5522C543.275 87.4301 543.127 87.2432 543.115 87.0244L543.448 87.062Z" fill="url(#paint0_linear_2_6090)" fill-opacity="0.8"/>
<defs>
<linearGradient id="paint0_linear_2_6090" x1="532.318" y1="12.5461" x2="3.26989" y2="141.882" gradientUnits="userSpaceOnUse">
<stop stop-color="#C0242A"/>
<stop offset="0.947917"/>
</linearGradient>
</defs>
</svg>
