<svg width="33" height="33" viewBox="0 0 33 33" fill="none" xmlns="http://www.w3.org/2000/svg">
<g clip-path="url(#clip0_2_3222)">
<path d="M16.3999 32.1952C16.2939 32.1952 16.188 32.1952 16.0813 32.1947C13.573 32.2008 11.2554 32.1371 9.00146 31.9999C6.93506 31.8742 5.04883 31.1601 3.54639 29.935C2.09668 28.7528 1.10669 27.1544 0.604004 25.1847C0.166504 23.4699 0.143311 21.7865 0.121094 20.1584C0.10498 18.9901 0.0883789 17.6059 0.0849609 16.1982C0.0883789 14.7846 0.10498 13.4003 0.121094 12.2321C0.143311 10.6042 0.166504 8.92081 0.604004 7.20572C1.10669 5.23599 2.09668 3.6376 3.54639 2.45548C5.04883 1.23038 6.93506 0.516268 9.00171 0.390535C11.2556 0.253572 13.5737 0.189607 16.0874 0.195711C18.5964 0.19034 20.9133 0.253572 23.1672 0.390535C25.2336 0.516268 27.1199 1.23038 28.6223 2.45548C30.0723 3.6376 31.062 5.23599 31.5647 7.20572C32.0022 8.92056 32.0254 10.6042 32.0476 12.2321C32.0637 13.4003 32.0806 14.7846 32.0837 16.1923V16.1982C32.0806 17.6059 32.0637 18.9901 32.0476 20.1584C32.0254 21.7863 32.0024 23.4696 31.5647 25.1847C31.062 27.1544 30.0723 28.7528 28.6223 29.935C27.1199 31.1601 25.2336 31.8742 23.1672 31.9999C21.0088 32.1313 18.7915 32.1952 16.3999 32.1952ZM16.0813 29.6947C18.5488 29.7006 20.8144 29.6383 23.0154 29.5045C24.5779 29.4096 25.9326 28.9025 27.0425 27.9975C28.0684 27.1608 28.7749 26.0065 29.1423 24.5666C29.5066 23.1391 29.5276 21.6064 29.5478 20.1242C29.5637 18.9638 29.5803 17.5893 29.5837 16.1952C29.5803 14.8009 29.5637 13.4267 29.5478 12.2663C29.5276 10.7841 29.5066 9.25137 29.1423 7.82364C28.7749 6.3837 28.0684 5.2294 27.0425 4.39273C25.9326 3.48795 24.5779 2.98087 23.0154 2.8859C20.8144 2.75186 18.5488 2.6901 16.0872 2.69547C13.6201 2.68961 11.3542 2.75186 9.15332 2.8859C7.59082 2.98087 6.23608 3.48795 5.12622 4.39273C4.10034 5.2294 3.3938 6.3837 3.02637 7.82364C2.66211 9.25137 2.64111 10.7838 2.62085 12.2663C2.60498 13.4276 2.58838 14.8029 2.58496 16.1982C2.58838 17.5873 2.60498 18.9628 2.62085 20.1242C2.64111 21.6064 2.66211 23.1391 3.02637 24.5666C3.3938 26.0065 4.10034 27.1608 5.12622 27.9975C6.23608 28.9023 7.59082 29.4093 9.15332 29.5043C11.3542 29.6383 13.6206 29.7008 16.0813 29.6947ZM16.0217 24.0077C11.7141 24.0077 8.20923 20.5031 8.20923 16.1952C8.20923 11.8874 11.7141 8.38272 16.0217 8.38272C20.3296 8.38272 23.8342 11.8874 23.8342 16.1952C23.8342 20.5031 20.3296 24.0077 16.0217 24.0077ZM16.0217 10.8827C13.0925 10.8827 10.7092 13.266 10.7092 16.1952C10.7092 19.1244 13.0925 21.5077 16.0217 21.5077C18.9512 21.5077 21.3342 19.1244 21.3342 16.1952C21.3342 13.266 18.9512 10.8827 16.0217 10.8827ZM24.7092 5.88272C23.6738 5.88272 22.8342 6.72208 22.8342 7.75772C22.8342 8.79337 23.6738 9.63272 24.7092 9.63272C25.7449 9.63272 26.5842 8.79337 26.5842 7.75772C26.5842 6.72208 25.7449 5.88272 24.7092 5.88272Z" fill="white"/>
</g>
<defs>
<clipPath id="clip0_2_3222">
<rect width="32" height="32" fill="white" transform="translate(0.0849609 0.195312)"/>
</clipPath>
</defs>
</svg>
