<svg width="14" height="14" viewBox="0 0 14 14" fill="none" xmlns="http://www.w3.org/2000/svg">
<g clip-path="url(#clip0_2_3103)">
<path d="M13.6547 0.150827C13.2859 0.0428744 4.26281 -0.855475 1.09398 3.42567C-0.309466 5.32223 -0.330548 7.9221 1.02365 11.1525C0.68013 11.8655 0.379404 12.6166 0.134322 13.4091C0.0598109 13.6499 0.194588 13.9052 0.43513 13.9795C0.479974 13.9934 0.525392 14 0.570236 14C0.764704 14 0.945255 13.8744 1.00552 13.6787C3.42073 5.87028 11.2697 2.09267 13.6766 1.13835C13.9108 1.0454 14.2239 0.317405 13.6547 0.150827Z" fill="#84829A"/>
<path d="M2.47168 12.1295C3.77808 12.6776 5.08429 12.9585 6.29898 12.9585C7.39078 12.9585 8.40898 12.734 9.28639 12.2788C11.0522 11.3628 12.1313 9.61057 12.4068 7.21108C12.6876 4.76565 13.0371 3.23392 13.3286 2.29688C10.7333 3.49404 5.16853 6.59716 2.47168 12.1295Z" fill="#84829A"/>
</g>
<defs>
<clipPath id="clip0_2_3103">
<rect width="14" height="14" fill="white"/>
</clipPath>
</defs>
</svg>
