<svg width="1620" height="408" viewBox="0 0 1620 408" fill="none" xmlns="http://www.w3.org/2000/svg">
<path fill-rule="evenodd" clip-rule="evenodd" d="M1084.32 247.387C1078.55 253.111 1080.2 252.442 1066.78 248.255C1055.02 244.29 1060.6 242.977 1050.06 249.345C1040.57 255.291 1025.08 261.212 1017.87 265.821C1020.57 272.188 1043.67 293.074 1049.25 301.647C1047.18 302.737 1045.53 303.629 1043.27 304.719C1039.76 306.478 1040.59 306.478 1036.45 303.852C1027.38 298.352 998.264 280.761 992.496 278.134C984.867 281.653 964.632 292.653 957.631 292.207C954.328 291.984 948.955 291.117 950.002 286.707C952.677 275.929 970.842 270.008 982.611 264.508C987.355 262.303 986.123 262.526 987.146 257.025C988.402 251.104 996.24 208.019 998.078 205.814C998.892 205.145 1005.29 202.295 1006.54 201.626C1007.17 205.591 1007.57 209.976 1007.78 214.163L1009.85 238.567C1009.85 242.531 1010.47 247.14 1011.08 250.881C1016.45 248.032 1021.8 245.604 1027.38 242.754C1055.04 228.682 1050.08 238.146 1056.48 222.314C1060.2 213.519 1060.2 208.242 1068.25 209.555C1066.78 227.17 1071.32 238.146 1084.32 247.387ZM849.477 77.0283C856.92 79.4564 855.245 79.6793 865.572 69.546C874.643 60.7505 869.084 62.0637 881.249 63.1786C891.971 64.0457 908.485 62.5096 916.951 63.4016C917.16 70.2149 904.577 99.6735 902.926 110.005C905.205 110.005 907.043 110.005 909.531 110.005C913.462 110.005 912.625 110.451 915.509 106.264C921.486 97.0225 940.489 67.7869 944.815 62.9556C953.281 62.7326 975.772 63.1786 981.959 59.8834C984.843 58.1243 989.379 54.6061 986.704 51.0879C979.889 42.7385 961.119 45.5877 948.327 46.0336C943.164 46.0336 944.42 45.8107 941.094 41.4253C937.581 36.594 913.229 1.18924 910.764 0.0991037C909.741 -0.12388 902.716 0.0991037 901.484 0.0991037C902.321 4.06325 903.763 8.00262 905.205 11.9668L913.253 35.0331C914.695 38.5513 916.137 43.1596 917.183 46.6778C911.206 46.4548 905.205 46.6778 899.018 46.6778C868.479 46.6778 876.946 53.0452 864.549 41.6235C857.757 35.2561 855.687 30.623 848.872 35.4791C857.129 50.6667 857.524 62.7326 849.477 77.0283ZM846.174 54.6061C849.268 54.1601 850.314 59.2144 846.779 59.8834L841.825 60.5523C838.731 61.2213 837.475 55.944 840.987 55.2751L846.174 54.6061ZM407.884 406.325C406.233 409.843 401.697 407.192 403.139 404.12L404.372 401.271C406.023 397.976 410.559 400.602 408.907 403.699L407.884 406.325ZM415.722 388.957C414.071 392.252 409.535 389.849 411.187 386.529L413.466 381.698C414.908 378.402 419.444 381.029 418.002 384.101L415.722 388.957ZM425.003 369.607C423.561 372.679 418.816 370.474 420.467 367.179L422.933 362.348C424.375 359.276 428.91 361.481 427.468 364.999L425.003 369.607ZM434.911 350.703C433.05 353.998 428.724 350.926 430.375 348.052L433.05 343.221C434.911 339.926 439.028 342.998 437.376 345.847L434.911 350.703ZM445.238 332.022C443.377 335.094 439.051 332.245 440.912 329.173L443.586 324.564C445.238 321.492 449.773 324.341 447.913 327.414L445.238 332.022ZM456.17 313.564C454.518 316.413 449.983 313.787 451.843 310.715L454.727 306.106C456.379 303.257 460.914 305.883 458.844 309.179L456.17 313.564ZM467.52 295.75C465.45 298.599 461.542 295.304 463.403 292.455L466.287 288.07C468.357 285.22 472.474 288.516 470.404 291.365L467.52 295.75ZM479.475 278.159C477.405 281.008 473.497 277.713 475.544 274.864L478.638 270.479C480.708 267.629 484.615 271.148 482.545 273.774L479.475 278.159ZM491.453 261.683C489.592 262.773 487.336 261.014 487.522 258.834C487.313 257.521 488.336 255.762 489.802 255.539L491.453 253.334C493.523 250.707 497.64 254.003 495.384 256.852L494.965 257.521L495.779 257.744C499.082 259.057 497.012 264.111 493.919 262.798L491.453 261.683ZM505.292 244.538C502.804 247.189 499.315 243.448 501.571 240.797L504.874 236.833C507.339 233.984 510.851 237.923 508.595 240.351L505.292 244.538ZM519.108 228.483C516.829 231.11 512.921 227.393 515.387 224.742L518.899 220.778C521.178 218.152 524.876 221.868 522.62 224.519L519.108 228.483ZM533.342 213.098C530.668 215.526 527.365 211.339 529.83 209.133L533.342 205.392C536.017 202.741 539.32 206.928 537.064 209.356L533.342 213.098ZM548.205 198.158C545.716 200.586 542.227 196.622 544.693 194.194L548.623 190.452C551.089 188.024 554.601 192.212 551.926 194.64L548.205 198.158ZM563.463 184.085C561.183 186.29 557.694 182.326 560.369 179.923L564.3 176.404C567.184 173.976 570.068 178.61 567.393 180.592L563.463 184.085ZM579.558 170.458C576.674 172.663 573.79 168.253 576.464 166.271L580.395 162.976C583.279 160.771 586.163 165.181 583.489 167.163L579.558 170.458ZM595.862 157.699C593.397 159.681 590.094 155.494 592.978 153.313C594.42 152.223 595.862 151.108 597.304 150.241C599.77 148.259 603.073 152.446 600.188 154.626C598.77 155.717 597.328 156.609 595.862 157.699ZM612.795 145.608C609.911 147.59 607.422 142.759 610.12 141L614.446 138.15C617.33 136.168 620.028 141 617.121 142.759L612.795 145.608ZM630.123 134.409C627.448 136.168 624.564 131.56 627.657 129.578L632.193 126.952C634.867 125.193 637.751 129.801 634.658 131.783L630.123 134.409ZM648.078 123.855C644.776 125.614 642.706 120.56 645.59 119.023L650.125 116.397C653.219 114.861 655.498 119.915 652.614 121.452L648.078 123.855ZM666.244 114.192C663.36 115.728 660.871 110.897 663.964 109.138C665.616 108.469 667.058 107.602 668.709 106.933C671.593 105.397 673.872 110.228 670.779 111.764C669.337 112.631 667.686 113.3 666.244 114.192ZM684.804 105.174C681.501 106.487 679.85 101.433 682.734 100.119L687.479 97.9144C690.782 96.6013 692.433 101.854 689.34 102.969L684.804 105.174ZM703.597 97.0225C700.504 98.3356 698.643 93.2813 701.737 91.9682L706.691 89.9861C709.575 88.673 711.645 93.7273 708.342 95.0404L703.597 97.0225ZM722.786 89.5649C719.692 90.6551 717.832 85.6008 721.134 84.5106C722.786 83.8417 724.437 83.1975 726.089 82.7516C728.973 81.4384 730.833 86.4927 727.531 87.8058C725.879 88.45 724.437 88.896 722.786 89.5649ZM742.184 82.9745C738.672 83.8417 737.648 78.5892 740.742 77.6973L745.696 76.1612C748.999 75.294 750.231 80.5465 746.929 81.4384L742.184 82.9745ZM761.791 77.0283C758.488 77.9202 757.256 72.643 760.558 71.751L765.512 70.4379C768.606 69.5708 770.048 74.8233 766.745 75.7152L761.791 77.0283ZM781.584 71.974C778.491 72.8412 776.839 67.5887 780.352 66.4738L785.515 65.3836C789.027 64.7147 789.655 70.2149 786.538 70.6609L781.584 71.974ZM801.401 67.3657C798.098 68.0347 797.284 62.7574 800.587 62.0884L805.541 61.2213C809.053 60.5523 809.867 65.8296 806.564 66.4985L801.401 67.3657ZM821.613 63.6245C818.31 64.2935 817.287 59.0162 820.799 58.3473L825.753 57.4801C829.056 56.8112 830.079 62.3114 826.567 62.9804L821.613 63.6245ZM134.453 276.4C128.661 282.123 130.336 281.454 116.916 277.069C105.147 273.328 110.729 271.792 100.193 278.382C90.703 284.105 75.2126 290.25 68.0024 294.858C70.6771 301.226 93.7964 322.112 99.3786 330.684C97.3085 331.774 95.6572 332.443 93.401 333.533C89.889 335.515 90.7263 335.515 86.5862 332.864C77.5152 327.364 48.4184 309.55 42.6269 307.147C34.998 310.665 14.7628 321.666 7.76191 321.22C4.45915 320.997 -0.913645 319.907 0.133004 315.496C2.80777 304.719 20.9729 298.797 32.7419 293.297C37.4867 291.092 36.254 291.538 37.2774 286.038C38.5101 279.893 46.3716 237.031 48.2091 234.826C48.8371 234.157 55.4193 231.085 56.6753 230.639C57.3033 234.603 57.7219 238.765 57.908 242.953L59.9781 267.58C59.9781 271.321 60.606 276.152 61.2108 279.67C66.5836 277.019 71.9331 274.393 77.5152 271.767C105.17 257.694 100.007 267.159 106.612 251.327C110.333 242.531 110.124 237.254 118.381 238.567C116.916 256.183 121.451 267.183 134.453 276.4ZM128.475 254.647C125.382 255.737 126.615 260.791 130.127 259.924L134.872 258.165C137.756 257.273 136.732 252.021 133.22 252.888L128.475 254.647ZM666.034 372.902C668.709 375.33 671.593 370.92 669.128 368.74L667.058 366.981C664.173 364.553 661.289 368.963 663.755 371.168L666.034 372.902ZM651.8 360.812C654.475 363.017 657.568 358.83 655.103 356.624L650.986 353.106C648.311 350.901 645.218 355.311 647.892 357.492L651.8 360.812ZM635.705 347.631C638.17 349.836 641.473 345.649 638.798 343.245L634.681 339.95C632.007 337.968 628.704 342.155 631.588 344.36L635.705 347.631ZM619.191 334.871C622.075 337.076 624.773 332.245 622.075 330.486L617.749 327.414C614.865 325.209 612.167 330.065 614.865 331.799L619.191 334.871ZM602.258 322.781C605.143 324.763 607.841 320.154 605.143 318.172L600.816 315.323C597.932 313.341 595.048 317.751 597.932 319.733L602.258 322.781ZM585.14 311.136C587.815 312.895 590.699 308.51 587.605 306.528L583.279 303.678C580.604 301.919 577.72 306.305 580.604 308.287L585.14 311.136ZM567.393 300.135C570.696 301.895 572.766 297.063 570.068 295.304L565.533 292.678C562.439 290.919 560.16 295.75 563.067 297.509L567.393 300.135ZM549.647 289.804C552.74 291.34 554.81 286.509 551.926 284.973L547.391 282.322C544.297 280.785 542.018 285.617 545.111 287.153L549.647 289.804ZM531.272 280.141C534.366 281.677 536.645 276.846 533.528 275.087L528.993 272.882C526.109 271.346 523.62 275.954 526.714 277.713L531.272 280.141ZM512.921 271.123C516.224 272.436 517.875 267.382 514.782 266.069L510.037 263.863C506.944 262.55 505.083 267.605 508.176 268.918L512.921 271.123ZM474.939 255.291C478.451 256.381 479.475 251.104 476.591 250.237L471.637 248.478C468.125 247.387 467.101 252.665 469.985 253.532L474.939 255.291ZM455.542 248.701C458.635 249.791 460.077 244.513 456.984 243.423L452.029 241.887C448.727 240.995 447.285 246.273 450.587 247.165L455.542 248.701ZM435.934 243.002C438.818 243.869 440.679 238.84 437.167 237.725L432.213 236.412C428.491 235.545 427.887 241.02 430.98 241.689L435.934 243.002ZM416.141 237.948C419.444 238.617 420.258 233.34 417.164 232.671L412.001 231.58C408.698 230.912 407.675 236.189 410.954 236.858L416.141 237.948ZM396.115 233.984C399.209 234.653 400.441 229.375 396.929 228.483C395.278 228.26 393.417 227.815 391.766 227.616C388.672 226.947 387.44 232.225 390.952 233.117C392.603 233.315 394.464 233.538 396.115 233.984ZM375.903 230.689C379.415 231.134 379.834 225.634 376.531 225.411L371.577 224.742C368.065 224.296 367.646 229.797 370.949 230.02L375.903 230.689ZM355.668 228.483C358.971 228.706 359.599 223.429 356.087 222.983L350.923 222.537C347.83 222.091 347.016 227.592 350.714 228.038L355.668 228.483ZM335.456 226.947C338.968 227.17 338.759 221.67 335.665 221.67L330.502 221.447C326.99 221.224 326.99 226.724 330.293 226.724L335.456 226.947ZM315.011 226.501C318.314 226.501 318.524 221.001 315.011 221.001C313.36 221.001 311.499 221.001 309.848 221.001C306.755 221.001 306.336 226.501 309.848 226.501C311.732 226.501 313.36 226.501 315.011 226.501ZM294.59 226.947C298.312 226.501 297.684 221.224 294.381 221.447L289.427 221.67C285.915 221.893 286.333 227.393 289.636 227.17L294.59 226.947ZM274.378 228.038C277.681 227.815 277.262 222.314 273.96 222.537L268.796 222.983C265.493 223.206 265.912 228.706 269.215 228.483L274.378 228.038ZM254.143 230.02C257.236 229.797 257.027 224.296 253.515 224.742C251.864 224.965 250.003 225.188 248.352 225.411C245.258 225.634 245.467 231.134 248.98 230.689C250.631 230.466 252.282 230.243 254.143 230.02ZM233.931 232.869C237.443 232.2 236.21 226.947 233.117 227.592L227.93 228.26C224.628 229.152 225.651 234.43 228.744 233.761L233.931 232.869ZM213.696 236.61C216.999 235.941 216.185 230.466 212.882 231.11L207.718 232.2C204.625 232.869 205.439 238.146 208.742 237.477L213.696 236.61ZM193.879 240.797C196.973 240.351 196.159 234.876 192.647 235.52L187.692 236.833C184.18 237.725 185.832 242.977 188.925 242.11L193.879 240.797ZM174.086 246.074C177.389 244.984 175.947 239.707 172.644 240.797L167.69 242.11C164.387 242.977 165.829 248.255 169.132 247.387L174.086 246.074ZM154.269 251.798C157.572 250.93 156.34 245.43 152.827 246.52L148.083 248.056C144.989 248.924 146.013 254.201 149.525 253.334L154.269 251.798ZM1078.32 225.634C1075.23 226.724 1076.46 231.779 1079.97 230.912L1084.72 229.152C1087.6 228.26 1086.79 223.008 1083.07 224.098L1078.32 225.634ZM1615.88 344.113C1618.55 346.318 1621.65 341.908 1618.97 339.926L1616.9 337.943C1614.02 335.515 1611.13 340.148 1613.6 342.131L1615.88 344.113ZM1601.65 332.022C1604.34 334.227 1607.41 329.817 1604.95 327.637L1600.81 324.341C1598.13 322.136 1595.02 326.324 1597.71 328.529L1601.65 332.022ZM1585.55 318.618C1588.02 320.823 1591.32 316.636 1588.64 314.431L1584.53 311.136C1581.85 308.931 1578.55 313.118 1581.43 315.521L1585.55 318.618ZM1569.04 306.082C1571.92 308.064 1574.62 303.455 1571.92 301.473L1567.8 298.401C1564.71 296.419 1562.01 301.052 1564.92 303.009L1569.04 306.082ZM1552.13 293.768C1555.01 295.75 1557.69 291.142 1555.01 289.16L1550.69 286.31C1547.8 284.328 1545.1 288.961 1547.8 290.919L1552.13 293.768ZM1534.99 282.123C1537.68 284.105 1540.57 279.695 1537.68 277.515L1533.15 274.666C1530.68 272.907 1527.59 277.292 1530.68 279.497L1534.99 282.123ZM1517.45 271.123C1520.54 272.882 1522.61 268.051 1519.94 266.514L1515.4 263.665C1512.31 262.129 1510.03 266.96 1512.94 268.497L1517.45 271.123ZM1499.52 260.791C1502.61 262.327 1504.89 257.719 1501.77 255.96L1497.24 253.532C1494.14 251.773 1492.07 256.827 1494.96 258.363L1499.52 260.791ZM1481.14 251.129C1484.23 252.665 1486.51 247.833 1483.42 246.297L1478.88 243.869C1476 242.333 1473.54 247.165 1476.61 248.701L1481.14 251.129ZM1462.77 242.11C1466.07 243.423 1467.72 238.369 1464.63 237.056L1460.09 234.851C1456.79 233.538 1454.93 238.815 1458.02 239.905L1462.77 242.11ZM1443.79 233.984C1446.88 235.297 1448.93 230.243 1445.65 228.706L1440.9 226.947C1437.81 225.634 1435.95 230.689 1439.04 232.002L1443.79 233.984ZM1424.81 226.501C1428.32 227.592 1429.34 222.116 1426.46 221.224L1421.51 219.465C1417.99 218.375 1416.97 223.652 1419.85 224.742L1424.81 226.501ZM1405.41 219.688C1408.71 220.778 1409.95 215.526 1406.85 214.634L1401.9 213.098C1398.6 212.007 1397.15 217.285 1400.46 218.152L1405.41 219.688ZM1385.8 213.99C1388.69 214.857 1390.55 209.802 1387.04 208.712L1382.08 207.399C1378.36 206.532 1377.73 212.007 1380.85 212.676L1385.8 213.99ZM1365.99 209.133C1369.29 209.802 1370.1 204.302 1367.01 203.633L1361.85 202.543C1358.54 201.874 1357.71 207.151 1361.03 207.82L1365.99 209.133ZM1345.98 204.971C1349.08 205.64 1350.33 200.363 1346.8 199.694C1345.15 199.248 1343.5 199.025 1341.63 198.604C1338.75 198.158 1337.31 203.435 1340.82 204.104C1342.68 204.302 1344.33 204.748 1345.98 204.971ZM1325.75 201.676C1329.26 202.122 1329.68 196.845 1326.38 196.399L1321.42 195.73C1317.91 195.284 1317.49 200.784 1320.79 201.007L1325.75 201.676ZM1305.54 199.471C1308.84 199.917 1309.44 194.417 1305.96 193.971L1300.79 193.525C1297.7 193.302 1296.86 198.579 1300.58 199.025L1305.54 199.471ZM1285.3 198.158C1288.81 198.158 1288.6 192.658 1285.51 192.658L1280.35 192.435C1276.84 192.435 1276.84 197.712 1280.14 197.935L1285.3 198.158ZM1264.88 197.489C1268.18 197.489 1268.39 192.212 1264.88 191.989C1263.23 191.989 1261.37 191.989 1259.72 191.989C1256.62 191.989 1256.2 197.489 1259.72 197.489C1261.58 197.489 1263.23 197.489 1264.88 197.489ZM1244.46 197.935C1248.18 197.712 1247.55 192.212 1244.25 192.435L1239.3 192.658C1235.78 192.88 1236.2 198.381 1239.5 198.158L1244.46 197.935ZM1224.22 199.025C1227.53 198.802 1227.32 193.302 1223.8 193.748L1218.64 194.194C1215.34 194.417 1215.76 199.694 1219.06 199.471L1224.22 199.025ZM1204.01 201.23C1207.11 200.784 1206.9 195.284 1203.38 195.73C1201.73 195.953 1199.87 196.176 1198.22 196.399C1195.13 196.622 1195.34 202.122 1198.85 201.676C1200.5 201.453 1202.15 201.23 1204.01 201.23ZM1183.78 203.856C1187.29 203.187 1186.03 197.935 1182.96 198.579L1177.8 199.446C1174.5 200.115 1175.52 205.392 1178.61 204.723L1183.78 203.856ZM1163.54 207.597C1166.84 206.928 1166.03 201.676 1162.73 202.32L1157.59 203.187C1154.49 203.856 1155.31 209.332 1158.61 208.688L1163.54 207.597ZM1143.75 212.007C1146.84 211.339 1146.03 205.863 1142.52 206.73L1137.56 207.82C1134.05 208.91 1135.7 213.99 1138.79 213.098L1143.75 212.007ZM1123.93 217.062C1127.23 215.972 1125.79 210.917 1122.7 211.785L1117.54 213.098C1114.23 214.188 1115.67 219.242 1118.98 218.375L1123.93 217.062ZM1104.32 222.76C1107.42 221.893 1106.18 216.616 1102.88 217.483L1097.93 219.019C1094.83 219.886 1095.86 225.386 1099.37 224.296L1104.32 222.76Z" fill="#F1F1F1"/>
</svg>
