<svg width="296" height="118" viewBox="0 0 296 118" fill="none" xmlns="http://www.w3.org/2000/svg">
<path d="M8.152 83.04C7.832 82.784 7.288 82.528 6.52 82.272C5.688 82.08 5.048 81.952 4.6 81.888C4.6 81.568 4.504 81.312 4.312 81.12L4.024 81.504C4.024 81.312 3.928 81.024 3.736 80.64H3.64L3.448 80.928C2.936 80.736 2.616 80.384 2.488 79.872C2.36 79.36 2.104 78.976 1.72 78.72C1.592 78.656 1.432 78.624 1.24 78.624C1.048 78.624 0.888 78.56 0.76 78.432L0.568 77.088H0.76C1.08 77.28 1.464 77.408 1.912 77.472C2.36 77.6 2.744 77.792 3.064 78.048L2.68 78.624C2.808 78.624 2.936 78.592 3.064 78.528C3.128 78.528 3.192 78.56 3.256 78.624C3.384 78.752 3.448 79.008 3.448 79.392C3.64 79.008 3.928 78.784 4.312 78.72C4.44 79.168 4.92 79.488 5.752 79.68C6.584 79.936 7.448 80.128 8.344 80.256C9.304 80.384 9.976 80.48 10.36 80.544H10.648C11.032 80.544 11.352 80.384 11.608 80.064C11.864 79.808 12.12 79.904 12.376 80.352C12.76 79.968 13.048 79.744 13.24 79.68C13.432 79.616 13.752 79.456 14.2 79.2C14.136 78.752 14.296 78.4 14.68 78.144C15.064 77.952 15.512 77.6 16.024 77.088C16.536 76.64 16.952 75.872 17.272 74.784C17.272 74.784 17.464 74.784 17.848 74.784V73.92H18.424C18.424 73.6 18.456 73.408 18.52 73.344H18.712C18.84 73.024 18.808 72.864 18.616 72.864C18.424 72.928 18.456 72.608 18.712 71.904C19.096 72.032 19.416 71.712 19.672 70.944C19.992 70.112 20.248 69.216 20.44 68.256C20.632 67.296 20.824 66.688 21.016 66.432L21.496 66.528C21.56 66.336 21.592 66.176 21.592 66.048C21.656 65.856 21.656 65.632 21.592 65.376C21.72 65.248 21.912 65.184 22.168 65.184C22.488 65.12 22.712 64.96 22.84 64.704C22.392 64.448 22.168 64.16 22.168 63.84C22.168 63.456 22.168 63.104 22.168 62.784L22.36 62.88C22.424 62.944 22.456 62.944 22.456 62.88C22.52 62.752 22.552 62.656 22.552 62.592C22.616 62.272 22.68 61.952 22.744 61.632C22.872 61.312 22.904 60.96 22.84 60.576C23.032 60.576 23.16 60.608 23.224 60.672C23.288 60.672 23.384 60.544 23.512 60.288C23.448 60.224 23.352 60.192 23.224 60.192C23.16 60.192 23.064 60.16 22.936 60.096C23.256 59.648 23.384 59.2 23.32 58.752C23.32 58.24 23.448 57.76 23.704 57.312C23.96 56.992 24.184 56.832 24.376 56.832C24.632 56.832 24.792 56.576 24.856 56.064C24.536 55.616 24.376 55.296 24.376 55.104C24.376 54.784 24.472 54.464 24.664 54.144C24.856 53.824 24.952 53.44 24.952 52.992C24.952 52.672 24.92 52.416 24.856 52.224C25.368 51.904 25.624 51.424 25.624 50.784C25.624 50.08 25.624 49.472 25.624 48.96C26.072 48.832 26.296 48.608 26.296 48.288C26.296 48.096 26.232 47.904 26.104 47.712C25.976 47.52 25.912 47.296 25.912 47.04C25.912 46.464 26.136 46.144 26.584 46.08C27.096 46.016 27.224 45.696 26.968 45.12C26.84 44.608 26.776 44.16 26.776 43.776C26.776 43.392 26.776 42.976 26.776 42.528C26.84 42.528 26.936 42.464 27.064 42.336C27.256 42.208 27.352 42.112 27.352 42.048C27.48 41.664 27.544 41.056 27.544 40.224C27.544 39.776 27.48 39.424 27.352 39.168C27.736 38.72 27.992 38.016 28.12 37.056C28.248 36.096 28.312 35.136 28.312 34.176C28.376 33.152 28.44 32.352 28.504 31.776H29.272C29.336 31.648 29.368 31.52 29.368 31.392C29.368 31.264 29.4 31.168 29.464 31.104C29.144 30.848 28.984 30.208 28.984 29.184C28.984 28.672 28.984 28.192 28.984 27.744C29.048 27.232 29.08 26.848 29.08 26.592L29.848 26.208C29.656 25.504 29.56 24.896 29.56 24.384C29.56 23.616 29.656 22.88 29.848 22.176C30.04 21.408 30.232 20.672 30.424 19.968L30.04 17.28C30.104 17.088 30.2 16.96 30.328 16.896C30.52 16.768 30.648 16.576 30.712 16.32C30.392 16.064 30.2 15.68 30.136 15.168C30.136 14.656 30.136 14.24 30.136 13.92L30.424 13.824L30.712 14.208C30.776 13.952 30.936 13.632 31.192 13.248V12.96C31.192 12.512 31.064 12.064 30.808 11.616C30.616 11.168 30.584 10.752 30.712 10.368C30.904 9.856 31.032 9.504 31.096 9.31199C31.224 9.056 31.288 8.864 31.288 8.736C31.288 8.608 31.256 8.448 31.192 8.256C31.128 8.064 31.064 7.712 31 7.2C31.448 7.072 31.672 6.912 31.672 6.72C31.736 6.528 31.768 6.208 31.768 5.75999C31.896 5.632 31.928 5.472 31.864 5.27999C31.864 5.088 31.896 4.928 31.96 4.8H31.768L31.288 5.184V4.992C31.224 4.864 31.192 4.672 31.192 4.41599C31.192 4.16 31.192 3.904 31.192 3.648C31.32 3.456 31.352 3.264 31.288 3.07199C31.288 2.88 31.288 2.688 31.288 2.496L32.056 1.72799C32.76 1.92 33.336 1.856 33.784 1.536C34.232 1.216 34.808 1.056 35.512 1.056C35.96 1.056 36.408 1.152 36.856 1.34399V0.767996C37.688 0.831995 38.392 1.12 38.968 1.632C39.544 2.08 39.832 2.688 39.832 3.456C39.832 3.84 39.736 4.288 39.544 4.8H39.256L39.352 4.992C39.416 5.184 39.448 5.408 39.448 5.664C39.448 5.856 39.448 6.048 39.448 6.23999C39.448 6.81599 39.384 7.23199 39.256 7.488H38.776C38.776 7.872 38.936 8 39.256 7.872L38.776 9.504H38.968C39.288 9.44 39.608 9.44 39.928 9.504V8.832C40.44 8.768 40.92 8.704 41.368 8.64C41.88 8.512 42.392 8.512 42.904 8.64L43 8.064C43.32 8.128 43.544 8.16 43.672 8.16C43.8 8.16 43.992 8.256 44.248 8.44799V7.872L46.744 7.296L47.32 7.68C47.384 7.68 47.512 7.648 47.704 7.584C47.896 7.52 47.928 7.424 47.8 7.296C47.864 7.232 47.992 7.2 48.184 7.2C48.376 7.2 48.568 7.264 48.76 7.392C48.952 7.52 49.144 7.552 49.336 7.488L49.528 6.912H49.72C49.912 6.912 50.136 6.976 50.392 7.10399C50.712 7.232 51 7.264 51.256 7.2L51.448 6.432H51.736C51.992 6.432 52.216 6.496 52.408 6.62399C52.664 6.688 52.92 6.72 53.176 6.72C53.56 6.72 53.784 6.656 53.848 6.528C53.912 6.33599 54.072 6.20799 54.328 6.144H54.616C54.936 6.144 55.32 6.208 55.768 6.336C56.216 6.4 56.568 6.432 56.824 6.432C57.016 6.496 57.432 6.368 58.072 6.048C58.776 5.664 59.576 5.472 60.472 5.472C60.92 5.472 61.368 5.536 61.816 5.664C62.264 5.792 62.712 6.016 63.16 6.336C63.16 6.208 63.16 6.08 63.16 5.952C63.224 5.76 63.256 5.632 63.256 5.568L69.208 6.912C69.72 6.656 70.136 6.4 70.456 6.144C70.84 5.824 71.256 5.568 71.704 5.376C72.216 5.184 72.504 5.152 72.568 5.27999C72.632 5.408 72.792 5.472 73.048 5.472C73.304 5.472 73.752 5.376 74.392 5.184C74.712 5.632 74.872 6.144 74.872 6.72C74.808 6.848 74.744 7.008 74.68 7.2C74.68 7.392 74.648 7.552 74.584 7.68L74.008 8.064C73.944 8 73.816 7.936 73.624 7.872C73.496 7.744 73.368 7.744 73.24 7.872C71.448 9.216 69.848 11.008 68.44 13.248C67.096 15.488 66.36 17.728 66.232 19.968C66.04 19.904 65.848 19.904 65.656 19.968C65.72 20.416 65.656 21.312 65.464 22.656C65.272 23.936 65.016 25.376 64.696 26.976C64.44 28.576 64.216 30.08 64.024 31.488C63.832 32.896 63.768 33.952 63.832 34.656C63.896 34.848 63.928 35.2 63.928 35.712C63.928 36.16 63.864 36.608 63.736 37.056C63.608 37.44 63.32 37.792 62.872 38.112L63.736 38.688C63.864 38.88 63.928 39.168 63.928 39.552C63.928 40.064 63.832 40.64 63.64 41.28C63.448 41.92 63.384 42.432 63.448 42.816L63.832 43.104V44.16H63.448V45.12L64.024 45.312C64.088 45.44 64.12 45.6 64.12 45.792C64.12 46.048 64.024 46.272 63.832 46.464C63.704 46.592 63.576 46.784 63.448 47.04C63.896 47.296 64.184 47.904 64.312 48.864C64.504 49.76 64.6 50.368 64.6 50.688C64.6 50.88 64.536 51.04 64.408 51.168C64.28 51.232 64.248 51.328 64.312 51.456L64.792 51.744C64.92 51.936 64.984 52.192 64.984 52.512C64.984 52.768 65.016 52.992 65.08 53.184C65.016 53.184 64.952 53.184 64.888 53.184C64.888 53.12 64.856 53.088 64.792 53.088C64.728 53.088 64.664 53.12 64.6 53.184C64.6 53.312 64.664 53.472 64.792 53.664C64.984 53.792 65.112 53.888 65.176 53.952V56.16C65.304 56.416 65.4 56.512 65.464 56.448C65.592 56.32 65.688 56.384 65.752 56.64C66.008 56.896 66.104 57.248 66.04 57.696C66.04 58.08 66.136 58.4 66.328 58.656L65.944 59.808C66.008 60.064 66.136 60.224 66.328 60.288C66.584 60.352 66.776 60.448 66.904 60.576C67.096 61.664 67.48 62.72 68.056 63.744C68.632 64.768 69.144 65.76 69.592 66.72C70.104 67.616 70.36 68.544 70.36 69.504L71.32 69.6C71.32 70.048 71.608 70.496 72.184 70.944C72.76 71.328 73.176 71.648 73.432 71.904C73.624 71.712 73.784 71.616 73.912 71.616C74.232 71.616 74.456 71.776 74.584 72.096C74.712 72.416 74.776 72.736 74.776 73.056C74.456 73.312 74.072 73.44 73.624 73.44C73.24 73.696 72.888 73.728 72.568 73.536C72.248 73.408 71.992 73.28 71.8 73.152C71.672 73.088 71.64 73.248 71.704 73.632L71.512 73.44V73.344C71.448 73.28 71.352 73.248 71.224 73.248C70.968 73.248 70.712 73.28 70.456 73.344C70.2 73.408 69.976 73.44 69.784 73.44L69.592 72.864C69.144 72.48 68.504 72.224 67.672 72.096L67.576 72.48C67.448 72.032 67.32 71.872 67.192 72C67.064 72.192 66.936 72.16 66.808 71.904C66.616 71.712 66.552 71.616 66.616 71.616C66.68 71.552 66.552 71.296 66.232 70.848C66.232 70.912 66.232 70.976 66.232 71.04C66.296 71.104 66.296 71.232 66.232 71.424C65.912 71.104 65.56 70.624 65.176 69.984C64.856 69.344 64.664 68.8 64.6 68.352L63.736 68.064C63.736 67.616 63.64 67.328 63.448 67.2L63.256 67.488C63.256 66.976 63.128 66.496 62.872 66.048C62.68 65.536 62.584 65.024 62.584 64.512H62.008C62.008 63.936 61.88 63.424 61.624 62.976C61.368 62.528 61.24 62.016 61.24 61.44C61.048 61.44 60.92 61.472 60.856 61.536C60.856 61.536 60.792 61.504 60.664 61.44C60.536 60.48 60.376 59.776 60.184 59.328C59.992 58.88 59.832 58.4 59.704 57.888C59.576 57.376 59.544 56.576 59.608 55.488C59.48 54.976 59.256 54.624 58.936 54.432C58.68 54.176 58.68 53.696 58.936 52.992C58.68 52.928 58.552 52.896 58.552 52.896C58.616 52.896 58.584 52.8 58.456 52.608C58.648 52.48 58.744 52.288 58.744 52.032C58.424 52.032 58.264 51.904 58.264 51.648C58.264 51.392 58.264 51.136 58.264 50.88C58.392 50.688 58.456 50.4 58.456 50.016C58.456 49.248 58.232 48.448 57.784 47.616C57.4 46.72 57.336 45.856 57.592 45.024C57.784 44.256 57.88 43.808 57.88 43.68C57.88 43.488 57.816 43.392 57.688 43.392C57.56 43.392 57.464 43.136 57.4 42.624C57.4 42.56 57.432 42.304 57.496 41.856C57.624 41.408 57.688 40.992 57.688 40.608C57.752 40.224 57.656 40.128 57.4 40.32V35.232C57.72 35.232 57.848 35.232 57.784 35.232C57.784 35.168 57.816 34.976 57.88 34.656C57.752 34.528 57.688 34.24 57.688 33.792C57.688 33.216 57.752 32.608 57.88 31.968C58.072 31.264 58.168 30.688 58.168 30.24H57.688C57.688 29.92 57.752 29.632 57.88 29.376C58.072 29.12 58.2 28.864 58.264 28.608L58.456 25.248C58.456 25.056 58.552 24.704 58.744 24.192C58.936 23.616 59.064 23.232 59.128 23.04C59.128 22.976 59.192 22.816 59.32 22.56C59.448 22.304 59.544 22.272 59.608 22.464C59.672 22.272 59.704 22.048 59.704 21.792V20.928C59.704 20.544 59.768 20.256 59.896 20.064L60.664 19.776C60.472 19.392 60.376 19.072 60.376 18.816C60.376 18.496 60.664 18.24 61.24 18.048C61.24 17.088 61.304 16.448 61.432 16.128C61.624 15.808 61.848 15.552 62.104 15.36C62.36 15.168 62.552 14.848 62.68 14.4L62.584 13.92C62.904 13.92 63.128 13.888 63.256 13.824C63.192 13.504 63.352 12.992 63.736 12.288C64.184 11.584 64.472 11.104 64.6 10.848C64.728 10.848 64.824 10.88 64.888 10.944C64.952 10.944 65.016 10.944 65.08 10.944C65.528 10.944 65.752 10.464 65.752 9.504C65.368 9.504 65.048 9.408 64.792 9.216C64.536 8.96 64.28 8.832 64.024 8.832C63.832 8.832 63.576 9.024 63.256 9.408C63.192 9.472 63.064 9.504 62.872 9.504C62.616 9.504 62.36 9.408 62.104 9.216C61.848 9.024 61.592 8.928 61.336 8.928C61.08 8.928 60.792 9.024 60.472 9.216C60.152 9.344 59.832 9.44 59.512 9.504V8.832L58.744 8.928L58.264 9.792C58.072 9.728 57.88 9.696 57.688 9.696C57.56 9.632 57.4 9.6 57.208 9.6C56.44 9.6 55.64 9.76 54.808 10.08C53.976 10.336 53.176 10.368 52.408 10.176V10.752C52.088 10.752 51.224 10.912 49.816 11.232C48.472 11.488 46.936 11.84 45.208 12.288C43.544 12.736 42.04 13.184 40.696 13.632C39.416 14.016 38.68 14.304 38.488 14.496C38.232 14.688 38.04 15.2 37.912 16.032C37.784 16.864 37.688 17.696 37.624 18.528C37.56 19.36 37.528 19.936 37.528 20.256L37.048 20.064V20.256C37.176 20.512 37.24 20.8 37.24 21.12C37.24 21.76 37.144 22.592 36.952 23.616C36.76 24.64 36.568 25.632 36.376 26.592C36.184 27.552 36.056 28.256 35.992 28.704L35.704 28.608V28.416C35.64 28.288 35.608 28.32 35.608 28.512C35.608 28.704 35.608 28.832 35.608 28.896C35.864 29.28 35.832 29.984 35.512 31.008C35.192 31.968 34.968 32.672 34.84 33.12C34.968 33.376 34.904 34.016 34.648 35.04C34.456 36.064 34.232 37.12 33.976 38.208C33.784 39.296 33.688 40.096 33.688 40.608L33.208 40.32V40.608C33.336 40.8 33.304 41.408 33.112 42.432C32.92 43.456 32.696 44.48 32.44 45.504C32.248 46.528 32.088 47.232 31.96 47.616H31.288C31.352 47.808 31.384 48 31.384 48.192C31.384 48.384 31.384 48.544 31.384 48.672C31.384 49.44 31.224 50.112 30.904 50.688C30.648 51.2 30.392 51.84 30.136 52.608C30.136 52.736 30.296 52.8 30.616 52.8L30.424 54.144H29.56C29.496 54.272 29.432 54.368 29.368 54.432C29.368 54.496 29.336 54.592 29.272 54.72C29.336 54.784 29.368 54.912 29.368 55.104C29.368 55.232 29.4 55.36 29.464 55.488C29.72 55.488 29.816 55.52 29.752 55.584C29.752 55.584 29.784 55.744 29.848 56.064C29.272 56.832 28.888 57.792 28.696 58.944C28.504 60.032 28.28 61.088 28.024 62.112C27.768 63.136 27.224 63.936 26.392 64.512C26.392 64.576 26.392 64.704 26.392 64.896C26.456 65.024 26.488 65.152 26.488 65.28C26.488 65.664 26.392 65.952 26.2 66.144L25.624 66.432C25.816 66.944 25.688 67.616 25.24 68.448C24.792 69.216 24.312 70.016 23.8 70.848C23.288 71.68 22.968 72.416 22.84 73.056H22.552L22.36 72.864C22.296 73.12 22.232 73.344 22.168 73.536C22.168 73.728 22.04 73.952 21.784 74.208C21.72 74.144 21.592 74.112 21.4 74.112C21.272 74.176 21.144 74.208 21.016 74.208V75.168H20.344C20.344 75.296 20.28 75.456 20.152 75.648C20.088 75.84 20.056 76 20.056 76.128L20.344 76.224L20.44 76.512C19.608 77.024 18.936 77.664 18.424 78.432C17.976 79.264 17.4 79.968 16.696 80.544C16.184 80.864 15.608 81.152 14.968 81.408C14.392 81.664 13.88 82.016 13.432 82.464L12.856 82.08V82.56C12.472 82.56 12.088 82.464 11.704 82.272C11.64 82.528 11.416 82.752 11.032 82.944C10.648 83.136 10.424 83.008 10.36 82.56H10.264C10.136 82.56 10.008 82.624 9.88 82.752C9.816 82.88 9.72 82.976 9.592 83.04C9.528 82.72 9.432 82.496 9.304 82.368C9.24 82.304 9.048 82.208 8.728 82.08C8.6 82.528 8.408 82.848 8.152 83.04ZM82.4688 70.272L82.2768 70.656L81.9888 70.368C80.7728 70.368 79.7488 69.952 78.9168 69.12L78.7248 69.408C78.0208 68.768 77.3488 67.936 76.7088 66.912L77.0928 66.624L76.9008 66.144L76.6128 66.24L75.8448 64.896L76.0368 64.32C75.5888 63.68 75.3328 63.04 75.2688 62.4H75.3648L75.6528 62.784L75.8448 62.208L75.4608 61.728C75.3968 61.408 75.2688 60.736 75.0768 59.712C74.8848 58.624 74.7888 57.728 74.7888 57.024C74.7888 56.448 74.8528 56.096 74.9808 55.968L74.6928 55.008H75.3648C75.3648 54.944 75.3328 54.624 75.2688 54.048C75.2048 53.472 75.1408 52.896 75.0768 52.32C75.0768 51.68 75.0768 51.232 75.0768 50.976L75.6528 51.168V50.88L75.1728 50.304L75.3648 49.344L75.6528 49.44V48.96L75.3648 48.384H75.8448C75.7808 48.064 75.7168 47.744 75.6528 47.424C75.6528 47.104 75.6528 46.816 75.6528 46.56L76.0368 46.272L75.6528 45.984L76.1328 43.68L75.9408 43.584C76.1968 43.264 76.3248 42.944 76.3248 42.624C76.3888 42.24 76.4528 41.888 76.5168 41.568L76.9008 41.472L76.8047 40.512H77.0928L77.3808 39.648C77.1888 39.776 77.0928 39.712 77.0928 39.456C77.0928 39.136 77.0288 39.008 76.9008 39.072C77.1568 38.624 77.3168 38.144 77.3808 37.632C77.5088 37.12 77.7328 36.64 78.0528 36.192L77.7648 35.616L78.1488 34.464L78.6288 34.56L78.9168 34.272H78.1488L78.2448 33.888L79.2048 33.696V33.216L78.4368 33.12C78.5008 32.992 78.5648 32.864 78.6288 32.736C78.6928 32.544 78.6928 32.416 78.6288 32.352L79.0128 31.872L78.9168 31.488L79.5888 30.432L81.0288 30.816L80.8368 30.144H80.9328C81.5088 30.592 82.0848 30.944 82.6608 31.2C83.2368 31.456 83.5568 32 83.6208 32.832H84.2928C84.4208 33.536 84.8368 33.952 85.5408 34.08C86.2448 34.144 86.7888 34.432 87.1728 34.944L87.6528 34.56L88.7088 35.232L88.5168 35.712C89.3488 35.648 90.1488 35.744 90.9168 36C91.7488 36.256 92.1968 36.928 92.2608 38.016L92.8368 37.536C93.5408 38.048 93.8928 38.816 93.8928 39.84L93.5088 39.936L93.7008 40.992C93.1248 41.248 92.8688 41.696 92.9328 42.336C93.0608 42.976 92.9328 43.456 92.5488 43.776H92.2608C92.0688 44.608 91.5568 45.248 90.7248 45.696C89.9568 46.08 89.3168 46.624 88.8048 47.328L88.6128 46.848H88.5168L88.4208 47.616L87.4608 48.288V48.576L86.7888 48.864L86.8848 48.96H86.3088C86.0528 49.216 85.7328 49.472 85.3488 49.728C84.9648 49.92 84.6128 50.08 84.2928 50.208L84.3888 49.92C84.1328 50.112 83.8768 50.368 83.6208 50.688C83.4288 50.944 83.1728 51.136 82.8528 51.264L82.7568 50.976L82.0848 51.36L82.3728 51.552L80.7408 51.744L80.6448 51.84L80.7408 52.8L79.9728 52.896C80.4208 52.96 80.6448 53.536 80.6448 54.624C80.6448 55.264 80.5488 55.936 80.3568 56.64C80.2288 57.28 80.1008 57.696 79.9728 57.888H80.5488V58.368L80.3568 58.272C80.3568 59.04 80.4528 59.808 80.6448 60.576C80.9008 61.28 81.0928 62.016 81.2208 62.784L81.0288 62.688C81.0288 62.944 81.1568 63.328 81.4128 63.84C81.6688 64.288 81.9248 64.576 82.1808 64.704L81.9888 65.568H82.0848L82.3728 65.184L83.3328 65.856V66.432C84.0368 66.432 84.7088 66.432 85.3488 66.432C86.0528 66.368 86.7248 66.272 87.3648 66.144L87.1728 65.472L88.1328 64.992L88.2288 65.568L88.5168 64.512H88.7088V65.088H88.8048V64.32H88.9008L88.9968 64.896L89.7648 64.128L89.4768 63.936L91.3008 61.824H91.6848L92.3568 60.576L92.7408 60.672L92.3568 60.384C92.4848 60.064 92.6768 59.776 92.9328 59.52C93.1888 59.2 93.4128 58.912 93.6048 58.656L93.8928 58.752L94.1808 57.888L94.4688 58.08C94.4688 57.76 94.5328 57.44 94.6608 57.12C94.8528 56.736 94.9808 56.416 95.0448 56.16L95.4288 56.256C95.4288 55.104 95.9728 54.208 97.0608 53.568L96.5808 53.184L97.0608 52.704L98.0208 52.512V54.048H97.6368L97.8288 54.624L97.2528 54.912L97.6368 55.296L97.3488 56.16H97.2528C96.9968 56.16 96.8688 56.256 96.8688 56.448C96.8688 56.64 96.8368 56.864 96.7728 57.12L96.3888 56.544V56.928C96.3888 57.376 96.2928 57.856 96.1008 58.368L95.2368 58.08C95.3648 58.208 95.4288 58.4 95.4288 58.656C95.4288 59.04 95.2688 59.392 94.9488 59.712L95.3328 60C95.1408 60.256 95.0448 60.32 95.0448 60.192C95.0448 60 95.0448 59.872 95.0448 59.808L94.8528 60L94.9488 60.48H94.4688L93.8928 61.056L94.2768 61.632L93.8928 61.536C93.7648 61.92 93.4128 62.56 92.8368 63.456C92.3248 64.352 91.8448 64.832 91.3968 64.896C91.3968 65.472 91.2368 65.984 90.9168 66.432C90.5968 66.816 90.1808 67.168 89.6688 67.488V66.72L88.9008 67.392C88.9008 67.648 88.9968 67.712 89.1888 67.584C89.3808 67.456 89.5088 67.296 89.5728 67.104L89.6688 67.776C89.2848 67.84 88.9648 68 88.7088 68.256C88.4528 68.512 88.1328 68.64 87.7488 68.64C87.5568 69.472 87.0128 69.984 86.1168 70.176C85.2848 70.368 84.5168 70.432 83.8128 70.368L83.7168 70.56L83.1407 70.656V70.368L82.4688 70.272ZM81.1248 48.48C81.1248 48.928 81.1568 49.216 81.2208 49.344L82.8528 48.96C82.8528 48.64 82.9168 48.416 83.0448 48.288C83.1728 48.288 83.2688 48.192 83.3328 48L83.8128 48.384C83.9408 47.872 84.1968 47.584 84.5807 47.52L84.2928 47.328C84.6128 47.072 84.9328 46.816 85.2528 46.56C85.6368 46.304 85.9568 46.048 86.2128 45.792L86.4048 45.888L86.5008 46.176C86.6288 46.048 86.6928 45.984 86.6928 45.984C86.7568 45.92 86.8208 45.856 86.8848 45.792C86.7568 45.536 86.6928 45.376 86.6928 45.312C87.0768 45.12 87.3328 44.8 87.4608 44.352L87.9408 44.448L87.7488 43.968C87.8768 43.968 88.0048 43.936 88.1328 43.872C88.2608 43.808 88.3568 43.744 88.4208 43.68L88.1328 43.488C88.3248 43.488 88.5168 43.392 88.7088 43.2C88.6448 43.072 88.6128 42.848 88.6128 42.528L88.7088 42.432C88.8368 42.432 88.9328 42.464 88.9968 42.528C89.1248 42.528 89.2528 42.528 89.3808 42.528C89.1248 42.272 88.9968 41.984 88.9968 41.664C89.3808 41.664 89.6048 41.632 89.6688 41.568C89.6048 41.12 89.5728 40.768 89.5728 40.512C89.6368 40.192 89.6688 39.808 89.6688 39.36C89.4128 39.232 89.2848 39.072 89.2848 38.88C89.2848 38.624 89.1888 38.4 88.9968 38.208L88.8048 38.4L88.3248 38.112L88.4208 37.728C88.1648 37.664 87.9088 37.568 87.6528 37.44C87.3968 37.248 87.1408 37.152 86.8848 37.152V36.768C86.5648 36.768 86.2768 36.704 86.0208 36.576C85.8288 36.448 85.6048 36.384 85.3488 36.384C85.3488 35.808 85.0608 35.584 84.4848 35.712C84.4848 36.032 84.3568 36.288 84.1008 36.48C83.9088 36.672 83.8448 37.024 83.9088 37.536C83.7808 37.536 83.6848 37.568 83.6208 37.632C83.5568 37.696 83.4608 37.76 83.3328 37.824C83.4608 38.016 83.4288 38.528 83.2368 39.36C83.0448 40.192 82.7888 41.024 82.4688 41.856C82.1488 42.624 81.8928 43.104 81.7008 43.296H82.1808C82.1168 43.872 81.9248 44.704 81.6048 45.792C81.2848 46.816 81.1248 47.712 81.1248 48.48ZM104.031 117.792C103.519 117.92 102.911 117.856 102.207 117.6C101.567 117.344 101.023 117.088 100.575 116.832L100.191 115.872L99.8073 116.064C99.1033 115.616 98.5273 115.008 98.0793 114.24C97.6953 113.472 97.2793 112.736 96.8313 112.032L97.2153 111.84C96.7673 111.584 96.3513 110.816 95.9673 109.536C95.6473 108.32 95.3913 107.008 95.1992 105.6C95.0073 104.256 94.8793 103.296 94.8153 102.72C94.8793 102.976 94.9753 102.88 95.1033 102.432C95.2313 102.048 95.0713 102.016 94.6233 102.336C94.5593 101.44 94.5273 100.48 94.5273 99.456C94.5273 98.496 94.4313 97.568 94.2393 96.672H94.4313C94.8793 96.672 95.1033 96.448 95.1033 96C95.1033 95.36 94.8153 95.136 94.2393 95.328C94.1753 95.008 94.1433 94.592 94.1433 94.08C94.1433 93.632 94.1433 93.152 94.1433 92.64C94.1433 91.616 94.2073 90.56 94.3353 89.472C94.4633 88.448 94.6873 87.712 95.0073 87.264C94.5593 87.072 94.3353 86.688 94.3353 86.112C94.3353 85.728 94.3993 85.312 94.5273 84.864C94.7193 84.48 94.8793 84.16 95.0073 83.904L94.6233 82.176L95.1992 81.408C95.0073 81.344 94.8153 81.312 94.6233 81.312C94.4313 81.312 94.2393 81.312 94.0473 81.312C93.8553 81.312 93.6633 81.312 93.4713 81.312C93.2793 81.312 93.0873 81.344 92.8953 81.408L91.3592 79.296H90.7832L90.2072 76.608L92.1273 74.112C92.1913 74.176 92.2873 74.208 92.4153 74.208C92.6073 74.272 92.6393 74.24 92.5113 74.112L92.1273 73.92H92.3193C92.7033 73.344 93.1513 72.832 93.6633 72.384C94.2393 72 94.8153 71.616 95.3913 71.232L95.7753 71.616L96.2553 70.848C96.3833 70.784 96.3833 70.752 96.2553 70.752C96.1273 70.752 96.0313 70.72 95.9673 70.656C96.2873 70.144 96.4473 69.536 96.4473 68.832C96.5113 68.128 96.5113 67.456 96.4473 66.816L96.8313 66.624C96.7033 66.432 96.7353 65.824 96.9273 64.8C97.1193 63.776 97.4073 62.624 97.7913 61.344C98.1753 60 98.5273 58.784 98.8473 57.696C99.2313 56.544 99.4873 55.808 99.6153 55.488L98.9433 55.296L99.1353 54.048L99.8073 53.856C99.8073 53.856 99.7113 53.856 99.5193 53.856C99.3913 53.792 99.3273 53.664 99.3273 53.472C99.8393 52.192 100.319 50.912 100.767 49.632C101.215 48.352 101.535 47.04 101.727 45.696L101.919 45.888C102.047 45.888 102.143 45.792 102.207 45.6C102.335 45.344 102.431 45.152 102.495 45.024L102.303 43.68L103.455 41.952C103.327 41.696 103.263 41.44 103.263 41.184C103.263 40.8 103.391 40.416 103.647 40.032L104.607 39.552C104.415 39.232 104.319 38.944 104.319 38.688C104.319 38.176 104.415 37.632 104.607 37.056C104.863 36.416 104.927 35.872 104.799 35.424C104.159 35.68 103.487 35.616 102.783 35.232C102.079 34.784 101.471 34.4 100.959 34.08C100.895 34.144 100.767 34.176 100.575 34.176C100.319 34.176 99.9993 34.016 99.6153 33.696C99.2313 33.376 98.9113 33.216 98.6553 33.216C98.3993 33.216 98.2393 33.44 98.1753 33.888L96.8313 33.696V33.312H96.1593V32.928L94.6233 33.312C94.6873 33.056 94.5593 32.864 94.2393 32.736C93.9193 32.608 93.7273 32.416 93.6633 32.16V32.064C93.6633 31.68 93.8873 31.488 94.3353 31.488C94.8473 31.488 95.1353 31.456 95.1992 31.392V30.816L97.0233 30.624V31.2L99.1353 31.584L99.3273 30.624L100.959 30.816L101.343 31.392L102.495 31.2L102.879 31.584H104.031L103.647 31.392C104.735 31.456 105.887 31.776 107.103 32.352C106.911 32.16 106.815 31.904 106.815 31.584C106.815 31.072 107.007 30.528 107.391 29.952C107.775 29.312 107.999 28.704 108.063 28.128C107.231 27.68 106.815 27.04 106.815 26.208C106.815 25.76 106.879 25.344 107.007 24.96C107.199 24.512 107.359 24.096 107.487 23.712H108.255L108.735 22.56L108.351 21.6C108.351 21.472 108.479 21.408 108.735 21.408C108.991 21.408 109.119 21.408 109.119 21.408L109.599 20.832C110.367 20.896 111.167 21.152 111.999 21.6C112.895 21.984 113.375 22.624 113.439 23.52H113.631C114.015 23.52 114.207 24 114.207 24.96C114.207 25.28 114.175 25.6 114.111 25.92C114.047 26.176 114.015 26.368 114.015 26.496H113.439C113.375 27.392 113.119 28.256 112.671 29.088C112.287 29.856 112.031 30.688 111.903 31.584L111.711 31.392C111.519 31.392 111.391 31.712 111.327 32.352C111.263 32.992 111.199 33.376 111.135 33.504C111.839 33.568 112.511 33.824 113.151 34.272C113.791 34.72 114.335 35.2 114.783 35.712C116.575 35.776 118.143 36.352 119.487 37.44C120.895 38.528 122.335 39.456 123.807 40.224L123.615 41.184H124.959L126.303 42.72L125.919 43.488C126.623 43.488 127.263 43.776 127.839 44.352C128.415 44.864 128.895 45.44 129.279 46.08C128.767 46.144 128.511 46.304 128.511 46.56C128.511 46.624 128.543 46.656 128.607 46.656C128.863 46.656 129.151 46.464 129.471 46.08L129.663 47.424C129.599 47.296 129.631 47.392 129.759 47.712C129.887 48.032 129.983 48.512 130.047 49.152H130.623L130.815 51.264H131.007C131.327 51.264 131.679 51.2 132.063 51.072C132.447 50.88 132.767 50.752 133.023 50.688V50.112L135.327 48.96C135.455 49.024 135.647 49.056 135.903 49.056C136.223 49.056 136.511 48.992 136.767 48.864C137.023 48.736 137.247 48.64 137.439 48.576C137.375 48.64 137.343 48.736 137.343 48.864C137.343 48.928 137.343 48.96 137.343 48.96C137.407 48.96 137.439 48.992 137.439 49.056C137.439 49.12 137.343 49.216 137.151 49.344C137.023 49.408 136.671 49.6 136.095 49.92V50.496L134.559 51.648H133.791L133.983 51.936C133.279 52.384 132.447 52.832 131.487 53.28C130.591 53.664 129.919 53.92 129.471 54.048V54.624H129.567C129.759 54.624 130.047 54.624 130.431 54.624C130.815 54.624 130.751 54.848 130.239 55.296L129.087 56.832L129.471 57.216C129.087 57.472 128.703 57.76 128.319 58.08C127.935 58.4 127.967 58.752 128.415 59.136L127.839 60.096L127.071 59.904C127.263 60.672 127.103 61.344 126.591 61.92C126.079 62.496 125.663 63.104 125.343 63.744C125.279 63.68 125.215 63.648 125.151 63.648C125.023 63.648 124.895 63.744 124.767 63.936C124.703 64.128 124.703 64.288 124.767 64.416L123.615 65.28V65.856L122.271 66.816V67.392L120.447 68.544L120.255 69.12L119.103 69.696L117.279 70.848V71.424C115.679 72.384 114.015 73.312 112.287 74.208C110.559 75.104 108.895 76.032 107.295 76.992L106.719 76.416L106.527 76.608L106.911 77.376C106.079 77.568 105.119 77.984 104.031 78.624C103.007 79.264 102.111 79.424 101.343 79.104L98.9433 81.408L99.1353 84.192C98.4313 84.192 98.0793 84.8 98.0793 86.016C98.0793 86.592 98.1113 87.2 98.1753 87.84C98.3033 88.48 98.3672 89.024 98.3672 89.472C98.4953 89.536 98.5593 89.472 98.5593 89.28C98.6233 89.088 98.6873 89.024 98.7513 89.088C98.8793 89.152 98.8793 89.312 98.7513 89.568C98.6873 89.824 98.5593 89.92 98.3672 89.856C98.4313 90.816 98.4633 91.776 98.4633 92.736C98.4633 93.696 98.4633 94.624 98.4633 95.52C98.4633 96.48 98.4313 97.44 98.3672 98.4C98.3672 99.36 98.3033 100.288 98.1753 101.184C98.3033 101.248 98.4313 101.216 98.5593 101.088C98.6873 101.024 98.7513 100.928 98.7513 100.8C98.8153 101.376 98.8793 101.952 98.9433 102.528C99.0073 103.104 99.0393 103.68 99.0393 104.256C99.0393 105.216 98.8793 106.016 98.5593 106.656H99.3273L99.8073 108L99.3273 108.192L99.1353 109.344C99.8393 109.6 100.351 110.112 100.671 110.88C101.055 111.648 101.439 112.384 101.823 113.088C102.207 113.792 102.751 114.208 103.455 114.336C103.967 114.848 104.703 115.104 105.663 115.104C106.303 115.104 106.911 115.008 107.487 114.816C108.127 114.624 108.671 114.4 109.119 114.144L109.791 114.528L109.599 115.68L107.295 116.448C107.807 116.704 107.743 116.928 107.103 117.12C106.527 117.312 105.983 117.44 105.471 117.504C105.343 117.632 105.215 117.696 105.087 117.696C104.959 117.696 104.863 117.664 104.799 117.6C104.799 117.6 104.831 117.6 104.895 117.6C104.959 117.6 105.151 117.568 105.471 117.504C105.535 117.376 105.567 117.216 105.567 117.024C105.631 116.832 105.567 116.768 105.375 116.832L103.455 117.216L104.031 117.792ZM102.303 65.088C102.303 65.344 102.271 65.632 102.207 65.952C102.143 66.208 102.111 66.432 102.111 66.624H102.303L104.415 65.28L104.607 65.856L104.799 65.088C104.927 65.344 104.991 65.472 104.991 65.472C104.991 65.408 105.119 65.408 105.375 65.472V65.088L104.991 64.704C105.823 64.512 106.495 64.128 107.007 63.552C107.583 62.912 108.287 62.656 109.119 62.784C109.567 62.464 109.983 62.176 110.367 61.92C110.751 61.6 111.135 61.312 111.519 61.056L111.903 61.44C112.415 60.992 112.895 60.64 113.343 60.384C113.791 60.064 114.335 59.84 114.975 59.712V59.328H115.935C115.935 59.008 115.871 58.816 115.743 58.752C116.895 58.496 117.919 58.08 118.815 57.504C119.775 56.928 120.703 56.352 121.599 55.776C122.559 55.2 123.615 54.88 124.767 54.816V54.048C125.087 53.6 125.311 53.152 125.439 52.704C125.567 52.192 125.631 51.68 125.631 51.168C125.631 50.144 125.471 49.088 125.151 48L125.343 47.424C125.215 46.912 124.991 46.528 124.671 46.272C124.415 45.952 124.319 45.472 124.383 44.832L123.231 44.64C123.103 43.744 122.783 43.296 122.271 43.296C121.823 43.296 121.439 43.04 121.119 42.528C120.991 42.208 120.991 42.048 121.119 42.048C121.311 41.984 121.247 41.888 120.927 41.76C120.927 42.144 120.895 42.304 120.831 42.24C120.767 42.176 120.735 42.016 120.735 41.76C120.223 41.568 119.679 41.312 119.103 40.992V39.84H118.815L118.623 40.608H118.239C117.983 40.288 117.503 39.904 116.799 39.456C116.159 38.944 115.679 38.656 115.359 38.592C115.423 38.848 115.455 38.976 115.455 38.976C115.519 38.912 115.423 38.976 115.167 39.168C114.719 38.592 113.983 38.24 112.959 38.112C111.999 37.984 111.263 37.504 110.751 36.672C109.855 36.992 109.311 37.536 109.119 38.304C108.927 39.072 108.799 39.872 108.735 40.704C108.671 41.536 108.383 42.272 107.871 42.912L107.679 42.336C107.615 43.232 107.487 44.032 107.295 44.736C107.103 45.44 106.911 46.272 106.719 47.232C106.463 47.296 106.303 47.392 106.239 47.52C106.239 47.584 106.143 47.68 105.951 47.808C106.271 47.936 106.399 48.096 106.335 48.288C106.335 48.416 106.335 48.64 106.335 48.96L105.567 49.152C105.823 49.216 105.951 49.248 105.951 49.248C105.951 49.184 106.015 49.28 106.143 49.536C105.887 49.92 105.631 50.56 105.375 51.456C105.119 52.288 104.895 53.184 104.703 54.144C104.575 55.04 104.479 55.744 104.415 56.256L103.839 56.64V58.752C103.391 59.136 103.071 59.52 102.879 59.904C103.135 59.968 103.263 60 103.263 60C103.263 59.936 103.327 60.032 103.455 60.288C103.007 60.928 102.815 61.664 102.879 62.496C103.007 63.264 102.687 63.84 101.919 64.224C102.175 64.416 102.303 64.704 102.303 65.088ZM100.575 74.784C100.895 74.784 101.215 74.848 101.535 74.976L101.727 74.592C101.535 74.528 101.439 74.528 101.439 74.592C101.503 74.656 101.471 74.592 101.343 74.4H101.919C102.047 74.656 102.111 74.752 102.111 74.688C102.175 74.624 102.303 74.656 102.495 74.784C102.495 74.656 102.495 74.528 102.495 74.4C102.495 74.336 102.559 74.24 102.687 74.112L103.839 73.92C103.775 73.664 103.775 73.408 103.839 73.152C104.735 73.088 105.247 73.024 105.375 72.96C105.503 72.896 105.567 72.8 105.567 72.672C105.567 72.544 105.759 72.384 106.143 72.192L106.335 72.384C106.847 71.936 107.167 71.648 107.295 71.52C107.423 71.392 107.839 71.36 108.543 71.424V71.232C108.543 70.784 108.703 70.496 109.023 70.368C109.407 70.176 109.727 69.952 109.983 69.696L110.367 70.08C110.559 69.504 111.007 68.96 111.711 68.448C112.479 67.936 113.279 67.424 114.111 66.912C114.943 66.4 115.487 65.856 115.743 65.28H115.935C115.935 65.536 115.999 65.728 116.127 65.856L116.511 65.664C116.511 65.536 116.479 65.408 116.415 65.28C116.415 65.088 116.447 64.896 116.511 64.704L116.895 65.472H117.087V64.704C116.831 64.704 116.671 64.672 116.607 64.608C116.543 64.48 116.639 64.416 116.895 64.416C117.087 64.16 117.407 63.776 117.855 63.264C118.367 62.752 118.783 62.464 119.103 62.4C119.423 62.272 119.583 62.304 119.583 62.496C119.647 62.688 119.807 62.592 120.063 62.208L119.679 61.824C119.999 61.632 120.223 61.44 120.351 61.248C120.479 61.056 120.735 60.928 121.119 60.864L121.311 59.904C121.823 59.712 122.207 59.424 122.463 59.04C122.783 58.656 123.167 58.368 123.615 58.176V57.984L121.887 57.792V58.368C121.503 58.368 121.151 58.4 120.831 58.464C120.511 58.528 120.191 58.624 119.871 58.752V59.52C119.359 59.584 118.911 59.744 118.527 60C118.143 60.256 117.727 60.288 117.279 60.096V60.288L117.663 60.672C117.407 60.736 116.991 60.896 116.415 61.152C115.839 61.344 115.487 61.376 115.359 61.248C115.039 61.696 114.591 62.144 114.015 62.592C113.503 62.976 112.927 63.168 112.287 63.168C112.159 63.168 112.031 63.168 111.903 63.168C111.775 63.104 111.647 63.04 111.519 62.976V63.552L111.903 63.744C111.455 63.744 111.007 63.872 110.559 64.128C110.111 64.384 109.631 64.576 109.119 64.704V65.28C108.607 65.472 108.127 65.792 107.679 66.24C107.295 66.624 106.847 66.88 106.335 67.008C105.119 67.456 103.903 68.128 102.687 69.024C101.535 69.856 100.703 70.912 100.191 72.192C100.447 72.128 100.703 72.128 100.959 72.192C100.703 72.512 100.575 72.896 100.575 73.344C100.639 73.792 100.639 74.272 100.575 74.784ZM141.719 70.272L141.527 70.656L141.239 70.368C140.023 70.368 138.999 69.952 138.167 69.12L137.975 69.408C137.271 68.768 136.599 67.936 135.959 66.912L136.343 66.624L136.151 66.144L135.863 66.24L135.095 64.896L135.287 64.32C134.839 63.68 134.583 63.04 134.519 62.4H134.615L134.903 62.784L135.095 62.208L134.711 61.728C134.647 61.408 134.519 60.736 134.327 59.712C134.135 58.624 134.039 57.728 134.039 57.024C134.039 56.448 134.103 56.096 134.231 55.968L133.943 55.008H134.615C134.615 54.944 134.583 54.624 134.519 54.048C134.455 53.472 134.391 52.896 134.327 52.32C134.327 51.68 134.327 51.232 134.327 50.976L134.903 51.168V50.88L134.423 50.304L134.615 49.344L134.903 49.44V48.96L134.615 48.384H135.095C135.031 48.064 134.967 47.744 134.903 47.424C134.903 47.104 134.903 46.816 134.903 46.56L135.287 46.272L134.903 45.984L135.383 43.68L135.191 43.584C135.447 43.264 135.575 42.944 135.575 42.624C135.639 42.24 135.703 41.888 135.767 41.568L136.151 41.472L136.055 40.512H136.343L136.631 39.648C136.439 39.776 136.343 39.712 136.343 39.456C136.343 39.136 136.279 39.008 136.151 39.072C136.407 38.624 136.567 38.144 136.631 37.632C136.759 37.12 136.983 36.64 137.303 36.192L137.015 35.616L137.399 34.464L137.879 34.56L138.167 34.272H137.399L137.495 33.888L138.455 33.696V33.216L137.687 33.12C137.751 32.992 137.815 32.864 137.879 32.736C137.943 32.544 137.943 32.416 137.879 32.352L138.263 31.872L138.167 31.488L138.839 30.432L140.279 30.816L140.087 30.144H140.183C140.759 30.592 141.335 30.944 141.911 31.2C142.487 31.456 142.807 32 142.871 32.832H143.543C143.671 33.536 144.087 33.952 144.791 34.08C145.495 34.144 146.039 34.432 146.423 34.944L146.903 34.56L147.959 35.232L147.767 35.712C148.599 35.648 149.399 35.744 150.167 36C150.999 36.256 151.447 36.928 151.511 38.016L152.087 37.536C152.791 38.048 153.143 38.816 153.143 39.84L152.759 39.936L152.951 40.992C152.375 41.248 152.119 41.696 152.183 42.336C152.311 42.976 152.183 43.456 151.799 43.776H151.511C151.319 44.608 150.807 45.248 149.975 45.696C149.207 46.08 148.567 46.624 148.055 47.328L147.863 46.848H147.767L147.671 47.616L146.711 48.288V48.576L146.039 48.864L146.135 48.96H145.559C145.303 49.216 144.983 49.472 144.599 49.728C144.215 49.92 143.863 50.08 143.543 50.208L143.639 49.92C143.383 50.112 143.127 50.368 142.871 50.688C142.679 50.944 142.423 51.136 142.103 51.264L142.007 50.976L141.335 51.36L141.623 51.552L139.991 51.744L139.895 51.84L139.991 52.8L139.223 52.896C139.671 52.96 139.895 53.536 139.895 54.624C139.895 55.264 139.799 55.936 139.607 56.64C139.479 57.28 139.351 57.696 139.223 57.888H139.799V58.368L139.607 58.272C139.607 59.04 139.703 59.808 139.895 60.576C140.151 61.28 140.343 62.016 140.471 62.784L140.279 62.688C140.279 62.944 140.407 63.328 140.663 63.84C140.919 64.288 141.175 64.576 141.431 64.704L141.239 65.568H141.335L141.623 65.184L142.583 65.856V66.432C143.287 66.432 143.959 66.432 144.599 66.432C145.303 66.368 145.975 66.272 146.615 66.144L146.423 65.472L147.383 64.992L147.479 65.568L147.767 64.512H147.959V65.088H148.055V64.32H148.151L148.247 64.896L149.015 64.128L148.727 63.936L150.551 61.824H150.935L151.607 60.576L151.991 60.672L151.607 60.384C151.735 60.064 151.927 59.776 152.183 59.52C152.439 59.2 152.663 58.912 152.855 58.656L153.143 58.752L153.431 57.888L153.719 58.08C153.719 57.76 153.783 57.44 153.911 57.12C154.103 56.736 154.231 56.416 154.295 56.16L154.679 56.256C154.679 55.104 155.223 54.208 156.311 53.568L155.831 53.184L156.311 52.704L157.271 52.512V54.048H156.887L157.079 54.624L156.503 54.912L156.887 55.296L156.599 56.16H156.503C156.247 56.16 156.119 56.256 156.119 56.448C156.119 56.64 156.087 56.864 156.023 57.12L155.639 56.544V56.928C155.639 57.376 155.543 57.856 155.351 58.368L154.487 58.08C154.615 58.208 154.679 58.4 154.679 58.656C154.679 59.04 154.519 59.392 154.199 59.712L154.583 60C154.391 60.256 154.295 60.32 154.295 60.192C154.295 60 154.295 59.872 154.295 59.808L154.103 60L154.199 60.48H153.719L153.143 61.056L153.527 61.632L153.143 61.536C153.015 61.92 152.663 62.56 152.087 63.456C151.575 64.352 151.095 64.832 150.647 64.896C150.647 65.472 150.487 65.984 150.167 66.432C149.847 66.816 149.431 67.168 148.919 67.488V66.72L148.151 67.392C148.151 67.648 148.247 67.712 148.439 67.584C148.631 67.456 148.759 67.296 148.823 67.104L148.919 67.776C148.535 67.84 148.215 68 147.959 68.256C147.703 68.512 147.383 68.64 146.999 68.64C146.807 69.472 146.263 69.984 145.367 70.176C144.535 70.368 143.767 70.432 143.063 70.368L142.967 70.56L142.391 70.656V70.368L141.719 70.272ZM140.375 48.48C140.375 48.928 140.407 49.216 140.471 49.344L142.103 48.96C142.103 48.64 142.167 48.416 142.295 48.288C142.423 48.288 142.519 48.192 142.583 48L143.063 48.384C143.191 47.872 143.447 47.584 143.831 47.52L143.543 47.328C143.863 47.072 144.183 46.816 144.503 46.56C144.887 46.304 145.207 46.048 145.463 45.792L145.655 45.888L145.751 46.176C145.879 46.048 145.943 45.984 145.943 45.984C146.007 45.92 146.071 45.856 146.135 45.792C146.007 45.536 145.943 45.376 145.943 45.312C146.327 45.12 146.583 44.8 146.711 44.352L147.191 44.448L146.999 43.968C147.127 43.968 147.255 43.936 147.383 43.872C147.511 43.808 147.607 43.744 147.671 43.68L147.383 43.488C147.575 43.488 147.767 43.392 147.959 43.2C147.895 43.072 147.863 42.848 147.863 42.528L147.959 42.432C148.087 42.432 148.183 42.464 148.247 42.528C148.375 42.528 148.503 42.528 148.631 42.528C148.375 42.272 148.247 41.984 148.247 41.664C148.631 41.664 148.855 41.632 148.919 41.568C148.855 41.12 148.823 40.768 148.823 40.512C148.887 40.192 148.919 39.808 148.919 39.36C148.663 39.232 148.535 39.072 148.535 38.88C148.535 38.624 148.439 38.4 148.247 38.208L148.055 38.4L147.575 38.112L147.671 37.728C147.415 37.664 147.159 37.568 146.903 37.44C146.647 37.248 146.391 37.152 146.135 37.152V36.768C145.815 36.768 145.527 36.704 145.271 36.576C145.079 36.448 144.855 36.384 144.599 36.384C144.599 35.808 144.311 35.584 143.735 35.712C143.735 36.032 143.607 36.288 143.351 36.48C143.159 36.672 143.095 37.024 143.159 37.536C143.031 37.536 142.935 37.568 142.871 37.632C142.807 37.696 142.711 37.76 142.583 37.824C142.711 38.016 142.679 38.528 142.487 39.36C142.295 40.192 142.039 41.024 141.719 41.856C141.399 42.624 141.143 43.104 140.951 43.296H141.431C141.367 43.872 141.175 44.704 140.855 45.792C140.535 46.816 140.375 47.712 140.375 48.48ZM147.153 78.912C146.705 79.168 146.225 79.456 145.713 79.776C145.137 80.096 144.561 80.32 143.985 80.448V79.68C143.921 79.616 143.857 79.616 143.793 79.68C143.729 79.808 143.697 79.872 143.697 79.872L143.409 79.488C143.985 79.168 144.369 78.784 144.561 78.336L145.521 78.144L145.713 77.568L145.521 76.8C146.225 76.672 146.673 76.288 146.865 75.648H147.825V75.456L147.249 74.88C147.569 74.56 147.921 74.272 148.305 74.016C148.689 73.76 149.041 73.472 149.361 73.152L148.977 72.768C149.681 72.32 150.289 71.648 150.801 70.752C151.249 69.792 151.921 69.248 152.817 69.12L153.009 69.408C153.137 68.512 153.425 67.872 153.873 67.488C154.321 67.04 154.673 66.432 154.929 65.664C154.929 65.728 154.993 65.76 155.121 65.76C155.249 65.76 155.313 65.728 155.313 65.664C155.313 64.96 155.569 64.576 156.081 64.512C156.657 64.448 157.105 64.192 157.425 63.744L157.233 62.88C158.065 62.432 158.481 61.984 158.481 61.536C158.481 61.088 158.833 60.832 159.537 60.768V60L160.881 59.424C161.009 59.168 161.073 58.848 161.073 58.464C161.073 58.016 161.265 57.856 161.649 57.984L161.457 57.408H162.417C162.417 57.28 162.321 57.216 162.129 57.216C161.937 57.216 161.777 57.184 161.649 57.12C162.097 56.736 162.545 56.288 162.993 55.776C163.441 55.264 163.505 54.688 163.185 54.048H162.801L162.609 53.088L163.185 52.704C163.057 52.64 162.929 52.64 162.801 52.704C162.673 52.768 162.545 52.832 162.417 52.896C162.353 52.384 162.257 51.968 162.129 51.648C162.065 51.264 161.969 50.848 161.841 50.4L162.417 50.016L161.649 49.632L162.033 49.44H161.841C161.777 49.12 161.617 48.832 161.361 48.576C161.169 48.256 161.009 47.968 160.881 47.712H160.689L159.729 49.44L159.537 48.864C159.473 49.312 159.345 49.728 159.153 50.112C159.025 50.432 158.897 50.784 158.769 51.168L158.193 51.552C158.321 51.936 158.193 52.576 157.809 53.472C157.425 54.304 156.977 55.104 156.465 55.872C155.953 56.64 155.505 57.12 155.121 57.312L154.737 56.928C154.929 56.416 154.993 55.872 154.929 55.296C154.929 54.656 155.121 54.112 155.505 53.664L155.889 54.048V52.512L156.657 52.704C156.529 51.616 156.689 50.56 157.137 49.536C157.649 48.448 158.129 47.392 158.577 46.368C158.577 46.432 158.577 46.464 158.577 46.464C158.641 46.464 158.673 46.464 158.673 46.464C158.865 46.464 159.025 46.176 159.153 45.6C159.345 44.96 159.601 44.512 159.921 44.256L159.729 43.488L160.689 42.72C160.625 41.824 160.913 41.088 161.553 40.512C162.193 39.936 162.865 39.392 163.569 38.88H164.337C165.169 39.456 165.649 40.256 165.777 41.28C165.969 42.24 166.001 43.168 165.873 44.064C166.001 44.064 166.097 44.224 166.161 44.544C166.225 44.8 166.257 44.96 166.257 45.024C166.577 45.472 166.705 46.048 166.641 46.752C166.641 47.392 166.769 47.968 167.025 48.48C166.641 48.672 166.385 48.608 166.257 48.288C166.193 47.904 166.193 47.968 166.257 48.48L166.449 49.632L167.409 50.016L168.273 49.248L168.081 48.672C168.337 48.544 168.561 48.384 168.753 48.192C168.945 47.936 169.105 47.712 169.233 47.52L169.425 47.712L169.809 47.136L169.425 46.56C170.577 45.6 171.409 44.416 171.921 43.008C172.497 41.536 173.265 40.256 174.225 39.168V38.304H174.801L174.609 37.44C174.929 36.864 175.217 36.416 175.473 36.096C175.793 35.776 175.953 35.36 175.953 34.848C176.337 34.528 176.593 33.984 176.721 33.216C176.913 32.384 177.105 31.584 177.297 30.816C177.553 30.048 177.937 29.632 178.449 29.568V29.376L177.873 28.416L178.257 28.224C179.473 28.608 179.921 29.376 179.601 30.528L180.177 30.72V32.64L179.601 33.216C179.857 33.856 179.665 34.944 179.025 36.48C178.385 37.952 177.521 39.52 176.433 41.184C175.409 42.848 174.353 44.288 173.265 45.504C172.241 46.72 171.473 47.392 170.961 47.52V48.288C170.513 48.544 170.289 48.768 170.289 48.96C170.289 49.088 170.193 49.12 170.001 49.056L168.849 50.976H168.081V51.936H167.409C167.281 52 167.281 52.096 167.409 52.224C167.601 52.352 167.793 52.384 167.985 52.32L168.273 53.664L167.985 54.816L168.849 55.584L168.273 55.776L172.305 63.072L173.073 63.456L173.265 64.224H174.225L174.801 64.8C175.249 64.288 175.697 63.936 176.145 63.744C176.657 63.552 177.041 63.168 177.297 62.592H177.489L178.257 63.648L178.449 63.456L177.489 62.592L178.065 61.92C178.065 62.112 178.161 62.208 178.353 62.208C178.673 62.208 178.641 61.952 178.257 61.44C178.833 60.992 179.249 60.384 179.505 59.616C179.825 58.784 180.369 58.24 181.137 57.984C180.881 57.792 180.881 57.664 181.137 57.6C181.457 57.472 181.585 57.408 181.521 57.408C181.841 56.896 182.065 56.288 182.193 55.584C182.385 54.88 182.641 54.24 182.961 53.664C183.345 53.024 183.953 52.704 184.785 52.704C184.849 52.768 184.785 52.992 184.593 53.376C184.401 53.696 184.273 53.92 184.209 54.048L184.785 54.24L183.441 55.968L183.633 56.544C183.441 57.184 183.121 57.856 182.673 58.56H182.097C181.969 59.008 181.777 59.456 181.521 59.904C181.265 60.288 181.009 60.704 180.753 61.152L181.137 61.344L180.177 61.728C180.049 62.752 179.441 63.84 178.353 64.992C177.329 66.144 176.113 67.104 174.705 67.872C173.361 68.576 172.113 68.928 170.961 68.928V68.832L171.537 68.256C171.089 68.256 170.673 68.352 170.289 68.544L169.425 67.68L169.809 67.392C168.785 66.944 168.113 66.496 167.793 66.048C167.473 65.536 167.281 65.056 167.217 64.608C167.153 64.16 167.025 63.872 166.833 63.744L166.545 63.648L166.449 62.016L165.681 61.728L165.393 60.864L165.297 61.344L164.145 57.888C163.889 58.144 163.601 58.4 163.281 58.656C163.025 58.848 162.737 59.008 162.417 59.136V60.288L160.689 62.88L160.305 62.592C160.113 62.848 159.857 63.104 159.537 63.36C159.281 63.616 159.345 63.808 159.729 63.936C159.025 64 158.545 64.384 158.289 65.088C158.033 65.792 157.745 66.496 157.425 67.2C157.169 67.84 156.593 68.224 155.697 68.352C155.633 69.248 155.377 69.888 154.929 70.272C154.545 70.656 154.033 71.104 153.393 71.616L153.585 72.192L152.433 72.384V73.344L151.473 74.688H150.897L150.321 75.648L149.361 76.032L149.745 76.224L149.361 76.8L148.017 77.376L147.441 78.528C147.441 78.656 147.377 78.72 147.249 78.72C147.185 78.656 147.185 78.56 147.249 78.432C147.249 78.304 147.217 78.208 147.153 78.144C147.089 78.08 146.993 78.08 146.865 78.144C146.673 78.272 146.609 78.4 146.673 78.528L147.153 78.912ZM187.67 69.12H186.71L186.326 68.352L185.366 68.736L184.214 67.968L184.022 66.816C183.382 66.88 182.87 66.592 182.486 65.952C182.166 65.312 182.006 64.608 182.006 63.84C182.006 63.328 182.134 62.816 182.39 62.304L181.622 62.112C181.686 61.792 181.686 61.504 181.622 61.248C181.622 60.928 181.622 60.64 181.622 60.384L182.39 59.808H181.814V59.712L182.006 59.616V59.232C182.006 58.848 182.07 58.496 182.198 58.176C182.326 57.792 182.454 57.44 182.582 57.12L182.198 56.544C182.518 56.032 182.678 55.488 182.678 54.912C182.742 54.272 182.966 53.728 183.35 53.28L183.638 53.472L183.83 52.704L183.35 52.32C183.798 51.744 184.15 50.944 184.406 49.92C184.726 48.896 185.014 47.872 185.27 46.848C185.59 45.824 185.942 45.056 186.326 44.544L186.518 44.928V43.968H186.326C186.006 44.224 185.622 44.48 185.174 44.736C184.726 44.992 184.278 45.248 183.83 45.504C183.766 45.376 183.798 45.248 183.926 45.12C184.054 44.992 184.15 44.928 184.214 44.928H183.35C182.838 45.824 182.198 46.272 181.43 46.272C181.11 46.272 180.726 46.24 180.278 46.176C179.894 46.048 179.446 45.952 178.934 45.888C178.678 45.44 178.55 44.928 178.55 44.352L179.126 43.776C178.87 43.456 178.806 43.072 178.934 42.624H179.51V41.664L180.086 41.28L180.278 41.856L181.046 41.664V41.472C181.046 40.96 181.366 40.704 182.006 40.704L181.622 41.664L181.814 42.048L184.598 41.472C184.534 41.216 184.854 40.896 185.558 40.512C186.326 40.128 186.774 39.872 186.902 39.744L188.054 40.128C188.118 39.744 188.31 39.392 188.63 39.072C189.014 38.688 189.334 38.4 189.59 38.208C189.718 37.76 189.846 37.312 189.974 36.864C190.166 36.416 190.294 35.968 190.358 35.52L191.51 35.328L191.894 34.368C192.342 34.048 192.822 33.952 193.334 34.08C193.846 34.208 194.326 34.24 194.774 34.176L195.158 35.136C195.35 35.008 195.638 34.944 196.022 34.944C196.342 34.944 196.758 35.008 197.27 35.136C197.59 34.944 197.782 34.816 197.846 34.752C197.91 34.624 197.974 34.56 198.038 34.56C198.166 34.56 198.262 34.592 198.326 34.656C198.454 34.656 198.614 34.688 198.806 34.752L198.614 34.176L200.726 33.792L200.918 34.368L201.302 33.6H203.414L203.03 33.024L203.222 32.832C203.606 32.768 203.99 32.736 204.374 32.736C204.822 32.672 205.27 32.64 205.718 32.64V32.064L206.774 32.256L206.39 31.872L206.966 32.256C207.286 32.32 207.894 32.256 208.79 32.064C209.75 31.808 210.23 31.488 210.23 31.104C210.486 31.168 210.742 31.2 210.998 31.2C211.318 31.2 211.638 31.2 211.958 31.2C213.046 31.2 214.134 31.136 215.222 31.008C216.374 30.88 217.462 30.784 218.486 30.72L218.87 31.488V31.104L219.638 31.68C219.702 31.488 219.83 31.36 220.022 31.296C220.214 31.232 220.406 31.168 220.598 31.104C220.918 31.552 221.206 31.84 221.462 31.968C221.782 32.032 222.166 32.128 222.614 32.256C222.678 32.384 222.71 32.576 222.71 32.832C222.71 33.408 222.326 33.696 221.558 33.696C220.726 33.696 219.798 33.536 218.774 33.216C217.75 32.896 217.078 32.704 216.758 32.64V32.832L217.334 33.024C216.758 33.024 216.31 32.832 215.99 32.448H215.798C215.286 32.448 214.838 32.576 214.454 32.832L213.302 32.448C213.046 32.832 212.598 33.024 211.958 33.024V32.928C211.958 32.736 211.83 32.608 211.574 32.544C211.382 32.416 211.19 32.32 210.998 32.256L210.614 33.024L206.966 33.6C206.966 33.536 206.87 33.44 206.678 33.312C206.486 33.184 206.39 33.216 206.39 33.408L207.35 35.136H207.926C208.566 35.584 208.982 36.128 209.174 36.768C209.43 37.408 209.558 38.08 209.558 38.784C209.558 39.36 209.462 39.968 209.27 40.608C209.142 41.184 208.95 41.728 208.694 42.24C208.822 42.112 208.95 42.112 209.078 42.24C209.27 42.368 209.398 42.496 209.462 42.624C209.078 42.944 208.918 43.296 208.982 43.68C209.11 44 208.886 44.416 208.31 44.928C208.502 45.12 208.598 45.344 208.598 45.6C208.598 45.856 208.566 46.112 208.502 46.368C208.438 46.56 208.374 46.784 208.31 47.04H207.542V48C207.542 48.192 207.542 48.416 207.542 48.672C207.542 48.864 207.478 49.088 207.35 49.344L206.582 49.536L206.966 50.304L205.142 54.048L204.182 54.24V55.776C203.926 56.096 203.702 56.416 203.51 56.736C203.318 56.992 203.158 57.312 203.03 57.696C202.646 57.76 202.326 57.888 202.07 58.08C201.878 58.272 201.622 58.4 201.302 58.464V59.04L201.878 59.232C201.43 59.68 201.046 60.128 200.726 60.576C200.406 60.96 199.894 61.28 199.19 61.536V61.728H199.574C199.19 62.304 198.934 62.656 198.806 62.784C198.678 62.912 198.358 63.2 197.846 63.648C198.038 63.712 198.07 63.808 197.942 63.936C197.878 64.064 197.782 64.032 197.654 63.84C197.59 64.416 197.366 64.704 196.982 64.704C196.598 64.704 196.31 64.928 196.118 65.376H196.31L196.118 65.664C195.67 65.984 195.222 66.304 194.774 66.624C194.39 66.944 193.878 67.072 193.238 67.008V67.776H193.142C192.822 67.776 192.534 67.936 192.278 68.256C192.022 68.512 191.702 68.672 191.318 68.736C190.742 68.864 190.166 68.96 189.59 69.024C189.014 69.088 188.438 69.12 187.862 69.12L187.67 68.544V69.12ZM189.398 67.104C189.846 67.104 190.486 66.88 191.318 66.432L191.51 67.008L192.086 66.816C192.278 65.856 192.726 65.6 193.43 66.048C193.43 65.6 193.622 65.184 194.006 64.8L194.198 65.376C194.326 64.608 194.646 64.032 195.158 63.648C195.67 63.264 196.182 62.944 196.694 62.688C197.206 62.432 197.526 62.112 197.654 61.728C197.398 61.28 197.59 60.672 198.23 59.904C198.87 59.072 199.318 58.528 199.574 58.272C199.83 58.528 200.086 58.656 200.342 58.656L200.534 58.464C200.278 58.272 200.086 57.888 199.958 57.312C200.47 56.928 200.854 56.48 201.11 55.968C201.366 55.392 201.622 54.816 201.878 54.24L202.454 54.624C202.454 54.304 202.582 54.048 202.838 53.856C202.646 53.6 202.518 53.472 202.454 53.472C202.454 53.408 202.454 53.216 202.454 52.896C202.774 52.64 203.126 52.064 203.51 51.168C203.894 50.272 204.214 49.344 204.47 48.384C204.79 47.36 204.95 46.656 204.95 46.272L205.526 46.08C205.27 45.952 205.142 45.888 205.142 45.888C205.206 45.888 205.206 45.76 205.142 45.504H205.718L205.91 45.312C205.782 45.184 205.718 44.384 205.718 42.912C205.718 42.208 205.718 41.504 205.718 40.8C205.782 40.032 205.846 39.552 205.91 39.36H205.334C205.078 38.464 204.726 37.888 204.278 37.632C203.83 37.312 203.286 37.152 202.646 37.152C201.878 37.152 201.014 37.312 200.054 37.632C199.158 37.952 198.294 38.112 197.462 38.112C197.142 38.112 196.886 38.08 196.694 38.016V38.4C196.822 38.464 196.918 38.528 196.982 38.592C197.11 38.592 197.206 38.656 197.27 38.784C196.694 38.848 196.15 39.008 195.638 39.264C195.19 39.456 194.71 39.68 194.198 39.936V40.128C194.454 40.192 194.646 40.32 194.774 40.512C194.326 41.344 193.846 42.24 193.334 43.2C192.886 44.16 192.534 45.12 192.278 46.08C192.086 46.08 191.958 46.048 191.894 45.984C191.83 45.92 191.766 45.888 191.702 45.888C191.638 45.888 191.51 46.208 191.318 46.848H191.51L191.894 46.464V46.848L191.51 47.424L191.126 47.232V48.576L190.55 48.768C190.806 48.896 190.806 49.312 190.55 50.016C190.294 50.656 189.974 51.328 189.59 52.032C189.206 52.672 188.95 53.088 188.822 53.28C188.886 53.728 188.758 54.528 188.438 55.68C188.182 56.832 187.862 57.952 187.478 59.04C187.094 60.064 186.71 60.768 186.326 61.152C186.518 61.408 186.678 61.728 186.806 62.112C186.998 62.432 187.094 62.752 187.094 63.072C187.094 63.2 187.062 63.328 186.998 63.456C186.998 63.584 186.966 63.712 186.902 63.84C186.646 63.712 186.518 63.84 186.518 64.224C186.71 64.288 186.87 64.416 186.998 64.608C187.126 64.8 187.094 64.992 186.902 65.184C187.478 65.696 187.926 66.144 188.246 66.528C188.566 66.912 188.95 67.104 189.398 67.104ZM221.428 111.84C220.98 111.84 220.564 111.712 220.18 111.456C219.796 111.2 219.444 110.912 219.124 110.592C219.252 110.528 219.252 110.432 219.124 110.304C218.996 110.176 218.868 110.176 218.74 110.304L218.548 109.44L217.972 109.248C217.844 108.928 217.748 108.8 217.684 108.864C217.428 107.968 217.076 107.136 216.628 106.368C216.18 105.664 215.924 104.864 215.86 103.968C215.86 103.904 215.86 103.744 215.86 103.488C215.924 103.296 215.924 103.008 215.86 102.624C215.86 102.496 215.796 102.368 215.668 102.24C215.604 102.112 215.572 102.016 215.572 101.952L215.86 101.76C215.796 101.44 215.732 101.088 215.668 100.704C215.604 100.32 215.572 99.936 215.572 99.552C215.572 99.296 215.572 99.072 215.572 98.88C215.636 98.688 215.7 98.496 215.764 98.304H216.052C215.796 97.984 215.668 97.536 215.668 96.96C215.668 96 215.924 95.328 216.436 94.944L216.244 94.56L216.436 93.216C216.564 93.28 216.692 93.248 216.82 93.12C216.948 92.992 217.012 92.896 217.012 92.832L216.82 92.736L217.492 91.2L217.204 91.008C218.036 89.984 218.676 88.928 219.124 87.84L219.412 87.648L219.22 87.552L219.796 86.592L220.18 86.688C220.308 86.176 220.564 85.696 220.948 85.248C221.332 84.8 221.716 84.416 222.1 84.096L221.812 83.904L222.772 83.232V82.848L224.596 80.928V81.504H224.884C225.012 81.056 225.204 80.736 225.46 80.544C225.78 80.416 225.748 80.256 225.364 80.064L226.612 79.008L226.804 79.104L226.708 79.008L227.86 77.856V77.952C227.86 78.016 227.892 78.048 227.956 78.048C228.084 78.048 228.34 77.888 228.724 77.568C229.172 77.248 229.652 76.928 230.164 76.608H230.548L230.356 76.32H230.74C230.868 76.192 230.836 76.096 230.644 76.032C230.452 75.968 230.324 75.904 230.26 75.84H230.356L234.196 72.48L234.868 72.864C234.932 72.864 234.964 72.736 234.964 72.48C234.964 72.288 234.868 72.224 234.676 72.288L235.732 71.616C235.668 71.68 235.732 71.648 235.924 71.52C236.116 71.328 236.148 71.2 236.02 71.136C236.276 70.88 236.532 70.528 236.788 70.08C237.044 69.568 237.076 69.28 236.884 69.216L237.652 66.144L238.228 65.952C238.164 64.992 238.228 64.224 238.42 63.648C238.612 63.008 238.74 62.368 238.804 61.728L238.516 61.056L239.092 59.616H239.284L239.38 59.52H238.9L239.092 53.76C239.22 53.888 239.348 53.92 239.476 53.856C239.604 53.728 239.732 53.632 239.86 53.568C239.988 53.504 240.052 53.44 240.052 53.376C240.052 53.312 239.924 53.28 239.668 53.28C239.476 53.28 239.348 53.248 239.284 53.184V52.32H239.476L239.38 52.608L239.572 52.512C239.636 52.384 239.636 52.288 239.572 52.224C239.508 52.096 239.412 52.064 239.284 52.128V50.976C239.54 51.104 239.732 51.072 239.86 50.88L239.668 47.808V47.904C239.604 47.904 239.54 47.744 239.476 47.424C239.476 47.04 239.476 46.784 239.476 46.656C239.412 46.336 239.604 46.08 240.052 45.888C240.5 45.632 240.34 45.536 239.572 45.6L239.284 44.256H239.572V42.912C239.572 42.272 239.38 41.952 238.996 41.952C238.74 41.952 238.388 42.08 237.94 42.336C237.3 43.36 236.66 44.352 236.02 45.312C235.38 46.272 234.804 47.296 234.292 48.384H233.908L233.62 49.344C233.556 49.28 233.46 49.248 233.332 49.248C233.204 49.248 233.108 49.344 233.044 49.536C232.98 49.728 233.076 49.888 233.332 50.016L232.276 51.264L231.316 51.552L231.508 52.32L230.644 53.184L230.932 53.376L228.916 55.392L228.724 55.68L228.628 55.776C228.692 55.776 228.724 55.776 228.724 55.776V55.68L228.916 55.584C228.916 55.84 228.756 55.968 228.436 55.968L228.628 55.776C228.436 55.712 228.34 55.648 228.34 55.584L228.244 55.968C228.308 55.968 228.372 55.968 228.436 55.968L227.188 56.928L227.572 57.216C227.508 57.28 227.444 57.376 227.38 57.504C227.316 57.568 227.316 57.6 227.38 57.6L225.652 59.328H225.172C224.916 59.776 224.532 60.288 224.02 60.864C223.508 61.376 222.964 61.632 222.388 61.632C222.324 61.568 222.228 61.472 222.1 61.344C221.972 61.216 221.876 61.216 221.812 61.344V61.728C221.812 61.792 221.844 61.76 221.908 61.632C221.972 61.504 222.004 61.472 222.004 61.536C222.132 61.6 222.164 61.696 222.1 61.824C222.1 61.76 222.132 61.696 222.196 61.632C222.196 61.632 222.196 61.696 222.196 61.824C222.26 61.952 222.26 62.048 222.196 62.112L221.62 62.208L221.524 61.92L221.428 62.496L219.604 62.88L219.316 62.4L218.068 62.304H217.972C217.972 62.304 218.132 62.368 218.452 62.496C218.836 62.624 218.964 62.752 218.836 62.88C218.772 62.944 218.708 62.976 218.644 62.976C218.324 62.976 217.908 62.816 217.396 62.496C216.948 62.112 216.692 61.888 216.628 61.824C216.628 61.888 216.596 61.92 216.532 61.92C216.404 61.92 216.18 61.792 215.86 61.536C215.604 61.28 215.412 61.056 215.284 60.864C215.22 60.736 215.252 60.608 215.38 60.48C215.508 60.352 215.604 60.352 215.668 60.48L214.708 59.04C214.836 59.168 214.964 59.168 215.092 59.04C215.22 58.848 215.252 58.688 215.188 58.56L214.708 57.6L214.996 56.64C214.996 56.576 214.996 56.544 214.996 56.544L216.244 53.376L216.052 53.184L216.916 52.224C216.852 52.096 216.82 51.936 216.82 51.744C216.82 51.36 216.948 51.008 217.204 50.688C217.46 50.304 217.62 49.952 217.684 49.632C217.748 49.632 217.94 49.472 218.26 49.152C218.58 48.832 218.772 48.64 218.836 48.576L219.604 46.752L219.892 47.136C219.956 46.368 220.212 45.824 220.66 45.504C221.172 45.12 221.684 44.768 222.196 44.448C222.196 43.488 222.708 42.848 223.732 42.528V42.432C223.732 42.112 223.924 41.856 224.308 41.664C225.012 41.536 225.364 41.312 225.364 40.992C225.364 40.672 225.716 40.288 226.42 39.84C226.676 39.648 226.804 39.712 226.804 40.032C226.804 40.288 226.804 40.416 226.804 40.416H227.188V39.168C227.252 39.04 227.636 38.88 228.34 38.688C229.108 38.496 229.396 38.24 229.204 37.92L230.068 37.536C230.324 37.92 230.516 37.952 230.644 37.632C230.772 37.312 230.676 37.184 230.356 37.248C230.868 37.12 231.284 36.928 231.604 36.672C231.988 36.416 232.468 36.352 233.044 36.48L233.332 35.808L234.772 35.52L234.868 35.712L236.308 35.328V35.616L236.596 35.328C236.724 35.392 236.788 35.52 236.788 35.712C236.852 35.84 237.012 35.872 237.268 35.808L237.748 35.328L238.228 36.096L239.092 36.288C239.092 36.16 239.22 36.096 239.476 36.096C239.668 36.096 239.86 36.16 240.052 36.288C240.244 36.416 240.244 36.544 240.052 36.672L241.3 36.96C241.364 37.024 241.556 37.344 241.876 37.92C242.26 38.432 242.516 38.752 242.644 38.88C242.644 38.88 242.612 39.104 242.548 39.552C242.484 39.936 242.388 40.256 242.26 40.512C242.132 40.768 241.972 40.672 241.78 40.224L241.3 41.088L241.492 41.952L241.3 41.664V42.048L242.164 43.776L241.876 43.872L242.26 44.832L241.78 45.024L242.164 45.408V47.712C242.42 47.712 242.548 47.968 242.548 48.48C242.548 48.864 242.452 49.248 242.26 49.632L242.452 50.688L242.068 51.552H242.356C242.356 51.744 242.356 52.064 242.356 52.512C242.42 52.896 242.452 53.312 242.452 53.76C242.452 54.784 242.356 55.488 242.164 55.872C242.036 56.128 242.036 56.32 242.164 56.448L241.972 57.504C241.972 57.44 241.94 57.504 241.876 57.696C241.876 57.824 241.94 57.984 242.068 58.176L241.684 59.904L241.588 59.712L241.108 61.152C241.236 61.216 241.3 61.6 241.3 62.304C241.3 62.944 241.3 63.328 241.3 63.456L240.724 63.552L240.82 63.744H241.3L241.204 64.128L241.012 64.032L240.916 64.896L241.108 65.184C241.044 65.44 240.98 65.632 240.916 65.76C240.916 65.888 240.916 66.016 240.916 66.144C240.916 66.464 241.076 66.496 241.396 66.24C241.78 65.984 242.164 65.6 242.548 65.088C242.932 64.576 243.124 64.224 243.124 64.032C243.188 63.904 243.284 63.808 243.412 63.744C243.54 63.68 243.636 63.68 243.7 63.744L244.564 62.4L244.852 62.496L245.332 61.248C245.396 61.248 245.428 61.28 245.428 61.344C245.428 61.344 245.46 61.344 245.524 61.344C245.652 61.344 245.812 61.248 246.004 61.056C246.196 60.8 246.356 60.64 246.484 60.576C246.548 60.576 246.516 60.576 246.388 60.576C246.324 60.576 246.292 60.544 246.292 60.48L246.484 60.192L246.1 60.096L246.772 59.328L246.868 59.52L247.348 58.464C247.284 58.4 247.284 58.368 247.348 58.368V58.464C247.348 58.528 247.38 58.592 247.444 58.656C247.508 58.656 247.54 58.592 247.54 58.464L249.172 55.008C249.3 54.944 249.332 55.008 249.268 55.2C249.268 55.328 249.268 55.392 249.268 55.392H249.844C249.844 55.392 249.812 55.232 249.748 54.912C249.748 54.592 249.652 54.464 249.46 54.528C249.652 53.824 250.036 53.248 250.612 52.8C250.548 52.736 250.58 52.64 250.708 52.512C250.836 52.384 250.996 52.384 251.188 52.512L250.996 55.104C250.548 55.104 250.388 55.168 250.516 55.296C250.644 55.424 250.772 55.424 250.9 55.296L250.612 56.16H250.036C250.036 56.224 250.068 56.32 250.132 56.448C250.196 56.576 250.228 56.672 250.228 56.736L249.844 56.832L249.364 58.752C249.364 58.752 249.236 58.912 248.98 59.232C248.724 59.488 248.468 59.584 248.212 59.52L248.02 61.056H247.636C247.188 61.504 246.772 62.048 246.388 62.688C246.004 63.328 245.684 63.968 245.428 64.608L245.044 64.512C245.044 65.152 244.692 65.76 243.988 66.336C243.284 66.912 242.772 67.456 242.452 67.968C242.26 67.776 242.132 67.68 242.068 67.68C241.876 67.68 241.812 67.936 241.876 68.448C241.94 68.896 241.812 68.896 241.492 68.448L240.052 70.08L239.86 72.192L239.38 72.288C239.124 72.928 238.996 73.696 238.996 74.592C238.996 75.104 239.06 75.456 239.188 75.648C239.124 75.712 239.06 75.84 238.996 76.032C238.932 76.288 238.9 76.352 238.9 76.224L238.708 77.76C238.388 77.696 238.164 77.92 238.036 78.432C237.908 79.008 237.812 79.616 237.748 80.256C237.748 80.896 237.748 81.28 237.748 81.408L237.46 81.504C237.46 81.568 237.524 81.696 237.652 81.888C237.78 82.08 237.652 82.24 237.268 82.368V83.424H237.076C236.884 83.424 236.82 83.52 236.884 83.712C236.948 83.968 237.012 84.16 237.076 84.288C237.076 84.416 236.98 84.736 236.788 85.248C236.66 85.824 236.5 86.336 236.308 86.784C236.18 87.296 236.084 87.584 236.02 87.648L235.924 88.512L235.732 88.128C235.604 88.448 235.348 89.056 234.964 89.952C234.644 90.848 234.676 91.456 235.06 91.776L234.676 92.928L234.484 92.832L234.196 93.6L234.484 93.696L233.716 94.752C233.716 94.688 233.652 94.656 233.524 94.656C233.46 94.656 233.46 94.72 233.524 94.848L233.716 95.232L234.004 94.944V95.232L233.332 95.808L233.62 96.288L233.044 96.96C233.108 97.024 233.14 97.12 233.14 97.248C233.14 97.44 233.076 97.6 232.948 97.728C232.884 97.92 232.82 98.08 232.756 98.208L232.564 97.92L232.372 98.016L232.756 99.168C232.692 99.232 232.564 99.2 232.372 99.072C232.244 98.944 232.18 99.008 232.18 99.264L232.276 100.512L232.18 100.416C232.052 100.416 231.924 100.544 231.796 100.8C231.668 101.12 231.732 101.344 231.988 101.472L231.22 102.528L231.508 102.624L230.932 104.256C230.868 103.936 230.772 103.936 230.644 104.256C230.58 104.576 230.676 104.64 230.932 104.448C230.676 104.64 230.42 104.896 230.164 105.216C229.908 105.6 229.78 105.952 229.78 106.272C229.844 106.336 229.876 106.528 229.876 106.848C229.876 107.296 229.716 107.52 229.396 107.52L228.052 110.016V109.92C227.988 109.92 227.828 110.112 227.572 110.496C227.316 110.88 227.188 111.072 227.188 111.072C226.932 111.264 226.452 111.456 225.748 111.648C225.044 111.84 224.34 111.904 223.636 111.84C223.636 111.52 223.412 111.328 222.964 111.264C222.516 111.2 222.324 111.04 222.388 110.784L222.196 109.44C222.772 109.184 222.996 108.96 222.868 108.768C222.804 108.64 222.804 108.448 222.868 108.192L223.444 106.848H223.828C223.764 106.72 223.732 106.56 223.732 106.368C223.732 105.92 223.892 105.472 224.212 105.024L224.98 104.736C225.3 104.288 225.236 104 224.788 103.872C224.916 103.36 225.14 102.848 225.46 102.336C225.78 101.888 225.972 101.376 226.036 100.8H226.516L226.708 99.264C226.772 99.264 226.804 99.264 226.804 99.264C226.868 99.328 226.932 99.36 226.996 99.36C227.316 99.36 227.476 99.136 227.476 98.688C227.476 98.304 227.508 98.016 227.572 97.824L228.148 97.632L228.34 97.44C227.892 97.12 227.7 97.088 227.764 97.344C227.828 97.664 227.7 97.792 227.38 97.728L227.86 96.672H228.148L228.052 95.904C228.116 95.264 228.308 94.656 228.628 94.08C229.012 93.568 229.332 93.024 229.588 92.448H230.068L229.78 91.872H230.068L230.356 91.488L230.068 91.296C229.748 91.552 229.62 91.488 229.684 91.104C229.812 90.784 230.036 90.304 230.356 89.664C230.676 89.088 230.996 88.48 231.316 87.84C231.7 87.264 231.924 86.88 231.988 86.688C231.988 86.56 231.956 86.368 231.892 86.112C231.828 85.856 231.924 85.792 232.18 85.92L232.948 83.808L233.14 84C233.204 83.936 233.236 83.84 233.236 83.712C233.236 83.584 233.236 83.456 233.236 83.328L233.524 81.216C233.652 81.344 233.684 81.312 233.62 81.12C233.62 80.992 233.62 80.928 233.62 80.928L233.908 81.024L234.1 79.296C234.42 79.168 234.58 79.04 234.58 78.912C234.58 78.784 234.484 78.784 234.292 78.912L235.156 76.032L235.54 75.84L235.348 75.456H235.444L235.924 74.976C235.924 74.912 235.86 74.912 235.732 74.976C235.668 75.104 235.604 75.136 235.54 75.072V74.976C235.54 74.848 235.572 74.592 235.636 74.208C235.764 73.888 235.86 73.696 235.924 73.632C235.604 73.888 235.028 74.336 234.196 74.976C233.428 75.616 232.884 75.968 232.564 76.032C232.564 75.968 232.532 75.872 232.468 75.744C232.468 75.68 232.436 75.68 232.372 75.744L232.468 76.416L231.796 76.896C231.732 76.768 231.604 76.704 231.412 76.704C231.284 76.704 231.188 76.768 231.124 76.896L230.74 77.952C230.676 77.888 230.58 77.856 230.452 77.856C230.26 77.856 230.036 77.92 229.78 78.048C229.588 78.176 229.492 78.336 229.492 78.528L229.588 78.816H229.396L227.284 80.832L227.38 81.6C227.316 81.664 227.188 81.632 226.996 81.504C226.804 81.376 226.708 81.312 226.708 81.312L226.804 81.792L225.748 83.232C225.684 83.168 225.62 83.136 225.556 83.136C225.364 83.136 225.14 83.424 224.884 84C224.692 84.576 224.468 84.96 224.212 85.152L224.308 84.576H224.02C223.764 85.024 223.668 85.408 223.732 85.728C223.796 86.048 223.636 86.176 223.252 86.112C223.124 86.048 223.092 86.112 223.156 86.304C223.284 86.56 223.38 86.72 223.444 86.784C223.444 86.848 223.316 86.912 223.06 86.976C222.868 87.104 222.74 87.2 222.676 87.264C222.612 87.328 222.58 87.456 222.58 87.648C222.644 87.84 222.516 87.904 222.196 87.84L222.1 89.184L221.812 88.992C221.428 89.76 221.012 90.816 220.564 92.16C220.116 93.504 219.924 94.624 219.988 95.52C219.924 95.52 219.764 95.488 219.508 95.424C219.316 95.36 219.22 95.392 219.22 95.52V97.344L219.508 97.536L219.22 98.784L218.932 98.88L219.124 99.84H218.932L219.028 100.704C218.9 100.576 218.772 100.512 218.644 100.512C218.516 100.512 218.452 100.64 218.452 100.896C218.452 101.024 218.484 101.152 218.548 101.28C218.676 101.472 218.804 101.536 218.932 101.472V102.336H218.452C218.388 102.4 218.42 102.464 218.548 102.528C218.74 102.656 218.836 102.784 218.836 102.912L218.452 103.296L218.932 103.392L219.028 105.12C218.964 105.056 218.964 105.216 219.028 105.6C219.092 105.856 219.092 105.92 219.028 105.792C219.028 105.792 219.028 105.728 219.028 105.6C218.964 105.344 218.9 105.248 218.836 105.312L218.644 106.08H218.932L219.22 108.672C219.284 108.736 219.348 108.736 219.412 108.672C219.54 108.608 219.604 108.576 219.604 108.576L219.988 110.784C220.18 110.848 220.212 110.784 220.084 110.592C220.02 110.464 219.988 110.4 219.988 110.4C220.308 110.144 220.468 110.112 220.468 110.304C220.532 110.56 220.596 110.72 220.66 110.784L220.852 110.688L221.428 111.552V111.84ZM220.852 59.04C221.236 58.656 221.716 58.336 222.292 58.08C222.932 57.824 223.508 57.632 224.02 57.504L224.212 56.928H224.5C224.5 56.672 224.596 56.48 224.788 56.352C225.044 56.16 225.236 55.968 225.364 55.776C225.62 55.904 225.812 55.968 225.94 55.968L225.748 55.392L226.612 54.72L226.9 55.2L227.188 55.008L227.38 54.144L227.284 53.952L229.108 51.936H229.492V52.512C229.62 52.576 229.652 52.48 229.588 52.224C229.588 51.968 229.588 51.808 229.588 51.744L229.396 51.648C229.588 51.52 229.812 51.328 230.068 51.072C230.324 50.816 230.484 50.56 230.548 50.304C230.676 50.304 230.804 50.304 230.932 50.304C231.06 50.304 231.156 50.4 231.22 50.592H231.412V50.208C231.156 50.08 231.028 49.888 231.028 49.632H231.124L231.412 49.824C231.412 49.504 231.476 49.216 231.604 48.96C231.732 48.64 231.956 48.448 232.276 48.384C232.404 48.32 232.5 48.288 232.564 48.288C232.692 48.224 232.756 48.128 232.756 48L233.044 47.712L232.948 47.328C233.076 47.264 233.236 47.072 233.428 46.752C233.684 46.432 233.812 46.176 233.812 45.984H234.1C234.164 45.856 234.228 45.696 234.292 45.504C234.42 45.248 234.58 45.056 234.772 44.928L234.964 45.12C235.092 44.8 235.188 44.512 235.252 44.256C235.38 44 235.508 43.744 235.636 43.488L236.116 43.584L236.308 42.624C236.436 42.624 236.628 42.56 236.884 42.432C236.756 42.432 236.692 42.336 236.692 42.144C236.692 41.824 236.852 41.376 237.172 40.8C237.556 40.224 237.78 39.84 237.844 39.648H236.692V39.84C236.116 39.904 235.508 40.096 234.868 40.416C234.228 40.672 233.62 40.896 233.044 41.088L232.852 41.664L231.988 42.24H231.412V42.432C231.412 42.624 231.284 42.784 231.028 42.912C230.836 43.04 230.676 43.232 230.548 43.488H230.068C230.132 43.744 229.94 44.032 229.492 44.352C229.044 44.608 228.692 44.768 228.436 44.832C228.372 45.28 228.148 45.632 227.764 45.888C227.444 46.144 227.188 46.464 226.996 46.848L226.708 46.656C226.58 47.104 226.228 47.488 225.652 47.808C225.14 48.064 224.98 48.448 225.172 48.96L224.596 49.248C224.596 49.888 224.276 50.272 223.636 50.4C223.636 50.656 223.54 50.88 223.348 51.072H223.252L223.444 50.688H223.156V51.264L222.772 51.168L222.868 50.592H222.772C222.772 50.784 222.74 51.136 222.676 51.648C222.612 52.16 222.452 52.48 222.196 52.608C222.132 52.672 222.036 52.672 221.908 52.608C221.844 52.48 221.812 52.48 221.812 52.608H221.62L221.908 53.184C221.652 53.376 221.46 53.6 221.332 53.856C221.204 54.112 221.076 54.368 220.948 54.624C220.82 54.688 220.596 54.72 220.276 54.72C220.34 54.848 220.308 55.008 220.18 55.2L220.564 55.392C220.372 55.648 220.212 55.904 220.084 56.16C220.02 56.416 219.924 56.704 219.796 57.024L219.604 56.928V58.56L220.852 59.04ZM215.092 56.928C215.412 57.056 215.572 57.024 215.572 56.832L215.092 56.544C215.092 56.608 215.092 56.704 215.092 56.832C215.092 56.896 215.092 56.928 215.092 56.928ZM233.236 83.328V83.424V83.328ZM268.152 71.904C267.768 71.904 267.224 71.712 266.52 71.328C265.816 70.88 265.176 70.304 264.6 69.6C264.088 68.896 263.832 68.16 263.832 67.392C263.832 66.816 263.992 66.336 264.312 65.952C264.248 65.568 264.12 64.992 263.928 64.224C263.736 63.456 263.768 62.912 264.024 62.592C264.152 62.592 264.28 62.496 264.408 62.304C264.6 62.112 264.632 61.92 264.504 61.728L264.024 61.248L264.216 58.656H264.504C264.632 58.4 264.696 58.144 264.696 57.888C264.696 57.568 264.632 57.248 264.504 56.928C264.44 56.608 264.344 56.32 264.216 56.064H264.312V55.584C264.312 55.008 264.312 54.464 264.312 53.952C264.376 53.44 264.44 52.896 264.504 52.32C264.76 52.448 264.824 52.384 264.696 52.128C264.568 51.872 264.504 51.872 264.504 52.128C264.312 51.424 264.376 50.624 264.696 49.728C265.016 48.832 265.176 48.032 265.176 47.328C265.176 46.88 265.08 46.528 264.888 46.272C264.888 46.592 264.792 46.944 264.6 47.328C264.472 47.712 264.344 48.064 264.216 48.384V47.904H264.024C264.024 48.352 263.928 48.672 263.736 48.864L264.312 49.056C263.608 49.824 263.256 50.848 263.256 52.128H262.584L262.872 52.992L261.72 53.088L262.872 53.28C262.616 53.6 262.424 53.952 262.296 54.336C262.232 54.72 262.168 55.072 262.104 55.392L261.144 55.584C261.336 55.776 261.432 56.064 261.432 56.448C261.432 57.152 261.144 57.952 260.568 58.848C259.992 59.744 259.512 60.352 259.128 60.672C259.384 60.8 259.512 61.152 259.512 61.728L259.32 61.92H258.359C258.488 61.984 258.584 62.176 258.648 62.496C258.776 62.752 258.84 62.944 258.84 63.072C258.584 63.136 258.392 63.264 258.264 63.456C258.136 63.648 257.944 63.776 257.688 63.84C257.944 63.84 258.168 64.032 258.359 64.416C258.104 64.8 257.752 65.568 257.304 66.72C256.856 67.808 256.376 68.448 255.864 68.64L255.192 67.776C255.128 68.224 254.84 68.48 254.328 68.544C253.816 68.608 253.368 68.64 252.984 68.64C252.472 68 251.896 67.552 251.256 67.296C250.68 67.04 250.2 66.72 249.816 66.336C249.432 65.888 249.24 65.12 249.24 64.032C249.368 63.904 249.464 63.488 249.528 62.784C249.592 62.08 249.624 61.312 249.624 60.48C249.624 59.52 249.592 58.56 249.528 57.6C249.528 56.64 249.528 55.968 249.528 55.584H249.624C249.944 55.584 250.104 55.328 250.104 54.816C250.104 54.496 250.072 54.08 250.008 53.568C249.944 53.056 249.912 52.576 249.912 52.128C249.912 51.616 249.976 51.168 250.104 50.784C250.232 50.336 250.488 49.984 250.872 49.728L250.488 48.864L250.968 47.136L250.68 46.464L251.64 41.76C251.384 41.568 251.256 41.408 251.256 41.28C251.256 41.152 251.288 41.024 251.352 40.896C251.416 40.768 251.448 40.608 251.448 40.416L252.023 40.128L251.448 39.744C251.832 39.36 252.023 38.528 252.023 37.248C252.023 36.288 251.896 35.328 251.64 34.368C251.448 33.344 251.128 32.704 250.68 32.448C249.976 32.064 249.144 31.84 248.184 31.776C247.288 31.648 246.392 31.552 245.495 31.488C245.495 31.232 245.559 31.072 245.688 31.008C245.816 30.88 245.752 30.816 245.495 30.816C245.88 30.432 246.36 30.176 246.936 30.048C247.32 29.664 247.864 29.472 248.568 29.472C249.08 29.472 249.56 29.536 250.008 29.664C250.52 29.792 250.904 29.92 251.16 30.048C251.288 29.28 251.8 28.896 252.696 28.896C253.592 28.896 254.328 28.896 254.904 28.896C255.032 29.28 255.32 29.504 255.768 29.568C256.28 29.632 256.696 29.632 257.016 29.568C257.08 30.208 257.208 30.688 257.4 31.008C257.592 31.264 257.688 31.552 257.688 31.872C257.688 32.192 257.464 32.768 257.016 33.6L257.4 33.888L257.016 36L256.536 36.192H257.016C257.016 36.832 256.888 37.472 256.632 38.112C256.44 38.688 256.344 39.232 256.344 39.744L256.728 40.416L256.536 41.856C256.472 41.92 256.344 41.92 256.152 41.856C255.96 41.728 255.864 41.632 255.864 41.568V42.048L256.344 42.72L255.768 42.912L256.344 43.2L255.192 47.616L255.768 47.808L255.576 49.728L254.424 49.536C254.36 49.728 254.36 49.888 254.424 50.016C254.552 50.144 254.648 50.208 254.712 50.208H254.808C255 50.208 255.096 50.368 255.096 50.688C255.16 50.944 255.192 51.168 255.192 51.36C255.128 51.552 255.064 51.744 255 51.936C255 52.128 255 52.32 255 52.512C255 52.768 255 53.056 255 53.376C255.064 53.696 255.096 54.016 255.096 54.336C255.096 54.656 255.032 55.008 254.904 55.392L254.616 55.584L254.712 56.352C254.2 56.736 253.944 57.248 253.944 57.888C254.264 57.952 254.424 58.176 254.424 58.56C254.424 58.816 254.36 59.072 254.232 59.328C254.168 59.584 254.072 59.808 253.944 60C254.264 60.576 254.456 61.184 254.52 61.824C254.648 62.4 254.776 63.04 254.904 63.744C255.032 63.744 255.192 63.744 255.384 63.744C255.64 63.68 255.8 63.552 255.864 63.36C255.992 63.104 256.312 62.496 256.824 61.536C257.336 60.576 257.848 59.648 258.359 58.752C258.936 57.856 259.32 57.408 259.512 57.408L259.128 56.832H260.088L259.128 56.256L260.28 55.296C260.216 54.976 260.184 54.72 260.184 54.528C260.184 54.336 260.184 54.176 260.184 54.048C260.184 53.344 260.312 52.864 260.568 52.608C260.824 52.352 261.016 51.808 261.144 50.976H261.72C262.04 50.592 262.168 49.984 262.104 49.152C262.104 48.32 262.168 47.456 262.296 46.56C262.424 45.6 262.904 44.864 263.736 44.352L263.544 42.912H264.312L263.736 42.432L264.12 42.144C264.056 42.144 264.056 42.08 264.12 41.952C264.248 41.76 264.312 41.728 264.312 41.856L264.696 41.376C264.568 41.312 264.568 40.896 264.696 40.128C264.824 39.296 265.016 38.368 265.272 37.344C265.528 36.256 265.752 35.264 265.944 34.368C266.136 33.408 266.264 32.768 266.328 32.448L266.616 32.256C267.768 32.32 268.504 32.48 268.824 32.736C269.144 32.928 269.336 33.152 269.4 33.408C269.528 33.6 269.816 33.728 270.264 33.792C270.52 34.048 270.776 34.368 271.031 34.752C271.288 35.072 271.512 35.456 271.704 35.904C271.384 36.16 271.224 36.512 271.224 36.96C271.224 37.216 271.224 37.472 271.224 37.728C271.288 37.92 271.32 38.144 271.32 38.4C271.32 38.72 271.288 38.976 271.224 39.168L270.744 39.264C270.872 39.648 270.936 39.936 270.936 40.128C270.936 40.384 270.904 40.64 270.84 40.896C270.84 41.088 270.808 41.312 270.744 41.568L270.264 41.76H270.072C270.072 41.824 270.168 41.888 270.359 41.952C270.616 42.016 270.744 42.048 270.744 42.048C270.616 42.304 270.52 42.56 270.456 42.816C270.456 43.072 270.456 43.328 270.456 43.584V44.544C270.456 44.8 270.456 45.056 270.456 45.312C270.456 45.504 270.392 45.728 270.264 45.984L269.688 46.464C269.752 46.592 269.784 47.008 269.784 47.712C269.784 48.544 269.72 49.6 269.592 50.88C269.528 52.16 269.432 53.472 269.304 54.816C269.176 56.096 269.016 57.248 268.824 58.272C268.696 59.232 268.568 59.808 268.44 60C268.888 60.64 269.112 61.376 269.112 62.208C269.112 62.464 269.08 62.752 269.016 63.072C269.016 63.392 268.984 63.712 268.92 64.032C269.496 64.352 269.816 64.672 269.88 64.992C270.008 65.248 270.488 65.376 271.32 65.376V66.336C271.64 66.336 271.8 66.208 271.8 65.952C271.8 65.824 271.704 65.696 271.512 65.568C271.384 65.376 271.288 65.184 271.224 64.992L272.856 64.512C272.92 64.128 273.048 63.68 273.24 63.168C273.496 62.656 273.624 62.24 273.624 61.92L274.296 61.728L274.488 60.288L275.064 60.672C275 60.288 274.968 59.904 274.968 59.52C275.672 58.944 276.184 58.176 276.504 57.216C276.824 56.256 277.336 55.488 278.04 54.912L277.848 54.144H278.52L279.48 53.088C279.352 53.024 279.224 52.896 279.096 52.704C278.968 52.512 278.936 52.384 279 52.32L280.344 52.128V52.512C280.6 52.768 280.472 53.248 279.96 53.952C279.448 54.656 279.128 55.104 279 55.296C279.192 55.552 279.288 55.808 279.288 56.064C279.288 56.32 279.192 56.512 279 56.64C278.808 56.768 278.552 56.96 278.232 57.216L278.52 57.504C278.456 57.696 278.232 58.176 277.848 58.944C277.464 59.712 277.016 60.576 276.504 61.536C276.056 62.496 275.64 63.328 275.256 64.032C274.936 64.736 274.776 65.12 274.776 65.184H274.008V66.624C274.008 67.2 273.688 67.904 273.048 68.736C272.408 69.568 271.64 70.304 270.744 70.944C269.848 71.584 268.984 71.904 268.152 71.904ZM289.456 55.68C289.328 55.424 289.232 55.328 289.168 55.392C289.168 55.392 289.04 55.36 288.784 55.296C288.784 54.976 288.816 54.624 288.88 54.24C288.944 53.856 288.976 53.504 288.976 53.184L288.4 52.992C288.336 52.864 288.304 52.672 288.304 52.416C288.304 52.096 288.368 51.808 288.496 51.552C288.624 51.232 288.592 50.944 288.4 50.688C288.592 50.496 288.688 50.272 288.688 50.016C288.752 49.696 288.784 49.408 288.784 49.152C288.72 49.024 288.624 49.056 288.496 49.248C288.432 49.376 288.4 49.44 288.4 49.44C288.4 48.928 288.368 48.416 288.304 47.904C288.304 47.328 288.304 46.752 288.304 46.176C288.304 45.472 288.336 44.768 288.4 44.064C288.528 43.36 288.72 42.72 288.976 42.144C288.912 42.016 288.848 41.536 288.784 40.704C288.72 39.808 288.688 38.912 288.688 38.016C288.688 37.312 288.688 36.704 288.688 36.192C288.688 35.68 288.72 35.36 288.784 35.232H289.264V35.04C289.264 34.848 289.168 34.656 288.976 34.464C288.784 34.272 288.72 34.016 288.784 33.696H289.264C289.392 33.312 289.232 33.12 288.784 33.12L289.264 32.736C289.008 32.48 288.88 31.872 288.88 30.912C288.88 29.568 289.072 28.512 289.456 27.744C289.392 27.616 289.296 27.264 289.168 26.688C289.104 26.112 289.072 25.6 289.072 25.152C289.072 24.576 289.2 24.288 289.456 24.288C289.456 23.776 289.36 23.36 289.168 23.04C289.04 22.656 288.976 22.304 288.976 21.984C288.976 21.6 289.2 21.152 289.648 20.64C289.456 20.512 289.296 20.352 289.168 20.16C289.04 19.968 288.912 19.776 288.784 19.584H289.456L289.648 18.72H288.784C288.784 18.208 288.784 17.728 288.784 17.28C288.848 16.768 288.912 16.288 288.976 15.84C288.912 15.712 288.816 15.712 288.688 15.84C288.624 15.968 288.592 16.096 288.592 16.224V15.552H289.456V15.36C288.88 15.04 288.592 14.688 288.592 14.304C288.592 14.112 288.656 13.92 288.784 13.728C288.912 13.536 288.912 13.344 288.784 13.152C288.528 12.96 288.336 12.608 288.208 12.096C289.424 12.288 290.32 12.544 290.896 12.864C291.536 13.12 292.4 13.376 293.488 13.632V14.688L293.68 14.784H294.736C294.928 15.296 295.12 15.968 295.312 16.8C295.568 17.568 295.696 18.336 295.696 19.104C295.696 20.128 295.472 20.896 295.024 21.408C295.472 21.792 295.696 22.08 295.696 22.272C295.696 22.4 295.6 22.56 295.408 22.752C295.216 22.944 295.088 23.2 295.024 23.52H295.12C295.248 23.52 295.312 23.648 295.312 23.904C295.376 24.096 295.408 24.224 295.408 24.288C295.152 24.544 295.024 24.864 295.024 25.248C295.024 25.632 295.088 26.08 295.216 26.592L294.544 26.784C294.736 26.848 294.832 27.232 294.832 27.936C294.832 28.448 294.8 29.024 294.736 29.664C294.672 30.24 294.608 30.624 294.544 30.816C294.288 30.432 294.096 30.656 293.968 31.488C293.84 32.32 293.744 33.28 293.68 34.368C293.616 35.392 293.552 36.064 293.488 36.384C293.488 36.256 293.456 36.16 293.392 36.096C293.392 36.032 293.392 36 293.392 36C293.328 36 293.264 36.128 293.2 36.384C293.136 36.576 293.008 36.64 292.816 36.576C292.944 36.96 293.008 37.344 293.008 37.728C293.008 38.176 292.976 38.656 292.912 39.168C292.848 39.68 292.816 40.096 292.816 40.416C292.56 40.416 292.464 40.416 292.528 40.416C292.592 40.352 292.528 40.192 292.336 39.936L292.72 39.648H292.144V40.608H292.72V41.184H292.144C292.208 41.376 292.24 41.568 292.24 41.76C292.24 41.952 292.24 42.144 292.24 42.336C292.24 43.36 292.048 44.32 291.664 45.216H290.992L291.472 45.888L291.664 45.408V45.888C291.664 46.272 291.6 46.72 291.472 47.232C291.216 47.296 291.024 47.84 290.896 48.864C290.768 49.824 290.512 50.624 290.128 51.264C290.32 51.456 290.416 51.68 290.416 51.936C290.48 52.128 290.544 52.32 290.608 52.512H290.32C290.32 53.088 290.256 53.632 290.128 54.144C290 54.656 289.872 55.168 289.744 55.68H289.456ZM288.784 73.344C288.08 73.216 287.344 73.152 286.576 73.152C285.808 73.152 285.168 72.96 284.656 72.576C284.208 72.256 283.984 71.552 283.984 70.464C284.432 70.016 284.816 69.504 285.136 68.928C285.456 68.288 285.968 67.968 286.672 67.968L286.384 67.584H286.672C287.568 67.008 288.432 66.688 289.264 66.624C290.16 66.496 291.12 66.432 292.144 66.432C292.208 66.624 292.304 66.784 292.432 66.912C292.56 67.04 292.656 67.2 292.72 67.392C292.08 67.776 291.44 68.512 290.8 69.6C290.224 70.624 289.872 71.488 289.744 72.192H289.264C289.264 72.512 289.2 72.704 289.072 72.768C289.008 72.896 288.912 73.088 288.784 73.344Z" fill="#C0242A"/>
</svg>
