<svg width="654" height="303" viewBox="0 0 654 303" fill="none" xmlns="http://www.w3.org/2000/svg">
<path d="M0.276246 139.322L0.0906887 142.47C0.0804873 142.641 0.123921 142.813 0.218543 142.977C0.313164 143.14 0.457001 143.292 0.64146 143.422C0.825919 143.552 1.04727 143.659 1.29235 143.735C1.53744 143.811 1.80129 143.856 2.06818 143.866C2.33488 143.882 2.60086 143.863 2.85043 143.811C3.09999 143.759 3.32797 143.675 3.52087 143.563C3.71377 143.451 3.86766 143.315 3.97335 143.161C4.07903 143.007 4.13436 142.84 4.13609 142.668C4.28876 140.078 4.43908 137.527 4.58706 135.017C4.62439 134.675 4.45222 134.331 4.10705 134.057C3.76188 133.783 3.27099 133.6 2.73872 133.548C2.19876 133.516 1.67107 133.617 1.26388 133.831C0.856677 134.045 0.600828 134.355 0.548709 134.699L0.276246 139.322ZM0.268739 150.039C0.116066 152.629 0.647606 155.26 0.992547 157.88C1.01334 158.05 1.08637 158.217 1.20729 158.372C1.32821 158.527 1.4946 158.667 1.69687 158.783C1.89915 158.899 2.13326 158.989 2.38548 159.048C2.63771 159.108 2.90301 159.135 3.16603 159.128C3.42941 159.124 3.68604 159.086 3.92094 159.016C4.15584 158.947 4.36427 158.847 4.53423 158.723C4.70418 158.599 4.83226 158.453 4.91088 158.294C4.98951 158.135 5.01716 157.966 4.99225 157.796C4.64496 155.216 4.42214 152.643 4.32131 150.118C4.29388 149.773 4.05816 149.442 3.66455 149.194C3.27095 148.947 2.7506 148.803 2.21467 148.794C1.9525 148.789 1.69405 148.817 1.45423 148.876C1.2144 148.936 0.997889 149.027 0.817095 149.142C0.636301 149.258 0.494871 149.397 0.400766 149.551C0.306662 149.704 0.261757 149.87 0.268739 150.039ZM1.6334 126.884C1.61066 127.207 1.77399 127.53 2.09234 127.792C2.4107 128.054 2.86185 128.237 3.35975 128.306C3.89308 128.359 4.42671 128.278 4.84664 128.078C5.26658 127.879 5.53954 127.577 5.60727 127.238C6.03807 125.224 6.52636 123.293 7.14611 121.25L7.54642 119.754C7.60049 119.589 7.60199 119.417 7.55081 119.248C7.49963 119.079 7.39685 118.916 7.24846 118.769C7.10007 118.623 6.90902 118.495 6.6867 118.394C6.46438 118.293 6.21521 118.22 5.95386 118.181C5.43737 118.105 4.9059 118.161 4.4748 118.338C4.04371 118.514 3.74772 118.797 3.65113 119.125L3.18869 120.617C2.57128 122.62 2.08299 124.551 1.64045 126.765L1.6334 126.884ZM1.97689 165.536L1.96514 165.736C2.50139 168.287 3.09518 170.921 3.81568 173.523C3.91562 173.859 4.21063 174.164 4.63964 174.375C5.06865 174.587 5.59883 174.688 6.12061 174.659C6.38703 174.641 6.64232 174.589 6.87098 174.506C7.09964 174.422 7.29692 174.308 7.45088 174.171C7.60483 174.035 7.71226 173.878 7.76665 173.71C7.82103 173.542 7.82119 173.368 7.76722 173.196C7.10657 170.638 6.44594 168.079 5.9719 165.532C5.90042 165.194 5.62443 164.88 5.20437 164.661C4.78431 164.441 4.25453 164.333 3.73151 164.36C3.31161 164.423 2.94285 164.573 2.68201 164.789C2.42116 165.005 2.28272 165.274 2.28794 165.555L1.97689 165.536ZM6.20063 111.877C6.18952 112.171 6.33707 112.464 6.61848 112.706C6.89988 112.949 7.29784 113.126 7.74503 113.207C8.00055 113.263 8.26845 113.285 8.53197 113.272C8.79548 113.259 9.04887 113.21 9.27631 113.13C9.50375 113.049 9.70038 112.938 9.85371 112.804C10.007 112.67 10.1138 112.516 10.1674 112.35C11.1193 109.967 12.2003 107.511 13.4057 105.063C13.4808 104.904 13.5056 104.736 13.4789 104.568C13.4522 104.4 13.3745 104.235 13.2501 104.083C13.1258 103.931 12.9572 103.794 12.7542 103.681C12.5511 103.568 12.3175 103.481 12.0667 103.424C11.5523 103.308 10.9982 103.323 10.5231 103.467C10.048 103.611 9.68963 103.872 9.52458 104.194C8.31917 106.643 7.23581 109.138 6.27921 111.601L6.20063 111.877ZM6.12509 180.938L6.10631 181.256C7.01811 183.79 7.92754 186.363 9.0236 188.947C9.16212 189.278 9.49664 189.568 9.95375 189.752C10.4109 189.936 10.9533 190.001 11.4623 189.93C11.7186 189.9 11.9598 189.836 12.1709 189.742C12.382 189.648 12.5586 189.527 12.6898 189.385C12.821 189.242 12.904 189.083 12.9337 188.916C12.9634 188.749 12.9392 188.578 12.8626 188.413C11.8885 185.876 10.9145 183.34 10.0625 180.85C10.0148 180.681 9.91433 180.519 9.76714 180.373C9.61995 180.227 9.42932 180.1 9.20695 180.001C8.98458 179.902 8.73522 179.832 8.47442 179.795C8.21362 179.759 7.94685 179.757 7.69072 179.79C7.30988 179.868 6.98355 180.023 6.75825 180.232C6.53296 180.441 6.42021 180.695 6.43608 180.956L6.12509 180.938ZM13.2346 97.3743C13.2242 97.6508 13.3498 97.927 13.5935 98.1639C13.8372 98.4008 14.1867 98.5863 14.5924 98.6941C15.0897 98.8236 15.636 98.8237 16.1116 98.6943C16.5872 98.5649 16.9534 98.3166 17.1299 98.0039C18.455 95.6425 19.9046 93.2884 21.4761 90.9815C21.6624 90.6683 21.6543 90.315 21.4536 89.992C21.2529 89.6689 20.8742 89.3998 20.3929 89.2381C19.8882 89.0928 19.3253 89.0789 18.827 89.1994C18.3288 89.3199 17.9357 89.5649 17.7335 89.8811C16.1619 92.188 14.7076 94.6217 13.3825 96.9831L13.2346 97.3743ZM12.3424 196.181L12.3166 196.619C13.5417 199.131 14.829 201.646 16.1809 204.126C16.2675 204.289 16.4031 204.442 16.5799 204.575C16.7566 204.708 16.9709 204.818 17.2102 204.899C17.4496 204.98 17.7091 205.03 17.9737 205.047C18.2383 205.064 18.5026 205.047 18.7512 204.997C19.0015 204.95 19.2319 204.871 19.4292 204.764C19.6264 204.658 19.7864 204.526 19.8999 204.376C20.0133 204.226 20.0779 204.062 20.0899 203.892C20.1018 203.723 20.0609 203.552 19.9694 203.389C18.6152 200.95 17.3255 198.474 16.1625 195.966C15.9991 195.639 15.6435 195.359 15.1738 195.189C14.7041 195.019 14.1586 194.972 13.6568 195.059C13.3519 195.156 13.0981 195.306 12.9223 195.493C12.7464 195.679 12.6551 195.896 12.658 196.12L12.3424 196.181ZM22.4845 83.4026C22.4757 83.6526 22.5748 83.9032 22.7709 84.1264C22.967 84.3497 23.2526 84.5371 23.5959 84.6679C23.8655 84.8069 24.1807 84.903 24.5136 84.9476C24.8465 84.9923 25.1869 84.9841 25.505 84.9238C25.823 84.8635 26.109 84.753 26.3374 84.602C26.5659 84.4509 26.73 84.264 26.8152 84.0577C28.5064 81.8379 30.2622 79.5819 32.1401 77.373C32.2651 77.2283 32.3427 77.0675 32.3685 76.8999C32.3943 76.7323 32.3678 76.5613 32.2904 76.3967C32.213 76.2322 32.0863 76.0774 31.9177 75.9414C31.7491 75.8054 31.5419 75.6908 31.3081 75.6044C30.836 75.4365 30.2911 75.3884 29.7866 75.4704C29.282 75.5524 28.8566 75.758 28.5982 76.0445C26.718 78.2932 24.8976 80.5854 23.1418 82.8414L22.4845 83.4026ZM20.516 211.06C20.4469 211.227 20.4364 211.404 20.4855 211.578C22.0264 214.028 23.6294 216.482 25.297 218.9C25.4011 219.059 25.5523 219.205 25.7418 219.329C25.9312 219.454 26.1552 219.554 26.4007 219.624C26.6463 219.694 26.9084 219.733 27.1721 219.739C27.4357 219.744 27.6956 219.716 27.9366 219.655C28.4308 219.53 28.817 219.281 29.0111 218.962C29.2053 218.644 29.1915 218.283 28.9729 217.957C27.3029 215.579 25.6975 213.165 24.2165 210.758C24.1237 210.597 23.9835 210.448 23.804 210.32C23.6244 210.191 23.409 210.085 23.1701 210.008C22.9311 209.93 22.6733 209.884 22.4114 209.87C22.1495 209.856 21.8887 209.875 21.6439 209.926C21.3808 210.045 21.1697 210.205 21.0283 210.391C20.8869 210.578 20.8195 210.786 20.8318 210.998L20.516 211.06ZM33.8164 70.1134C33.7999 70.339 33.8773 70.5666 34.0406 70.7729C34.2039 70.9793 34.4472 71.157 34.7457 71.2879C34.9728 71.3851 35.2255 71.4531 35.4887 71.4878C35.752 71.5225 36.0205 71.5232 36.2785 71.4899C36.5365 71.4567 36.7787 71.39 36.9908 71.294C37.2028 71.1981 37.3804 71.0747 37.5132 70.9311C39.573 68.813 41.695 66.6985 44.1233 64.6821C44.4018 64.3985 44.4969 64.0517 44.3895 63.7115C44.2822 63.3713 43.9804 63.0629 43.5448 62.8484C43.3254 62.7485 43.0798 62.6763 42.822 62.6361C42.5643 62.5959 42.2995 62.5886 42.0428 62.6143C41.7861 62.64 41.5426 62.6984 41.3262 62.7861C41.1099 62.8739 40.9249 62.9892 40.782 63.1254C38.538 65.1927 36.4137 67.3471 34.1626 69.5339C34.0209 69.6875 33.9262 69.8582 33.8832 70.0374L33.8164 70.1134ZM30.4643 225.483C30.3587 225.686 30.3456 225.907 30.4267 226.121C32.2833 228.51 34.1422 230.859 36.2499 233.222C36.5267 233.526 36.9666 233.757 37.4812 233.869C37.9957 233.981 38.5466 233.965 39.0231 233.826C39.4809 233.664 39.817 233.393 39.9635 233.068C40.1101 232.743 40.0563 232.387 39.813 232.073C37.8273 229.756 35.9661 227.447 33.9828 225.091C33.8678 224.932 33.7059 224.789 33.5065 224.669C33.3072 224.549 33.0746 224.454 32.8223 224.391C32.57 224.327 32.3031 224.296 32.0376 224.3C31.7721 224.303 31.5133 224.341 31.2764 224.411C31.1138 224.554 31.0021 224.718 30.9487 224.895C30.8952 225.071 30.9013 225.254 30.9665 225.433L30.4643 225.483ZM47.0342 57.6552C47.0283 57.8701 47.1044 58.0855 47.256 58.2826C47.4076 58.4798 47.6299 58.6526 47.9038 58.7862C48.3456 58.9878 48.8802 59.0798 49.4021 59.044C49.924 59.0081 50.3956 58.847 50.724 58.5925C53.0255 56.6086 55.5137 54.6356 57.9972 52.7424C58.3144 52.4826 58.4572 52.1488 58.3959 51.8101C58.3345 51.4714 58.0736 51.1539 57.6675 50.9235C57.4655 50.8086 57.2323 50.7193 56.9814 50.6609C56.7304 50.6024 56.4667 50.5759 56.2052 50.5828C55.9438 50.5897 55.6898 50.6299 55.4579 50.7011C55.2261 50.7723 55.0209 50.873 54.8542 50.9976C52.3062 52.927 49.8158 54.9398 47.4497 56.9599C47.2358 57.1351 47.1141 57.3511 47.1011 57.5791L47.0342 57.6552ZM42.5602 239.473C42.5534 239.731 42.6688 239.989 42.8912 240.212C45.0036 242.497 47.2428 244.748 49.4843 246.96C49.6302 247.112 49.8212 247.244 50.0456 247.35C50.2701 247.455 50.5233 247.531 50.7896 247.573C51.056 247.615 51.3298 247.622 51.5945 247.593C51.8593 247.565 52.1093 247.502 52.3292 247.407C52.5442 247.318 52.7271 247.201 52.8676 247.064C53.0082 246.926 53.1034 246.77 53.148 246.606C53.1925 246.441 53.1854 246.271 53.127 246.104C53.0687 245.938 52.9603 245.779 52.8081 245.636C50.5666 243.424 48.3778 241.376 46.3369 238.936C46.041 238.643 45.5863 238.429 45.0681 238.339C44.5499 238.249 44.0084 238.289 43.5567 238.452C43.2907 238.546 43.0673 238.681 42.9054 238.845C42.7436 239.01 42.6482 239.199 42.6271 239.397L42.5602 239.473ZM62.5065 46.1296C62.4994 46.3207 62.5573 46.5127 62.676 46.6924C62.7948 46.872 62.9715 47.035 63.1942 47.17C63.3922 47.2867 63.6219 47.3785 63.8703 47.44C64.1188 47.5015 64.3811 47.5315 64.6422 47.5283C64.9032 47.5251 65.158 47.4888 65.3918 47.4214C65.6257 47.354 65.8339 47.257 66.005 47.1357C68.6058 45.3694 71.4027 43.4546 74.183 41.8189C74.5699 41.5953 74.7975 41.2788 74.8177 40.9365C74.8379 40.5942 74.649 40.2531 74.2911 39.9856C74.1127 39.8518 73.8962 39.741 73.6543 39.6597C73.4125 39.5785 73.1503 39.5285 72.8834 39.5127C72.6164 39.497 72.3502 39.5159 72.1005 39.5681C71.8508 39.6204 71.6226 39.705 71.4298 39.817C68.5802 41.5687 65.7833 43.4834 63.1227 45.2062C62.9189 45.3268 62.7587 45.4747 62.6522 45.6405C62.5457 45.8064 62.4953 45.9865 62.5041 46.1695L62.5065 46.1296ZM56.1961 252.754C56.1735 253.044 56.3109 253.335 56.5844 253.577C59.0149 255.76 61.5746 257.87 64.0719 259.977C64.2503 260.111 64.4668 260.222 64.7087 260.303C64.9505 260.384 65.2127 260.434 65.4796 260.45C65.7466 260.466 66.0128 260.447 66.2625 260.394C66.5123 260.342 66.7403 260.258 66.9332 260.146C67.3157 259.929 67.5414 259.618 67.5612 259.283C67.581 258.947 67.3933 258.613 67.0389 258.352C64.5391 256.285 62.0488 254.059 59.6112 251.996C59.2525 251.738 58.7575 251.576 58.2335 251.545C57.7094 251.514 57.1987 251.617 56.8122 251.831C56.6239 251.934 56.4725 252.062 56.3673 252.207C56.2622 252.352 56.2055 252.511 56.2008 252.674L56.1961 252.754ZM79.6066 35.5799C79.6208 35.9246 79.8218 36.2617 80.1746 36.5331C80.5513 36.7858 81.0543 36.9433 81.5842 36.9745C82.114 37.0058 82.6321 36.9084 83.0358 36.7018C85.9406 35.0733 88.9698 33.4523 91.9943 31.9109C92.3768 31.6939 92.6025 31.3839 92.6223 31.0481C92.6421 30.7124 92.4544 30.378 92.1 30.1175C91.7334 29.8682 91.2408 29.7126 90.7213 29.6819C90.2019 29.6513 89.6942 29.748 89.3009 29.9525C86.1497 31.5264 82.8717 33.1329 80.1512 34.8122C79.8417 35.0188 79.6505 35.2883 79.6066 35.5799ZM71.7543 265.189C71.7408 265.528 71.9206 265.866 72.26 266.138C75.0109 268.18 77.8263 270.186 80.6464 272.111C81.0155 272.373 81.521 272.536 82.0552 272.568C82.5895 272.599 83.1106 272.496 83.5078 272.28C83.8903 272.063 84.1159 271.753 84.1357 271.417C84.1555 271.082 83.9679 270.747 83.6135 270.487C80.8556 268.564 78.1 266.602 75.409 264.604C75.0399 264.343 74.5344 264.179 74.0002 264.148C73.4659 264.116 72.9448 264.22 72.5476 264.436C72.2956 264.499 72.0715 264.597 71.8913 264.725C71.7111 264.853 71.5793 265.006 71.5054 265.174L71.7543 265.189ZM98.318 26.2849C98.2906 26.5871 98.4269 26.8917 98.704 27.1474C99.0731 27.4086 99.5786 27.5723 100.113 27.6038C100.647 27.6353 101.168 27.5321 101.565 27.3161C104.707 25.9016 107.974 24.4945 111.295 23.2105C111.725 23.0293 112.022 22.7446 112.122 22.4155C112.223 22.0864 112.121 21.738 111.836 21.4428C111.696 21.2925 111.511 21.1609 111.291 21.0561C111.072 20.9514 110.824 20.8758 110.563 20.8341C110.302 20.7924 110.033 20.7855 109.773 20.8138C109.513 20.8422 109.268 20.9051 109.053 20.9988C105.667 22.3189 102.65 23.7408 99.1325 25.1731C98.7815 25.2562 98.4786 25.4018 98.2579 25.5936C98.0372 25.7854 97.9072 26.0159 97.8825 26.2592L98.318 26.2849ZM88.9837 276.802C88.9554 276.99 88.9974 277.182 89.1062 277.362C89.2149 277.542 89.3873 277.706 89.6092 277.839C92.6206 279.696 95.6345 281.513 98.775 283.298C98.9769 283.413 99.2101 283.502 99.461 283.56C99.712 283.619 99.9757 283.645 100.237 283.638C100.499 283.631 100.753 283.591 100.984 283.52C101.216 283.449 101.422 283.348 101.588 283.224C101.931 282.967 102.096 282.629 102.046 282.281C101.996 281.934 101.737 281.606 101.323 281.368C98.3022 279.671 95.2884 277.853 92.3368 276.04C91.9677 275.779 91.4624 275.615 90.9281 275.583C90.3938 275.552 89.8728 275.655 89.4756 275.871C89.2295 275.97 89.0202 276.101 88.8608 276.257C88.7013 276.412 88.5951 276.589 88.5484 276.776L88.9837 276.802ZM118.323 18.3458C118.285 18.5866 118.381 18.833 118.594 19.0417C118.87 19.3463 119.315 19.5756 119.833 19.6809C120.352 19.7862 120.903 19.759 121.369 19.6051C124.748 18.4046 128.249 17.2512 131.743 16.2173C131.978 16.1481 132.187 16.0488 132.357 15.925C132.528 15.8013 132.656 15.6557 132.735 15.4966C132.814 15.3375 132.842 15.1681 132.818 14.9984C132.794 14.8286 132.717 14.6618 132.593 14.5078C132.338 14.2016 131.914 13.9644 131.409 13.8452C130.904 13.7261 130.358 13.7344 129.884 13.8683C126.323 14.9782 122.76 16.1279 119.262 17.2414C118.918 17.3268 118.623 17.4745 118.413 17.6674C118.203 17.8602 118.085 18.0903 118.074 18.3312L118.323 18.3458ZM107.525 287.333C107.507 287.544 107.572 287.758 107.713 287.954C107.854 288.151 108.067 288.325 108.333 288.46C111.543 290.129 114.879 291.765 118.22 293.322C118.656 293.527 119.19 293.617 119.708 293.573C120.225 293.528 120.682 293.353 120.981 293.085C121.28 292.809 121.394 292.464 121.297 292.122C121.201 291.78 120.902 291.469 120.464 291.255C117.183 289.741 113.909 288.109 110.697 286.48C110.487 286.369 110.247 286.284 109.991 286.232C109.735 286.179 109.468 286.16 109.205 286.174C108.943 286.188 108.69 286.236 108.463 286.315C108.235 286.394 108.036 286.502 107.879 286.634C107.523 286.805 107.25 287.038 107.09 287.307L107.525 287.333ZM139.616 11.8424C139.52 12.033 139.507 12.2396 139.581 12.4402C139.802 12.7553 140.205 13.0077 140.701 13.1419C141.196 13.2761 141.743 13.2811 142.223 13.1558C145.898 12.2127 149.572 11.3094 153.238 10.5257C153.483 10.4753 153.707 10.3928 153.896 10.2832C154.085 10.1735 154.235 10.0391 154.338 9.88802C154.44 9.73694 154.492 9.57241 154.491 9.40437C154.49 9.23633 154.436 9.06822 154.332 8.91047C154.239 8.74994 154.099 8.60113 153.92 8.47243C153.74 8.34372 153.525 8.2377 153.286 8.16047C153.047 8.08323 152.789 8.03623 152.527 8.02226C152.265 8.00829 152.004 8.02764 151.76 8.07907C148.029 8.89896 144.293 9.79852 140.555 10.738C140.181 10.8079 139.853 10.9469 139.609 11.1383C139.365 11.3296 139.217 11.5652 139.181 11.8168L139.616 11.8424ZM127.508 296.709C127.498 296.934 127.578 297.16 127.741 297.366C127.904 297.571 128.144 297.749 128.438 297.883C131.932 299.315 135.469 300.724 139.049 302.108C139.282 302.196 139.536 302.255 139.799 302.281C140.061 302.306 140.326 302.298 140.578 302.257C140.83 302.216 141.065 302.143 141.267 302.042C141.47 301.941 141.637 301.813 141.759 301.668C141.884 301.523 141.962 301.362 141.988 301.195C142.014 301.027 141.987 300.856 141.91 300.691C141.832 300.527 141.706 300.372 141.537 300.236C141.368 300.1 141.161 299.985 140.927 299.899C137.448 298.574 133.91 297.166 130.562 295.729C130.335 295.632 130.082 295.564 129.819 295.529C129.556 295.494 129.287 295.494 129.029 295.527C128.771 295.56 128.529 295.627 128.317 295.723C128.105 295.819 127.927 295.942 127.795 296.086C127.45 296.222 127.195 296.433 127.073 296.683L127.508 296.709ZM162.071 6.8072L162.045 7.24553C162.222 7.57671 162.589 7.85747 163.069 8.02772C163.548 8.19797 164.103 8.2442 164.613 8.15669C167.452 7.64416 170.351 7.17515 173.245 6.78584L176.077 6.39293C176.586 6.32164 177.019 6.12192 177.281 5.83755C177.544 5.55318 177.614 5.20738 177.477 4.87582C177.415 4.70856 177.303 4.54904 177.146 4.4067C176.99 4.26435 176.793 4.14201 176.566 4.04674C176.339 3.95147 176.087 3.88514 175.825 3.85177C175.564 3.8184 175.297 3.81868 175.041 3.85241L172.209 4.24531C169.188 4.66714 166.289 5.13621 163.326 5.64141C162.828 5.68757 162.382 5.84818 162.07 6.09403C161.758 6.33987 161.599 6.65455 161.624 6.98076L162.071 6.8072ZM185.413 3.66384L185.395 3.98274C185.508 4.32011 185.818 4.62307 186.26 4.8281C186.702 5.03313 187.241 5.12421 187.764 5.08213C191.594 4.70796 195.545 4.38097 199.554 4.13735C199.811 4.1239 200.059 4.07704 200.282 3.99959C200.505 3.92213 200.699 3.81572 200.852 3.68661C201.005 3.55751 201.115 3.40832 201.174 3.24816C201.233 3.088 201.241 2.92013 201.196 2.75446C201.125 2.41626 200.849 2.10293 200.429 1.88322C200.009 1.66351 199.479 1.55535 198.956 1.5826C194.885 1.82255 190.871 2.14587 186.979 2.51638C186.703 2.5101 186.431 2.53965 186.179 2.60323C185.927 2.66681 185.7 2.76308 185.512 2.88639C185.325 3.0097 185.179 3.15743 185.085 3.32083C184.992 3.48423 184.951 3.65993 184.966 3.8374L185.413 3.66384ZM209.281 2.19115L209.27 2.39047C209.327 2.72712 209.588 3.04272 209.995 3.26887C210.402 3.49503 210.924 3.61347 211.446 3.59845C215.613 3.49746 219.612 3.41328 223.445 3.34587C223.705 3.34649 223.96 3.31311 224.194 3.24777C224.429 3.18244 224.637 3.0865 224.808 2.96573C224.978 2.84496 225.107 2.70179 225.186 2.54503C225.265 2.38827 225.293 2.22115 225.268 2.05364C225.255 1.88451 225.19 1.71698 225.076 1.5607C224.962 1.40442 224.803 1.2624 224.607 1.14301C224.411 1.02363 224.182 0.929182 223.934 0.865076C223.685 0.80097 223.422 0.768516 223.159 0.769554C219.1 0.810239 215.1 0.894385 211.036 1.01478C210.734 0.974032 210.426 0.979436 210.136 1.03055C209.846 1.08167 209.582 1.17705 209.367 1.30883C209.152 1.4406 208.992 1.60501 208.899 1.78856C208.807 1.97212 208.784 2.16969 208.834 2.36481L209.281 2.19115ZM233.325 1.96854C233.339 2.13766 233.404 2.30519 233.518 2.46147C233.631 2.61776 233.791 2.75977 233.987 2.87916C234.183 2.99854 234.412 3.09299 234.66 3.1571C234.909 3.2212 235.172 3.25365 235.434 3.25262C239.415 3.48724 243.415 3.403 247.403 3.51806C247.67 3.52878 247.935 3.50498 248.182 3.4479C248.429 3.39082 248.653 3.30166 248.84 3.18584C249.027 3.07001 249.174 2.92984 249.273 2.77366C249.371 2.61748 249.418 2.44845 249.411 2.27671C249.413 2.10523 249.362 1.93333 249.259 1.77127C249.157 1.60922 249.006 1.46038 248.816 1.33348C248.625 1.20657 248.399 1.1042 248.15 1.03259C247.902 0.960988 247.636 0.921569 247.369 0.916629C243.326 0.678341 239.266 0.718996 235.274 0.68364C234.943 0.621967 234.597 0.615014 234.27 0.663424C233.943 0.711834 233.646 0.814099 233.405 0.960304C233.165 1.10651 232.991 1.29177 232.899 1.49866C232.806 1.70555 232.799 1.92717 232.878 2.14223L233.325 1.96854ZM257.442 2.63003C257.432 2.79917 257.475 2.9698 257.571 3.1313C257.666 3.29279 257.811 3.44177 257.997 3.56894C258.183 3.69611 258.405 3.79883 258.65 3.87065C258.895 3.94248 259.158 3.98184 259.422 3.98645C263.465 4.22474 267.446 4.45936 271.427 4.69398C271.955 4.7251 272.469 4.62061 272.856 4.40345C273.244 4.18628 273.473 3.87433 273.492 3.5361C273.494 3.36812 273.445 3.19974 273.346 3.04065C273.248 2.88155 273.102 2.73485 272.918 2.60888C272.734 2.48291 272.516 2.38012 272.274 2.30647C272.033 2.23283 271.774 2.18977 271.513 2.17968C267.532 1.94506 263.489 1.70678 259.446 1.46849C259.129 1.40727 258.798 1.39614 258.482 1.43611C258.166 1.47608 257.874 1.56595 257.633 1.69776C257.391 1.82957 257.206 1.99924 257.095 2.19207C256.984 2.3849 256.949 2.59497 256.995 2.80372L257.442 2.63003ZM281.591 3.81332C281.57 4.14869 281.75 4.48347 282.094 4.74906C282.438 5.01466 282.92 5.19108 283.441 5.24221C287.236 5.46583 291.216 5.70036 295.36 6.34451C295.894 6.39818 296.427 6.31668 296.847 6.11727C297.267 5.91785 297.54 5.61636 297.608 5.27727C297.647 4.93823 297.486 4.59516 297.155 4.31633C296.825 4.03751 296.349 3.84333 295.824 3.77241C291.609 3.28401 287.51 2.92245 283.407 2.64065C282.879 2.60953 282.365 2.71414 281.978 2.93131C281.59 3.14847 281.362 3.46043 281.342 3.79866L281.591 3.81332ZM305.525 6.50374C305.503 6.81586 305.66 7.12852 305.968 7.38251C306.275 7.6365 306.71 7.81417 307.192 7.88171C311.027 8.46768 314.922 9.09716 318.937 9.81369C319.461 9.90342 320.007 9.8598 320.46 9.69228C320.913 9.52477 321.237 9.24654 321.362 8.91677C321.473 8.58449 321.376 8.23034 321.091 7.92967C320.805 7.62901 320.354 7.40555 319.834 7.307C315.757 6.58681 311.799 5.95366 307.902 5.36402C307.369 5.28695 306.822 5.34668 306.378 5.53019C305.935 5.7137 305.632 6.00619 305.535 6.34427L305.525 6.50374ZM329.124 10.654C329.101 10.9495 329.244 11.2463 329.527 11.4906C329.811 11.7348 330.216 11.9102 330.669 11.9848C334.43 12.7663 338.314 13.5951 342.195 14.4637C342.718 14.5792 343.279 14.5587 343.757 14.4069C344.234 14.255 344.587 13.9842 344.739 13.6538C344.872 13.328 344.801 12.9749 344.539 12.6686C344.278 12.3623 343.847 12.1269 343.338 12.0116C339.395 11.1393 335.511 10.3106 331.625 9.52166C331.111 9.43122 330.572 9.46974 330.121 9.62925C329.67 9.78877 329.342 10.057 329.203 10.3787L329.124 10.654ZM352.289 15.8185C352.282 16.1002 352.417 16.3807 352.672 16.6189C352.928 16.8571 353.291 17.0404 353.709 17.1419C357.463 18.043 361.275 19.0275 365.087 20.012C365.333 20.0818 365.595 20.1192 365.859 20.122C366.122 20.1248 366.38 20.0929 366.618 20.0283C366.856 19.9636 367.068 19.8674 367.241 19.7459C367.414 19.6244 367.545 19.4801 367.625 19.3218C367.72 19.1674 367.764 19.0004 367.754 18.831C367.744 18.6616 367.681 18.4935 367.567 18.3369C367.454 18.1803 367.292 18.0387 367.094 17.9206C366.895 17.8026 366.663 17.7108 366.412 17.6507C362.603 16.6263 358.791 15.6417 354.974 14.7369C354.724 14.6733 354.459 14.6419 354.195 14.6443C353.931 14.6467 353.674 14.6829 353.437 14.7509C353.201 14.8189 352.99 14.9172 352.818 15.0402C352.646 15.1631 352.516 15.3082 352.435 15.467L352.289 15.8185ZM375.029 21.8377C375.005 22.1098 375.118 22.3845 375.351 22.6214C375.584 22.8582 375.925 23.0448 376.325 23.1537C380.069 24.2143 383.75 25.311 387.428 26.4476C387.669 26.5266 387.929 26.5746 388.194 26.5889C388.459 26.6033 388.723 26.5837 388.97 26.5313C389.217 26.4788 389.443 26.3946 389.634 26.2835C389.825 26.1724 389.978 26.0366 390.083 25.8842C390.285 25.5724 390.284 25.2154 390.082 24.8897C389.88 24.5639 389.491 24.2951 389 24.1407C385.322 23.0041 381.581 21.864 377.774 20.7998C377.286 20.6548 376.739 20.6373 376.252 20.7511C375.766 20.8648 375.38 21.1006 375.179 21.4067L375.029 21.8377ZM397.217 28.7442C397.206 28.9995 397.311 29.2555 397.52 29.4808C397.728 29.7061 398.031 29.8911 398.391 30.0131C402.064 31.2294 405.673 32.4819 409.155 33.7669C409.389 33.86 409.648 33.9215 409.916 33.9477C410.183 33.9739 410.454 33.9641 410.709 33.9189C410.964 33.8737 411.199 33.7942 411.399 33.6853C411.598 33.5765 411.758 33.4407 411.867 33.2869C411.991 33.145 412.067 32.987 412.092 32.8223C412.117 32.6576 412.09 32.4895 412.012 32.3282C411.934 32.1668 411.807 32.0155 411.639 31.8832C411.471 31.7509 411.265 31.6403 411.033 31.558C407.429 30.2258 403.82 28.9734 400.087 27.7136C399.85 27.6337 399.593 27.5839 399.331 27.567C399.069 27.5501 398.808 27.5665 398.562 27.6151C398.315 27.6638 398.089 27.7437 397.895 27.8505C397.702 27.9572 397.545 28.0885 397.434 28.237L397.217 28.7442ZM411.16 64.3586C411.007 66.9491 411.412 69.6123 411.759 72.1922C411.771 72.3637 411.838 72.5338 411.956 72.6914C412.075 72.8491 412.241 72.9911 412.445 73.1083C412.649 73.2256 412.887 73.3156 413.143 73.3727C413.399 73.4298 413.668 73.4528 413.932 73.4402C414.196 73.436 414.452 73.398 414.687 73.3285C414.922 73.259 415.131 73.1594 415.301 73.0355C415.471 72.9115 415.599 72.7657 415.677 72.6065C415.756 72.4473 415.784 72.2778 415.759 72.1081C415.407 69.6078 415.248 66.9991 415.21 64.4773C415.212 64.3059 415.16 64.134 415.058 63.9719C414.956 63.8099 414.805 63.6609 414.615 63.534C414.424 63.4071 414.198 63.3049 413.949 63.2333C413.701 63.1616 413.435 63.1222 413.168 63.1173C412.841 63.0613 412.503 63.0568 412.181 63.1039C411.86 63.1511 411.566 63.2486 411.324 63.3879C411.082 63.5273 410.9 63.7043 410.794 63.9037C410.687 64.1031 410.659 64.3187 410.712 64.5322L411.16 64.3586ZM411.615 56.6271C411.578 56.9577 411.745 57.2915 412.079 57.5576C412.413 57.8237 412.888 58.0011 413.404 58.0521C413.937 58.0946 414.464 58.0024 414.873 57.7949C415.281 57.5875 415.539 57.2813 415.591 56.9413C415.744 54.3509 416.454 51.8333 417.157 49.4353C417.233 49.0971 417.104 48.7463 416.797 48.4535C416.489 48.1608 416.027 47.9479 415.503 47.8581C415.242 47.8204 414.976 47.816 414.718 47.8452C414.461 47.8744 414.218 47.9365 414.003 48.0281C413.789 48.1196 413.607 48.2388 413.469 48.3786C413.33 48.5183 413.238 48.6758 413.198 48.842C412.49 51.3197 411.962 53.9281 411.608 56.7466L411.615 56.6271ZM413.305 79.8418L413.289 80.1208C413.998 82.7358 414.95 85.3292 416.139 87.8872C416.291 88.2223 416.638 88.5131 417.105 88.6975C417.572 88.8819 418.123 88.9453 418.64 88.8744C418.894 88.8354 419.13 88.7638 419.335 88.6639C419.54 88.564 419.71 88.4378 419.835 88.2926C419.96 88.1473 420.037 87.9859 420.062 87.8179C420.087 87.6499 420.059 87.4784 419.981 87.3137C418.836 84.8366 417.921 82.3254 417.241 79.7938C417.192 79.6245 417.092 79.4613 416.946 79.3139C416.799 79.1664 416.61 79.0376 416.39 78.9352C416.169 78.8328 415.921 78.7587 415.66 78.7173C415.399 78.6759 415.131 78.6682 414.871 78.6944C414.597 78.6878 414.328 78.7176 414.079 78.7818C413.829 78.846 413.607 78.9433 413.423 79.0676C413.24 79.1919 413.101 79.3405 413.015 79.5042C412.928 79.6679 412.896 79.8432 412.921 80.0191L413.305 79.8418ZM415.996 41.6084C415.979 41.8912 416.109 42.1748 416.366 42.4144C416.623 42.654 416.993 42.8359 417.416 42.9318C417.922 43.0362 418.461 43.0142 418.922 42.8704C419.383 42.7266 419.731 42.4719 419.896 42.1583C420.466 40.9522 421.161 39.7534 421.851 38.6343C424.594 39.7557 427.334 40.917 429.95 42.0709C430.41 42.2723 430.966 42.3525 431.496 42.2937C432.026 42.235 432.487 42.0423 432.777 41.7577C433.032 41.4721 433.107 41.13 432.988 40.7979C432.869 40.4658 432.565 40.1672 432.134 39.9601C429.334 38.7553 426.412 37.5033 423.363 36.2838L424.17 35.2917C424.398 34.9866 424.426 34.6296 424.247 34.2974C424.068 33.9653 423.697 33.6845 423.214 33.5156C422.977 33.4358 422.72 33.3861 422.458 33.3692C422.197 33.3523 421.935 33.3685 421.689 33.4172C421.442 33.4658 421.216 33.5458 421.023 33.6525C420.829 33.7593 420.672 33.8907 420.561 34.0392L419.279 35.6832L418.949 35.9838C418.849 36.201 418.835 36.4337 418.909 36.6612C417.949 38.1243 417.108 39.6744 416.328 41.2681L415.996 41.6084ZM420.41 94.8574C420.335 95.0509 420.323 95.2543 420.375 95.4552C422.145 97.9684 424.419 100.335 427.138 102.492C427.507 102.754 428.012 102.917 428.547 102.949C429.081 102.98 429.602 102.877 429.999 102.661C430.198 102.553 430.359 102.42 430.473 102.269C430.586 102.117 430.65 101.951 430.66 101.78C430.67 101.609 430.626 101.437 430.531 101.273C430.436 101.11 430.292 100.958 430.107 100.828C427.656 98.8387 425.582 96.6747 423.933 94.3853C423.824 94.2289 423.668 94.0865 423.475 93.967C423.281 93.8475 423.054 93.7533 422.806 93.6901C422.559 93.6269 422.297 93.596 422.036 93.5993C421.775 93.6027 421.521 93.6402 421.289 93.7096C420.868 93.7979 420.514 93.977 420.285 94.2176C420.055 94.4583 419.964 94.7464 420.025 95.0348L420.41 94.8574ZM426.71 28.203C426.696 28.4042 426.756 28.6072 426.886 28.7956C427.016 28.984 427.212 29.1523 427.458 29.2867C427.88 29.505 428.407 29.6151 428.932 29.5939C429.456 29.5726 429.936 29.4218 430.273 29.1727C432.032 27.7991 434.053 26.5755 436.293 25.5283C437.063 25.1737 437.835 24.7794 438.667 24.4285C439.036 24.2059 439.252 23.8972 439.271 23.5644C439.291 23.2316 439.113 22.8995 438.773 22.6352C438.595 22.5013 438.378 22.3904 438.136 22.3091C437.894 22.2279 437.632 22.1779 437.365 22.1622C437.098 22.1464 436.832 22.1653 436.582 22.2176C436.333 22.2698 436.105 22.3545 435.912 22.4665C435.08 22.8174 434.307 23.2119 433.473 23.6026C431.089 24.8005 428.917 26.16 426.992 27.6596C426.657 27.8466 426.424 28.0979 426.325 28.3802L426.71 28.203ZM439.109 45.5302C439.091 45.7414 439.155 45.955 439.296 46.1518C439.437 46.3486 439.65 46.5224 439.916 46.6575C443.313 48.3373 446.522 50.0063 449.421 51.6568C449.853 51.8781 450.39 51.9899 450.925 51.9694C451.459 51.9489 451.951 51.7977 452.299 51.5464C452.464 51.42 452.586 51.2724 452.659 51.1122C452.731 50.9519 452.753 50.7823 452.722 50.6131C452.692 50.4439 452.609 50.2784 452.48 50.1264C452.351 49.9743 452.177 49.8387 451.969 49.7273C449.011 48.0333 445.928 46.3319 442.282 44.6374C441.838 44.4298 441.293 44.338 440.766 44.3816C440.239 44.4253 439.77 44.6009 439.46 44.8709C439.236 44.9567 439.051 45.0779 438.923 45.2239C438.795 45.3698 438.726 45.536 438.724 45.7074L439.109 45.5302ZM436.651 106.292C436.634 106.575 436.765 106.859 437.022 107.098C437.279 107.338 437.648 107.52 438.071 107.616C439.5 107.94 440.977 108.148 442.467 108.235C445.466 108.386 448.444 108.11 451.19 107.429C451.432 107.371 451.652 107.281 451.835 107.166C452.018 107.051 452.162 106.912 452.259 106.758C452.355 106.603 452.401 106.437 452.395 106.267C452.389 106.098 452.331 105.929 452.224 105.771C452.126 105.613 451.981 105.468 451.797 105.345C451.614 105.221 451.395 105.121 451.154 105.051C450.914 104.981 450.656 104.942 450.397 104.936C450.138 104.931 449.883 104.959 449.647 105.019C447.425 105.545 445.031 105.758 442.619 105.644C441.464 105.586 440.318 105.424 439.215 105.164C438.964 105.107 438.701 105.082 438.44 105.09C438.18 105.098 437.927 105.139 437.697 105.211C437.467 105.283 437.263 105.384 437.098 105.509C436.933 105.633 436.809 105.779 436.735 105.937L436.651 106.292ZM445.228 19.0165C445.212 19.2874 445.326 19.5596 445.557 19.7957C445.698 19.9445 445.882 20.0753 446.099 20.1805C446.316 20.2856 446.561 20.3631 446.82 20.4081C447.079 20.4532 447.346 20.465 447.607 20.4429C447.867 20.4208 448.115 20.3652 448.337 20.2794C451.658 18.9955 455.099 17.7986 458.586 16.8843C458.816 16.8115 459.019 16.7094 459.184 16.5838C459.348 16.4582 459.47 16.3115 459.543 16.1523C459.616 15.9931 459.639 15.8245 459.61 15.6561C459.581 15.4877 459.501 15.3229 459.374 15.1711C459.248 15.019 459.078 14.8828 458.873 14.7702C458.669 14.6577 458.434 14.5711 458.182 14.5154C457.93 14.4597 457.666 14.4358 457.405 14.4455C457.145 14.4551 456.892 14.498 456.663 14.5715C453.104 15.6415 449.599 16.8745 446.151 18.191C445.799 18.2543 445.488 18.3826 445.256 18.5605C445.025 18.7383 444.881 18.9581 444.843 19.1937L445.228 19.0165ZM457.715 56.0248C457.706 56.2063 457.757 56.3891 457.865 56.561C457.973 56.7329 458.136 56.8899 458.343 57.0216C461.154 58.8884 463.789 60.8601 466.234 62.9254C466.603 63.1866 467.109 63.3503 467.643 63.3818C468.177 63.4133 468.698 63.3101 469.095 63.0941C469.478 62.877 469.704 62.5671 469.723 62.2314C469.743 61.8956 469.556 61.5612 469.201 61.3007C466.636 59.1483 463.881 57.0896 460.951 55.1356C460.772 55.0018 460.556 54.891 460.314 54.8097C460.072 54.7285 459.81 54.6785 459.543 54.6628C459.276 54.647 459.01 54.6659 458.76 54.7181C458.51 54.7704 458.282 54.855 458.09 54.967C457.792 55.1004 457.563 55.2868 457.429 55.5051C457.295 55.7234 457.26 55.9648 457.33 56.202L457.715 56.0248ZM458.428 102.177C458.413 102.498 458.57 102.817 458.874 103.083C459.251 103.336 459.754 103.493 460.284 103.525C460.813 103.556 461.331 103.459 461.735 103.252C464.938 101.674 467.922 99.9238 470.657 98.0189C470.829 97.8977 470.959 97.7547 471.041 97.598C471.124 97.4414 471.156 97.2741 471.137 97.1058C471.118 96.9376 471.048 96.7716 470.93 96.6174C470.813 96.4632 470.65 96.3238 470.452 96.2071C470.042 95.9684 469.511 95.8378 468.974 95.8436C468.437 95.8493 467.936 95.9908 467.579 96.2377C465.016 98.0326 462.204 99.6732 459.176 101.141C458.827 101.252 458.537 101.423 458.337 101.637C458.138 101.851 458.036 102.099 458.043 102.354L458.428 102.177ZM466.461 12.4695C466.392 12.6501 466.381 12.8399 466.429 13.0275C466.533 13.1866 466.684 13.3326 466.873 13.4569C467.063 13.5813 467.287 13.6815 467.532 13.7518C467.778 13.8221 468.04 13.861 468.304 13.8664C468.567 13.8717 468.827 13.8433 469.068 13.7829C472.739 12.9195 476.465 12.1793 480.249 11.5224C480.751 11.4349 481.167 11.2212 481.406 10.9279C481.646 10.6347 481.689 10.2859 481.527 9.95812C481.453 9.79274 481.329 9.63685 481.162 9.4994C480.995 9.36195 480.789 9.24568 480.556 9.15751C480.323 9.06933 480.068 9.01101 479.805 8.98581C479.542 8.96061 479.276 8.96911 479.024 9.0108C475.114 9.70013 471.26 10.4728 467.525 11.3723C467.076 11.4294 466.683 11.5895 466.417 11.8235C466.151 12.0574 466.03 12.3496 466.076 12.6468L466.461 12.4695ZM472.441 68.8101C472.444 69.0372 472.538 69.2632 472.715 69.4661C474.538 71.6902 475.911 74.0435 476.796 76.4653C476.852 76.6314 476.957 76.7906 477.107 76.9338C477.256 77.077 477.446 77.2013 477.667 77.2997C477.887 77.3981 478.133 77.4686 478.39 77.5073C478.648 77.5459 478.912 77.5519 479.168 77.5249C479.428 77.5033 479.675 77.4473 479.895 77.3604C480.114 77.2735 480.301 77.1576 480.444 77.0198C480.586 76.8819 480.682 76.7252 480.724 76.5592C480.767 76.3933 480.755 76.2216 480.69 76.0549C479.736 73.3941 478.251 70.8062 476.275 68.3563C476.01 68.0457 475.57 67.8082 475.051 67.6953C474.532 67.5824 473.976 67.6031 473.502 67.7529C473.098 67.8198 472.742 67.9667 472.484 68.1734C472.226 68.3801 472.078 68.6366 472.061 68.9077L472.441 68.8101ZM473.877 91.0501C473.868 91.3002 473.967 91.5506 474.163 91.7739C474.359 91.9972 474.645 92.1845 474.988 92.3153C475.459 92.4786 476.001 92.5194 476.497 92.4289C476.993 92.3384 477.403 92.1238 477.638 91.8316C479.597 89.4238 480.872 86.7926 481.405 84.0553C481.44 83.8892 481.424 83.7185 481.356 83.5529C481.289 83.3873 481.172 83.2302 481.012 83.0907C480.852 82.9511 480.652 82.8318 480.424 82.7397C480.196 82.6476 479.944 82.5846 479.683 82.5542C479.421 82.5165 479.153 82.5136 478.895 82.5456C478.637 82.5776 478.396 82.6439 478.185 82.7404C477.974 82.8368 477.799 82.9613 477.67 83.1061C477.542 83.2509 477.463 83.4127 477.438 83.5816C476.916 85.9828 475.789 88.2932 474.101 90.4234C473.77 90.6076 473.557 90.8637 473.497 91.1477L473.877 91.0501ZM489.406 8.6628L489.387 8.9817C489.513 9.32106 489.838 9.62237 490.293 9.82109C490.748 10.0198 491.297 10.1002 491.821 10.045C495.653 9.63098 499.602 9.34378 503.482 9.17253C503.747 9.16382 504.002 9.12105 504.235 9.04678C504.468 8.9725 504.672 8.86823 504.837 8.74005C505.002 8.61187 505.123 8.46242 505.194 8.30045C505.264 8.13849 505.283 7.96729 505.249 7.79697C505.177 7.45623 504.903 7.13955 504.486 6.91358C504.069 6.6876 503.54 6.56988 503.011 6.58523C499.006 6.74914 494.93 7.06889 490.974 7.47559C490.438 7.47463 489.935 7.60841 489.571 7.84848C489.207 8.08855 489.011 8.41577 489.026 8.76035L489.406 8.6628ZM513.372 7.6359C513.37 7.80738 513.422 7.97925 513.524 8.1413C513.626 8.30335 513.777 8.45233 513.968 8.57923C514.158 8.70613 514.385 8.80838 514.633 8.87999C514.882 8.95159 515.147 8.99104 515.415 8.99598C517.965 9.14629 520.453 9.29292 523.003 9.44323C524.434 9.52754 525.864 9.61186 527.295 9.69618C527.556 9.7169 527.818 9.70455 528.066 9.65975C528.315 9.61494 528.544 9.53853 528.741 9.43503C528.939 9.33153 529.1 9.20296 529.217 9.05654C529.333 8.91012 529.403 8.74874 529.421 8.58172C529.447 8.41196 529.42 8.23863 529.341 8.07201C529.262 7.90538 529.133 7.74881 528.96 7.61177C528.788 7.47474 528.576 7.36004 528.338 7.27436C528.099 7.18867 527.839 7.13382 527.572 7.11308C526.079 7.0251 524.649 6.94078 523.156 6.85279C520.543 6.69882 517.931 6.54486 515.318 6.39089C515.01 6.34481 514.694 6.34554 514.394 6.39302C514.094 6.44049 513.82 6.53337 513.593 6.66413C513.367 6.79489 513.194 6.95979 513.09 7.14558C512.985 7.33137 512.952 7.53279 512.992 7.73345L513.372 7.6359ZM537.414 9.57272C537.392 9.88484 537.549 10.1975 537.856 10.4515C538.164 10.7055 538.599 10.8832 539.081 10.9507C542.918 11.4968 546.811 12.1661 550.697 12.955C550.952 13.0051 551.218 13.0226 551.478 13.0065C551.739 12.9905 551.989 12.9413 552.214 12.8616C552.439 12.7819 552.635 12.6733 552.791 12.5423C552.946 12.4112 553.058 12.2602 553.119 12.098C553.25 11.7771 553.177 11.4291 552.914 11.1292C552.651 10.8293 552.221 10.6017 551.716 10.4956C547.705 9.69933 543.691 8.98282 539.729 8.42937C539.468 8.39166 539.201 8.38728 538.944 8.41647C538.687 8.44566 538.444 8.50779 538.229 8.59935C538.014 8.69092 537.833 8.81014 537.694 8.94987C537.556 9.0896 537.464 9.24709 537.423 9.41329L537.414 9.57272ZM560.731 14.2662C560.633 14.4973 560.644 14.7456 560.764 14.9801C560.883 15.2147 561.105 15.4252 561.403 15.5855C565.09 16.5627 568.833 17.6631 572.446 18.8358C572.683 18.9157 572.94 18.9655 573.202 18.9824C573.464 18.9993 573.725 18.9829 573.971 18.9343C574.218 18.8856 574.444 18.8057 574.638 18.6989C574.831 18.5922 574.988 18.4609 575.099 18.3124C575.307 18.0002 575.318 17.6423 575.128 17.3115C574.939 16.9808 574.564 16.7021 574.08 16.5326C570.407 15.3163 566.54 14.2087 562.792 13.188C562.279 13.058 561.716 13.0615 561.229 13.1976C560.741 13.3337 560.368 13.5914 560.19 13.9145L560.731 14.2662ZM582.652 21.477C582.634 21.7074 582.718 21.9399 582.893 22.1481C583.069 22.3564 583.329 22.532 583.644 22.6551C587.121 24.0198 590.467 25.4968 593.746 27.0498C594.199 27.2542 594.748 27.3401 595.277 27.2889C595.806 27.2378 596.27 27.0536 596.571 26.7763C596.723 26.6426 596.83 26.4885 596.883 26.3239C596.937 26.1592 596.936 25.9874 596.881 25.8191C596.827 25.6508 596.72 25.4897 596.566 25.3458C596.413 25.2018 596.217 25.0782 595.99 24.9825C592.651 23.386 589.181 21.9017 585.651 20.3739C585.18 20.1908 584.627 20.1298 584.109 20.204C583.591 20.2781 583.15 20.4816 582.881 20.7706L582.652 21.477ZM602.573 30.8492C602.573 31.0439 602.64 31.2386 602.77 31.4191C602.9 31.5996 603.088 31.7615 603.323 31.8932C606.406 33.5946 609.357 35.4083 612.244 37.2581C612.613 37.5193 613.119 37.683 613.653 37.7145C614.187 37.7459 614.708 37.6427 615.106 37.4267C615.304 37.3191 615.465 37.1856 615.579 37.0343C615.692 36.883 615.756 36.7168 615.766 36.5458C615.776 36.3748 615.733 36.2023 615.638 36.0387C615.543 35.8751 615.398 35.7236 615.214 35.5934C612.267 33.7001 609.191 31.8792 606.048 30.1343C605.63 29.8996 605.094 29.7753 604.556 29.7885C604.017 29.8017 603.52 29.9513 603.172 30.2048C602.712 30.364 602.364 30.6272 602.192 30.9468L602.573 30.8492ZM620.01 42.1148C619.999 42.2772 620.038 42.4413 620.126 42.5974C620.213 42.7535 620.346 42.8986 620.518 43.0245C623.147 45.0191 625.709 47.0897 628.082 49.1892C628.237 49.3297 628.433 49.4506 628.657 49.5449C628.882 49.6393 629.13 49.7053 629.389 49.7392C629.648 49.773 629.912 49.774 630.166 49.7421C630.42 49.7102 630.659 49.6461 630.869 49.5534C631.08 49.4608 631.257 49.3414 631.392 49.2021C631.527 49.0627 631.617 48.9062 631.655 48.7414C631.694 48.5765 631.681 48.4066 631.618 48.2413C631.554 48.0761 631.442 47.9187 631.286 47.7783C628.855 45.5954 626.234 43.4814 623.547 41.4035C623.178 41.1423 622.673 40.9786 622.139 40.9471C621.604 40.9156 621.083 41.0189 620.686 41.2349C620.408 41.3363 620.169 41.4759 619.987 41.6445C619.805 41.8131 619.683 42.0066 619.63 42.2123L620.01 42.1148ZM634.482 54.9652C634.484 55.2174 634.576 55.4693 634.751 55.701C636.866 57.9452 638.854 60.2219 640.591 62.5238C640.706 62.6819 640.868 62.8253 641.067 62.9455C641.266 63.0658 641.499 63.1604 641.751 63.2237C642.004 63.2871 642.271 63.3178 642.536 63.3143C642.802 63.3107 643.06 63.273 643.297 63.2032C643.771 63.0625 644.13 62.8058 644.3 62.4876C644.471 62.1693 644.438 61.8142 644.209 61.4973C642.353 59.1083 640.369 56.7519 638.381 54.4751C638.245 54.3234 638.065 54.1891 637.85 54.0803C637.636 53.9714 637.392 53.8902 637.133 53.8414C636.874 53.7926 636.605 53.7772 636.342 53.7961C636.08 53.815 635.828 53.8679 635.603 53.9515C635.161 53.9887 634.759 54.1219 634.463 54.3297C634.168 54.5374 633.996 54.8073 633.976 55.0953L634.482 54.9652ZM645.318 69.161L645.29 69.6392C646.762 72.0614 648.034 74.5261 649.099 77.0223C649.264 77.3507 649.616 77.6326 650.082 77.809C650.548 77.9855 651.093 78.043 651.602 77.9696C652.116 77.89 652.55 77.6827 652.812 77.3918C653.074 77.101 653.143 76.7495 653.005 76.4125C651.842 73.9045 650.557 71.3493 649.081 68.8628C648.881 68.535 648.493 68.2638 648 68.1077C647.507 67.9515 646.949 67.9227 646.446 68.0276C645.992 68.0838 645.593 68.2418 645.317 68.4741C645.041 68.7063 644.906 68.9982 644.936 69.2985L645.318 69.161Z" fill="url(#paint0_linear_2_3165)" fill-opacity="0.8"/>
<defs>
<linearGradient id="paint0_linear_2_3165" x1="647.393" y1="173.181" x2="0.52763" y2="135.057" gradientUnits="userSpaceOnUse">
<stop stop-color="#C0242A"/>
<stop offset="0.947917"/>
</linearGradient>
</defs>
</svg>
