<svg width="1440" height="2074" viewBox="0 0 1440 2074" fill="none" xmlns="http://www.w3.org/2000/svg">
<path fill-rule="evenodd" clip-rule="evenodd" d="M1058.73 36.5826C1127.34 -29.4848 1270.67 -9.18338 1441.33 123.047C1448.03 492.562 1440.08 373.328 1446.77 558.622C1440.08 893.761 1446.77 678.929 1440.08 1002.79C1440.08 1328.26 1466.91 1430.41 1440.08 1994.24C1225.73 2094.97 1154 2085.78 1058.73 2045.35C963.46 2004.92 602.301 1904.64 389.607 1791.81C156.966 1668.39 101.338 1577.77 -11 1363.17C-10.9993 1070.46 -11 1019.98 -10.9998 696.115C-11 414.146 401.477 660.178 667.056 533.595C875.515 434.238 843.066 227.778 1058.73 36.5826Z" fill="#E3F5FE"/>
</svg>
