<svg width="568" height="252" viewBox="0 0 568 252" fill="none" xmlns="http://www.w3.org/2000/svg">
<path d="M8.70289 207.218L7.54515 205.03C7.48221 204.911 7.46306 204.771 7.48902 204.617C7.51493 204.464 7.58536 204.3 7.69601 204.135C7.80672 203.971 7.95542 203.809 8.13337 203.66C8.31127 203.511 8.51477 203.378 8.73177 203.268C8.94684 203.154 9.17235 203.065 9.39493 203.007C9.6175 202.948 9.8326 202.921 10.0275 202.927C10.2223 202.933 10.393 202.972 10.5292 203.042C10.6655 203.111 10.7646 203.21 10.8207 203.332C11.7733 205.133 12.7111 206.905 13.6344 208.65C13.7741 208.881 13.7418 209.194 13.5445 209.523C13.3471 209.853 13.0002 210.173 12.5774 210.415C12.1421 210.646 11.6743 210.776 11.27 210.779C10.8657 210.782 10.5555 210.657 10.4028 210.431L8.70289 207.218ZM5.27702 199.53C4.32448 197.73 3.92385 195.638 3.37262 193.625C3.3356 193.495 3.34243 193.347 3.39279 193.189C3.44316 193.031 3.53597 192.867 3.66584 192.706C3.79575 192.545 3.96011 192.39 4.14939 192.251C4.33868 192.111 4.54909 191.99 4.76833 191.894C4.9871 191.796 5.21099 191.724 5.42701 191.684C5.64307 191.643 5.84692 191.635 6.02673 191.658C6.20655 191.682 6.35878 191.737 6.47449 191.821C6.59015 191.905 6.66699 192.016 6.70059 192.148C7.23716 194.133 7.87409 196.064 8.59664 197.915C8.68401 198.173 8.59521 198.502 8.34929 198.831C8.10337 199.159 7.71974 199.463 7.28038 199.675C7.06571 199.78 6.84343 199.859 6.62644 199.909C6.40941 199.958 6.20193 199.976 6.0158 199.963C5.82967 199.949 5.66861 199.904 5.54184 199.83C5.41507 199.756 5.32504 199.654 5.27702 199.53ZM13.7914 215.622C13.6697 215.399 13.7014 215.104 13.8805 214.794C14.0597 214.483 14.3737 214.179 14.7627 213.938C15.1858 213.694 15.6522 213.548 16.0625 213.529C16.4727 213.511 16.7941 213.622 16.9582 213.84C17.9565 215.12 18.9755 216.317 20.1389 217.545L20.9467 218.465C21.044 218.563 21.1002 218.686 21.1119 218.827C21.1236 218.968 21.0907 219.124 21.015 219.286C20.9393 219.449 20.8224 219.614 20.6711 219.772C20.5199 219.93 20.3373 220.078 20.1343 220.206C19.7323 220.46 19.2757 220.624 18.8635 220.662C18.4513 220.701 18.1168 220.612 17.9326 220.414L17.0747 219.521C15.926 218.321 14.9069 217.123 13.8354 215.705L13.7914 215.622ZM1.7421 187.752L1.6688 187.614C1.2974 185.577 0.946944 183.458 0.711408 181.314C0.686807 181.034 0.832898 180.702 1.11953 180.386C1.40621 180.069 1.81141 179.792 2.25143 179.613C2.47681 179.523 2.70416 179.462 2.91961 179.434C3.13505 179.406 3.33411 179.412 3.50483 179.451C3.67556 179.49 3.81428 179.561 3.91265 179.661C4.01103 179.76 4.06694 179.885 4.07713 180.029C4.34819 182.119 4.61927 184.209 5.04079 186.219C5.08969 186.49 4.96188 186.821 4.68529 187.14C4.40871 187.459 4.00597 187.74 3.56556 187.922C3.19902 188.038 2.84658 188.072 2.5624 188.017C2.27821 187.962 2.07819 187.823 1.99296 187.619L1.7421 187.752ZM22.3494 224.636C22.2464 224.429 22.2747 224.162 22.4296 223.879C22.5845 223.597 22.8565 223.317 23.1995 223.087C23.3926 222.948 23.6067 222.83 23.8284 222.738C24.0502 222.646 24.2748 222.584 24.4882 222.554C24.7016 222.524 24.8992 222.528 25.0685 222.565C25.2379 222.603 25.3753 222.672 25.4723 222.77C27.0184 224.115 28.6942 225.462 30.4703 226.755C30.5828 226.84 30.6569 226.951 30.6885 227.082C30.7201 227.213 30.7085 227.361 30.6544 227.518C30.6003 227.675 30.5048 227.838 30.3733 227.997C30.2418 228.156 30.0769 228.309 29.888 228.446C29.5006 228.727 29.0383 228.929 28.6003 229.009C28.1623 229.088 27.7831 229.038 27.5441 228.871C25.768 227.577 24.0776 226.203 22.5022 224.803L22.3494 224.636ZM0.251674 175.105L0.134457 174.883C0.0787461 172.715 0.00831659 170.519 0.0884686 168.243C0.0970443 167.952 0.280733 167.616 0.599177 167.308C0.917625 167 1.34486 166.745 1.78736 166.6C2.00859 166.523 2.2281 166.476 2.43231 166.462C2.63646 166.448 2.82106 166.468 2.97465 166.52C3.12829 166.571 3.24771 166.654 3.32553 166.762C3.40336 166.871 3.43796 167.003 3.42715 167.15C3.43274 169.345 3.43825 171.54 3.52948 173.654C3.54385 173.793 3.51267 173.949 3.43778 174.11C3.36283 174.271 3.2459 174.435 3.09407 174.592C2.94225 174.749 2.7588 174.895 2.55509 175.021C2.35144 175.148 2.13184 175.252 1.90999 175.327C1.5708 175.417 1.25215 175.432 0.999395 175.368C0.746691 175.304 0.572739 175.166 0.502481 174.972L0.251674 175.105ZM32.7823 232.338C32.6855 232.144 32.701 231.897 32.8265 231.634C32.9521 231.37 33.1813 231.103 33.4818 230.869C33.8509 230.585 34.3018 230.375 34.7356 230.285C35.1695 230.195 35.5509 230.232 35.7963 230.389C37.6434 231.574 39.5909 232.706 41.6241 233.757C41.8778 233.911 41.9838 234.167 41.9212 234.476C41.8587 234.785 41.632 235.124 41.2864 235.425C40.9162 235.723 40.456 235.95 40.0063 236.055C39.5566 236.16 39.154 236.135 38.8862 235.986C36.8531 234.935 34.8763 233.747 33.0292 232.562L32.7823 232.338ZM0.51936 161.776L0.358183 161.471C0.567931 159.198 0.827844 156.898 1.15259 154.599C1.17179 154.448 1.23506 154.286 1.33853 154.123C1.44205 153.96 1.58375 153.798 1.75539 153.648C1.92704 153.498 2.12513 153.362 2.33815 153.248C2.55117 153.134 2.77483 153.045 2.99595 152.985C3.2175 152.923 3.43293 152.891 3.62974 152.892C3.82656 152.892 4.00079 152.925 4.14215 152.989C4.28357 153.053 4.38928 153.146 4.4532 153.263C4.51712 153.38 4.53794 153.519 4.51441 153.671C4.17501 155.942 3.90041 158.214 3.74083 160.461C3.71042 160.759 3.50611 161.096 3.17274 161.399C2.83936 161.702 2.4041 161.945 1.96232 162.076C1.67966 162.123 1.42233 162.113 1.21765 162.047C1.01291 161.98 0.868378 161.86 0.799408 161.698L0.51936 161.776ZM44.8747 238.809C44.7876 238.633 44.7894 238.415 44.8801 238.179C44.9707 237.943 45.1466 237.699 45.3882 237.473C45.5663 237.27 45.7958 237.08 46.0563 236.92C46.3169 236.76 46.6005 236.635 46.8822 236.556C47.1639 236.477 47.4352 236.446 47.6719 236.467C47.9087 236.487 48.1037 236.558 48.2399 236.673C50.3441 237.616 52.513 238.56 54.7677 239.423C54.917 239.479 55.0325 239.565 55.1072 239.675C55.182 239.785 55.2147 239.918 55.2033 240.066C55.1919 240.214 55.1367 240.374 55.041 240.536C54.9452 240.699 54.8107 240.86 54.6454 241.012C54.3093 241.314 53.8749 241.558 53.4323 241.693C52.9898 241.829 52.5729 241.845 52.2683 241.738C49.999 240.848 47.7651 239.903 45.5961 238.959L44.8747 238.809ZM2.51807 147.956C2.4077 147.863 2.34266 147.74 2.32756 147.596C2.81748 145.245 3.3576 142.868 3.96252 140.492C3.99762 140.338 4.07581 140.175 4.19247 140.013C4.30917 139.85 4.46208 139.692 4.64227 139.548C4.82251 139.403 5.02652 139.274 5.24238 139.169C5.4583 139.064 5.68181 138.984 5.89992 138.935C6.34794 138.835 6.74623 138.865 7.00798 139.019C7.26973 139.173 7.37366 139.437 7.29725 139.755C6.67768 142.104 6.12295 144.453 5.66854 146.75C5.6432 146.901 5.57503 147.062 5.46791 147.223C5.36074 147.384 5.21679 147.543 5.04421 147.691C4.87163 147.838 4.6738 147.971 4.46211 148.081C4.25042 148.192 4.02907 148.279 3.81062 148.336C3.55557 148.352 3.33039 148.318 3.15414 148.239C2.97794 148.159 2.85586 148.036 2.79828 147.879L2.51807 147.956ZM58.4676 243.988C58.382 243.833 58.3732 243.64 58.4422 243.429C58.5111 243.218 58.6552 242.997 58.8599 242.788C59.0162 242.631 59.2031 242.485 59.4093 242.359C59.6155 242.233 59.8369 242.129 60.0605 242.054C60.284 241.979 60.5052 241.933 60.7108 241.921C60.9165 241.908 61.1025 241.928 61.2578 241.98C63.6337 242.709 66.0598 243.41 68.7073 243.924C69.0277 244.02 69.2168 244.232 69.2368 244.518C69.2567 244.803 69.106 245.14 68.8149 245.462C68.6658 245.618 68.4861 245.764 68.2862 245.892C68.0862 246.02 67.87 246.127 67.6499 246.207C67.4299 246.287 67.2103 246.339 67.0037 246.359C66.7972 246.38 66.6077 246.368 66.4463 246.325C63.9346 245.704 61.4939 244.975 58.9382 244.271C58.7722 244.216 58.6396 244.129 58.547 244.017L58.4676 243.988ZM6.12669 133.781C5.97482 133.676 5.89357 133.522 5.89221 133.338C6.66231 130.91 7.44705 128.509 8.43243 126.003C8.56408 125.678 8.85348 125.343 9.24243 125.065C9.63138 124.787 10.091 124.586 10.5288 124.503C10.9583 124.444 11.3221 124.509 11.5468 124.686C11.7716 124.863 11.8406 125.139 11.7401 125.458C10.8404 127.884 10.041 130.256 9.15594 132.71C9.1115 132.868 9.02363 133.033 8.89748 133.196C8.77129 133.359 8.60948 133.516 8.42148 133.658C8.23342 133.801 8.02307 133.925 7.80284 134.025C7.58255 134.125 7.35679 134.197 7.13904 134.238C6.95933 134.198 6.81459 134.123 6.71432 134.017C6.614 133.911 6.56049 133.777 6.55737 133.624L6.12669 133.781ZM73.3519 247.847C73.2785 247.695 73.2726 247.511 73.3348 247.311C73.397 247.112 73.5254 246.902 73.7088 246.701C74.0091 246.386 74.4209 246.115 74.8631 245.94C75.3054 245.765 75.7459 245.699 76.0982 245.756C78.6308 246.295 81.3139 246.754 83.9677 247.158C84.3125 247.222 84.5368 247.407 84.5942 247.674C84.6516 247.94 84.5377 248.268 84.276 248.59C84.146 248.75 83.982 248.904 83.7935 249.042C83.605 249.18 83.3958 249.301 83.1778 249.396C82.9598 249.492 82.7374 249.561 82.5233 249.599C82.3092 249.637 82.1077 249.643 81.9304 249.618C79.2118 249.213 76.5141 248.726 73.9167 248.186C73.6843 248.143 73.5149 248.034 73.4314 247.876L73.3519 247.847ZM11.6463 119.091C11.5582 118.908 11.5712 118.679 11.6835 118.433C12.6982 115.982 13.8279 113.505 14.9723 111.056C15.0442 110.891 15.1595 110.723 15.3111 110.561C15.4627 110.399 15.6474 110.247 15.8539 110.114C16.0603 109.982 16.2842 109.872 16.5118 109.79C16.7394 109.709 16.9659 109.658 17.1774 109.641C17.3834 109.623 17.5717 109.636 17.7316 109.681C17.8914 109.726 18.0197 109.801 18.109 109.902C18.1983 110.003 18.2468 110.128 18.2518 110.27C18.2567 110.412 18.218 110.568 18.1379 110.728C16.9935 113.177 15.8407 115.489 14.9348 118.024C14.7839 118.348 14.4769 118.677 14.078 118.94C13.679 119.204 13.2192 119.384 12.7944 119.441C12.5451 119.476 12.3176 119.465 12.1316 119.409C11.9455 119.353 11.8063 119.254 11.7257 119.12L11.6463 119.091ZM89.7995 250.169C89.7326 250.035 89.7191 249.875 89.7598 249.701C89.8005 249.526 89.8944 249.341 90.035 249.159C90.1612 248.999 90.3216 248.844 90.507 248.705C90.6924 248.565 90.8993 248.443 91.1158 248.345C91.3323 248.247 91.5542 248.175 91.7687 248.133C91.9831 248.092 92.1861 248.081 92.3659 248.102C95.076 248.37 97.9954 248.669 100.812 248.774C101.203 248.786 101.492 248.925 101.617 249.163C101.743 249.401 101.696 249.718 101.486 250.048C101.382 250.212 101.238 250.375 101.065 250.527C100.891 250.678 100.691 250.814 100.475 250.928C100.26 251.042 100.034 251.131 99.8114 251.19C99.5886 251.248 99.3733 251.275 99.1784 251.269C96.2676 251.107 93.3483 250.809 90.6026 250.595C90.396 250.587 90.2165 250.543 90.0758 250.464C89.9349 250.386 89.8359 250.277 89.7848 250.142L89.7995 250.169ZM18.6629 104.318C18.5518 104.118 18.5723 103.856 18.7209 103.578C20.0305 101.077 21.4697 98.5785 22.8587 96.1065C22.9632 95.9419 23.1066 95.7791 23.2802 95.6278C23.4539 95.4766 23.6544 95.3399 23.8697 95.2259C24.085 95.112 24.3107 95.0232 24.5335 94.9647C24.7563 94.9062 24.9715 94.8792 25.1664 94.8855C25.5514 94.8942 25.8365 95.0299 25.96 95.2632C26.0835 95.4966 26.0352 95.8087 25.8258 96.1319C24.4222 98.5762 23.0772 101.131 21.7237 103.549C21.51 103.872 21.1531 104.179 20.7304 104.402C20.3078 104.626 19.8535 104.749 19.4661 104.744C19.2777 104.742 19.1119 104.708 18.9788 104.644C18.8457 104.581 18.7482 104.488 18.6922 104.373L18.6629 104.318ZM107.279 251.166C107.181 250.913 107.239 250.594 107.444 250.263C107.674 249.937 108.039 249.631 108.466 249.405C108.894 249.179 109.352 249.049 109.751 249.042C112.668 249.094 115.686 249.093 118.674 249.036C119.059 249.045 119.344 249.181 119.468 249.414C119.591 249.647 119.543 249.959 119.333 250.283C119.11 250.602 118.753 250.904 118.334 251.125C117.916 251.347 117.466 251.473 117.076 251.477C113.973 251.559 110.755 251.667 107.974 251.507C107.652 251.478 107.408 251.358 107.279 251.166ZM27.5363 89.4129C27.417 89.1745 27.4577 88.8632 27.6508 88.5371C29.2698 86.0142 30.9535 83.4925 32.6666 81.0263C32.8879 80.697 33.2528 80.3852 33.6837 80.1572C34.1147 79.9292 34.5777 79.8029 34.9744 79.8052C35.3594 79.8139 35.6445 79.9496 35.768 80.183C35.8914 80.4163 35.8433 80.7284 35.6339 81.0516C33.9709 83.4913 32.3227 85.9587 30.7392 88.4273C30.5179 88.7566 30.153 89.0684 29.7221 89.2964C29.2912 89.5244 28.8282 89.6506 28.4314 89.6483C28.2034 89.7 27.9868 89.7153 27.7974 89.6929C27.6079 89.6706 27.4502 89.6112 27.3356 89.5191L27.5363 89.4129ZM125.688 250.642C125.569 250.436 125.585 250.165 125.732 249.875C125.953 249.546 126.318 249.234 126.749 249.006C127.18 248.778 127.643 248.652 128.039 248.654C131.084 248.461 134.229 248.215 137.38 247.859C137.793 247.824 138.128 247.914 138.316 248.112C138.504 248.309 138.531 248.599 138.39 248.92C138.323 249.082 138.212 249.247 138.064 249.407C137.917 249.566 137.736 249.716 137.534 249.846C137.331 249.977 137.112 250.085 136.888 250.165C136.665 250.244 136.442 250.293 136.235 250.308C133.02 250.663 130.075 250.803 126.715 251.127C126.399 251.202 126.103 251.214 125.859 251.162C125.616 251.109 125.435 250.993 125.337 250.828L125.688 250.642ZM38.0512 74.455C37.9679 74.331 37.9413 74.1771 37.9735 74.006C38.0057 73.8349 38.0959 73.6514 38.2367 73.4706C40.1296 70.9801 42.0372 68.5172 44.0597 66.0291C44.1898 65.869 44.3537 65.7154 44.5422 65.577C44.7307 65.4386 44.9399 65.3181 45.1579 65.2225C45.3759 65.127 45.5984 65.0582 45.8124 65.0201C46.0265 64.9821 46.2279 64.9754 46.4052 65.0007C46.7701 65.0528 47.0139 65.2325 47.0838 65.5008C47.1536 65.7691 47.0439 66.1044 46.7784 66.4341C44.8268 68.8138 42.9192 71.2765 41.0618 73.7128C40.8405 74.0421 40.4756 74.3539 40.0447 74.5819C39.6138 74.8099 39.1508 74.9361 38.7541 74.9338C38.5195 74.9575 38.3049 74.9438 38.1236 74.8934C37.9424 74.843 37.7982 74.757 37.7 74.6408L38.0512 74.455ZM144.732 248.649C144.624 248.49 144.625 248.277 144.734 248.045C144.865 247.72 145.159 247.385 145.553 247.11C145.948 246.835 146.411 246.642 146.845 246.574C150.017 246.136 153.274 245.618 156.488 245.016C156.704 244.976 156.908 244.967 157.088 244.99C157.268 245.013 157.421 245.068 157.537 245.152C157.653 245.236 157.73 245.347 157.764 245.478C157.798 245.609 157.788 245.758 157.735 245.916C157.622 246.234 157.347 246.568 156.969 246.847C156.591 247.127 156.137 247.331 155.703 247.417C152.41 247.989 149.102 248.534 145.86 249.08C145.548 249.151 145.259 249.158 145.024 249.101C144.789 249.043 144.618 248.923 144.532 248.755L144.732 248.649ZM49.9944 59.7693C49.9121 59.6246 49.8971 59.4466 49.9506 59.2512C50.0041 59.0558 50.1246 58.8491 50.3011 58.6499C52.4178 56.2182 54.6494 53.7612 56.9104 51.3596C57.2043 51.0451 57.6169 50.7749 58.0579 50.608C58.499 50.441 58.9327 50.3909 59.2644 50.4685C59.5992 50.5509 59.8032 50.7552 59.8327 51.0377C59.8621 51.3202 59.7149 51.6584 59.4222 51.9803C57.1967 54.3278 55.0152 56.7582 52.8838 59.1622C52.7462 59.3226 52.5751 59.4754 52.3805 59.6115C52.1859 59.7477 51.9718 59.8645 51.7506 59.9551C51.5295 60.0457 51.3057 60.1083 51.0925 60.1392C50.8793 60.1701 50.6809 60.1688 50.509 60.1352C50.1605 60.1488 49.8615 60.0866 49.6432 59.9551L49.9944 59.7693ZM164.382 245.129C164.241 245.029 164.165 244.886 164.162 244.714C164.244 244.402 164.496 244.066 164.862 243.78C165.228 243.493 165.678 243.279 166.114 243.184C169.449 242.448 172.769 241.684 176.045 240.837C176.263 240.779 176.474 240.752 176.665 240.758C176.856 240.764 177.023 240.803 177.156 240.872C177.288 240.941 177.384 241.039 177.437 241.16C177.49 241.281 177.499 241.422 177.463 241.575C177.438 241.726 177.37 241.887 177.262 242.048C177.155 242.21 177.011 242.369 176.839 242.516C176.666 242.663 176.468 242.796 176.257 242.907C176.045 243.017 175.824 243.104 175.605 243.161C172.264 244.007 168.894 244.798 165.509 245.561C165.178 245.654 164.863 245.681 164.601 245.637C164.338 245.593 164.14 245.482 164.03 245.315L164.382 245.129ZM63.4956 45.3583C63.4153 45.2006 63.4092 45.0074 63.4779 44.7973C63.5466 44.5871 63.6878 44.3672 63.888 44.1582C66.3149 41.7869 68.785 39.4163 71.2983 37.0466C71.4618 36.894 71.6532 36.7538 71.8617 36.6345C72.0701 36.5152 72.2914 36.4191 72.5125 36.3516C72.7336 36.2841 72.9502 36.2464 73.1498 36.2411C73.3494 36.2358 73.5282 36.2629 73.6754 36.3207C73.8248 36.3765 73.9401 36.4619 74.0149 36.5723C74.0897 36.6826 74.1224 36.8157 74.111 36.9635C74.0996 37.1113 74.0444 37.271 73.9486 37.4335C73.8529 37.5959 73.7184 37.7578 73.5531 37.9097C71.1038 40.1983 68.6335 42.5687 66.3286 44.8873C66.1722 45.0443 65.9855 45.1903 65.7793 45.3164C65.5731 45.4425 65.3517 45.5462 65.1281 45.6216C64.9046 45.6969 64.6835 45.7422 64.4778 45.7549C64.2722 45.7675 64.086 45.7472 63.9306 45.6952C63.6026 45.7301 63.325 45.6768 63.1444 45.5441L63.4956 45.3583ZM184.522 240.109L184.36 239.805C184.4 239.499 184.614 239.157 184.955 238.85C185.297 238.543 185.74 238.297 186.189 238.164C188.696 237.44 191.238 236.662 193.751 235.829L196.213 235.022C196.656 234.878 197.077 234.854 197.384 234.958C197.692 235.061 197.86 235.282 197.853 235.572C197.856 235.716 197.814 235.874 197.73 236.036C197.646 236.198 197.522 236.362 197.365 236.518C197.209 236.673 197.022 236.818 196.817 236.942C196.611 237.067 196.391 237.169 196.169 237.243L193.706 238.05C191.078 238.909 188.536 239.687 185.929 240.464C185.504 240.622 185.084 240.678 184.748 240.622C184.412 240.565 184.181 240.4 184.097 240.157L184.522 240.109ZM204.79 233.391L204.673 233.169C204.658 232.884 204.818 232.547 205.117 232.23C205.416 231.913 205.832 231.64 206.278 231.469C209.558 230.266 212.923 228.981 216.31 227.614C216.527 227.525 216.746 227.464 216.955 227.434C217.163 227.403 217.357 227.405 217.525 227.439C217.693 227.473 217.831 227.538 217.931 227.63C218.031 227.722 218.09 227.84 218.106 227.976C218.155 228.246 218.028 228.577 217.751 228.896C217.474 229.215 217.072 229.496 216.631 229.678C213.195 231.071 209.779 232.382 206.448 233.612C206.223 233.723 205.988 233.806 205.76 233.858C205.532 233.909 205.314 233.927 205.12 233.911C204.925 233.894 204.758 233.844 204.629 233.763C204.499 233.682 204.41 233.571 204.366 233.438L204.79 233.391ZM224.959 225.271L224.886 225.133C224.826 224.869 224.94 224.543 225.204 224.224C225.468 223.905 225.861 223.619 226.296 223.429C229.768 221.9 233.096 220.423 236.28 218.998C236.495 218.897 236.716 218.823 236.931 218.78C237.145 218.736 237.348 218.725 237.527 218.746C237.706 218.767 237.858 218.821 237.973 218.903C238.089 218.985 238.165 219.094 238.198 219.224C238.241 219.35 238.24 219.496 238.196 219.651C238.153 219.807 238.066 219.97 237.943 220.131C237.819 220.293 237.66 220.448 237.476 220.59C237.291 220.731 237.084 220.856 236.867 220.956C233.504 222.488 230.176 223.965 226.783 225.441C226.547 225.586 226.29 225.701 226.035 225.776C225.779 225.851 225.531 225.883 225.312 225.872C225.092 225.86 224.908 225.803 224.772 225.707C224.637 225.611 224.556 225.478 224.535 225.319L224.959 225.271ZM244.875 216.187C244.832 216.061 244.833 215.915 244.877 215.759C244.92 215.604 245.007 215.44 245.13 215.279C245.254 215.118 245.413 214.963 245.597 214.821C245.782 214.68 245.989 214.555 246.206 214.455C249.417 212.756 252.745 211.279 255.999 209.663C256.217 209.553 256.443 209.468 256.665 209.414C256.887 209.36 257.1 209.338 257.291 209.349C257.483 209.36 257.649 209.404 257.78 209.478C257.911 209.553 258.004 209.656 258.053 209.782C258.109 209.904 258.122 210.047 258.089 210.203C258.056 210.358 257.979 210.523 257.863 210.687C257.746 210.852 257.592 211.012 257.409 211.159C257.227 211.306 257.02 211.437 256.801 211.543C253.541 213.268 250.177 214.8 246.893 216.36C246.639 216.532 246.357 216.669 246.071 216.76C245.786 216.851 245.508 216.893 245.263 216.88C245.018 216.867 244.815 216.801 244.673 216.688C244.53 216.575 244.454 216.419 244.45 216.234L244.875 216.187ZM264.569 206.441C264.506 206.323 264.488 206.184 264.515 206.031C264.542 205.879 264.614 205.716 264.727 205.553C264.84 205.391 264.99 205.232 265.17 205.086C265.349 204.94 265.553 204.811 265.77 204.706C269.031 202.981 272.242 201.282 275.452 199.583C275.878 199.358 276.336 199.235 276.725 199.242C277.114 199.249 277.402 199.385 277.527 199.62C277.582 199.739 277.594 199.879 277.564 200.031C277.533 200.184 277.46 200.345 277.349 200.506C277.237 200.667 277.089 200.825 276.914 200.97C276.738 201.116 276.538 201.246 276.325 201.354C273.115 203.053 269.854 204.778 266.593 206.504C266.351 206.669 266.082 206.805 265.808 206.897C265.534 206.99 265.265 207.038 265.023 207.036C264.781 207.035 264.575 206.984 264.422 206.888C264.268 206.793 264.173 206.655 264.144 206.488L264.569 206.441ZM284.122 196.307C283.998 196.075 284.039 195.765 284.239 195.442C284.438 195.119 284.779 194.807 285.193 194.57C288.254 192.951 291.464 191.252 294.679 189.197C295.102 188.953 295.569 188.807 295.979 188.788C296.389 188.77 296.711 188.881 296.875 189.099C297.015 189.327 296.991 189.635 296.808 189.962C296.624 190.289 296.294 190.612 295.883 190.864C292.559 192.836 289.292 194.671 285.995 196.45C285.57 196.676 285.112 196.798 284.723 196.791C284.334 196.784 284.046 196.649 283.921 196.413L284.122 196.307ZM303.018 185.175C302.9 184.959 302.93 184.674 303.103 184.374C303.275 184.074 303.578 183.779 303.954 183.545C306.932 181.65 309.946 179.701 313.031 177.643C313.435 177.377 313.9 177.198 314.327 177.145C314.754 177.091 315.11 177.166 315.319 177.354C315.517 177.55 315.549 177.842 315.41 178.167C315.27 178.493 314.969 178.826 314.571 179.097C311.436 181.181 308.372 183.157 305.343 185.079C304.928 185.339 304.457 185.507 304.033 185.545C303.608 185.584 303.265 185.491 303.076 185.285L303.018 185.175ZM321.171 173.123C321.057 172.92 321.081 172.652 321.237 172.368C321.393 172.084 321.671 171.802 322.021 171.575C324.876 169.568 327.817 167.48 330.743 165.364C331.138 165.08 331.608 164.879 332.05 164.805C332.493 164.73 332.871 164.789 333.102 164.967C333.315 165.15 333.369 165.431 333.251 165.751C333.133 166.071 332.853 166.406 332.469 166.685C329.493 168.827 326.552 170.914 323.597 172.974C323.201 173.237 322.744 173.417 322.321 173.475C321.898 173.534 321.541 173.468 321.324 173.291L321.171 173.123ZM338.642 160.511C338.547 160.312 338.568 160.059 338.703 159.79C338.838 159.52 339.08 159.249 339.392 159.016C342.203 156.926 345.035 154.754 347.867 152.582C348.047 152.437 348.252 152.309 348.469 152.206C348.685 152.103 348.908 152.026 349.125 151.981C349.342 151.936 349.548 151.924 349.729 151.944C349.911 151.965 350.065 152.018 350.182 152.101C350.31 152.175 350.399 152.278 350.445 152.404C350.491 152.529 350.492 152.674 350.448 152.83C350.405 152.986 350.317 153.15 350.191 153.311C350.064 153.472 349.902 153.627 349.714 153.767C346.897 155.966 344.065 158.138 341.204 160.255C341.017 160.397 340.809 160.521 340.59 160.621C340.372 160.721 340.147 160.794 339.93 160.836C339.714 160.878 339.509 160.888 339.327 160.866C339.146 160.844 338.992 160.79 338.874 160.708L338.642 160.511ZM355.49 147.449C355.383 147.263 355.389 147.023 355.506 146.763C355.622 146.503 355.845 146.238 356.139 146.007C358.892 143.806 361.579 141.604 364.253 139.374C364.426 139.225 364.626 139.09 364.84 138.978C365.054 138.866 365.278 138.779 365.498 138.721C365.719 138.664 365.932 138.638 366.126 138.644C366.319 138.65 366.488 138.689 366.623 138.758C366.89 138.904 367.003 139.16 366.94 139.472C366.877 139.783 366.642 140.126 366.286 140.425C363.613 142.655 360.889 144.911 358.087 147.139C357.73 147.43 357.284 147.653 356.846 147.759C356.408 147.864 356.015 147.843 355.751 147.701L355.49 147.449ZM371.599 133.962C371.509 133.783 371.514 133.559 371.614 133.318C371.714 133.076 371.905 132.827 372.163 132.601C374.807 130.316 377.386 128.029 379.849 125.768C380.013 125.612 380.207 125.468 380.42 125.346C380.632 125.225 380.858 125.128 381.084 125.062C381.309 124.996 381.528 124.963 381.727 124.964C381.927 124.966 382.102 125.002 382.241 125.07C382.389 125.124 382.502 125.208 382.575 125.317C382.648 125.426 382.679 125.557 382.667 125.702C382.654 125.848 382.597 126.006 382.501 126.165C382.404 126.325 382.269 126.483 382.104 126.632C379.555 128.973 376.976 131.259 374.296 133.599C374.126 133.747 373.93 133.882 373.72 133.994C373.509 134.107 373.288 134.196 373.069 134.256C372.85 134.316 372.638 134.345 372.444 134.343C372.25 134.341 372.079 134.307 371.94 134.243L371.599 133.962ZM371.743 103.045C370.79 101.244 370.275 99.1775 369.738 97.1925C369.693 97.0648 369.695 96.9169 369.742 96.7583C369.789 96.5998 369.881 96.4339 370.012 96.2712C370.143 96.1086 370.311 95.9526 370.504 95.8132C370.697 95.6738 370.911 95.554 371.134 95.4613C371.353 95.3631 371.576 95.2917 371.793 95.2513C372.009 95.2108 372.212 95.2021 372.392 95.2258C372.572 95.2494 372.724 95.3048 372.84 95.3888C372.956 95.4728 373.033 95.5838 373.066 95.7152C373.573 97.6447 374.275 99.5777 375.048 101.402C375.104 101.524 375.117 101.668 375.084 101.823C375.051 101.979 374.974 102.144 374.858 102.308C374.741 102.472 374.587 102.633 374.404 102.78C374.222 102.927 374.015 103.057 373.796 103.163C373.545 103.329 373.267 103.462 372.987 103.552C372.707 103.642 372.433 103.685 372.189 103.678C371.944 103.671 371.738 103.614 371.586 103.512C371.435 103.41 371.343 103.265 371.319 103.092L371.743 103.045ZM374.586 108.418C374.45 108.194 374.481 107.891 374.672 107.572C374.862 107.252 375.198 106.942 375.607 106.707C376.034 106.472 376.499 106.335 376.902 106.327C377.305 106.319 377.616 106.44 377.767 106.663C378.72 108.464 380.109 109.997 381.455 111.448C381.625 111.662 381.63 111.963 381.47 112.291C381.31 112.619 380.996 112.95 380.592 113.216C380.389 113.343 380.171 113.449 379.949 113.527C379.727 113.605 379.507 113.654 379.3 113.67C379.094 113.687 378.906 113.672 378.747 113.624C378.589 113.577 378.462 113.5 378.376 113.396C377.001 111.89 375.733 110.221 374.542 108.335L374.586 108.418ZM368.574 91.1084L368.471 90.9145C368.222 88.7654 368.18 86.5383 368.346 84.2453C368.364 83.9466 368.557 83.6047 368.884 83.2928C369.211 82.9808 369.645 82.7234 370.095 82.5754C370.317 82.5059 370.534 82.4664 370.736 82.4593C370.937 82.4521 371.117 82.4774 371.267 82.5337C371.416 82.5899 371.531 82.6761 371.605 82.7871C371.679 82.898 371.711 83.0316 371.699 83.1801C371.545 85.3977 371.591 87.5516 371.837 89.63C371.851 89.7702 371.82 89.9259 371.747 90.0879C371.673 90.2499 371.558 90.4149 371.409 90.5733C371.259 90.7317 371.078 90.8803 370.876 91.0102C370.674 91.1401 370.455 91.2488 370.232 91.3299C370.008 91.4399 369.776 91.5222 369.55 91.5719C369.324 91.6216 369.109 91.6375 368.918 91.6187C368.728 91.5998 368.565 91.5467 368.442 91.4625C368.318 91.3783 368.236 91.2648 368.2 91.1292L368.574 91.1084ZM382.993 117.511C382.889 117.315 382.906 117.061 383.042 116.79C383.178 116.52 383.424 116.247 383.743 116.016C384.128 115.746 384.579 115.555 385.006 115.481C385.432 115.407 385.801 115.455 386.037 115.617C386.892 116.263 387.848 116.857 388.775 117.394C390.681 115.535 392.572 113.648 394.363 111.814C394.679 111.493 395.112 111.222 395.568 111.06C396.024 110.899 396.466 110.86 396.796 110.952C397.098 111.059 397.269 111.276 397.277 111.56C397.285 111.844 397.129 112.175 396.839 112.489C394.913 114.431 392.9 116.453 390.773 118.5L391.756 118.901C392.041 119.033 392.178 119.278 392.136 119.585C392.095 119.893 391.878 120.237 391.533 120.544C391.363 120.692 391.167 120.826 390.956 120.939C390.746 121.052 390.525 121.141 390.306 121.201C390.087 121.26 389.875 121.29 389.681 121.288C389.487 121.286 389.316 121.252 389.177 121.188L387.593 120.501L387.225 120.412C387.074 120.295 386.988 120.133 386.976 119.941C385.717 119.261 384.529 118.471 383.376 117.628L382.993 117.511ZM369.646 77.6015C369.523 77.4916 369.448 77.3503 369.427 77.1861C370.085 74.7022 371.208 72.1291 372.763 69.5358C372.985 69.2065 373.349 68.8947 373.78 68.6667C374.211 68.4387 374.674 68.3124 375.071 68.3147C375.27 68.3155 375.445 68.3493 375.587 68.4143C375.729 68.4792 375.834 68.574 375.897 68.6929C375.96 68.8117 375.979 68.9523 375.953 69.1062C375.927 69.2601 375.856 69.4242 375.745 69.5887C374.356 71.9587 373.335 74.309 372.705 76.5858C372.665 76.7399 372.582 76.902 372.46 77.0622C372.338 77.2225 372.181 77.3775 371.997 77.5179C371.813 77.6584 371.606 77.7813 371.39 77.8792C371.174 77.977 370.952 78.0478 370.738 78.0873C370.363 78.1856 370.014 78.1932 369.747 78.1087C369.481 78.0243 369.314 77.8528 369.272 77.6222L369.646 77.6015ZM396.114 123.012C396.038 122.873 396.023 122.704 396.07 122.519C396.117 122.334 396.225 122.138 396.385 121.947C396.664 121.628 397.064 121.346 397.504 121.16C397.943 120.973 398.388 120.897 398.745 120.946C400.635 121.256 402.694 121.357 404.876 121.247C405.625 121.206 406.388 121.192 407.187 121.124C407.562 121.142 407.839 121.28 407.961 121.511C408.083 121.743 408.043 122.049 407.846 122.37C407.742 122.534 407.599 122.697 407.425 122.849C407.251 123 407.051 123.137 406.835 123.25C406.62 123.364 406.394 123.453 406.172 123.512C405.949 123.57 405.734 123.597 405.539 123.591C404.74 123.659 403.977 123.673 403.163 123.713C400.814 123.77 398.588 123.629 396.52 123.294C396.184 123.288 395.912 123.197 395.74 123.033L396.114 123.012ZM400.819 105.811C400.736 105.666 400.721 105.488 400.775 105.293C400.828 105.097 400.949 104.891 401.125 104.691C403.392 102.18 405.509 99.7484 407.375 97.4495C407.66 97.1248 408.068 96.8379 408.516 96.6471C408.964 96.4563 409.418 96.3759 409.785 96.4223C409.962 96.4497 410.11 96.5086 410.221 96.5956C410.332 96.6826 410.404 96.796 410.433 96.9292C410.461 97.0625 410.446 97.2129 410.388 97.3717C410.33 97.5305 410.23 97.6946 410.094 97.8545C408.192 100.208 406.191 102.614 403.723 105.231C403.422 105.551 403.002 105.826 402.553 105.998C402.103 106.169 401.661 106.223 401.319 106.149C401.106 106.173 400.915 106.157 400.763 106.102C400.61 106.047 400.501 105.954 400.444 105.832L400.819 105.811ZM379.403 63.1514C379.298 62.9549 379.315 62.7013 379.451 62.4306C379.587 62.1598 379.834 61.8873 380.152 61.6557C381.228 60.8739 382.38 60.1567 383.582 59.5217C386.01 58.2604 388.556 57.3127 391.039 56.746C391.258 56.6947 391.467 56.6746 391.656 56.6868C391.844 56.699 392.007 56.7433 392.136 56.817C392.264 56.8908 392.356 56.9925 392.405 57.1164C392.454 57.2403 392.46 57.3839 392.422 57.5387C392.392 57.6893 392.318 57.849 392.206 58.0084C392.093 58.1677 391.945 58.3235 391.769 58.4663C391.593 58.6091 391.393 58.7361 391.181 58.8396C390.969 58.9432 390.749 59.0212 390.535 59.069C388.533 59.5455 386.489 60.3131 384.535 61.322C383.6 61.8085 382.706 62.3651 381.878 62.9758C381.689 63.113 381.48 63.2322 381.263 63.3265C381.045 63.4208 380.824 63.4884 380.611 63.5254C380.398 63.5624 380.197 63.5681 380.021 63.5421C379.845 63.5161 379.697 63.459 379.585 63.3741L379.403 63.1514ZM414.329 122.485C414.229 122.297 414.237 122.057 414.351 121.799C414.42 121.638 414.531 121.474 414.676 121.315C414.822 121.156 414.999 121.006 415.199 120.874C415.398 120.742 415.615 120.631 415.837 120.547C416.059 120.462 416.282 120.407 416.492 120.383C419.643 120.028 422.865 119.564 426.034 118.879C426.247 118.843 426.448 118.838 426.623 118.865C426.799 118.892 426.946 118.951 427.058 119.037C427.169 119.123 427.241 119.235 427.271 119.367C427.301 119.499 427.287 119.648 427.231 119.806C427.175 119.964 427.079 120.127 426.946 120.286C426.813 120.445 426.646 120.598 426.456 120.735C426.266 120.872 426.056 120.99 425.838 121.083C425.62 121.177 425.398 121.243 425.185 121.279C421.906 121.879 418.619 122.342 415.353 122.723C415.043 122.812 414.746 122.84 414.498 122.801C414.25 122.763 414.061 122.66 413.954 122.506L414.329 122.485ZM412.827 91.1262C412.761 90.9996 412.745 90.8487 412.779 90.6838C412.814 90.5188 412.898 90.3435 413.027 90.1696C414.751 87.7493 416.297 85.3211 417.656 82.899C417.877 82.5697 418.242 82.2579 418.673 82.0299C419.104 81.8019 419.567 81.6756 419.964 81.6779C420.349 81.6866 420.634 81.8222 420.757 82.0556C420.881 82.2889 420.832 82.601 420.623 82.9242C419.193 85.455 417.576 87.9916 415.781 90.5203C415.676 90.685 415.533 90.8477 415.359 90.999C415.186 91.1503 414.985 91.287 414.77 91.4009C414.555 91.5148 414.329 91.6036 414.106 91.6621C413.883 91.7206 413.668 91.7476 413.473 91.7414C413.185 91.76 412.937 91.7143 412.756 91.6092C412.576 91.5042 412.47 91.3441 412.452 91.1471L412.827 91.1262ZM398.689 57.7323C398.574 57.5081 398.602 57.218 398.768 56.9107C398.998 56.5845 399.363 56.2781 399.791 56.0519C400.218 55.8258 400.677 55.6965 401.076 55.6896C404.223 55.5905 407.244 55.6992 410.109 56.0146C410.289 56.0358 410.443 56.0883 410.56 56.169C410.678 56.2498 410.759 56.3573 410.797 56.4854C410.835 56.6135 410.829 56.7596 410.782 56.9155C410.734 57.0713 410.644 57.2338 410.518 57.3937C410.256 57.7226 409.859 58.0204 409.414 58.2229C408.969 58.4254 408.51 58.5165 408.137 58.4764C405.449 58.1737 402.605 58.0773 399.637 58.1882C399.313 58.2431 399.019 58.2315 398.786 58.1548C398.553 58.0781 398.39 57.9392 398.315 57.7532L398.689 57.7323ZM433.943 119.02C433.828 118.917 433.758 118.785 433.737 118.632C433.773 118.478 433.851 118.315 433.967 118.153C434.084 117.991 434.237 117.833 434.417 117.688C434.597 117.543 434.801 117.414 435.017 117.309C435.233 117.204 435.457 117.124 435.675 117.075C438.98 116.283 442.292 115.382 445.625 114.399C446.066 114.269 446.478 114.262 446.769 114.38C447.06 114.499 447.208 114.732 447.178 115.03C447.17 115.177 447.117 115.337 447.023 115.499C446.93 115.662 446.797 115.825 446.633 115.978C446.468 116.13 446.276 116.27 446.067 116.39C445.858 116.509 445.636 116.605 445.415 116.672C441.967 117.681 438.541 118.608 435.17 119.398C434.782 119.53 434.406 119.566 434.112 119.5C433.818 119.435 433.625 119.272 433.568 119.041L433.943 119.02ZM420.901 76.2896C420.831 76.1255 420.837 75.9271 420.918 75.7137C421.713 73.4165 422.095 71.2001 422.053 69.1218C422.046 68.9812 422.082 68.8264 422.16 68.6662C422.237 68.506 422.355 68.3437 422.505 68.1884C422.656 68.033 422.836 67.8879 423.036 67.7611C423.237 67.6343 423.453 67.5284 423.673 67.4495C423.894 67.3651 424.116 67.3102 424.325 67.2882C424.534 67.2662 424.725 67.2775 424.887 67.3216C425.048 67.3656 425.177 67.4413 425.265 67.5441C425.353 67.6469 425.398 67.7746 425.398 67.9192C425.459 70.1956 425.06 72.6234 424.211 75.1412C424.09 75.4663 423.803 75.8059 423.411 76.0864C423.018 76.3669 422.553 76.5659 422.114 76.6404C421.759 76.7479 421.419 76.7792 421.14 76.73C420.861 76.6808 420.657 76.5536 420.556 76.3658L420.901 76.2896ZM414.99 59.7778C414.903 59.6018 414.905 59.3839 414.995 59.1483C415.086 58.9127 415.262 58.6684 415.504 58.4426C415.84 58.1444 416.274 57.9067 416.713 57.781C417.151 57.6553 417.558 57.6517 417.845 57.7709C420.23 58.7455 422.122 60.1438 423.435 61.9033C423.517 62.0088 423.558 62.1376 423.555 62.2823C423.553 62.4271 423.506 62.5849 423.418 62.7466C423.331 62.9083 423.204 63.0707 423.045 63.2245C422.886 63.3782 422.699 63.5202 422.493 63.6424C422.289 63.7701 422.068 63.8753 421.845 63.9514C421.622 64.0276 421.402 64.073 421.197 64.0848C420.992 64.0966 420.808 64.0746 420.656 64.0201C420.503 63.9657 420.387 63.88 420.312 63.7683C419.115 62.2458 417.448 61.021 415.375 60.1413C415.043 60.1363 414.785 60.0346 414.645 59.854L414.99 59.7778ZM454.094 112.93L453.977 112.709C453.973 112.417 454.145 112.075 454.457 111.758C454.769 111.44 455.196 111.172 455.647 111.01C458.942 109.834 462.293 108.521 465.55 107.153C465.771 107.057 465.995 106.99 466.211 106.953C466.427 106.917 466.629 106.913 466.806 106.942C466.983 106.971 467.13 107.032 467.24 107.121C467.35 107.21 467.42 107.325 467.446 107.461C467.496 107.733 467.371 108.065 467.099 108.388C466.826 108.71 466.427 108.998 465.986 109.191C462.629 110.613 459.162 111.95 455.767 113.179C455.326 113.386 454.868 113.483 454.49 113.451C454.113 113.419 453.847 113.259 453.749 113.006L454.094 112.93ZM474.203 104.453C474.146 104.331 474.134 104.188 474.167 104.032C474.199 103.876 474.276 103.712 474.393 103.547C474.51 103.383 474.664 103.223 474.846 103.076C475.029 102.929 475.235 102.798 475.454 102.692C477.511 101.604 479.518 100.542 481.575 99.4534C482.729 98.8429 483.882 98.2324 485.036 97.6218C485.245 97.5066 485.466 97.4146 485.685 97.3514C485.904 97.2881 486.117 97.2548 486.313 97.2532C486.509 97.2515 486.684 97.2817 486.827 97.3419C486.97 97.4022 487.078 97.4914 487.146 97.6044C487.223 97.7159 487.256 97.8506 487.244 98.0006C487.231 98.1506 487.174 98.3128 487.076 98.4774C486.977 98.6421 486.839 98.8058 486.67 98.959C486.5 99.1121 486.303 99.2516 486.089 99.369C484.885 100.006 483.731 100.617 482.527 101.254C480.42 102.369 478.313 103.483 476.206 104.598C475.967 104.75 475.705 104.871 475.442 104.952C475.18 105.033 474.924 105.072 474.695 105.065C474.466 105.059 474.271 105.007 474.126 104.913C473.981 104.82 473.889 104.689 473.858 104.529L474.203 104.453ZM493.427 93.82C493.31 93.6046 493.34 93.3197 493.512 93.0193C493.685 92.719 493.987 92.424 494.363 92.1905C497.356 90.3231 500.356 88.3461 503.311 86.2861C503.506 86.1519 503.72 86.0373 503.94 85.9487C504.16 85.8601 504.382 85.7993 504.593 85.7699C504.805 85.7405 505.001 85.7431 505.171 85.7774C505.341 85.8117 505.482 85.877 505.584 85.9698C505.795 86.1496 505.845 86.4278 505.724 86.744C505.602 87.0602 505.32 87.3891 504.937 87.6594C501.881 89.7725 498.796 91.8303 495.702 93.7507C495.5 93.8779 495.281 93.9836 495.059 94.0616C494.837 94.1396 494.617 94.1885 494.411 94.2052C494.204 94.222 494.016 94.2063 493.858 94.1592C493.699 94.1121 493.573 94.0345 493.486 93.9308L493.427 93.82ZM511.175 81.4873C511.02 81.3592 510.95 81.1768 510.974 80.9626C510.997 80.7484 511.114 80.5119 511.308 80.2825C514.04 78.1635 516.777 75.935 519.386 73.7041C519.556 73.5557 519.752 73.4212 519.962 73.3085C520.173 73.1957 520.394 73.107 520.613 73.0471C520.832 72.9873 521.044 72.9577 521.238 72.9599C521.432 72.9621 521.603 72.9961 521.742 73.06C522.013 73.2039 522.136 73.4567 522.086 73.7668C522.035 74.077 521.814 74.4211 521.469 74.7288C518.825 77.0139 515.987 79.2955 513.22 81.4687C512.837 81.7595 512.372 81.9731 511.926 82.0629C511.481 82.1526 511.09 82.1112 510.841 81.9477L511.175 81.4873ZM526.966 67.8851C526.878 67.7265 526.873 67.5275 526.951 67.3107C527.029 67.0938 527.188 66.8678 527.409 66.6583C529.843 64.3421 532.134 61.9958 534.344 59.6207C534.653 59.3 535.079 59.027 535.532 58.8605C535.984 58.694 536.427 58.6475 536.763 58.7309C536.932 58.7683 537.069 58.8379 537.165 58.9356C537.262 59.0332 537.316 59.1567 537.325 59.2984C537.334 59.4401 537.296 59.597 537.216 59.7593C537.135 59.9215 537.013 60.0856 536.856 60.2415C534.61 62.6709 532.219 65.0702 529.793 67.5238C529.463 67.836 529.026 68.0926 528.575 68.2384C528.124 68.3843 527.695 68.4078 527.38 68.304L526.966 67.8851ZM540.417 53.5007C540.355 53.3609 540.349 53.1952 540.398 53.0159C540.448 52.8365 540.552 52.6478 540.703 52.4631C542.705 50.0569 544.562 47.6205 546.355 45.1831C546.576 44.8538 546.941 44.5421 547.372 44.3141C547.803 44.0861 548.266 43.9598 548.662 43.9621C548.861 43.9629 549.036 43.9967 549.178 44.0617C549.32 44.1267 549.426 44.2215 549.489 44.3403C549.552 44.4592 549.571 44.5997 549.545 44.7536C549.518 44.9075 549.448 45.0717 549.337 45.2362C547.508 47.7278 545.551 50.2171 543.514 52.6776C543.244 53.0067 542.841 53.302 542.392 53.4995C541.944 53.697 541.486 53.7807 541.118 53.7326C540.687 53.7954 540.316 53.7401 540.072 53.5768L540.417 53.5007ZM551.215 38.7123C551.154 38.5999 551.134 38.4671 551.156 38.3215C551.178 38.1759 551.242 38.0205 551.344 37.8641C552.877 35.4221 554.331 32.9512 555.619 30.5322C555.703 30.3716 555.826 30.2097 555.981 30.0557C556.136 29.9018 556.32 29.7588 556.523 29.635C556.726 29.5112 556.943 29.409 557.163 29.3342C557.383 29.2595 557.601 29.2136 557.804 29.1992C558.007 29.1848 558.192 29.2021 558.347 29.2503C558.503 29.2984 558.627 29.3764 558.712 29.4798C558.796 29.5832 558.84 29.71 558.84 29.853C558.841 29.9959 558.798 30.1522 558.714 30.3129C557.404 32.8138 555.915 35.3388 554.361 37.8627C554.14 38.1921 553.775 38.5039 553.344 38.7319C552.913 38.9599 552.45 39.0862 552.053 39.0839C551.791 39.1181 551.55 39.1094 551.346 39.0585C551.142 39.0076 550.979 38.9156 550.869 38.7886L551.215 38.7123ZM559.059 23.9265C558.98 23.745 558.975 23.5288 559.046 23.2951C560.076 20.8716 560.99 18.4735 561.689 16.1538C561.733 15.9961 561.821 15.831 561.947 15.6681C562.074 15.5052 562.235 15.3478 562.424 15.2053C562.612 15.0629 562.822 14.9382 563.042 14.8387C563.262 14.7392 563.488 14.6667 563.706 14.6258C564.141 14.5447 564.52 14.5906 564.762 14.7536C565.004 14.9166 565.091 15.184 565.003 15.4993C564.233 17.9274 563.348 20.381 562.433 22.7791C562.37 22.9403 562.263 23.1061 562.121 23.2667C561.979 23.4272 561.803 23.5793 561.605 23.7139C561.407 23.8485 561.19 23.9629 560.967 24.0503C560.744 24.1377 560.52 24.1965 560.308 24.223C559.93 24.3665 559.556 24.4254 559.246 24.39C558.936 24.3546 558.708 24.2269 558.599 24.028L559.059 23.9265ZM563.473 9.57339L563.297 9.24105C563.739 6.93679 564.002 4.67925 564.085 2.47832C564.116 2.17939 564.317 1.84178 564.645 1.53587C564.974 1.22994 565.405 0.979324 565.849 0.836086C566.298 0.695693 566.723 0.677608 567.032 0.785601C567.341 0.893594 567.51 1.11917 567.503 1.41424C567.344 3.66117 567.098 5.98887 566.673 8.34082C566.613 8.65289 566.379 8.99666 566.022 9.29816C565.666 9.59968 565.214 9.83487 564.765 9.95311C564.373 10.0872 563.993 10.1274 563.691 10.0669C563.389 10.0064 563.184 9.84878 563.113 9.62184L563.473 9.57339Z" fill="url(#paint0_linear_2_3364)"/>
<defs>
<linearGradient id="paint0_linear_2_3364" x1="531.996" y1="-65.8711" x2="10.2712" y2="210.182" gradientUnits="userSpaceOnUse">
<stop stop-color="#0D0CB5"/>
<stop offset="1" stop-color="#C0242A"/>
</linearGradient>
</defs>
</svg>
