<svg width="117" height="265" viewBox="0 0 117 265" fill="none" xmlns="http://www.w3.org/2000/svg">
<path d="M25.6058 258.998L26.7397 259.601C26.8012 259.634 26.8726 259.646 26.9497 259.638C27.0268 259.63 27.1079 259.601 27.1884 259.553C27.2689 259.505 27.347 259.439 27.418 259.359C27.4891 259.279 27.5517 259.187 27.6022 259.087C27.6546 258.989 27.6941 258.885 27.7183 258.781C27.7426 258.678 27.7512 258.577 27.7435 258.485C27.7358 258.393 27.712 258.312 27.6735 258.246C27.635 258.18 27.5826 258.13 27.5195 258.101C26.5866 257.604 25.668 257.115 24.7638 256.634C24.6439 256.562 24.4863 256.569 24.3244 256.654C24.1626 256.738 24.0093 256.894 23.8971 257.087C23.7908 257.286 23.7361 257.503 23.7442 257.694C23.7524 257.884 23.8227 258.034 23.9409 258.112L25.6058 258.998ZM29.5745 260.815C30.5074 261.311 31.5747 261.555 32.6054 261.867C32.6719 261.888 32.7466 261.889 32.8252 261.869C32.9037 261.85 32.9845 261.81 33.0628 261.753C33.1411 261.696 33.2155 261.623 33.2814 261.537C33.3474 261.451 33.4037 261.355 33.4471 261.254C33.4915 261.154 33.5223 261.05 33.5376 260.949C33.5529 260.848 33.5523 260.753 33.5361 260.667C33.5198 260.582 33.4882 260.508 33.4429 260.452C33.3977 260.395 33.3398 260.356 33.2726 260.337C32.2562 260.032 31.2644 259.681 30.3113 259.291C30.1788 259.243 30.0149 259.277 29.8545 259.384C29.6942 259.491 29.5501 259.664 29.453 259.866C29.4053 259.964 29.3706 260.067 29.3508 260.168C29.3311 260.269 29.3268 260.367 29.338 260.455C29.3493 260.543 29.376 260.62 29.4166 260.682C29.4572 260.744 29.5108 260.789 29.5745 260.815V260.815ZM21.2356 256.378C21.3511 256.441 21.4994 256.434 21.6521 256.357C21.8048 256.281 21.9513 256.141 22.0636 255.964C22.1766 255.771 22.2395 255.554 22.239 255.361C22.2385 255.168 22.1744 255.014 22.0606 254.931C21.3898 254.427 20.7598 253.915 20.1112 253.334L19.6269 252.929C19.5752 252.88 19.5117 252.851 19.4401 252.841C19.3685 252.832 19.2903 252.844 19.2101 252.875C19.1298 252.906 19.0492 252.957 18.9729 253.024C18.8967 253.092 18.8263 253.174 18.766 253.266C18.6476 253.449 18.5756 253.66 18.5658 253.854C18.556 254.047 18.6091 254.207 18.7136 254.299L19.1857 254.727C19.8199 255.3 20.4499 255.812 21.1925 256.355L21.2356 256.378ZM35.6134 262.79L35.6852 262.828C36.7238 263.057 37.8033 263.278 38.8929 263.445C39.0347 263.464 39.1992 263.404 39.3524 263.277C39.5056 263.15 39.6358 262.966 39.716 262.763C39.7562 262.659 39.7815 262.554 39.7903 262.453C39.7992 262.352 39.7916 262.258 39.7678 262.176C39.744 262.095 39.7047 262.027 39.652 261.978C39.5994 261.929 39.5347 261.9 39.4618 261.891C38.3987 261.709 37.3357 261.526 36.3093 261.275C36.1715 261.244 36.0072 261.296 35.8525 261.418C35.6978 261.54 35.5653 261.723 35.484 261.926C35.4339 262.096 35.4254 262.261 35.4598 262.396C35.4942 262.532 35.5696 262.63 35.6745 262.675L35.6134 262.79ZM16.4739 252.106C16.5809 252.16 16.7152 252.153 16.8541 252.088C16.9931 252.022 17.1281 251.901 17.2365 251.745C17.3018 251.658 17.3567 251.56 17.3978 251.458C17.4388 251.356 17.4651 251.251 17.475 251.151C17.4849 251.052 17.4782 250.958 17.4553 250.877C17.4324 250.797 17.3938 250.73 17.342 250.682C16.6253 249.917 15.9044 249.092 15.2079 248.22C15.1623 248.165 15.1044 248.127 15.0374 248.109C14.9705 248.09 14.8959 248.092 14.8178 248.113C14.7397 248.135 14.6597 248.176 14.5823 248.233C14.505 248.291 14.4319 248.365 14.3671 248.451C14.2341 248.626 14.1431 248.839 14.1135 249.043C14.0838 249.248 14.1179 249.428 14.2084 249.545C14.9049 250.416 15.6402 251.249 16.3856 252.029L16.4739 252.106ZM42.0427 263.824L42.1575 263.885C43.2551 263.968 44.3671 264.059 45.5156 264.081C45.6626 264.085 45.8282 264.007 45.9763 263.865C46.1244 263.723 46.2429 263.528 46.3058 263.323C46.3394 263.221 46.3578 263.118 46.3598 263.022C46.3619 262.926 46.3476 262.839 46.3179 262.765C46.2882 262.691 46.2436 262.633 46.1869 262.593C46.1302 262.554 46.0626 262.534 45.9883 262.535C44.8785 262.475 43.7687 262.415 42.6977 262.316C42.627 262.306 42.5493 262.317 42.4695 262.348C42.3897 262.379 42.3095 262.43 42.2339 262.497C42.1583 262.565 42.0888 262.647 42.0299 262.74C41.9709 262.833 41.9236 262.934 41.8911 263.036C41.8534 263.194 41.8537 263.344 41.8919 263.465C41.9301 263.586 42.0043 263.671 42.1038 263.709L42.0427 263.824ZM12.33 246.984C12.4305 247.034 12.5548 247.034 12.6851 246.981C12.8154 246.929 12.9451 246.828 13.0559 246.692C13.1907 246.526 13.2861 246.318 13.3212 246.116C13.3563 245.914 13.3283 245.733 13.2433 245.613C12.5999 244.711 11.981 243.763 11.4009 242.777C11.3173 242.653 11.1851 242.596 11.0304 242.618C10.8757 242.639 10.7099 242.737 10.5659 242.892C10.424 243.059 10.3205 243.27 10.2782 243.479C10.2358 243.689 10.2579 243.879 10.3398 244.009C10.9199 244.996 11.5675 245.959 12.2109 246.861L12.33 246.984ZM48.7748 264.047L48.9327 264.131C50.077 264.092 51.2335 264.029 52.3879 263.937C52.4637 263.931 52.544 263.906 52.624 263.861C52.704 263.817 52.7823 263.754 52.8541 263.677C52.9259 263.6 52.99 263.51 53.0424 263.413C53.0949 263.315 53.1346 263.212 53.1595 263.109C53.1858 263.007 53.1968 262.906 53.1917 262.813C53.1867 262.72 53.1657 262.637 53.1301 262.569C53.0944 262.5 53.0448 262.448 52.9841 262.415C52.9234 262.382 52.8529 262.368 52.7766 262.375C51.6366 262.476 50.4944 262.546 49.3623 262.562C49.2125 262.569 49.0468 262.656 48.9018 262.806C48.7568 262.955 48.6442 263.154 48.5886 263.359C48.5714 263.491 48.5826 263.612 48.6211 263.711C48.6596 263.809 48.7239 263.88 48.8072 263.917L48.7748 264.047ZM8.76948 241.111C8.86056 241.157 8.97068 241.162 9.08763 241.125C9.20458 241.089 9.32385 241.012 9.43224 240.904C9.53082 240.825 9.62142 240.722 9.69609 240.604C9.77075 240.485 9.82716 240.354 9.86037 240.224C9.89358 240.093 9.90256 239.966 9.8865 239.854C9.87044 239.741 9.82986 239.647 9.76831 239.58C9.24133 238.563 8.7122 237.516 8.22187 236.43C8.19008 236.358 8.14408 236.301 8.0865 236.263C8.02892 236.225 7.96093 236.206 7.88647 236.207C7.81201 236.209 7.73255 236.231 7.65272 236.272C7.5729 236.313 7.49429 236.372 7.42145 236.446C7.27682 236.596 7.1639 236.795 7.10616 237C7.04842 237.205 7.05029 237.401 7.11134 237.548C7.61602 238.641 8.14725 239.72 8.67637 240.767L8.76948 241.111ZM55.7135 263.467C55.7633 263.521 55.827 263.555 55.9001 263.566C57.0768 263.396 58.2657 263.204 59.4524 262.981C59.5296 262.968 59.6101 262.936 59.6892 262.885C59.7684 262.834 59.8446 262.766 59.9135 262.685C59.9824 262.604 60.0426 262.511 60.0906 262.412C60.1386 262.313 60.1735 262.21 60.1932 262.108C60.2329 261.899 60.2081 261.711 60.1241 261.583C60.0401 261.456 59.9039 261.4 59.7449 261.428C58.5725 261.658 57.3979 261.858 56.2478 262.012C56.1721 262.02 56.0925 262.048 56.0134 262.095C55.9344 262.141 55.8575 262.205 55.7872 262.282C55.7169 262.36 55.6545 262.45 55.6036 262.546C55.5527 262.643 55.5143 262.746 55.4906 262.847C55.4887 262.967 55.5109 263.074 55.5553 263.159C55.5998 263.244 55.6651 263.305 55.7458 263.336L55.7135 263.467ZM5.82539 234.565C5.90609 234.61 6.0039 234.619 6.10885 234.592C6.21381 234.565 6.32213 234.503 6.42274 234.412C6.49838 234.342 6.56768 234.258 6.6265 234.164C6.68532 234.07 6.73246 233.968 6.76519 233.865C6.79792 233.761 6.81551 233.658 6.81699 233.561C6.81847 233.465 6.80378 233.377 6.77377 233.302C6.34881 232.162 5.93605 231 5.6131 229.738C5.55667 229.584 5.44484 229.489 5.30007 229.473C5.15531 229.456 4.98837 229.518 4.83286 229.647C4.75753 229.713 4.68789 229.794 4.628 229.885C4.56811 229.976 4.51916 230.075 4.48388 230.177C4.4486 230.278 4.4277 230.381 4.42242 230.477C4.41715 230.574 4.42755 230.664 4.45309 230.741C4.82705 231.942 5.25417 233.112 5.67119 234.336C5.70333 234.416 5.75004 234.48 5.80891 234.527L5.82539 234.565ZM62.7933 262.136C62.85 262.21 62.9295 262.253 63.0229 262.258C64.232 261.959 65.4267 261.651 66.6704 261.252C66.8311 261.199 66.9935 261.071 67.1248 260.895C67.2561 260.719 67.3466 260.507 67.3781 260.303C67.398 260.102 67.3564 259.929 67.2615 259.818C67.1666 259.708 67.0255 259.668 66.8666 259.707C65.6618 260.068 64.4814 260.382 63.2622 260.736C63.1836 260.752 63.1022 260.789 63.0228 260.845C62.9435 260.9 62.8678 260.972 62.8003 261.057C62.7328 261.142 62.6748 261.238 62.6297 261.339C62.5847 261.44 62.5535 261.545 62.538 261.647C62.5624 261.732 62.6039 261.803 62.6598 261.853C62.7158 261.903 62.7848 261.932 62.8623 261.937L62.7933 262.136ZM3.51841 227.445C3.59699 227.483 3.69007 227.491 3.78956 227.467C3.88905 227.443 3.99191 227.388 4.08919 227.306C4.24104 227.173 4.36845 226.986 4.4463 226.782C4.52415 226.578 4.5468 226.372 4.50985 226.204C4.17682 224.996 3.88043 223.718 3.61275 222.456C3.57192 222.292 3.47317 222.181 3.33699 222.147C3.20081 222.113 3.03769 222.158 2.88139 222.273C2.8036 222.331 2.72981 222.404 2.66434 222.489C2.59887 222.574 2.54299 222.67 2.49989 222.77C2.45679 222.87 2.42734 222.974 2.41322 223.074C2.39911 223.174 2.40062 223.268 2.41765 223.353C2.68746 224.645 2.99821 225.93 3.33338 227.169C3.36095 227.28 3.41973 227.363 3.50189 227.406L3.51841 227.445ZM70.0876 259.918C70.1821 259.964 70.2977 259.964 70.4192 259.917C71.6342 259.503 72.8591 259.035 74.0698 258.56C74.1515 258.53 74.234 258.48 74.3123 258.413C74.3905 258.346 74.4629 258.263 74.5249 258.169C74.587 258.075 74.6373 257.972 74.673 257.867C74.7086 257.762 74.7289 257.656 74.7323 257.557C74.7367 257.46 74.7254 257.371 74.699 257.294C74.6726 257.218 74.6315 257.155 74.5783 257.111C74.5251 257.066 74.4607 257.04 74.3889 257.034C74.3171 257.028 74.2392 257.042 74.1597 257.075C72.9491 257.551 71.8081 258.034 70.548 258.395C70.3879 258.458 70.2293 258.594 70.1054 258.775C69.9815 258.956 69.9019 259.168 69.8833 259.367C69.8716 259.484 69.8825 259.591 69.9152 259.681C69.9479 259.77 70.0013 259.838 70.0711 259.88L70.0876 259.918ZM1.95054 219.627C2.02008 219.662 2.10131 219.673 2.18859 219.658C2.27587 219.644 2.3671 219.604 2.45597 219.543C2.5338 219.487 2.60791 219.416 2.67407 219.332C2.74022 219.248 2.79714 219.154 2.84154 219.054C2.88594 218.955 2.91696 218.852 2.93283 218.752C2.94871 218.652 2.94913 218.556 2.93406 218.471C2.73388 217.186 2.51294 215.801 2.39247 214.47C2.37721 214.286 2.29974 214.146 2.17645 214.08C2.05317 214.015 1.89382 214.028 1.73226 214.119C1.65153 214.164 1.57268 214.227 1.50036 214.305C1.42804 214.383 1.36374 214.474 1.3113 214.573C1.25886 214.671 1.21936 214.775 1.19512 214.879C1.17088 214.982 1.16239 215.083 1.1702 215.175C1.3215 216.552 1.54245 217.937 1.71606 219.237C1.72515 219.335 1.75196 219.421 1.7948 219.489C1.83764 219.558 1.89557 219.607 1.96491 219.635L1.95054 219.627ZM77.3881 256.996C77.4915 257.053 77.6234 257.051 77.7607 256.988C78.9936 256.436 80.2223 255.822 81.4388 255.232C81.5195 255.187 81.5983 255.124 81.6707 255.046C81.743 254.968 81.8073 254.877 81.8597 254.778C81.9122 254.68 81.9517 254.576 81.9759 254.472C82.0001 254.369 82.0086 254.268 82.0008 254.176C81.9872 253.994 81.9118 253.856 81.7909 253.792C81.6699 253.727 81.5133 253.742 81.3549 253.832C80.1528 254.43 78.8933 254.997 77.7034 255.572C77.5452 255.665 77.3988 255.825 77.2958 256.018C77.1929 256.212 77.1418 256.423 77.1536 256.606C77.159 256.695 77.18 256.774 77.2154 256.838C77.2508 256.903 77.2998 256.951 77.3594 256.98L77.3881 256.996ZM1.02838 211.358C1.15854 211.411 1.31848 211.391 1.48065 211.304C1.64001 211.204 1.78619 211.04 1.89027 210.844C1.99436 210.648 2.04875 210.435 2.0427 210.247C1.94667 208.87 1.8751 207.447 1.83221 206.04C1.81861 205.858 1.74317 205.72 1.62225 205.655C1.50134 205.591 1.34468 205.606 1.18633 205.696C1.02996 205.793 0.886301 205.953 0.784265 206.145C0.682229 206.337 0.629413 206.546 0.636492 206.729C0.669293 208.191 0.692021 209.705 0.839058 211.021C0.861561 211.174 0.928012 211.292 1.02838 211.358V211.358ZM84.7107 253.201C84.8341 253.264 84.9905 253.253 85.1508 253.17C86.3874 252.473 87.6219 251.745 88.8277 251.002C88.9889 250.906 89.1378 250.742 89.2427 250.545C89.3477 250.347 89.4004 250.132 89.3898 249.945C89.3762 249.763 89.3007 249.625 89.1798 249.561C89.0589 249.497 88.9022 249.511 88.7439 249.602C87.5503 250.322 86.3424 251.035 85.1323 251.717C84.9711 251.812 84.8222 251.976 84.7173 252.174C84.6123 252.371 84.5596 252.586 84.5703 252.773C84.5496 252.879 84.5471 252.981 84.5629 253.071C84.5787 253.161 84.6125 253.237 84.6618 253.293L84.7107 253.201ZM0.852318 202.69C0.959475 202.751 1.09612 202.751 1.23923 202.689C1.40041 202.593 1.54931 202.43 1.65426 202.232C1.75921 202.035 1.81196 201.82 1.8013 201.633C1.8259 200.202 1.87498 198.725 1.9793 197.249C1.98734 197.055 1.9336 196.894 1.82927 196.8C1.72494 196.707 1.578 196.686 1.41894 196.744C1.33883 196.772 1.25771 196.82 1.18065 196.885C1.1036 196.951 1.03227 197.032 0.971192 197.124C0.910111 197.216 0.86058 197.317 0.82572 197.42C0.790861 197.524 0.771416 197.627 0.768627 197.724C0.666439 199.232 0.666266 200.616 0.582698 202.193C0.552189 202.34 0.55325 202.479 0.585757 202.595C0.618265 202.711 0.680947 202.8 0.766779 202.85L0.852318 202.69ZM92.0209 248.634C92.0855 248.677 92.164 248.694 92.2497 248.683C92.3355 248.672 92.4261 248.634 92.5141 248.573C93.7278 247.745 94.9272 246.91 96.1367 246.021C96.2145 245.964 96.2882 245.891 96.3537 245.806C96.4192 245.721 96.4751 245.625 96.5182 245.525C96.5613 245.424 96.5907 245.321 96.6048 245.221C96.6189 245.121 96.6175 245.027 96.6004 244.942C96.5654 244.769 96.4687 244.649 96.3314 244.609C96.1941 244.569 96.0272 244.612 95.8669 244.729C94.7106 245.587 93.5112 246.422 92.324 247.234C92.1628 247.33 92.014 247.494 91.909 247.691C91.8041 247.888 91.7513 248.103 91.762 248.29C91.7556 248.4 91.7677 248.502 91.7975 248.589C91.8273 248.676 91.8742 248.746 91.9354 248.795L92.0209 248.634ZM1.40435 193.761C1.48699 193.816 1.59498 193.821 1.70946 193.776C1.87051 193.722 2.03315 193.593 2.1627 193.414C2.29225 193.235 2.37841 193.021 2.40278 192.819C2.54803 191.334 2.73207 189.812 2.95916 188.312C2.97458 188.211 2.97422 188.115 2.95811 188.029C2.94201 187.944 2.91051 187.871 2.86538 187.814C2.82025 187.757 2.76245 187.717 2.69531 187.698C2.62817 187.678 2.553 187.679 2.47426 187.7C2.31628 187.745 2.15436 187.866 2.02213 188.037C1.88991 188.208 1.7976 188.417 1.76444 188.619C1.55383 190.157 1.35756 191.703 1.15917 193.218C1.13073 193.363 1.13411 193.499 1.16885 193.611C1.20359 193.724 1.26827 193.807 1.35548 193.852L1.40435 193.761ZM99.1592 243.387C99.2343 243.429 99.3247 243.441 99.4222 243.421C99.5197 243.401 99.6213 243.349 99.7178 243.271C100.896 242.337 102.085 241.349 103.245 240.345C103.397 240.215 103.524 240.027 103.598 239.824C103.671 239.62 103.686 239.417 103.639 239.259C103.59 239.098 103.481 238.997 103.338 238.976C103.194 238.954 103.027 239.015 102.871 239.144C101.738 240.133 100.561 241.098 99.397 242.04C99.3192 242.101 99.246 242.177 99.1819 242.265C99.1177 242.354 99.0638 242.452 99.0233 242.554C98.9828 242.655 98.9565 242.759 98.9459 242.859C98.9354 242.959 98.9408 243.052 98.9619 243.134C98.9634 243.298 99.002 243.441 99.0737 243.547L99.1592 243.387ZM2.71319 184.586C2.76695 184.655 2.84137 184.695 2.92847 184.701C3.08393 184.67 3.24775 184.56 3.38393 184.395C3.52012 184.23 3.61757 184.023 3.65483 183.82C3.94729 182.267 4.25408 180.721 4.60394 179.198C4.62807 179.097 4.63658 178.998 4.62898 178.908C4.62137 178.817 4.59781 178.738 4.55971 178.673C4.52161 178.609 4.4698 178.561 4.40738 178.533C4.34496 178.505 4.27323 178.497 4.19662 178.51C4.12096 178.518 4.04136 178.546 3.96233 178.592C3.8833 178.639 3.80642 178.702 3.73609 178.78C3.66575 178.857 3.60333 178.947 3.55243 179.044C3.50153 179.141 3.46316 179.243 3.43947 179.345C3.09173 180.898 2.77268 182.467 2.46801 184.043C2.4287 184.197 2.42285 184.345 2.45116 184.47C2.47948 184.594 2.54078 184.691 2.62767 184.747L2.71319 184.586ZM106.121 237.397C106.203 237.439 106.301 237.447 106.405 237.42C106.51 237.393 106.618 237.332 106.719 237.243C107.859 236.161 108.999 235.058 110.137 233.935C110.21 233.862 110.276 233.775 110.331 233.68C110.387 233.585 110.43 233.483 110.459 233.38C110.488 233.278 110.502 233.177 110.499 233.083C110.497 232.989 110.479 232.904 110.447 232.833C110.415 232.761 110.369 232.704 110.311 232.666C110.254 232.628 110.186 232.609 110.111 232.611C110.037 232.612 109.957 232.634 109.878 232.675C109.798 232.716 109.719 232.775 109.646 232.849C108.548 233.944 107.409 235.047 106.292 236.073C106.216 236.143 106.147 236.227 106.088 236.321C106.029 236.415 105.982 236.517 105.949 236.62C105.917 236.724 105.899 236.827 105.897 236.923C105.896 237.02 105.911 237.108 105.941 237.183C105.931 237.337 105.964 237.469 106.036 237.558L106.121 237.397ZM4.76875 175.22L4.9266 175.304C5.08006 175.293 5.24818 175.201 5.39502 175.048C5.54186 174.895 5.65577 174.693 5.71249 174.484C6.01833 173.321 6.35074 172.142 6.71186 170.979L7.06078 169.839C7.12317 169.634 7.12479 169.436 7.06528 169.288C7.00577 169.141 6.88998 169.055 6.74328 169.051C6.67052 169.046 6.5918 169.062 6.51175 169.097C6.43169 169.132 6.3519 169.187 6.27701 169.256C6.20212 169.326 6.13361 169.411 6.07554 169.504C6.01747 169.598 5.971 169.699 5.93879 169.802L5.58985 170.942C5.21864 172.159 4.88626 173.337 4.55598 174.547C4.48618 174.743 4.46786 174.939 4.50439 175.099C4.54092 175.259 4.62983 175.373 4.75495 175.419L4.76875 175.22ZM7.68 165.837L7.79484 165.898C7.93958 165.912 8.10597 165.846 8.25907 165.713C8.41217 165.58 8.54004 165.391 8.61581 165.186C9.14586 163.67 9.7147 162.117 10.3245 160.555C10.3644 160.456 10.3902 160.354 10.4005 160.256C10.4107 160.158 10.4052 160.067 10.3841 159.987C10.363 159.907 10.3269 159.84 10.2779 159.791C10.2289 159.741 10.168 159.71 10.0989 159.699C9.96113 159.669 9.79685 159.72 9.64212 159.842C9.48739 159.964 9.35485 160.147 9.27362 160.35C8.65164 161.934 8.07059 163.511 7.52832 165.049C7.47781 165.153 7.44124 165.261 7.42079 165.367C7.40035 165.473 7.39643 165.576 7.40931 165.668C7.42218 165.76 7.45155 165.84 7.49569 165.903C7.53984 165.966 7.59784 166.012 7.66622 166.036L7.68 165.837ZM11.3019 156.538L11.3737 156.576C11.5084 156.611 11.6708 156.566 11.8257 156.45C11.9806 156.333 12.1155 156.156 12.2011 155.955C12.8913 154.358 13.5585 152.827 14.2026 151.363C14.2483 151.264 14.2805 151.162 14.2972 151.062C14.3139 150.962 14.3148 150.867 14.2998 150.782C14.2848 150.697 14.2543 150.624 14.21 150.567C14.1658 150.511 14.1088 150.472 14.0424 150.453C13.9774 150.429 13.9039 150.426 13.8262 150.442C13.7485 150.459 13.668 150.495 13.5896 150.549C13.5111 150.604 13.4362 150.674 13.369 150.758C13.3019 150.841 13.2439 150.935 13.1985 151.035C12.5047 152.581 11.8376 154.112 11.1725 155.673C11.1048 155.781 11.0529 155.899 11.0212 156.017C10.9894 156.136 10.9788 156.252 10.9901 156.356C11.0014 156.46 11.0343 156.548 11.0861 156.614C11.1379 156.681 11.2072 156.723 11.2882 156.737L11.3019 156.538ZM15.4176 147.383C15.4826 147.407 15.5561 147.41 15.6338 147.394C15.7115 147.377 15.792 147.341 15.8704 147.287C15.9489 147.233 16.0238 147.162 16.091 147.078C16.1581 146.995 16.2161 146.901 16.2615 146.801C17.0435 145.331 17.7107 143.801 18.4496 142.308C18.5002 142.209 18.5377 142.104 18.5596 142.001C18.5816 141.897 18.5876 141.798 18.5774 141.707C18.5673 141.616 18.541 141.537 18.5003 141.473C18.4596 141.409 18.4052 141.363 18.3404 141.336C18.2773 141.307 18.2046 141.297 18.1267 141.308C18.0488 141.32 17.9673 141.352 17.8871 141.403C17.8068 141.453 17.7294 141.522 17.6594 141.604C17.5895 141.686 17.5285 141.78 17.48 141.881C16.6858 143.373 15.9921 144.919 15.2818 146.427C15.2012 146.542 15.1383 146.672 15.0992 146.804C15.06 146.936 15.0459 147.067 15.0581 147.182C15.0703 147.298 15.1085 147.396 15.169 147.466C15.2296 147.536 15.3104 147.576 15.4039 147.582L15.4176 147.383ZM19.8735 138.351C19.9343 138.384 20.0052 138.396 20.0817 138.387C20.1582 138.378 20.2387 138.349 20.3182 138.3C20.3977 138.251 20.4746 138.184 20.544 138.103C20.6134 138.022 20.6738 137.929 20.7217 137.83C21.5159 136.337 22.2979 134.868 23.0799 133.398C23.1836 133.203 23.2346 132.99 23.2218 132.807C23.209 132.623 23.1334 132.484 23.0116 132.419V132.419C22.9497 132.39 22.8786 132.38 22.8025 132.39C22.7264 132.401 22.6466 132.431 22.5679 132.48C22.4891 132.528 22.4128 132.594 22.3434 132.673C22.274 132.752 22.2129 132.842 22.1635 132.94C21.3815 134.41 20.5873 135.902 19.7931 137.395C19.7151 137.505 19.6533 137.628 19.6129 137.755C19.5725 137.881 19.5548 138.007 19.5614 138.121C19.568 138.235 19.5986 138.334 19.6506 138.409C19.7027 138.484 19.7745 138.532 19.8598 138.55L19.8735 138.351ZM24.5282 129.395C24.6488 129.46 24.8043 129.448 24.9627 129.363C25.1212 129.277 25.2707 129.124 25.3807 128.935C26.126 127.535 26.908 126.065 27.8701 124.603C27.9831 124.41 28.0461 124.193 28.0456 124C28.045 123.807 27.981 123.653 27.8672 123.57C27.7485 123.497 27.5932 123.501 27.4322 123.579C27.2712 123.657 27.1163 123.804 26.9983 123.991C26.0813 125.507 25.2318 127 24.4111 128.508C24.3074 128.703 24.2563 128.915 24.2691 129.099C24.2819 129.283 24.3576 129.422 24.4794 129.487L24.5282 129.395ZM29.7039 120.775C29.8157 120.837 29.959 120.83 30.1067 120.757C30.2544 120.683 30.3963 120.548 30.5053 120.377C31.3921 119.022 32.3054 117.651 33.2718 116.25C33.3965 116.067 33.4757 115.853 33.4927 115.652C33.5098 115.452 33.4632 115.283 33.3629 115.179C33.2593 115.081 33.1111 115.058 32.9499 115.115C32.7887 115.172 32.6272 115.305 32.4998 115.486C31.5212 116.91 30.5957 118.303 29.6967 119.681C29.5751 119.87 29.5016 120.088 29.4922 120.287C29.4828 120.486 29.5383 120.651 29.6465 120.745L29.7039 120.775ZM35.3618 112.53C35.4671 112.589 35.6021 112.585 35.742 112.519C35.882 112.453 36.0177 112.329 36.1244 112.17C37.0706 110.876 38.0557 109.544 39.0551 108.219C39.1892 108.04 39.2797 107.824 39.3068 107.617C39.3338 107.411 39.2952 107.231 39.1994 107.117C39.1019 107.012 38.9586 106.979 38.7995 107.026C38.6405 107.074 38.4781 107.197 38.3464 107.371C37.3348 108.718 36.3497 110.05 35.379 111.39C35.2556 111.57 35.1759 111.781 35.1562 111.979C35.1366 112.177 35.1786 112.347 35.2735 112.454L35.3618 112.53ZM41.3195 104.621C41.4227 104.671 41.55 104.668 41.6829 104.611C41.8157 104.555 41.9471 104.448 42.0577 104.307C43.047 103.036 44.0772 101.757 45.1075 100.478C45.1762 100.397 45.2359 100.304 45.2829 100.204C45.3299 100.105 45.3632 100.002 45.3808 99.9006C45.3983 99.7995 45.3997 99.7028 45.385 99.6166C45.3702 99.5304 45.3395 99.4565 45.2948 99.3993C45.2543 99.337 45.2001 99.292 45.1357 99.2671C45.0712 99.2421 44.9978 99.2378 44.92 99.2544C44.8421 99.271 44.7615 99.3081 44.6831 99.3634C44.6047 99.4187 44.5302 99.4911 44.4641 99.5761C43.4195 100.847 42.3892 102.126 41.3877 103.42C41.3204 103.504 41.2625 103.599 41.2173 103.699C41.1721 103.8 41.1406 103.904 41.1245 104.005C41.1084 104.106 41.1081 104.203 41.1236 104.289C41.1391 104.375 41.17 104.449 41.2147 104.506L41.3195 104.621ZM47.5196 97.0178C47.6162 97.073 47.7377 97.0767 47.8661 97.0283C47.9946 96.98 48.1233 96.8822 48.2333 96.7493C49.2801 95.5088 50.329 94.299 51.3922 93.0968C51.4635 93.0188 51.5268 92.9282 51.5783 92.8302C51.6298 92.7323 51.6686 92.629 51.6924 92.5264C51.7161 92.4238 51.7243 92.3239 51.7165 92.2326C51.7087 92.1414 51.6851 92.0605 51.647 91.9949C51.5668 91.8655 51.4345 91.8052 51.2785 91.8268C51.1225 91.8484 50.9551 91.9501 50.8121 92.1104C49.7488 93.3126 48.6734 94.5378 47.6144 95.8012C47.4755 95.9618 47.3735 96.1663 47.3307 96.37C47.2879 96.5737 47.3079 96.7599 47.3862 96.8878L47.5196 97.0178ZM53.9521 89.7738C54.0448 89.8212 54.1579 89.8247 54.2778 89.7839C54.3976 89.743 54.519 89.6595 54.6271 89.5437C55.719 88.3567 56.8131 87.2004 57.897 86.0976C57.9724 86.0246 58.0404 85.9368 58.0969 85.8398C58.1533 85.7427 58.1968 85.6386 58.2247 85.5342C58.2525 85.4297 58.2641 85.3271 58.2586 85.2331C58.2531 85.139 58.2307 85.0555 58.1928 84.988C58.1618 84.9171 58.1167 84.8613 58.06 84.824C58.0034 84.7867 57.9363 84.7686 57.863 84.7708C57.7896 84.773 57.7114 84.7955 57.633 84.8369C57.5546 84.8783 57.4777 84.9377 57.4067 85.0117C56.2839 86.1528 55.1899 87.3091 54.0714 88.5114C54.0004 88.5877 53.9371 88.6766 53.8852 88.773C53.8332 88.8694 53.7936 88.9713 53.7686 89.073C53.7436 89.1746 53.7337 89.274 53.7395 89.3654C53.7452 89.4569 53.7665 89.5385 53.8022 89.6057L53.9521 89.7738ZM69.5791 90.5159C70.512 91.0123 71.5692 91.3096 72.5855 91.6147C72.6511 91.6391 72.7259 91.6424 72.8049 91.6243C72.8839 91.6062 72.9656 91.5671 73.0447 91.5095C73.1238 91.4519 73.1986 91.377 73.2645 91.2897C73.3303 91.2023 73.3858 91.1043 73.4273 91.0018C73.4717 90.9012 73.5024 90.7975 73.5177 90.6967C73.533 90.5958 73.5325 90.5 73.5162 90.4145C73.5 90.3291 73.4683 90.2559 73.4231 90.1991C73.3779 90.1423 73.3199 90.1032 73.2527 90.0839C72.2651 89.7941 71.2711 89.4126 70.3302 89.0004C70.2671 88.9705 70.1944 88.9609 70.1165 88.9722C70.0387 88.9836 69.9571 89.0156 69.8769 89.0663C69.7966 89.1171 69.7192 89.1856 69.6493 89.2677C69.5793 89.3499 69.5183 89.444 69.4698 89.5444C69.3921 89.6587 69.3313 89.7863 69.2927 89.9161C69.2541 90.0459 69.2388 90.1739 69.2482 90.2892C69.2576 90.4045 69.2914 90.5035 69.3466 90.5776C69.4019 90.6518 69.4769 90.6989 69.5653 90.7148L69.5791 90.5159ZM66.7946 89.0344C66.9107 89.1043 67.0634 89.0978 67.2203 89.0162C67.3772 88.9346 67.5259 88.7844 67.6348 88.5975C67.7437 88.4024 67.8015 88.187 67.796 87.9969C67.7905 87.8069 67.7221 87.6573 67.6053 87.58C66.6724 87.0836 65.8638 86.3882 65.0983 85.7157C64.9862 85.6299 64.8337 85.6194 64.6716 85.6863C64.5095 85.7532 64.3499 85.8925 64.2251 86.0761C64.1657 86.1685 64.1175 86.2688 64.0834 86.3714C64.0492 86.4739 64.0298 86.5766 64.0263 86.6734C64.0227 86.7703 64.0352 86.8594 64.0628 86.9355C64.0904 87.0115 64.1327 87.0731 64.1871 87.1166C64.9814 87.8044 65.8553 88.4462 66.8377 89.0573L66.7946 89.0344ZM75.6892 92.3231L75.7896 92.3766C76.8821 92.5504 78.009 92.6285 79.1642 92.6105C79.3148 92.6097 79.483 92.5276 79.6329 92.3816C79.7828 92.2357 79.9025 92.0375 79.9666 91.8293C79.9964 91.7265 80.0111 91.6249 80.0099 91.5302C80.0087 91.4355 79.9916 91.3498 79.9596 91.2779C79.9276 91.206 79.8813 91.1494 79.8234 91.1115C79.7655 91.0736 79.6972 91.055 79.6225 91.0569C78.5051 91.0715 77.4151 90.9934 76.3584 90.823C76.2872 90.8127 76.2093 90.8231 76.1291 90.8536C76.049 90.884 75.9683 90.9339 75.8918 91.0003C75.8153 91.0666 75.7446 91.1482 75.6837 91.2401C75.6229 91.3319 75.5731 91.4323 75.5375 91.5353C75.4873 91.6379 75.4512 91.7453 75.4315 91.8506C75.4118 91.9559 75.4089 92.0569 75.423 92.1473C75.4371 92.2378 75.4678 92.3157 75.5133 92.3762C75.5589 92.4367 75.6182 92.4786 75.6876 92.4991L75.6892 92.3231ZM61.9962 84.8312C62.098 84.8855 62.2258 84.8841 62.3594 84.8272C62.4931 84.7703 62.6249 84.6611 62.7344 84.5168C62.8614 84.3426 62.9473 84.1346 62.9745 83.9355C63.0017 83.7363 62.9682 83.5611 62.8808 83.4456C62.5336 83.0251 62.2109 82.5588 61.9168 82.1077C62.8111 81.2576 63.7198 80.4151 64.604 79.6185C64.7589 79.4781 64.8857 79.2809 64.9564 79.0701C65.0272 78.8592 65.0363 78.6519 64.9816 78.4935C64.9202 78.3487 64.8067 78.2623 64.6629 78.2511C64.5191 78.2399 64.3554 78.3048 64.2035 78.4331C63.2682 79.2909 62.2942 80.1869 61.3101 81.1366L61.0836 80.6625C61.0104 80.5244 60.8829 80.4535 60.7287 80.4651C60.5744 80.4767 60.4056 80.5698 60.2587 80.7245C60.1877 80.8009 60.1245 80.8898 60.0725 80.9862C60.0206 81.0825 59.9809 81.1845 59.9559 81.2861C59.9309 81.3878 59.921 81.4871 59.9268 81.5785C59.9326 81.6699 59.9539 81.7516 59.9895 81.8188L60.3745 82.5835L60.4283 82.7595C60.4913 82.8342 60.5751 82.8787 60.6722 82.8893C61.0466 83.501 61.4741 84.082 61.9281 84.6477L61.9962 84.8312ZM82.4918 92.1711C82.5503 92.2324 82.6236 92.2714 82.7071 92.2856C83.9471 92.04 85.221 91.5781 86.4948 90.9124C86.656 90.8167 86.8048 90.6528 86.9098 90.4556C87.0147 90.2583 87.0675 90.0432 87.0568 89.8561C87.0517 89.7625 87.0304 89.6788 86.9942 89.6102C86.9579 89.5416 86.9075 89.4893 86.8459 89.4565C86.7843 89.4238 86.7128 89.4111 86.6356 89.4194C86.5584 89.4277 86.4772 89.4568 86.3966 89.5048C85.2317 90.0976 84.068 90.5177 82.9321 90.7553C82.8551 90.7701 82.7752 90.8051 82.6971 90.8583C82.619 90.9116 82.5444 90.9819 82.4778 91.0649C82.4112 91.148 82.354 91.2421 82.3097 91.3416C82.2654 91.441 82.2349 91.5438 82.2201 91.6435C82.1794 91.8179 82.1839 91.9824 82.233 92.1102C82.2821 92.238 82.3728 92.3215 82.4903 92.3471L82.4918 92.1711ZM58.9012 78.4995C58.9732 78.539 59.059 78.5505 59.1515 78.5331C59.2439 78.5157 59.3405 78.4699 59.4332 78.3995C59.5877 78.2765 59.7206 78.095 59.8043 77.8927C59.888 77.6903 59.916 77.4826 59.8826 77.3126C59.6808 76.4133 59.5805 75.4398 59.5836 74.4133C59.5867 74.0614 59.5755 73.7018 59.5908 73.3269C59.5727 73.1495 59.496 73.0154 59.3761 72.9517C59.2563 72.8879 59.1022 72.8992 58.945 72.9833C58.8642 73.0282 58.7853 73.0916 58.713 73.1695C58.6407 73.2474 58.5764 73.3384 58.5239 73.437C58.4715 73.5355 58.432 73.6397 58.4078 73.7432C58.3835 73.8467 58.3751 73.9475 58.3829 74.0396C58.3676 74.4145 58.3789 74.7741 58.3779 75.1566C58.4055 76.2632 58.5298 77.3168 58.7491 78.3007C58.7599 78.4593 58.8124 78.5901 58.8996 78.6755L58.9012 78.4995ZM67.4845 76.7314C67.5596 76.774 67.65 76.7857 67.7475 76.7656C67.845 76.7455 67.9466 76.6941 68.0431 76.6161C69.2584 75.6126 70.437 74.6781 71.5546 73.8584C71.7119 73.7323 71.8472 73.5473 71.9329 73.3412C72.0187 73.135 72.0484 72.9231 72.0162 72.7485C71.9981 72.6647 71.9648 72.5933 71.9181 72.5386C71.8715 72.4839 71.8124 72.447 71.7444 72.43C71.6763 72.413 71.6007 72.4162 71.5218 72.4395C71.4429 72.4628 71.3623 72.5057 71.2847 72.5657C70.1406 73.4007 68.9721 74.2817 67.7079 75.377C67.5534 75.5105 67.4243 75.7013 67.3484 75.9087C67.2725 76.116 67.2557 76.3234 67.3016 76.4867C67.2943 76.5861 67.307 76.6766 67.3386 76.75C67.3703 76.8234 67.4199 76.8774 67.483 76.9073L67.4845 76.7314ZM89.5634 87.9486C89.6653 88.0029 89.7931 88.0015 89.9267 87.9445C90.0603 87.8876 90.1922 87.7784 90.3016 87.6342C90.6711 87.1475 91.0061 86.6227 91.2984 86.0725C91.8779 84.9607 92.296 83.7848 92.5231 82.6284C92.5438 82.5267 92.5489 82.4284 92.5383 82.3393C92.5276 82.2503 92.5013 82.1722 92.4609 82.1096C92.4206 82.047 92.3669 82.0012 92.3031 81.9747C92.2393 81.9483 92.1666 81.9418 92.0892 81.9556C92.0138 81.966 91.9348 81.9966 91.857 82.0453C91.7791 82.0941 91.7039 82.1601 91.6359 82.2394C91.5679 82.3187 91.5085 82.4097 91.4613 82.507C91.414 82.6043 91.3798 82.7058 91.3607 82.8055C91.1678 83.737 90.8286 84.6809 90.3654 85.5761C90.1418 86.0043 89.8819 86.4114 89.5929 86.7857C89.5281 86.8711 89.4728 86.9666 89.4304 87.0667C89.3879 87.1668 89.359 87.2695 89.3454 87.369C89.3318 87.4685 89.3338 87.5628 89.3511 87.6465C89.3684 87.7302 89.4009 87.8017 89.4465 87.8569L89.5634 87.9486ZM58.7316 69.9232C58.8291 69.9752 58.9499 69.9778 59.0776 69.9305C59.1573 69.9022 59.238 69.8544 59.3148 69.79C59.3917 69.7255 59.4631 69.6456 59.525 69.5551C59.5869 69.4646 59.638 69.3651 59.6753 69.2627C59.7126 69.1602 59.7353 69.0567 59.7422 68.9582C59.8465 67.4815 60.004 65.9742 60.2741 64.4973C60.2874 64.3977 60.285 64.3034 60.2671 64.2199C60.2493 64.1364 60.2163 64.0652 60.1701 64.0105C60.1239 63.9558 60.0654 63.9187 59.998 63.9012C59.9305 63.8837 59.8554 63.8863 59.777 63.9087C59.6987 63.9307 59.6185 63.9721 59.5411 64.0306C59.4637 64.0891 59.3907 64.1635 59.326 64.2496C59.2614 64.3357 59.2065 64.4317 59.1646 64.5322C59.1226 64.6327 59.0944 64.7356 59.0816 64.8351C58.8566 66.3655 58.7013 67.9034 58.5869 69.4337C58.5489 69.5778 58.5422 69.7172 58.5676 69.8352C58.593 69.9533 58.6494 70.0449 58.73 70.0991L58.7316 69.9232ZM74.6207 71.453C74.6863 71.4873 74.763 71.4988 74.8456 71.4869C74.9281 71.4749 75.0147 71.4398 75.0996 71.3837C76.2819 70.634 77.4724 69.9685 78.6644 69.391C78.8256 69.2953 78.9744 69.1314 79.0794 68.9341C79.1843 68.7369 79.2371 68.5218 79.2264 68.3346C79.2128 68.1528 79.1374 68.0148 79.0165 67.9505C78.8956 67.8862 78.739 67.9007 78.5806 67.991C77.3354 68.5992 76.0917 69.2954 74.8563 70.0756C74.7756 70.1206 74.6968 70.184 74.6244 70.2619C74.5521 70.3398 74.4878 70.4308 74.4354 70.5294C74.3829 70.6279 74.3434 70.7321 74.3192 70.8356C74.295 70.9391 74.2865 71.0399 74.2943 71.132C74.2917 71.2674 74.3208 71.3857 74.3783 71.4736C74.4357 71.5614 74.5191 71.6152 74.6192 71.629L74.6207 71.453ZM91.8413 78.995C91.9574 79.0549 92.1034 79.0494 92.2548 78.9793C92.4142 78.8793 92.5604 78.7152 92.6644 78.5196C92.7685 78.3239 92.8229 78.111 92.8169 77.923C92.7916 76.4413 92.6643 75.0137 92.4363 73.6542C92.4213 73.5688 92.3911 73.4951 92.3474 73.4374C92.3038 73.3796 92.2475 73.339 92.1818 73.3177C92.1162 73.2965 92.0424 73.295 91.9648 73.3135C91.8871 73.332 91.8071 73.37 91.7293 73.4254C91.5693 73.5404 91.4283 73.7195 91.3365 73.9243C91.2448 74.129 91.2098 74.3429 91.239 74.5199C91.4563 75.7955 91.5732 77.1393 91.5882 78.5362C91.5682 78.6872 91.581 78.8261 91.6254 78.938C91.6697 79.0499 91.7438 79.1305 91.8397 79.171L91.8413 78.995ZM60.0138 60.764C60.0686 60.8209 60.1369 60.8573 60.2148 60.8709C60.2919 60.8584 60.3723 60.8258 60.4515 60.775C60.5306 60.7242 60.6069 60.6563 60.6758 60.5751C60.7447 60.4939 60.8049 60.401 60.8529 60.302C60.9009 60.2029 60.9358 60.0996 60.9554 59.998C61.2766 58.4599 61.653 56.9217 62.0704 55.3758C62.1255 55.171 62.119 54.977 62.0522 54.8366C61.9854 54.6961 61.8638 54.6205 61.7141 54.6265C61.6398 54.6267 61.5604 54.6474 61.4804 54.6873C61.4003 54.7273 61.3213 54.7856 61.248 54.859C61.1747 54.9325 61.1084 55.0194 61.0532 55.1149C60.9979 55.2104 60.9547 55.3125 60.9261 55.4152C60.4987 57.0147 60.1121 58.6064 59.7931 60.1751C59.7359 60.3549 59.7265 60.531 59.7668 60.6714C59.807 60.8118 59.8941 60.9071 60.0123 60.94L60.0138 60.764ZM81.928 68.0336C82.0127 68.0709 82.1128 68.0735 82.2188 68.041C83.3611 67.7259 84.4724 67.6039 85.5241 67.6781C85.5953 67.6851 85.6727 67.6721 85.7519 67.6397C85.831 67.6073 85.9103 67.5562 85.9852 67.4894C86.0601 67.4225 86.1291 67.3412 86.1884 67.25C86.2477 67.1589 86.2961 67.0597 86.3307 66.9582C86.3681 66.856 86.3905 66.7527 86.3967 66.6548C86.4028 66.5569 86.3925 66.4664 86.3663 66.389C86.3402 66.3116 86.2988 66.2488 86.2448 66.2046C86.1907 66.1604 86.1251 66.1358 86.052 66.1322C84.8997 66.0438 83.6819 66.1685 82.4294 66.503C82.2679 66.5512 82.1031 66.6778 81.9707 66.8555C81.8382 67.0331 81.7488 67.2475 81.7216 67.4523C81.6758 67.617 81.6681 67.7767 81.6997 67.9095C81.7312 68.0423 81.8004 68.1418 81.8978 68.1943L81.928 68.0336ZM90.417 71.2539C90.5081 71.2995 90.6181 71.3044 90.7351 71.2678C90.852 71.2312 90.9713 71.1547 91.0797 71.0466C91.2224 70.8957 91.3322 70.6971 91.3852 70.4937C91.4383 70.2904 91.4304 70.0986 91.3632 69.96C90.8134 68.8095 90.0612 67.8809 89.1403 67.2155C89.085 67.1739 89.0189 67.1513 88.9458 67.1488C88.8727 67.1464 88.794 67.1642 88.7144 67.2013C88.6347 67.2383 88.5556 67.2939 88.4817 67.3648C88.4078 67.4356 88.3405 67.5205 88.2836 67.6143C88.224 67.7071 88.176 67.8083 88.1429 67.9115C88.1098 68.0147 88.0921 68.1176 88.091 68.2138C88.0899 68.3101 88.1055 68.3975 88.1367 68.4708C88.1678 68.544 88.214 68.6014 88.2722 68.6394C89.0705 69.2438 89.7296 70.0621 90.224 71.0628C90.2345 71.2193 90.292 71.3437 90.3867 71.4146L90.417 71.2539ZM62.6099 51.4199L62.7247 51.481C62.8724 51.4907 63.0409 51.4183 63.1939 51.2795C63.3469 51.1406 63.4725 50.9463 63.5436 50.7381C64.0593 49.2151 64.6425 47.669 65.2565 46.1689C65.2994 46.0673 65.3282 45.963 65.3414 45.8622C65.3545 45.7614 65.3516 45.6661 65.3328 45.582C65.3141 45.4979 65.2799 45.4267 65.2322 45.3725C65.1846 45.3182 65.1244 45.2822 65.0554 45.2663C64.9166 45.2359 64.7515 45.286 64.595 45.406C64.4384 45.526 64.3024 45.7066 64.2157 45.9098C63.5773 47.4559 62.984 49.0555 62.4439 50.6244C62.35 50.8273 62.3117 51.0408 62.3371 51.2195C62.3624 51.3981 62.4495 51.5277 62.5796 51.5806L62.6099 51.4199ZM66.4141 42.1588C66.4773 42.1887 66.5499 42.1982 66.6278 42.1869C66.7057 42.1756 66.7872 42.1436 66.8675 42.0928C66.9478 42.042 67.0252 41.9735 67.0951 41.8914C67.165 41.8093 67.226 41.7152 67.2745 41.6147C67.7755 40.6732 68.2642 39.7547 68.7652 38.8131C69.0462 38.285 69.3272 37.7568 69.6082 37.2286C69.6615 37.1331 69.7027 37.0316 69.7294 36.9299C69.7562 36.8283 69.7679 36.7284 69.7641 36.636C69.7602 36.5436 69.7408 36.4606 69.7069 36.3916C69.673 36.3226 69.6253 36.2691 69.5665 36.234C69.5083 36.1951 69.4395 36.176 69.3639 36.1778C69.2884 36.1795 69.2078 36.2022 69.1269 36.2444C69.046 36.2866 68.9665 36.3475 68.8932 36.4234C68.8198 36.4993 68.754 36.5887 68.6998 36.6863C68.4065 37.2374 68.1255 37.7656 67.8323 38.3168C67.3191 39.2813 66.8059 40.2457 66.2927 41.2102C66.2219 41.3192 66.1668 41.4395 66.1321 41.5611C66.0973 41.6828 66.0839 41.8025 66.0927 41.9106C66.1016 42.0186 66.1326 42.1119 66.1832 42.1829C66.2338 42.254 66.3025 42.3008 66.3839 42.3195L66.4141 42.1588ZM71.3293 33.3709C71.4411 33.4322 71.5844 33.4254 71.7321 33.352C71.8798 33.2785 72.0217 33.1434 72.1308 32.9723C73.0031 31.6096 73.9308 30.2469 74.9015 28.907C74.9646 28.8187 75.0174 28.721 75.057 28.6195C75.0965 28.5181 75.1219 28.4149 75.1317 28.316C75.1416 28.2171 75.1355 28.1245 75.1141 28.0434C75.0927 27.9622 75.0563 27.8943 75.007 27.8435C74.911 27.7395 74.7692 27.7086 74.6122 27.7574C74.4553 27.8062 74.2958 27.9309 74.1683 28.1045C73.1732 29.4902 72.2067 30.8912 71.3099 32.2998C71.2505 32.3922 71.2023 32.4926 71.1682 32.5951C71.134 32.6977 71.1146 32.8003 71.1111 32.8972C71.1075 32.994 71.1199 33.0831 71.1476 33.1592C71.1752 33.2353 71.2174 33.2968 71.2719 33.3404L71.3293 33.3709ZM77.1392 25.3243C77.2077 25.4007 77.3016 25.4385 77.4093 25.4329C77.517 25.4274 77.6338 25.3787 77.7451 25.2931C78.751 24.0604 79.812 22.8276 80.8774 21.656C80.9483 21.5796 81.0116 21.4906 81.0636 21.3943C81.1156 21.2979 81.1551 21.196 81.1801 21.0943C81.2051 20.9927 81.2151 20.8933 81.2093 20.8019C81.2035 20.7105 81.1823 20.6288 81.1466 20.5616C81.0674 20.4298 80.9366 20.3652 80.781 20.381C80.6255 20.3968 80.4568 20.4918 80.3095 20.6466C79.2176 21.8335 78.1321 23.1122 77.0997 24.3603C76.9618 24.5331 76.865 24.7469 76.8302 24.9548C76.7955 25.1627 76.8258 25.3478 76.9145 25.4699L77.1392 25.3243ZM83.6377 18.2334C83.72 18.279 83.8207 18.2867 83.9285 18.2555C84.0362 18.2242 84.1466 18.1554 84.2473 18.0568C85.36 16.9693 86.4913 15.9506 87.6391 14.9702C87.7938 14.8332 87.9216 14.6393 87.995 14.4302C88.0683 14.2211 88.0812 14.0137 88.031 13.8528C88.0081 13.7724 87.9696 13.706 87.9179 13.6579C87.8662 13.6098 87.8025 13.5809 87.7306 13.5731C87.6588 13.5652 87.5804 13.5787 87.5003 13.6125C87.4202 13.6462 87.3401 13.6996 87.2651 13.7694C86.0907 14.7651 84.935 15.8298 83.7527 16.9097C83.6027 17.057 83.4835 17.2565 83.4206 17.4654C83.3576 17.6743 83.356 17.8759 83.416 18.027L83.6377 18.2334ZM90.5876 12.2666C90.6598 12.2995 90.7437 12.3069 90.8332 12.2883C90.9227 12.2697 91.0156 12.2255 91.1053 12.159C92.2739 11.278 93.4611 10.4659 94.6504 9.68432C94.8116 9.58859 94.9604 9.42473 95.0654 9.22748C95.1703 9.03023 95.2231 8.81515 95.2124 8.62798C95.2073 8.53436 95.186 8.45069 95.1497 8.38205C95.1135 8.3134 95.063 8.2612 95.0014 8.22842C94.9398 8.19565 94.8683 8.18298 94.7912 8.19127C94.714 8.19957 94.6327 8.22863 94.5522 8.27668C93.3363 9.07355 92.1247 9.93161 90.9296 10.8279C90.7697 10.9466 90.63 11.1289 90.541 11.3352C90.4519 11.5415 90.4205 11.7553 90.4536 11.9301C90.4322 12.1317 90.469 12.3081 90.5574 12.4273L90.5876 12.2666ZM97.8053 7.56193C97.8636 7.59356 97.9312 7.60645 98.0043 7.59981C98.0774 7.59318 98.1544 7.56715 98.2311 7.52326C99.4289 6.86413 100.643 6.24327 101.835 5.69889C101.914 5.66369 101.993 5.61 102.068 5.54092C102.142 5.47185 102.21 5.38875 102.267 5.29632C102.325 5.20389 102.371 5.10396 102.404 5.00228C102.436 4.90059 102.454 4.7991 102.457 4.70365C102.459 4.60817 102.446 4.5206 102.418 4.44588C102.39 4.37115 102.348 4.31076 102.293 4.26818C102.239 4.2256 102.174 4.20166 102.102 4.19772C102.029 4.19377 101.951 4.20991 101.872 4.2452C100.639 4.79726 99.3983 5.43348 98.1595 6.10031C97.9983 6.19604 97.8494 6.35997 97.7445 6.55722C97.6395 6.75447 97.5867 6.96955 97.5974 7.15671C97.5864 7.27941 97.5965 7.39336 97.6272 7.49096C97.6578 7.58856 97.7082 7.66756 97.775 7.72269L97.8053 7.56193ZM105.092 4.24972C105.186 4.29191 105.295 4.29963 105.412 4.27233C106.612 3.85036 107.803 3.48195 108.959 3.21304C109.038 3.19623 109.119 3.15914 109.198 3.10391C109.278 3.04868 109.353 2.97645 109.421 2.8915C109.488 2.80656 109.546 2.7106 109.591 2.60934C109.636 2.50807 109.668 2.40352 109.683 2.30189C109.714 2.0986 109.681 1.91879 109.593 1.80039C109.505 1.68199 109.368 1.63426 109.21 1.66733C108.001 1.9669 106.782 2.32002 105.592 2.68843C105.512 2.71432 105.43 2.76006 105.353 2.82294C105.275 2.88581 105.202 2.96456 105.139 3.0545C105.076 3.14444 105.023 3.24376 104.984 3.34658C104.945 3.44939 104.921 3.55364 104.913 3.65311C104.849 3.82725 104.828 4.00221 104.854 4.14946C104.879 4.29671 104.949 4.40756 105.052 4.46395L105.092 4.24972ZM112.243 2.54418L112.415 2.63582C113.569 2.4876 114.704 2.42266 115.815 2.44124C115.965 2.43449 116.131 2.3487 116.278 2.20177C116.425 2.05483 116.541 1.85805 116.603 1.65241C116.663 1.44416 116.662 1.24451 116.6 1.09594C116.538 0.947362 116.42 0.86163 116.271 0.857079C115.139 0.873493 113.968 0.928237 112.789 1.06711C112.633 1.08739 112.465 1.18857 112.321 1.34896C112.177 1.50935 112.069 1.7161 112.02 1.92472C111.962 2.10615 111.95 2.28444 111.988 2.42844C112.026 2.57244 112.111 2.67298 112.227 2.71252L112.243 2.54418Z" fill="url(#paint0_linear_2_3131)"/>
<defs>
<linearGradient id="paint0_linear_2_3131" x1="151.137" y1="19.365" x2="24.0698" y2="258.18" gradientUnits="userSpaceOnUse">
<stop stop-color="#C0242A"/>
<stop offset="1" stop-color="#C4C8DC"/>
</linearGradient>
</defs>
</svg>
