<svg width="35" height="28" viewBox="0 0 35 28" fill="none" xmlns="http://www.w3.org/2000/svg">
<path d="M32.4133 5.56727C32.2401 4.79606 31.8873 4.08944 31.3905 3.5188C30.8938 2.94816 30.2707 2.53369 29.5842 2.31727C27.0758 1.63477 17.0425 1.63477 17.0425 1.63477C17.0425 1.63477 7.00917 1.63477 4.50083 2.38227C3.81432 2.59869 3.19122 3.01316 2.69446 3.5838C2.19771 4.15444 1.8449 4.86106 1.67167 5.63227C1.2126 8.46879 0.988053 11.3463 1.00083 14.2285C0.98447 17.1325 1.20904 20.0319 1.67167 22.8898C1.86265 23.637 2.22336 24.3168 2.71896 24.8633C3.21456 25.4098 3.82828 25.8047 4.50083 26.0098C7.00917 26.7573 17.0425 26.7573 17.0425 26.7573C17.0425 26.7573 27.0758 26.7573 29.5842 26.0098C30.2707 25.7933 30.8938 25.3789 31.3905 24.8082C31.8873 24.2376 32.2401 23.531 32.4133 22.7598C32.8689 19.9446 33.0934 17.0891 33.0842 14.2285C33.1005 11.3246 32.876 8.42515 32.4133 5.56727Z" stroke="white" stroke-width="2" stroke-linecap="round" stroke-linejoin="round"/>
<path d="M13.7617 19.5435L22.1471 14.2298L13.7617 8.91602V19.5435Z" stroke="white" stroke-width="2" stroke-linecap="round" stroke-linejoin="round"/>
</svg>
