<svg width="270" height="333" viewBox="0 0 270 333" fill="none" xmlns="http://www.w3.org/2000/svg">
<path d="M146.912 331.469L144.095 331.799C143.942 331.817 143.787 331.808 143.64 331.773C143.493 331.738 143.357 331.678 143.24 331.595C143.122 331.513 143.026 331.41 142.956 331.293C142.886 331.177 142.845 331.048 142.834 330.916C142.819 330.784 142.834 330.649 142.879 330.521C142.925 330.392 142.999 330.272 143.098 330.167C143.197 330.062 143.319 329.975 143.456 329.91C143.593 329.846 143.742 329.806 143.896 329.792C146.214 329.52 148.496 329.253 150.742 328.99C151.048 328.946 151.357 329.006 151.604 329.158C151.851 329.309 152.017 329.541 152.067 329.803C152.099 330.071 152.011 330.342 151.822 330.562C151.632 330.781 151.356 330.932 151.048 330.984L146.912 331.469ZM137.318 332.28C135.001 332.552 132.643 332.484 130.296 332.509C130.144 332.511 129.994 332.488 129.854 332.439C129.715 332.39 129.589 332.317 129.484 332.225C129.379 332.133 129.297 332.023 129.243 331.901C129.188 331.779 129.163 331.649 129.168 331.517C129.17 331.385 129.203 331.254 129.264 331.131C129.325 331.008 129.413 330.897 129.523 330.803C129.633 330.708 129.763 330.633 129.905 330.582C130.047 330.531 130.198 330.504 130.35 330.504C132.662 330.483 134.966 330.4 137.227 330.261C137.535 330.248 137.833 330.341 138.057 330.519C138.28 330.697 138.412 330.947 138.423 331.214C138.429 331.344 138.405 331.476 138.353 331.6C138.301 331.724 138.221 331.839 138.118 331.938C138.016 332.037 137.892 332.119 137.755 332.177C137.618 332.236 137.469 332.271 137.318 332.28V332.28ZM158.038 329.853C157.749 329.889 157.459 329.832 157.222 329.693C156.986 329.553 156.82 329.341 156.756 329.098C156.705 328.835 156.775 328.562 156.952 328.338C157.128 328.113 157.396 327.954 157.7 327.894C159.5 327.527 161.226 327.138 163.051 326.674L164.389 326.361C164.536 326.322 164.69 326.308 164.842 326.321C164.994 326.334 165.14 326.373 165.272 326.436C165.404 326.499 165.519 326.585 165.611 326.688C165.702 326.792 165.768 326.911 165.805 327.039C165.876 327.291 165.829 327.561 165.673 327.79C165.517 328.018 165.265 328.188 164.972 328.26L163.639 328.604C161.849 329.064 160.123 329.453 158.144 329.841L158.038 329.853ZM123.438 332.594L123.259 332.615C120.973 332.539 118.612 332.441 116.279 332.277C115.978 332.252 115.703 332.128 115.512 331.929C115.32 331.731 115.227 331.473 115.25 331.21C115.264 331.076 115.31 330.944 115.383 330.824C115.457 330.703 115.558 330.596 115.679 330.509C115.801 330.422 115.941 330.356 116.091 330.316C116.241 330.276 116.397 330.263 116.551 330.277C118.844 330.415 121.138 330.552 123.421 330.597C123.724 330.607 124.006 330.722 124.204 330.915C124.403 331.108 124.503 331.365 124.481 331.628C124.427 331.843 124.294 332.039 124.102 332.185C123.911 332.332 123.671 332.421 123.42 332.44L123.438 332.594ZM171.447 326.44C171.184 326.468 170.921 326.416 170.702 326.294C170.484 326.172 170.323 325.986 170.248 325.769C170.196 325.645 170.175 325.513 170.186 325.38C170.196 325.247 170.238 325.117 170.309 324.997C170.38 324.878 170.478 324.771 170.597 324.684C170.717 324.598 170.854 324.533 171.002 324.493C173.13 323.838 175.323 323.113 177.508 322.326C177.65 322.276 177.8 322.251 177.951 322.252C178.101 322.253 178.249 322.279 178.386 322.33C178.523 322.381 178.646 322.455 178.748 322.547C178.851 322.64 178.93 322.751 178.982 322.872C179.089 323.12 179.078 323.398 178.952 323.646C178.825 323.895 178.594 324.093 178.306 324.2C176.121 324.987 173.893 325.717 171.693 326.38L171.447 326.44ZM109.63 331.681L109.345 331.715C107.072 331.45 104.764 331.189 102.445 330.836C102.148 330.792 101.887 330.646 101.72 330.432C101.552 330.217 101.492 329.951 101.552 329.691C101.578 329.561 101.634 329.436 101.717 329.323C101.8 329.21 101.908 329.113 102.034 329.037C102.161 328.96 102.303 328.907 102.453 328.879C102.602 328.852 102.755 328.851 102.903 328.877C105.179 329.173 107.455 329.468 109.688 329.707C109.839 329.718 109.985 329.756 110.116 329.818C110.247 329.881 110.362 329.967 110.452 330.07C110.542 330.174 110.606 330.293 110.64 330.421C110.674 330.549 110.677 330.682 110.649 330.812C110.581 331.008 110.444 331.183 110.258 331.312C110.072 331.44 109.846 331.515 109.612 331.527L109.63 331.681ZM184.391 321.832C184.144 321.858 183.896 321.816 183.683 321.712C183.469 321.608 183.301 321.448 183.203 321.253C183.084 321.014 183.081 320.741 183.195 320.494C183.308 320.246 183.528 320.045 183.807 319.933C185.914 319.093 188.014 318.191 190.07 317.232C190.35 317.115 190.666 317.092 190.956 317.168C191.246 317.244 191.489 317.413 191.637 317.642C191.769 317.883 191.785 318.163 191.679 318.421C191.574 318.679 191.357 318.894 191.075 319.019C189.018 319.978 186.847 320.889 184.741 321.729L184.391 321.832ZM95.9526 329.722L95.5604 329.768C93.3057 329.345 91.0474 328.891 88.8211 328.403C88.6741 328.372 88.5367 328.315 88.4169 328.237C88.2971 328.159 88.1974 328.06 88.1235 327.946C88.0496 327.833 88.003 327.707 87.9866 327.576C87.9701 327.445 87.9841 327.312 88.0277 327.184C88.0683 327.055 88.1379 326.934 88.2323 326.827C88.3267 326.721 88.444 326.631 88.5774 326.563C88.7108 326.495 88.8576 326.45 89.0092 326.431C89.1609 326.413 89.3143 326.42 89.4604 326.454C91.651 326.947 93.8736 327.405 96.1247 327.797C96.4187 327.854 96.6708 328.011 96.8255 328.233C96.9802 328.454 97.0251 328.724 96.9502 328.981C96.8648 329.141 96.7319 329.279 96.5657 329.381C96.3994 329.483 96.206 329.545 96.0058 329.56L95.9526 329.722ZM196.849 316.157C196.625 316.18 196.4 316.149 196.2 316.068C195.999 315.987 195.829 315.858 195.711 315.697C195.585 315.572 195.497 315.422 195.455 315.259C195.414 315.096 195.419 314.925 195.471 314.762C195.524 314.598 195.621 314.447 195.755 314.321C195.889 314.196 196.056 314.1 196.24 314.042C198.218 313.029 200.228 311.982 202.195 310.877C202.324 310.803 202.468 310.752 202.618 310.727C202.768 310.701 202.921 310.702 203.069 310.728C203.216 310.754 203.355 310.806 203.478 310.88C203.601 310.954 203.704 311.049 203.783 311.159C203.936 311.383 203.982 311.651 203.911 311.91C203.84 312.168 203.658 312.396 203.403 312.547C201.4 313.656 199.358 314.738 197.348 315.786L196.849 316.157ZM82.5914 326.758C82.4422 326.806 82.2839 326.824 82.1278 326.813C79.9264 326.227 77.7215 325.611 75.5485 324.96C75.4055 324.92 75.2739 324.855 75.1616 324.77C75.0494 324.684 74.9585 324.58 74.8943 324.463C74.8301 324.345 74.7939 324.217 74.7878 324.086C74.7816 323.954 74.8055 323.822 74.8583 323.697C74.9682 323.441 75.1892 323.229 75.473 323.108C75.7567 322.987 76.0803 322.967 76.3733 323.052C78.5106 323.707 80.68 324.327 82.8422 324.886C82.9863 324.921 83.1204 324.979 83.2365 325.059C83.3527 325.139 83.4487 325.239 83.5191 325.353C83.5895 325.466 83.6328 325.592 83.6467 325.721C83.6606 325.851 83.6447 325.983 83.6 326.109C83.495 326.25 83.3533 326.367 83.187 326.452C83.0208 326.537 82.8348 326.586 82.6448 326.596L82.5914 326.758ZM208.685 309.492C208.483 309.517 208.279 309.496 208.093 309.43C207.908 309.364 207.747 309.255 207.629 309.116C207.54 309.01 207.478 308.889 207.446 308.76C207.413 308.631 207.411 308.497 207.44 308.365C207.468 308.234 207.527 308.108 207.611 307.995C207.696 307.881 207.806 307.783 207.933 307.706C209.819 306.517 211.7 305.297 213.492 303.932C213.745 303.771 214.055 303.698 214.36 303.726C214.665 303.754 214.942 303.881 215.137 304.083C215.227 304.185 215.293 304.302 215.331 304.428C215.368 304.554 215.376 304.686 215.354 304.816C215.332 304.946 215.281 305.072 215.204 305.187C215.127 305.302 215.024 305.403 214.903 305.484C213.065 306.762 211.147 307.986 209.202 309.275C209.065 309.358 208.913 309.418 208.752 309.453L208.685 309.492ZM69.6286 322.873C69.4476 322.941 69.2498 322.964 69.058 322.94C66.9098 322.192 64.7974 321.44 62.6704 320.565C62.3973 320.449 62.1883 320.247 62.0854 319.998C61.9824 319.749 61.9934 319.473 62.1159 319.224C62.2583 318.983 62.4989 318.795 62.7893 318.697C63.0797 318.599 63.3982 318.6 63.6808 318.697C65.7649 319.515 67.8417 320.272 69.9614 321.085C70.1036 321.131 70.2328 321.201 70.3414 321.291C70.4501 321.382 70.536 321.491 70.594 321.612C70.6521 321.734 70.6811 321.865 70.6793 321.998C70.6776 322.131 70.645 322.263 70.5838 322.387C70.4571 322.479 70.3102 322.547 70.1528 322.587C69.9954 322.627 69.8312 322.638 69.671 322.618L69.6286 322.873ZM219.767 301.948C219.575 301.967 219.381 301.945 219.204 301.884C219.027 301.823 218.871 301.725 218.75 301.598C218.567 301.393 218.482 301.132 218.511 300.869C218.541 300.605 218.682 300.357 218.908 300.174C220.672 298.874 222.425 297.482 224.107 296.098C224.338 295.92 224.636 295.824 224.939 295.829C225.243 295.834 225.528 295.94 225.737 296.126C225.841 296.218 225.922 296.328 225.975 296.449C226.029 296.57 226.054 296.7 226.049 296.831C226.044 296.962 226.01 297.092 225.947 297.214C225.885 297.335 225.796 297.445 225.685 297.538C223.971 298.956 222.183 300.353 220.387 301.687C220.231 301.808 220.039 301.885 219.835 301.908L219.767 301.948ZM57.0422 317.882C56.811 317.905 56.5797 317.867 56.3787 317.772C54.3231 316.889 52.296 315.939 50.3045 314.986C50.1678 314.924 50.048 314.839 49.9524 314.734C49.8568 314.63 49.7874 314.509 49.7485 314.379C49.7096 314.249 49.702 314.113 49.7262 313.979C49.7503 313.844 49.8056 313.715 49.8888 313.598C49.9677 313.483 50.0713 313.383 50.1937 313.303C50.3161 313.222 50.455 313.163 50.6021 313.128C50.7492 313.093 50.9018 313.084 51.0511 313.101C51.2004 313.117 51.3434 313.159 51.472 313.225C53.4634 314.178 55.3086 315.118 57.5033 315.954C57.7668 316.08 57.9607 316.291 58.0441 316.543C58.1275 316.795 58.0942 317.069 57.951 317.307C57.8686 317.447 57.749 317.569 57.6026 317.662C57.4562 317.755 57.2872 317.817 57.11 317.843L57.0422 317.882ZM230.002 293.347C229.831 293.364 229.659 293.35 229.498 293.304C229.336 293.258 229.189 293.182 229.067 293.081C228.962 292.991 228.878 292.883 228.822 292.764C228.766 292.644 228.738 292.515 228.739 292.385C228.741 292.254 228.772 292.124 228.831 292.002C228.89 291.88 228.976 291.768 229.083 291.674C230.651 290.241 232.35 288.699 233.8 287.186C233.998 286.976 234.28 286.838 234.586 286.802C234.892 286.767 235.199 286.835 235.44 286.994C235.561 287.073 235.661 287.173 235.735 287.288C235.809 287.402 235.855 287.53 235.871 287.662C235.886 287.794 235.871 287.929 235.825 288.057C235.78 288.186 235.705 288.306 235.606 288.411C234.053 289.967 232.354 291.509 230.826 292.969C230.719 293.08 230.587 293.171 230.439 293.237C230.291 293.303 230.13 293.341 229.967 293.351L230.002 293.347ZM45.0825 312.068C44.8231 312.101 44.5616 312.054 44.344 311.936C42.3773 310.885 40.4748 309.765 38.5759 308.676C38.4551 308.597 38.3548 308.497 38.2808 308.382C38.2068 308.267 38.1607 308.14 38.1452 308.008C38.1297 307.876 38.1452 307.741 38.1906 307.612C38.2361 307.484 38.3106 307.363 38.4099 307.259C38.6021 307.051 38.8785 306.915 39.1789 306.88C39.4793 306.844 39.7797 306.913 40.0147 307.071C41.8779 308.164 43.8838 309.241 45.7435 310.304C45.9763 310.464 46.124 310.699 46.1544 310.958C46.1848 311.218 46.0955 311.481 45.9058 311.69C45.8144 311.792 45.7005 311.878 45.5711 311.941C45.4418 312.004 45.2998 312.045 45.1538 312.059L45.0825 312.068ZM239.356 284.006C239.047 284.024 238.744 283.949 238.499 283.793C238.271 283.624 238.128 283.385 238.097 283.122C238.066 282.86 238.15 282.594 238.333 282.376C239.776 280.802 241.211 279.166 242.575 277.538C242.767 277.331 243.043 277.194 243.344 277.159C243.644 277.124 243.944 277.193 244.179 277.35C244.404 277.515 244.546 277.749 244.577 278.006C244.607 278.264 244.523 278.525 244.342 278.737C242.95 280.43 241.529 282.189 240.04 283.676C239.857 283.846 239.616 283.962 239.356 284.006V284.006ZM33.8703 305.229C33.5666 305.261 33.2636 305.197 33.0177 305.048C31.1757 303.827 29.3656 302.571 27.6269 301.307C27.3912 301.142 27.242 300.902 27.211 300.637C27.18 300.372 27.2697 300.104 27.4609 299.889C27.6532 299.682 27.9295 299.546 28.23 299.51C28.5304 299.475 28.8307 299.544 29.0657 299.701C30.8008 300.935 32.5715 302.164 34.3743 303.359C34.61 303.523 34.7592 303.764 34.7902 304.028C34.8212 304.293 34.7316 304.561 34.5403 304.776C34.4852 304.906 34.3979 305.026 34.2846 305.126C34.1713 305.225 34.0347 305.303 33.8848 305.352L33.8703 305.229ZM247.577 273.954C247.307 273.99 247.034 273.945 246.803 273.826C246.568 273.661 246.418 273.421 246.387 273.156C246.356 272.891 246.446 272.623 246.637 272.408C247.887 270.732 249.129 268.993 250.261 267.237C250.421 267.008 250.674 266.838 250.968 266.763C251.262 266.688 251.575 266.713 251.841 266.833C251.976 266.892 252.095 266.974 252.189 267.076C252.284 267.178 252.353 267.296 252.392 267.423C252.431 267.551 252.438 267.685 252.414 267.817C252.39 267.949 252.335 268.076 252.253 268.19C251.089 269.982 249.832 271.597 248.568 273.463C248.496 273.645 248.367 273.807 248.196 273.932C248.026 274.056 247.82 274.139 247.603 274.169L247.577 273.954ZM23.3846 297.493C23.2166 297.521 23.0445 297.515 22.8826 297.474C22.7207 297.433 22.5736 297.36 22.4534 297.259C20.7752 295.894 19.1327 294.524 17.5186 293.089C17.4147 292.997 17.3337 292.887 17.2801 292.766C17.2264 292.645 17.2013 292.515 17.2061 292.384C17.2109 292.253 17.2456 292.123 17.308 292.002C17.3705 291.88 17.4596 291.77 17.5702 291.678C17.7978 291.487 18.1 291.379 18.4111 291.378C18.7222 291.376 19.0173 291.482 19.2323 291.67C20.7678 293.052 22.4103 294.422 24.0492 295.76C24.2849 295.925 24.4341 296.165 24.4651 296.43C24.4961 296.694 24.4064 296.962 24.2152 297.177C24.128 297.308 24.0117 297.422 23.8732 297.514C23.7347 297.605 23.577 297.671 23.4099 297.709L23.3846 297.493ZM254.579 263.358C254.363 263.395 254.142 263.365 253.954 263.275C253.68 263.16 253.473 262.955 253.376 262.703C253.279 262.452 253.3 262.175 253.435 261.93C254.492 260.151 255.506 258.314 256.413 256.49C256.474 256.368 256.562 256.256 256.672 256.161C256.782 256.067 256.911 255.992 257.053 255.94C257.195 255.889 257.347 255.862 257.499 255.861C257.651 255.861 257.801 255.886 257.939 255.937C258.214 256.041 258.429 256.235 258.538 256.479C258.648 256.722 258.643 256.995 258.526 257.242C257.551 259.106 256.541 260.973 255.562 262.805C255.488 262.984 255.357 263.142 255.185 263.261C255.014 263.381 254.809 263.457 254.593 263.481L254.579 263.358ZM13.8608 289.02C13.6718 289.045 13.4803 289.029 13.3034 288.973C13.1265 288.918 12.9698 288.824 12.8475 288.701C11.3368 287.223 9.8545 285.679 8.44357 284.126C8.25782 283.924 8.17439 283.664 8.21146 283.402C8.24852 283.14 8.4031 282.898 8.64143 282.729C8.88618 282.558 9.19482 282.476 9.5014 282.498C9.80798 282.521 10.0882 282.646 10.2823 282.849C11.654 284.375 13.1326 285.888 14.6076 287.371C14.7082 287.467 14.785 287.581 14.8334 287.705C14.8817 287.829 14.9008 287.961 14.8893 288.093C14.8779 288.225 14.8362 288.355 14.7667 288.475C14.6972 288.595 14.6014 288.702 14.4847 288.791C14.3329 288.982 14.1261 289.135 13.8861 289.236L13.8608 289.02ZM260.288 252.226C260.118 252.289 259.933 252.31 259.753 252.289C259.47 252.202 259.242 252.019 259.119 251.782C258.996 251.544 258.989 251.271 259.099 251.022C259.923 249.114 260.713 247.21 261.395 245.319C261.439 245.192 261.511 245.074 261.609 244.972C261.706 244.869 261.825 244.784 261.96 244.721C262.095 244.659 262.242 244.62 262.392 244.608C262.542 244.596 262.693 244.61 262.835 244.65C262.979 244.685 263.113 244.743 263.229 244.823C263.345 244.904 263.441 245.003 263.512 245.117C263.582 245.23 263.626 245.356 263.64 245.486C263.653 245.615 263.637 245.747 263.593 245.873C262.878 247.8 262.093 249.735 261.272 251.674C261.211 251.866 261.088 252.04 260.918 252.176C260.748 252.313 260.538 252.405 260.313 252.442L260.288 252.226ZM5.3632 279.739C5.16168 279.762 4.9587 279.739 4.77377 279.673C4.58884 279.607 4.42825 279.5 4.30707 279.363C3.00659 277.725 1.72739 276.063 0.469643 274.378C0.389376 274.269 0.335381 274.146 0.311027 274.017C0.286673 273.888 0.292531 273.755 0.327857 273.625C0.363183 273.496 0.42732 273.374 0.516863 273.265C0.606405 273.156 0.719569 273.063 0.849477 272.991C0.978376 272.917 1.12179 272.866 1.27167 272.841C1.42155 272.815 1.57489 272.816 1.72258 272.842C1.87026 272.868 2.00938 272.92 2.13201 272.994C2.25465 273.068 2.35837 273.163 2.43699 273.273C3.64118 274.913 4.92013 276.574 6.22408 278.139C6.31227 278.246 6.37456 278.367 6.407 278.496C6.43945 278.625 6.44148 278.759 6.41306 278.89C6.38464 279.022 6.32637 279.148 6.24157 279.261C6.15677 279.374 6.04706 279.472 5.91924 279.549C5.79925 279.732 5.61186 279.875 5.38845 279.955L5.3632 279.739ZM264.677 240.624L264.285 240.67C263.987 240.607 263.734 240.445 263.579 240.218C263.424 239.991 263.38 239.717 263.456 239.455C263.9 237.998 264.304 236.514 264.637 235.038L264.974 233.593C265.035 233.334 265.212 233.102 265.465 232.95C265.718 232.797 266.027 232.736 266.325 232.779C266.475 232.797 266.618 232.842 266.746 232.909C266.875 232.977 266.985 233.066 267.072 233.172C267.158 233.278 267.219 233.399 267.25 233.527C267.281 233.656 267.283 233.789 267.254 233.92L266.917 235.365C266.555 236.906 266.151 238.39 265.714 239.909C265.675 240.161 265.534 240.396 265.315 240.571C265.097 240.746 264.816 240.848 264.524 240.861L264.677 240.624ZM267.368 228.722L267.083 228.755C266.78 228.724 266.507 228.592 266.321 228.386C266.136 228.181 266.051 227.918 266.086 227.654C266.401 225.711 266.673 223.712 266.87 221.69C266.88 221.56 266.921 221.433 266.989 221.316C267.057 221.199 267.152 221.094 267.266 221.007C267.381 220.921 267.514 220.855 267.657 220.813C267.8 220.772 267.95 220.755 268.099 220.765C268.402 220.775 268.684 220.89 268.883 221.083C269.082 221.276 269.181 221.533 269.16 221.796C268.966 223.849 268.698 225.88 268.387 227.853C268.394 227.99 268.369 228.128 268.313 228.259C268.258 228.39 268.173 228.51 268.063 228.613C267.954 228.717 267.822 228.8 267.677 228.86C267.531 228.919 267.374 228.952 267.215 228.958L267.368 228.722ZM268.561 216.682L268.382 216.703C268.081 216.699 267.797 216.593 267.592 216.406C267.388 216.22 267.279 215.968 267.29 215.706C267.358 213.616 267.412 211.611 267.453 209.691C267.451 209.56 267.479 209.43 267.537 209.308C267.594 209.186 267.679 209.075 267.786 208.981C267.893 208.886 268.02 208.811 268.16 208.76C268.3 208.708 268.45 208.682 268.6 208.682C268.751 208.676 268.902 208.696 269.042 208.741C269.183 208.786 269.31 208.855 269.418 208.944C269.526 209.033 269.612 209.14 269.671 209.259C269.729 209.379 269.76 209.508 269.76 209.639C269.745 211.671 269.691 213.676 269.604 215.716C269.643 215.864 269.639 216.019 269.595 216.168C269.551 216.316 269.467 216.455 269.35 216.572C269.233 216.69 269.087 216.782 268.923 216.843C268.759 216.903 268.583 216.929 268.408 216.919L268.561 216.682ZM268.634 204.649C268.482 204.655 268.332 204.635 268.191 204.59C268.051 204.545 267.923 204.476 267.815 204.387C267.707 204.298 267.621 204.19 267.563 204.071C267.504 203.952 267.474 203.823 267.473 203.691C267.242 201.719 267.297 199.714 267.173 197.73C267.162 197.597 267.182 197.463 267.231 197.335C267.281 197.207 267.36 197.089 267.462 196.987C267.565 196.884 267.69 196.8 267.829 196.739C267.968 196.678 268.119 196.642 268.273 196.633C268.427 196.619 268.581 196.631 268.726 196.67C268.872 196.709 269.006 196.773 269.121 196.859C269.235 196.945 269.328 197.05 269.393 197.169C269.459 197.288 269.496 197.418 269.501 197.551C269.736 199.553 269.721 201.585 269.774 203.578C269.83 203.739 269.838 203.911 269.797 204.078C269.755 204.245 269.665 204.402 269.536 204.533C269.406 204.664 269.241 204.765 269.056 204.827C268.872 204.888 268.673 204.908 268.48 204.885L268.634 204.649ZM267.915 192.646C267.763 192.664 267.61 192.655 267.465 192.619C267.32 192.583 267.186 192.522 267.071 192.439C266.957 192.356 266.863 192.252 266.798 192.135C266.732 192.018 266.696 191.89 266.69 191.758C266.456 189.756 266.225 187.784 265.994 185.812C265.963 185.55 266.054 185.285 266.246 185.076C266.439 184.866 266.717 184.728 267.019 184.692V184.692C267.17 184.679 267.321 184.691 267.464 184.728C267.607 184.765 267.739 184.827 267.852 184.909C267.966 184.992 268.059 185.093 268.126 185.208C268.194 185.323 268.233 185.449 268.244 185.58C268.475 187.551 268.709 189.554 268.944 191.557C269 191.71 269.012 191.875 268.978 192.036C268.944 192.197 268.865 192.349 268.748 192.48C268.632 192.611 268.481 192.716 268.309 192.786C268.137 192.856 267.949 192.889 267.762 192.882L267.915 192.646ZM266.729 180.666C266.429 180.702 266.128 180.637 265.888 180.485C265.649 180.333 265.488 180.105 265.44 179.849C265.22 177.969 264.989 175.997 264.391 173.975C264.34 173.712 264.41 173.439 264.586 173.215C264.762 172.99 265.031 172.831 265.334 172.771C265.637 172.726 265.945 172.781 266.197 172.925C266.448 173.069 266.624 173.292 266.69 173.549C267.15 175.619 267.495 177.64 267.769 179.67C267.799 179.931 267.708 180.196 267.516 180.406C267.324 180.616 267.046 180.754 266.743 180.789L266.729 180.666ZM264.195 168.907C263.915 168.941 263.635 168.886 263.406 168.752C263.177 168.617 263.015 168.413 262.952 168.178C262.408 166.305 261.824 164.406 261.161 162.453C261.078 162.198 261.114 161.922 261.262 161.683C261.409 161.444 261.657 161.261 261.951 161.174C262.248 161.093 262.566 161.115 262.836 161.235C263.107 161.355 263.309 161.563 263.4 161.816C264.066 163.799 264.654 165.73 265.202 167.633C265.274 167.894 265.223 168.172 265.062 168.407C264.9 168.642 264.639 168.816 264.337 168.89L264.195 168.907ZM260.356 157.425C260.091 157.459 259.825 157.41 259.605 157.287C259.384 157.164 259.225 156.974 259.156 156.754C258.437 154.933 257.675 153.054 256.877 151.18C256.771 150.927 256.786 150.645 256.919 150.395C257.053 150.145 257.293 149.948 257.588 149.847C257.879 149.756 258.196 149.766 258.471 149.873C258.747 149.981 258.96 150.178 259.066 150.424C259.867 152.329 260.629 154.207 261.356 156.09C261.44 156.34 261.408 156.612 261.268 156.85C261.127 157.087 260.889 157.272 260.602 157.365L260.356 157.425ZM255.611 146.237C255.359 146.262 255.107 146.216 254.892 146.106C254.678 145.996 254.512 145.828 254.419 145.627C253.592 143.819 252.691 141.988 251.79 140.157C251.726 140.04 251.691 139.911 251.687 139.78C251.684 139.648 251.711 139.517 251.767 139.393C251.824 139.269 251.909 139.156 252.017 139.061C252.125 138.965 252.253 138.889 252.394 138.837C252.532 138.778 252.681 138.743 252.833 138.735C252.985 138.727 253.136 138.746 253.276 138.791C253.417 138.836 253.545 138.906 253.651 138.997C253.758 139.087 253.842 139.196 253.897 139.317C254.834 141.144 255.735 142.974 256.565 144.814C256.623 144.934 256.653 145.064 256.652 145.196C256.651 145.328 256.62 145.46 256.561 145.583C256.501 145.706 256.414 145.819 256.305 145.914C256.196 146.009 256.067 146.086 255.925 146.138L255.611 146.237ZM250.104 135.326C249.86 135.358 249.614 135.323 249.4 135.224C249.187 135.125 249.018 134.969 248.919 134.778C247.95 132.986 246.949 131.229 245.912 129.477C245.84 129.362 245.796 129.235 245.781 129.104C245.767 128.973 245.783 128.84 245.829 128.712C245.875 128.585 245.949 128.466 246.047 128.362C246.146 128.258 246.266 128.171 246.402 128.107C246.68 127.983 247 127.956 247.293 128.033C247.585 128.109 247.828 128.283 247.969 128.517C249.005 130.27 250.046 132.053 251.018 133.876C251.15 134.109 251.169 134.381 251.07 134.633C250.97 134.884 250.761 135.095 250.489 135.218L250.104 135.326ZM243.805 124.757C243.576 124.782 243.347 124.749 243.144 124.662C242.941 124.574 242.774 124.437 242.663 124.266C241.555 122.522 240.415 120.813 239.246 119.169C239.162 119.059 239.105 118.935 239.08 118.803C239.055 118.671 239.063 118.535 239.102 118.404C239.141 118.273 239.211 118.15 239.307 118.042C239.404 117.934 239.524 117.844 239.662 117.778C239.788 117.705 239.929 117.655 240.076 117.63C240.223 117.605 240.374 117.606 240.519 117.633C240.664 117.66 240.8 117.712 240.919 117.786C241.039 117.86 241.139 117.955 241.213 118.064C242.425 119.765 243.565 121.475 244.712 123.245C244.785 123.358 244.831 123.482 244.847 123.612C244.864 123.741 244.851 123.873 244.808 124C244.766 124.127 244.696 124.246 244.601 124.351C244.507 124.456 244.39 124.544 244.258 124.61L243.805 124.757ZM211.852 120.472C209.534 120.744 207.148 120.742 204.837 120.763C204.684 120.77 204.531 120.749 204.389 120.702C204.248 120.655 204.12 120.582 204.014 120.489C203.908 120.396 203.826 120.284 203.773 120.16C203.721 120.037 203.699 119.904 203.709 119.771C203.711 119.639 203.744 119.508 203.805 119.385C203.866 119.262 203.954 119.151 204.064 119.057C204.174 118.962 204.304 118.887 204.446 118.836C204.588 118.785 204.74 118.758 204.892 118.758C207.131 118.745 209.467 118.628 211.725 118.457C211.878 118.443 212.032 118.456 212.178 118.495C212.324 118.534 212.458 118.598 212.572 118.684C212.687 118.769 212.78 118.875 212.845 118.993C212.911 119.112 212.947 119.242 212.953 119.375C213.005 119.534 213.011 119.703 212.97 119.867C212.93 120.031 212.844 120.186 212.72 120.317C212.597 120.448 212.44 120.553 212.262 120.621C212.084 120.689 211.891 120.719 211.699 120.709L211.852 120.472ZM218.771 119.662C218.475 119.705 218.175 119.648 217.935 119.501C217.695 119.354 217.534 119.13 217.486 118.876C217.445 118.612 217.525 118.342 217.708 118.122C217.892 117.902 218.164 117.75 218.468 117.699C220.786 117.427 223.036 116.883 225.179 116.351C225.481 116.287 225.796 116.325 226.06 116.457C226.323 116.588 226.516 116.803 226.599 117.059C226.635 117.186 226.64 117.319 226.615 117.45C226.59 117.581 226.536 117.707 226.455 117.821C226.374 117.935 226.269 118.035 226.144 118.114C226.02 118.194 225.879 118.252 225.731 118.285C223.517 118.825 221.185 119.286 218.664 119.675L218.771 119.662ZM197.982 120.566L197.732 120.596C195.388 120.438 193.061 120.158 190.765 119.756C190.465 119.706 190.203 119.555 190.035 119.335C189.868 119.115 189.808 118.845 189.869 118.581C189.902 118.451 189.965 118.328 190.053 118.218C190.142 118.108 190.254 118.013 190.383 117.94C190.513 117.867 190.657 117.816 190.807 117.791C190.957 117.766 191.111 117.766 191.259 117.793C193.482 118.179 195.735 118.447 198.004 118.596C198.156 118.608 198.303 118.646 198.435 118.707C198.568 118.769 198.684 118.854 198.777 118.957C198.87 119.059 198.938 119.178 198.976 119.305C199.014 119.432 199.023 119.566 199.001 119.698C199.008 119.834 198.983 119.971 198.927 120.1C198.87 120.23 198.785 120.348 198.674 120.449C198.564 120.55 198.432 120.631 198.286 120.686C198.14 120.742 197.983 120.771 197.825 120.772L197.982 120.566ZM232.191 116.341C231.938 116.371 231.683 116.327 231.468 116.217C231.252 116.107 231.087 115.936 230.999 115.731C230.903 115.486 230.92 115.215 231.046 114.974C231.172 114.733 231.399 114.54 231.678 114.434C232.755 114.058 233.824 113.62 234.822 113.191C233.804 111.905 232.75 110.623 231.704 109.402C231.521 109.187 231.446 108.916 231.496 108.646C231.546 108.377 231.716 108.132 231.969 107.966C232.224 107.817 232.529 107.754 232.827 107.788C233.125 107.822 233.394 107.952 233.582 108.152C234.675 109.46 235.811 110.826 236.918 112.258L237.802 111.78C238.074 111.643 238.394 111.602 238.692 111.667C238.99 111.731 239.243 111.895 239.397 112.124C239.47 112.237 239.516 112.361 239.532 112.491C239.549 112.62 239.535 112.752 239.493 112.879C239.451 113.006 239.381 113.125 239.286 113.23C239.192 113.334 239.075 113.423 238.942 113.489L237.478 114.254L237.21 114.442C237.016 114.508 236.808 114.532 236.604 114.513C235.299 115.103 233.916 115.64 232.494 116.15L232.191 116.341ZM184.504 118.147C184.331 118.199 184.149 118.221 183.969 118.21C181.71 117.515 179.579 116.556 177.634 115.36C177.399 115.195 177.249 114.955 177.218 114.69C177.187 114.426 177.277 114.157 177.468 113.943C177.564 113.835 177.682 113.745 177.817 113.676C177.952 113.608 178.1 113.564 178.253 113.546C178.406 113.528 178.561 113.537 178.708 113.572C178.855 113.607 178.991 113.668 179.109 113.75C180.902 114.826 182.85 115.699 184.908 116.351C185.049 116.393 185.177 116.461 185.285 116.548C185.393 116.636 185.478 116.743 185.536 116.862C185.594 116.98 185.623 117.109 185.621 117.24C185.62 117.37 185.588 117.5 185.527 117.621C185.45 117.838 185.291 118.029 185.077 118.161C184.863 118.294 184.606 118.362 184.347 118.353L184.504 118.147ZM244.134 109.977C243.954 109.999 243.772 109.984 243.603 109.933C243.433 109.883 243.282 109.797 243.16 109.685C242.963 109.49 242.861 109.235 242.878 108.971C242.894 108.708 243.026 108.456 243.247 108.269C244.468 107.286 245.552 106.184 246.478 104.986C246.791 104.574 247.14 104.159 247.45 103.716C247.647 103.515 247.922 103.384 248.22 103.349C248.518 103.315 248.816 103.379 249.055 103.528C249.175 103.607 249.276 103.707 249.35 103.822C249.424 103.937 249.47 104.064 249.485 104.196C249.501 104.329 249.485 104.463 249.44 104.592C249.394 104.721 249.32 104.841 249.221 104.946C248.911 105.388 248.562 105.804 248.217 106.25C247.157 107.532 245.951 108.72 244.619 109.795C244.453 109.976 244.23 110.111 243.978 110.182L244.134 109.977ZM228.559 105.085C228.37 105.11 228.179 105.094 228.002 105.039C227.825 104.983 227.668 104.89 227.546 104.767C226.024 103.196 224.514 101.718 223.021 100.393C222.821 100.194 222.718 99.934 222.733 99.6653C222.749 99.3966 222.882 99.1397 223.105 98.9467C223.217 98.8548 223.348 98.7826 223.491 98.7342C223.634 98.6858 223.786 98.6622 223.938 98.6647C224.089 98.6673 224.238 98.696 224.375 98.7492C224.511 98.8024 224.634 98.8789 224.735 98.9745C226.267 100.325 227.806 101.738 229.342 103.432C229.53 103.639 229.615 103.904 229.579 104.171C229.542 104.438 229.387 104.685 229.147 104.86C229.072 104.979 228.964 105.08 228.834 105.155C228.704 105.23 228.556 105.277 228.403 105.291L228.559 105.085ZM174.183 110.892C173.93 110.921 173.675 110.878 173.459 110.767C173.244 110.657 173.079 110.486 172.991 110.282C172.693 109.592 172.499 108.87 172.413 108.132C172.263 106.644 172.493 105.135 173.089 103.711C173.14 103.586 173.219 103.469 173.321 103.369C173.423 103.269 173.547 103.186 173.684 103.127C173.822 103.067 173.971 103.031 174.123 103.021C174.274 103.011 174.426 103.028 174.568 103.069C174.709 103.107 174.84 103.168 174.951 103.251C175.063 103.333 175.154 103.435 175.218 103.55C175.282 103.665 175.318 103.791 175.324 103.92C175.331 104.049 175.307 104.178 175.254 104.301C174.795 105.451 174.617 106.664 174.732 107.86C174.79 108.433 174.941 108.994 175.18 109.526C175.232 109.647 175.256 109.776 175.25 109.907C175.244 110.038 175.208 110.167 175.145 110.288C175.082 110.408 174.993 110.517 174.882 110.609C174.771 110.701 174.642 110.774 174.5 110.823L174.183 110.892ZM252.26 100.03C252.017 100.058 251.773 100.021 251.561 99.9242C251.427 99.8649 251.309 99.7826 251.213 99.6821C251.118 99.5816 251.047 99.4649 251.006 99.3389C250.964 99.2129 250.952 99.0801 250.971 98.9483C250.989 98.8165 251.037 98.6883 251.113 98.5712C252.245 96.8145 253.298 95.0045 254.098 93.193C254.162 93.0725 254.252 92.9633 254.364 92.8718C254.476 92.7802 254.606 92.7081 254.748 92.6595C254.89 92.611 255.041 92.5869 255.192 92.5888C255.343 92.5906 255.491 92.6184 255.628 92.6703C255.764 92.7218 255.887 92.7965 255.989 92.8903C256.091 92.984 256.17 93.0949 256.221 93.2166C256.272 93.3383 256.295 93.4684 256.287 93.5994C256.28 93.7304 256.243 93.8597 256.179 93.98C255.239 95.8391 254.154 97.684 252.994 99.5065C252.939 99.6871 252.826 99.8519 252.668 99.9812C252.51 100.11 252.314 100.199 252.103 100.235L252.26 100.03ZM219.067 96.5773C218.905 96.5957 218.741 96.5839 218.587 96.5427C218.432 96.5016 218.291 96.432 218.172 96.3386C216.486 95.0746 214.707 93.906 212.846 92.8396C212.61 92.6748 212.461 92.4346 212.43 92.17C212.399 91.9053 212.489 91.6371 212.68 91.4223C212.872 91.2148 213.148 91.0787 213.449 91.0435C213.749 91.0083 214.049 91.0769 214.284 91.2344C216.225 92.3542 218.082 93.576 219.846 94.8932C219.967 94.9722 220.067 95.0721 220.141 95.1869C220.215 95.3016 220.262 95.4289 220.277 95.5611C220.293 95.6933 220.277 95.8278 220.232 95.9566C220.186 96.0853 220.112 96.2056 220.012 96.3105C219.895 96.4692 219.729 96.5977 219.534 96.6812C219.339 96.7647 219.124 96.8 218.911 96.783L219.067 96.5773ZM177.752 99.6982C177.465 99.7298 177.178 99.6753 176.939 99.5436C176.71 99.3744 176.567 99.1348 176.536 98.8724C176.505 98.6099 176.59 98.3437 176.773 98.1263C178.168 96.4066 179.719 94.7834 181.41 93.273C181.517 93.1783 181.645 93.1023 181.785 93.0494C181.924 92.9964 182.074 92.9676 182.225 92.9644C182.375 92.9613 182.524 92.9839 182.663 93.031C182.802 93.0782 182.927 93.1489 183.033 93.2391C183.248 93.426 183.368 93.6814 183.366 93.9504C183.364 94.2195 183.239 94.4805 183.02 94.6773C181.427 96.0934 179.973 97.6222 178.675 99.2465C178.578 99.4292 178.426 99.587 178.236 99.7028C178.046 99.8187 177.824 99.8883 177.595 99.904L177.752 99.6982ZM258.009 88.9246C257.847 88.9729 257.677 88.9928 257.509 88.9831C257.366 88.943 257.235 88.8785 257.122 88.7932C257.01 88.7078 256.919 88.6035 256.855 88.4861C256.791 88.3686 256.755 88.2405 256.748 88.1092C256.742 87.9778 256.766 87.8458 256.819 87.7208C257.573 85.821 258.216 83.903 258.784 81.9624C258.859 81.7053 259.049 81.4813 259.31 81.3395C259.571 81.1976 259.883 81.1496 260.177 81.2058C260.326 81.2306 260.466 81.2809 260.59 81.3539C260.714 81.4268 260.819 81.5209 260.899 81.6307C260.979 81.7405 261.033 81.8638 261.057 81.9934C261.081 82.123 261.074 82.2563 261.038 82.3855C260.442 84.3918 259.771 86.3757 258.985 88.3105C258.936 88.539 258.795 88.7475 258.587 88.898C258.379 89.0485 258.118 89.131 257.852 89.1303L258.009 88.9246ZM207.546 90.1809C207.342 90.1965 207.14 90.1664 206.957 90.0936C204.957 89.3497 202.843 88.8411 200.671 88.5811C200.522 88.5658 200.378 88.5251 200.25 88.4612C200.121 88.3973 200.008 88.3116 199.919 88.209C199.83 88.1063 199.765 87.9887 199.729 87.8628C199.694 87.737 199.687 87.6054 199.71 87.4755C199.728 87.344 199.776 87.2162 199.853 87.1C199.93 86.9838 200.032 86.8817 200.155 86.7999C200.278 86.7182 200.417 86.6587 200.566 86.625C200.714 86.5913 200.868 86.5841 201.017 86.604C203.404 86.8807 205.728 87.4274 207.932 88.2304C208.211 88.3399 208.426 88.5419 208.53 88.7927C208.634 89.0435 208.618 89.3231 208.486 89.5709C208.429 89.7781 208.299 89.9668 208.115 90.1114C207.932 90.2559 207.703 90.3491 207.46 90.3782L207.546 90.1809ZM187.631 91.139C187.407 91.1622 187.182 91.1315 186.981 91.0504C186.781 90.9692 186.611 90.8406 186.492 90.6788C186.344 90.4558 186.304 90.188 186.383 89.9333C186.461 89.6786 186.651 89.4576 186.911 89.318C189.056 88.1574 191.405 87.3223 193.852 86.8497C194.001 86.8194 194.154 86.8148 194.302 86.836C194.451 86.8572 194.592 86.904 194.718 86.9734C194.844 87.0429 194.952 87.1338 195.035 87.2408C195.119 87.3479 195.176 87.469 195.205 87.5971C195.24 87.7251 195.244 87.8589 195.217 87.9902C195.19 88.1214 195.132 88.2473 195.046 88.3599C194.961 88.4725 194.851 88.5694 194.722 88.6445C194.593 88.7197 194.448 88.7714 194.297 88.7965C192.151 89.2383 190.088 89.9755 188.191 90.9797C188.027 91.1588 187.799 91.2849 187.545 91.3363L187.631 91.139ZM261.295 77.1707L261.01 77.2042C260.706 77.1667 260.434 77.0269 260.254 76.8145C260.074 76.6021 259.999 76.3341 260.045 76.0678C260.396 74.1215 260.632 72.1261 260.765 70.1741C260.771 70.0414 260.808 69.9103 260.874 69.7884C260.939 69.6665 261.031 69.5564 261.145 69.4645C261.259 69.3726 261.392 69.3007 261.537 69.2532C261.681 69.2057 261.834 69.1834 261.987 69.1877C262.292 69.198 262.577 69.3107 262.782 69.5023C262.986 69.6939 263.094 69.9493 263.083 70.2149C262.958 72.2286 262.693 74.2897 262.35 76.2976C262.353 76.5652 262.236 76.8268 262.023 77.0269C261.81 77.2269 261.519 77.3494 261.21 77.3681L261.295 77.1707ZM262.089 65.1155C261.935 65.1296 261.781 65.1167 261.635 65.0779C261.49 65.039 261.356 64.9748 261.241 64.8891C261.126 64.8035 261.034 64.698 260.968 64.5792C260.903 64.4604 260.866 64.3305 260.86 64.1974C260.712 62.9342 260.568 61.7018 260.42 60.4385C260.337 59.7299 260.254 59.0212 260.171 58.3126C260.151 58.1837 260.161 58.0517 260.2 57.9243C260.239 57.7969 260.306 57.6765 260.397 57.5701C260.489 57.4636 260.603 57.3732 260.734 57.3039C260.864 57.2346 261.008 57.1879 261.158 57.1664C261.309 57.1402 261.465 57.1405 261.614 57.1675C261.764 57.1945 261.905 57.2475 262.028 57.3233C262.152 57.3992 262.256 57.4964 262.333 57.6091C262.411 57.7219 262.462 57.8478 262.482 57.9795C262.568 58.7189 262.651 59.4276 262.738 60.1671C262.89 61.4611 263.041 62.7551 263.193 64.0492C263.236 64.1997 263.237 64.3581 263.196 64.5114C263.155 64.6648 263.073 64.8088 262.957 64.9319C262.841 65.055 262.695 65.1536 262.529 65.2198C262.363 65.286 262.183 65.3179 262.003 65.3129L262.089 65.1155ZM260.228 53.2461C259.949 53.2807 259.668 53.2256 259.44 53.0912C259.211 52.9568 259.049 52.7525 258.986 52.517C258.477 50.6402 257.858 48.745 257.131 46.8624C257.085 46.7386 257.068 46.6072 257.081 46.4759C257.094 46.3446 257.137 46.2158 257.207 46.0972C257.277 45.9787 257.373 45.8726 257.49 45.785C257.606 45.6975 257.741 45.6302 257.886 45.5872C258.172 45.4975 258.484 45.5083 258.754 45.617C259.024 45.7256 259.23 45.9236 259.327 46.168C260.061 48.1122 260.724 50.0648 261.24 52.0032C261.275 52.1305 261.28 52.2635 261.255 52.3943C261.231 52.5252 261.176 52.6514 261.095 52.7655C261.015 52.8796 260.909 52.9794 260.785 53.059C260.66 53.1387 260.52 53.1966 260.371 53.2294L260.228 53.2461ZM255.905 41.9463C255.698 42.0128 255.476 42.026 255.265 41.984C255.055 41.942 254.865 41.8468 254.72 41.7102C253.826 39.941 252.822 38.1534 251.753 36.4358C251.68 36.3234 251.634 36.1988 251.618 36.0693C251.601 35.9397 251.614 35.8078 251.657 35.681C251.699 35.5542 251.769 35.435 251.864 35.3303C251.958 35.2256 252.075 35.1374 252.207 35.0708C252.486 34.9431 252.806 34.9108 253.103 34.9805C253.4 35.0502 253.652 35.2166 253.806 35.4457C254.914 37.19 255.926 39.0391 256.859 40.8351C256.978 41.082 256.978 41.3633 256.859 41.6172C256.739 41.8711 256.511 42.077 256.222 42.1902L255.905 41.9463ZM249.335 31.5343C249.129 31.5604 248.92 31.5361 248.733 31.4642C248.546 31.3923 248.387 31.2756 248.275 31.1274C247.035 29.4923 245.696 27.9314 244.288 26.4096C244.103 26.1988 244.023 25.9305 244.066 25.6625C244.109 25.3945 244.272 25.1483 244.518 24.9772C244.637 24.891 244.775 24.8262 244.922 24.7871C245.069 24.748 245.223 24.7354 245.373 24.7499C245.524 24.7645 245.669 24.806 245.799 24.8718C245.928 24.9376 246.04 25.0262 246.127 25.1323C247.574 26.6807 248.921 28.3033 250.307 29.9525C250.473 30.1738 250.53 30.4458 250.467 30.7101C250.403 30.9745 250.223 31.2102 249.966 31.3667L249.335 31.5343ZM240.841 22.2846C240.667 22.2991 240.492 22.2801 240.33 22.2289C240.168 22.1777 240.022 22.0956 239.903 21.9884C238.363 20.5758 236.724 19.2373 235.054 17.9338C234.818 17.769 234.669 17.5288 234.638 17.2642C234.607 16.9995 234.696 16.7313 234.888 16.5165C234.983 16.409 235.101 16.3185 235.236 16.2503C235.371 16.1822 235.52 16.138 235.673 16.12C235.826 16.1021 235.98 16.1109 236.127 16.146C236.274 16.1811 236.41 16.2418 236.528 16.3244C238.238 17.6545 239.884 19.0546 241.463 20.4939C241.675 20.685 241.789 20.9436 241.78 21.2136C241.771 21.4836 241.64 21.7433 241.415 21.9363C241.275 22.1785 241.041 22.372 240.756 22.482L240.841 22.2846ZM230.665 14.4186C230.52 14.4363 230.373 14.429 230.233 14.3972C230.093 14.3654 229.962 14.3096 229.848 14.2332C228.049 13.0696 226.182 11.9453 224.291 10.9175C224.164 10.8504 224.055 10.7617 223.969 10.6567C223.883 10.5517 223.823 10.4324 223.791 10.3056C223.76 10.1788 223.757 10.0469 223.785 9.91762C223.812 9.7883 223.868 9.66399 223.95 9.55189C224.032 9.43972 224.138 9.34193 224.262 9.26403C224.386 9.18613 224.525 9.12965 224.673 9.09789C224.82 9.06613 224.972 9.05969 225.12 9.07891C225.269 9.09813 225.41 9.14265 225.537 9.20992C227.503 10.2602 229.409 11.4111 231.283 12.5972C231.519 12.7619 231.668 13.0022 231.699 13.2668C231.73 13.5315 231.641 13.7997 231.449 14.0145C231.36 14.1612 231.236 14.2908 231.086 14.3945C230.937 14.4983 230.764 14.5738 230.58 14.6161L230.665 14.4186ZM219.087 8.15383C218.861 8.17218 218.635 8.14514 218.427 8.07491C216.407 7.18708 214.358 6.36505 212.289 5.67044C212.147 5.6249 212.017 5.55483 211.909 5.46426C211.8 5.3737 211.714 5.2645 211.656 5.14318C211.598 5.02186 211.569 4.89084 211.571 4.75788C211.573 4.62492 211.605 4.49269 211.666 4.36906C211.79 4.12189 212.018 3.92281 212.302 3.81379C212.586 3.70476 212.904 3.69431 213.189 3.78474C215.337 4.53262 217.456 5.34629 219.505 6.16832C219.641 6.22488 219.763 6.30501 219.861 6.40397C219.96 6.50293 220.034 6.61874 220.079 6.7445C220.124 6.87026 220.139 7.00344 220.123 7.13617C220.108 7.26889 220.062 7.39849 219.988 7.51725C219.957 7.74129 219.84 7.95221 219.656 8.1156C219.471 8.27899 219.231 8.38521 218.973 8.41699L219.087 8.15383ZM206.323 3.808L205.895 3.85812C203.719 3.30481 201.506 2.85501 199.266 2.51062C198.971 2.45319 198.717 2.29846 198.557 2.07871C198.396 1.85895 198.342 1.59109 198.405 1.33089C198.474 1.06816 198.657 0.835633 198.916 0.682778C199.175 0.529923 199.489 0.468853 199.791 0.512655C202.043 0.904913 204.336 1.35466 206.57 1.90515C206.864 1.98031 207.109 2.15376 207.252 2.38825C207.394 2.62274 207.423 2.8995 207.331 3.15897C207.284 3.38982 207.144 3.60147 206.938 3.75696C206.731 3.91244 206.471 4.00183 206.202 4.00957L206.323 3.808Z" fill="url(#paint0_linear_2_3204)" fill-opacity="0.8"/>
<defs>
<linearGradient id="paint0_linear_2_3204" x1="113.202" y1="10.6079" x2="150.728" y2="331.022" gradientUnits="userSpaceOnUse">
<stop stop-color="#E73737"/>
<stop offset="1" stop-color="#C0242A"/>
</linearGradient>
</defs>
</svg>
